<svg width="18" height="16" viewBox="0 0 18 16" fill="none" xmlns="http://www.w3.org/2000/svg">
<path d="M13.207 4.49146C13.0719 6.31319 11.6908 7.79932 10.1747 7.79932C8.65864 7.79932 7.27519 6.31354 7.14253 4.49146C7.0047 2.59633 8.34852 1.18359 10.1747 1.18359C12.001 1.18359 13.3448 2.63078 13.207 4.49146Z" stroke="#10B981" stroke-width="1.5" stroke-linecap="round" stroke-linejoin="round"/>
<path d="M10.1786 9.45312C7.18085 9.45312 4.13831 11.1071 3.57528 14.2289C3.50637 14.6051 3.72035 14.9662 4.11453 14.9662H16.243C16.6372 14.9662 16.8502 14.6051 16.7823 14.2289C16.2189 11.1071 13.1764 9.45312 10.1786 9.45312Z" stroke="#10B981" stroke-width="1.5" stroke-miterlimit="10"/>
<path d="M5.21464 7.52334H1.35547M3.28506 5.59375V9.45292V5.59375Z" stroke="#10B981" stroke-width="1.5" stroke-linecap="round" stroke-linejoin="round"/>
</svg>
