<svg width="12" height="11" viewBox="0 0 12 11" fill="none" xmlns="http://www.w3.org/2000/svg">
<g clip-path="url(#clip0_5234_31449)">
<path d="M3.84375 2.42188H1M2.42188 1V3.84375V1Z" stroke="#828282" stroke-width="0.975" stroke-linecap="round" stroke-linejoin="round"/>
<path d="M9.31967 3.4375C9.22014 4.7799 8.20248 5.875 7.08529 5.875C5.9681 5.875 4.94867 4.78016 4.85091 3.4375C4.74935 2.04102 5.73959 1 7.08529 1C8.431 1 9.42123 2.06641 9.31967 3.4375Z" stroke="#828282" stroke-width="0.975" stroke-linecap="round" stroke-linejoin="round"/>
<path d="M5.87528 5.875C3.6663 5.875 1.4243 7.09375 1.00942 9.39414C0.958638 9.67141 1.11631 9.9375 1.40678 9.9375H10.344C10.6345 9.9375 10.7914 9.67141 10.7414 9.39414C10.3263 7.09375 8.08427 5.875 5.87528 5.875Z" stroke="#828282" stroke-width="0.975" stroke-miterlimit="10"/>
</g>
<defs>
<clipPath id="clip0_5234_31449">
<rect width="11.7506" height="10.9375" fill="white"/>
</clipPath>
</defs>
</svg>
