<svg width="20" height="20" viewBox="0 0 20 20" fill="none" xmlns="http://www.w3.org/2000/svg">
<path fill-rule="evenodd" clip-rule="evenodd" d="M4.5 4H15.5C15.6326 4 15.7598 4.05268 15.8536 4.14645C15.9473 4.24021 16 4.36739 16 4.5V6H4V4.5C4 4.36739 4.05268 4.24021 4.14645 4.14645C4.24021 4.05268 4.36739 4 4.5 4ZM4 7.5V15.5C4 15.6326 4.05268 15.7598 4.14645 15.8536C4.24021 15.9473 4.36739 16 4.5 16H15.5C15.6326 16 15.7598 15.9473 15.8536 15.8536C15.9473 15.7598 16 15.6326 16 15.5V7.5H4ZM2.5 4.5C2.5 3.96957 2.71071 3.46086 3.08579 3.08579C3.46086 2.71071 3.96957 2.5 4.5 2.5H15.5C16.0304 2.5 16.5391 2.71071 16.9142 3.08579C17.2893 3.46086 17.5 3.96957 17.5 4.5V15.5C17.5 16.0304 17.2893 16.5391 16.9142 16.9142C16.5391 17.2893 16.0304 17.5 15.5 17.5H4.5C3.96957 17.5 3.46086 17.2893 3.08579 16.9142C2.71071 16.5391 2.5 16.0304 2.5 15.5V4.5ZM14 9.25C14 9.44891 13.921 9.63968 13.7803 9.78033C13.6397 9.92098 13.4489 10 13.25 10C13.0511 10 12.8603 9.92098 12.7197 9.78033C12.579 9.63968 12.5 9.44891 12.5 9.25C12.5 9.05109 12.579 8.86032 12.7197 8.71967C12.8603 8.57902 13.0511 8.5 13.25 8.5C13.4489 8.5 13.6397 8.57902 13.7803 8.71967C13.921 8.86032 14 9.05109 14 9.25ZM6.75 15C6.94891 15 7.13968 14.921 7.28033 14.7803C7.42098 14.6397 7.5 14.4489 7.5 14.25C7.5 14.0511 7.42098 13.8603 7.28033 13.7197C7.13968 13.579 6.94891 13.5 6.75 13.5C6.55109 13.5 6.36032 13.579 6.21967 13.7197C6.07902 13.8603 6 14.0511 6 14.25C6 14.4489 6.07902 14.6397 6.21967 14.7803C6.36032 14.921 6.55109 15 6.75 15ZM7.5 11.75C7.5 11.9489 7.42098 12.1397 7.28033 12.2803C7.13968 12.421 6.94891 12.5 6.75 12.5C6.55109 12.5 6.36032 12.421 6.21967 12.2803C6.07902 12.1397 6 11.9489 6 11.75C6 11.5511 6.07902 11.3603 6.21967 11.2197C6.36032 11.079 6.55109 11 6.75 11C6.94891 11 7.13968 11.079 7.28033 11.2197C7.42098 11.3603 7.5 11.5511 7.5 11.75ZM13.25 15C13.4489 15 13.6397 14.921 13.7803 14.7803C13.921 14.6397 14 14.4489 14 14.25C14 14.0511 13.921 13.8603 13.7803 13.7197C13.6397 13.579 13.4489 13.5 13.25 13.5C13.0511 13.5 12.8603 13.579 12.7197 13.7197C12.579 13.8603 12.5 14.0511 12.5 14.25C12.5 14.4489 12.579 14.6397 12.7197 14.7803C12.8603 14.921 13.0511 15 13.25 15ZM14 11.75C14 11.9489 13.921 12.1397 13.7803 12.2803C13.6397 12.421 13.4489 12.5 13.25 12.5C13.0511 12.5 12.8603 12.421 12.7197 12.2803C12.579 12.1397 12.5 11.9489 12.5 11.75C12.5 11.5511 12.579 11.3603 12.7197 11.2197C12.8603 11.079 13.0511 11 13.25 11C13.4489 11 13.6397 11.079 13.7803 11.2197C13.921 11.3603 14 11.5511 14 11.75ZM10 15C10.1989 15 10.3897 14.921 10.5303 14.7803C10.671 14.6397 10.75 14.4489 10.75 14.25C10.75 14.0511 10.671 13.8603 10.5303 13.7197C10.3897 13.579 10.1989 13.5 10 13.5C9.80109 13.5 9.61032 13.579 9.46967 13.7197C9.32902 13.8603 9.25 14.0511 9.25 14.25C9.25 14.4489 9.32902 14.6397 9.46967 14.7803C9.61032 14.921 9.80109 15 10 15ZM10.75 11.75C10.75 11.9489 10.671 12.1397 10.5303 12.2803C10.3897 12.421 10.1989 12.5 10 12.5C9.80109 12.5 9.61032 12.421 9.46967 12.2803C9.32902 12.1397 9.25 11.9489 9.25 11.75C9.25 11.5511 9.32902 11.3603 9.46967 11.2197C9.61032 11.079 9.80109 11 10 11C10.1989 11 10.3897 11.079 10.5303 11.2197C10.671 11.3603 10.75 11.5511 10.75 11.75ZM10 10C10.1989 10 10.3897 9.92098 10.5303 9.78033C10.671 9.63968 10.75 9.44891 10.75 9.25C10.75 9.05109 10.671 8.86032 10.5303 8.71967C10.3897 8.57902 10.1989 8.5 10 8.5C9.80109 8.5 9.61032 8.57902 9.46967 8.71967C9.32902 8.86032 9.25 9.05109 9.25 9.25C9.25 9.44891 9.32902 9.63968 9.46967 9.78033C9.61032 9.92098 9.80109 10 10 10Z" fill="#991B1B"/>
</svg>
