<svg width="17" height="16" viewBox="0 0 17 16" fill="none" xmlns="http://www.w3.org/2000/svg">
<path d="M8.375 15.0752C9.75947 15.0752 11.1128 14.6647 12.264 13.8955C13.4151 13.1263 14.3123 12.0331 14.8422 10.754C15.372 9.4749 15.5106 8.06743 15.2405 6.70956C14.9704 5.3517 14.3037 4.10442 13.3247 3.12545C12.3458 2.14648 11.0985 1.4798 9.74063 1.2097C8.38276 0.939605 6.9753 1.07823 5.69621 1.60804C4.41713 2.13785 3.32388 3.03506 2.55471 4.18621C1.78554 5.33735 1.375 6.69073 1.375 8.0752C1.375 9.23253 1.655 10.3238 2.15278 11.2851L1.375 15.0752L5.16511 14.2974C6.12644 14.7952 7.21844 15.0752 8.375 15.0752Z" stroke="#10B981" stroke-width="1.55556" stroke-linecap="round" stroke-linejoin="round"/>
</svg>
