<svg width="29" height="30" viewBox="0 0 29 30" fill="none" xmlns="http://www.w3.org/2000/svg">
<path d="M0 14.9179C0 6.67874 6.47002 6.47505e-06 14.4517 6.47505e-06C16.5219 -0.00198648 18.5683 0.456102 20.4518 1.34314C22.3352 2.23018 24.0116 3.52537 25.3671 5.14071L28.9034 1.49179V10.4425H20.2324L23.3178 7.25755C21.5729 5.10539 19.1492 3.65681 16.4723 3.16633C13.7954 2.67584 11.0367 3.17484 8.68092 4.57564C6.32511 5.97644 4.52288 8.18942 3.59089 10.8258C2.6589 13.4621 2.65676 16.3532 3.58486 18.991C4.51296 21.6288 6.31193 23.8447 8.66567 25.2492C11.0194 26.6537 13.7774 27.157 16.4549 26.6707C19.1325 26.1844 21.5585 24.7397 23.3065 22.5903C25.0545 20.4408 26.0128 17.7243 26.013 14.9179H28.9034C28.9034 23.157 22.4334 29.8357 14.4517 29.8357C6.47002 29.8357 0 23.157 0 14.9179Z" fill="white"/>
<path d="M12.4847 14.9946L11.0861 14.6523L11.6616 9.32031H17.3796V10.8063H13.1184L12.827 13.4067C12.9921 13.3096 13.2204 13.2149 13.5117 13.1226C13.8031 13.0255 14.1357 12.9769 14.5097 12.9769C15.0098 12.9769 15.4566 13.0595 15.8499 13.2246C16.2481 13.3849 16.5856 13.6204 16.8624 13.9312C17.1392 14.2371 17.3505 14.611 17.4962 15.0529C17.6418 15.49 17.7147 15.9829 17.7147 16.5316C17.7147 17.0221 17.6418 17.481 17.4962 17.9083C17.3553 18.3356 17.1417 18.712 16.8551 19.0373C16.5686 19.3627 16.2069 19.6176 15.7698 19.8022C15.3376 19.9818 14.8253 20.0717 14.2329 20.0717C13.791 20.0717 13.3661 20.0085 12.9581 19.8823C12.5551 19.7512 12.1933 19.5594 11.8728 19.3068C11.5523 19.0495 11.2949 18.7338 11.1007 18.3599C10.9065 17.9811 10.7948 17.5465 10.7656 17.056H12.4847C12.5284 17.4008 12.6231 17.6946 12.7688 17.9374C12.9193 18.1754 13.1184 18.3575 13.3661 18.4837C13.6137 18.61 13.9002 18.6731 14.2256 18.6731C14.5218 18.6731 14.7767 18.6221 14.9904 18.5202C15.2041 18.4133 15.3813 18.2628 15.5222 18.0685C15.6678 17.8694 15.7747 17.6363 15.8427 17.3693C15.9155 17.1022 15.9519 16.806 15.9519 16.4806C15.9519 16.1698 15.9106 15.8857 15.8281 15.6284C15.7504 15.371 15.6314 15.1476 15.4712 14.9582C15.3158 14.7688 15.1191 14.6232 14.8812 14.5212C14.6432 14.4143 14.3688 14.3609 14.058 14.3609C13.6404 14.3609 13.3199 14.4216 13.0965 14.543C12.878 14.6644 12.6741 14.815 12.4847 14.9946Z" fill="white"/>
</svg>
