<svg width="31" height="36" viewBox="0 0 31 36" fill="none" xmlns="http://www.w3.org/2000/svg">
<g clip-path="url(#clip0_5234_35489)">
<path fill-rule="evenodd" clip-rule="evenodd" d="M0 0.855C0 0.382797 0.37672 0 0.841429 0H17.7143L31 13.5V35.145C31 35.6172 30.6233 36 30.1586 36H0.841429C0.376721 36 0 35.6172 0 35.145V0.855Z" fill="#797979"/>
<path d="M17.1484 29.0872V28.3643L19.2778 25H19.8806V26.0291H19.513L18.0796 28.3006V28.3398H21.0518V29.0872H17.1484ZM19.5424 30.0183V28.8666L19.5522 28.5432V25H20.4098V30.0183H19.5424Z" fill="white"/>
<path d="M13.0781 31.4273V26.2521H13.9504V26.8745H14.0019C14.0476 26.783 14.1122 26.6858 14.1955 26.5829C14.2788 26.4784 14.3915 26.3894 14.5336 26.3158C14.6758 26.2407 14.8571 26.2031 15.0776 26.2031C15.3684 26.2031 15.6306 26.2775 15.8642 26.4261C16.0994 26.5731 16.2856 26.7912 16.4228 27.0803C16.5617 27.3679 16.6311 27.7207 16.6311 28.1389C16.6311 28.5522 16.5633 28.9034 16.4277 29.1925C16.2922 29.4817 16.1076 29.7022 15.874 29.8541C15.6404 30.0061 15.3757 30.082 15.0801 30.082C14.8644 30.082 14.6856 30.0461 14.5434 29.9742C14.4013 29.9023 14.287 29.8157 14.2004 29.7145C14.1154 29.6116 14.0493 29.5144 14.0019 29.4229H13.9651V31.4273H13.0781ZM13.948 28.134C13.948 28.3774 13.9823 28.5906 14.0509 28.7735C14.1212 28.9565 14.2216 29.0994 14.3523 29.2023C14.4846 29.3036 14.6447 29.3543 14.8326 29.3543C15.0286 29.3543 15.1928 29.302 15.3251 29.1974C15.4574 29.0913 15.5571 28.9467 15.624 28.7637C15.6926 28.5791 15.7269 28.3692 15.7269 28.134C15.7269 27.9004 15.6935 27.6929 15.6265 27.5116C15.5595 27.3303 15.4599 27.1882 15.3275 27.0852C15.1952 26.9823 15.0302 26.9309 14.8326 26.9309C14.6431 26.9309 14.4822 26.9807 14.3499 27.0803C14.2175 27.18 14.1171 27.3197 14.0485 27.4994C13.9815 27.679 13.948 27.8906 13.948 28.134Z" fill="white"/>
<path d="M7 25H8.11246L9.60227 28.6363H9.66107L11.1509 25H12.2633V30.0183H11.391V26.5707H11.3445L9.95757 30.0036H9.30577L7.91888 26.5633H7.87232V30.0183H7V25Z" fill="white"/>
<path fill-rule="evenodd" clip-rule="evenodd" d="M17.7109 0L30.9967 13.5H18.5524C18.0876 13.5 17.7109 13.1172 17.7109 12.645V0Z" fill="#AAAAAA"/>
</g>
<defs>
<clipPath id="clip0_5234_35489">
<rect width="31" height="36" rx="5" fill="white"/>
</clipPath>
</defs>
</svg>
