<svg width="31" height="36" viewBox="0 0 31 36" fill="none" xmlns="http://www.w3.org/2000/svg">
<g clip-path="url(#clip0_5234_35464)">
<path fill-rule="evenodd" clip-rule="evenodd" d="M0 0.855C0 0.382797 0.37672 0 0.841429 0H17.7143L31 13.5V35.145C31 35.6172 30.6233 36 30.1586 36H0.841429C0.376721 36 0 35.6172 0 35.145V0.855Z" fill="#F85640"/>
<path d="M10.6333 26.1627C10.6333 26.4987 10.5536 26.8137 10.3942 27.1078C10.2406 27.4018 9.99559 27.6387 9.65902 27.8187C9.32829 27.9987 8.90908 28.0888 8.40129 28.0888H7.365V30.5008H6.125V24.2188H8.40129C8.87959 24.2188 9.28702 24.3027 9.62359 24.4708C9.96016 24.6388 10.2111 24.8697 10.3764 25.1638C10.5477 25.4578 10.6333 25.7908 10.6333 26.1627ZM8.34814 27.0717C8.69062 27.0717 8.94451 26.9937 9.10987 26.8377C9.27515 26.6757 9.35787 26.4507 9.35787 26.1627C9.35787 25.5507 9.0213 25.2448 8.34814 25.2448H7.365V27.0717H8.34814ZM14.1177 24.2188C14.7672 24.2188 15.337 24.3477 15.8271 24.6058C16.3231 24.8638 16.704 25.2328 16.9697 25.7127C17.2413 26.1868 17.3771 26.7387 17.3771 27.3687C17.3771 27.9987 17.2413 28.5507 16.9697 29.0248C16.704 29.4928 16.3231 29.8557 15.8271 30.1138C15.337 30.3718 14.7672 30.5008 14.1177 30.5008H11.9566V24.2188H14.1177ZM14.0734 29.4297C14.7229 29.4297 15.2248 29.2497 15.5791 28.8898C15.9334 28.5298 16.1106 28.0228 16.1106 27.3687C16.1106 26.7147 15.9334 26.2048 15.5791 25.8388C15.2248 25.4668 14.7229 25.2808 14.0734 25.2808H13.1966V29.4297H14.0734ZM22.5656 24.2188V25.2358H19.9881V26.8467H21.9633V27.8458H19.9881V30.5008H18.7481V24.2188H22.5656Z" fill="white"/>
<path fill-rule="evenodd" clip-rule="evenodd" d="M17.7109 0L30.9967 13.5H18.5524C18.0876 13.5 17.7109 13.1172 17.7109 12.645V0Z" fill="#D13F2B"/>
</g>
<defs>
<clipPath id="clip0_5234_35464">
<rect width="31" height="36" rx="5" fill="white"/>
</clipPath>
</defs>
</svg>
