<svg width="29" height="30" viewBox="0 0 29 30" fill="none" xmlns="http://www.w3.org/2000/svg">
<path d="M28.9062 14.9179C28.9062 6.67874 22.4362 6.47505e-06 14.4546 6.47505e-06C12.3843 -0.00198648 10.3379 0.456102 8.45447 1.34314C6.571 2.23018 4.8946 3.52537 3.5392 5.14071L0.00286865 1.49179V10.4425H8.67388L5.58845 7.25755C7.33331 5.10539 9.75709 3.65681 12.434 3.16633C15.1108 2.67584 17.8695 3.17484 20.2253 4.57564C22.5811 5.97644 24.3834 8.18942 25.3154 10.8258C26.2474 13.4621 26.2495 16.3532 25.3214 18.991C24.3933 21.6288 22.5943 23.8447 20.2406 25.2492C17.8868 26.6537 15.1289 27.157 12.4513 26.6707C9.77372 26.1844 7.34779 24.7397 5.59976 22.5903C3.85173 20.4408 2.89342 17.7243 2.89321 14.9179H0.00286865C0.00286865 23.157 6.47289 29.8357 14.4546 29.8357C22.4362 29.8357 28.9062 23.157 28.9062 14.9179Z" fill="white"/>
<path d="M13.8438 15L12.3438 14.6328L12.9609 8.91406H19.0938V10.5078H14.5234L14.2109 13.2969C14.388 13.1927 14.6328 13.0911 14.9453 12.9922C15.2578 12.888 15.6146 12.8359 16.0156 12.8359C16.5521 12.8359 17.0312 12.9245 17.4531 13.1016C17.8802 13.2734 18.2422 13.526 18.5391 13.8594C18.8359 14.1875 19.0625 14.5885 19.2188 15.0625C19.375 15.5312 19.4531 16.0599 19.4531 16.6484C19.4531 17.1745 19.375 17.6667 19.2188 18.125C19.0677 18.5833 18.8385 18.987 18.5312 19.3359C18.224 19.6849 17.8359 19.9583 17.3672 20.1562C16.9036 20.349 16.3542 20.4453 15.7188 20.4453C15.2448 20.4453 14.7891 20.3776 14.3516 20.2422C13.9193 20.1016 13.5312 19.8958 13.1875 19.625C12.8438 19.349 12.5677 19.0104 12.3594 18.6094C12.151 18.2031 12.0312 17.737 12 17.2109H13.8438C13.8906 17.5807 13.9922 17.8958 14.1484 18.1562C14.3099 18.4115 14.5234 18.6068 14.7891 18.7422C15.0547 18.8776 15.362 18.9453 15.7109 18.9453C16.0286 18.9453 16.3021 18.8906 16.5312 18.7812C16.7604 18.6667 16.9505 18.5052 17.1016 18.2969C17.2578 18.0833 17.3724 17.8333 17.4453 17.5469C17.5234 17.2604 17.5625 16.9427 17.5625 16.5938C17.5625 16.2604 17.5182 15.9557 17.4297 15.6797C17.3464 15.4036 17.2188 15.1641 17.0469 14.9609C16.8802 14.7578 16.6693 14.6016 16.4141 14.4922C16.1589 14.3776 15.8646 14.3203 15.5312 14.3203C15.0833 14.3203 14.7396 14.3854 14.5 14.5156C14.2656 14.6458 14.0469 14.8073 13.8438 15Z" fill="white"/>
</svg>
