<svg width="15" height="17" viewBox="0 0 15 17" fill="none" xmlns="http://www.w3.org/2000/svg">
<path d="M3.29167 5.21703C3.29167 5.06548 3.35312 4.92014 3.46252 4.81298C3.57192 4.70581 3.72029 4.64561 3.875 4.64561H8.54167C8.63381 4.64551 8.72466 4.66679 8.80679 4.70771C8.88892 4.74863 8.95999 4.80803 9.01417 4.88104C8.49967 5.07875 8.04583 5.39189 7.683 5.78846H3.875C3.72029 5.78846 3.57192 5.72826 3.46252 5.62109C3.35312 5.51393 3.29167 5.36859 3.29167 5.21703ZM6.79167 8.07415H3.875C3.72029 8.07415 3.57192 8.13436 3.46252 8.24152C3.35312 8.34868 3.29167 8.49403 3.29167 8.64558C3.29167 8.79713 3.35312 8.94247 3.46252 9.04964C3.57192 9.1568 3.72029 9.217 3.875 9.217H6.99C6.86167 8.85929 6.79167 8.47415 6.79167 8.07415ZM5.51767 14.9312H2.125C1.97029 14.9312 1.82192 14.871 1.71252 14.7639C1.60312 14.6567 1.54167 14.5114 1.54167 14.3598V2.93134C1.54167 2.77979 1.60312 2.63444 1.71252 2.52728C1.82192 2.42012 1.97029 2.35991 2.125 2.35991H10.2917C10.4464 2.35991 10.5947 2.42012 10.7041 2.52728C10.8135 2.63444 10.875 2.77979 10.875 2.93134V4.69247C11.2938 4.76104 11.687 4.90389 12.0417 5.10389V2.93134C12.0417 2.47669 11.8573 2.04065 11.5291 1.71917C11.2009 1.39768 10.7558 1.21707 10.2917 1.21707V0.645643C10.2917 0.494092 10.2302 0.348748 10.1208 0.241585C10.0114 0.134422 9.86304 0.0742188 9.70833 0.0742188C9.55362 0.0742188 9.40525 0.134422 9.29585 0.241585C9.18646 0.348748 9.125 0.494092 9.125 0.645643V1.21707H6.79167V0.645643C6.79167 0.494092 6.73021 0.348748 6.62081 0.241585C6.51142 0.134422 6.36304 0.0742188 6.20833 0.0742188C6.05362 0.0742188 5.90525 0.134422 5.79585 0.241585C5.68646 0.348748 5.625 0.494092 5.625 0.645643V1.21707H3.29167V0.645643C3.29167 0.494092 3.23021 0.348748 3.12081 0.241585C3.01142 0.134422 2.86304 0.0742188 2.70833 0.0742188C2.55362 0.0742188 2.40525 0.134422 2.29585 0.241585C2.18646 0.348748 2.125 0.494092 2.125 0.645643V1.21707C1.66087 1.21707 1.21575 1.39768 0.887563 1.71917C0.559375 2.04065 0.375 2.47669 0.375 2.93134V14.3598C0.375 14.8145 0.559375 15.2505 0.887563 15.572C1.21575 15.8935 1.66087 16.0741 2.125 16.0741H6.30867C6.35456 16.0741 6.40044 16.0722 6.44633 16.0684C6.06836 15.7482 5.75358 15.3628 5.51767 14.9312ZM7.62 15.4992C7.19199 15.248 6.83727 14.893 6.59001 14.4684C6.34276 14.0438 6.21131 13.564 6.20833 13.0753C6.20833 12.3061 6.82783 11.6764 7.62 11.609C7.66511 11.6052 7.711 11.6033 7.75767 11.6033H12.8257C13.6808 11.6033 14.375 12.2627 14.375 13.0753C14.375 14.3884 13.4335 15.5335 12.0907 15.8524L11.9938 15.8752C10.8752 16.1405 9.70812 16.1405 8.5895 15.8752L8.49267 15.8524C8.18474 15.78 7.89029 15.6609 7.62 15.4992ZM12.0417 9.58614C11.7282 9.93436 11.3139 10.1808 10.8539 10.2927C10.3939 10.4045 9.90999 10.3765 9.46664 10.2123C9.0233 10.0482 8.6415 9.75565 8.37205 9.37369C8.10261 8.99173 7.9583 8.53844 7.95833 8.07415C7.95836 7.70433 8.04999 7.34004 8.22536 7.01254C8.40073 6.68504 8.6546 6.40412 8.96519 6.19388C9.27578 5.98364 9.63381 5.85036 10.0086 5.80549C10.3833 5.76062 10.7635 5.80549 11.1167 5.93625C11.4698 6.06701 11.7853 6.27976 12.0361 6.55624C12.2868 6.83271 12.4653 7.16466 12.5563 7.52359C12.6472 7.88251 12.6479 8.2577 12.5583 8.61695C12.4687 8.9762 12.2914 9.30878 12.0417 9.58614ZM3.29167 12.0741C3.29167 11.9226 3.35312 11.7772 3.46252 11.6701C3.57192 11.5629 3.72029 11.5027 3.875 11.5027H4.45833C4.61304 11.5027 4.76142 11.5629 4.87081 11.6701C4.98021 11.7772 5.04167 11.9226 5.04167 12.0741C5.04167 12.2257 4.98021 12.371 4.87081 12.4782C4.76142 12.5853 4.61304 12.6455 4.45833 12.6455H3.875C3.72029 12.6455 3.57192 12.5853 3.46252 12.4782C3.35312 12.371 3.29167 12.2257 3.29167 12.0741Z" fill="#2EC291"/>
</svg>
