<svg width="15" height="17" viewBox="0 0 15 17" fill="none" xmlns="http://www.w3.org/2000/svg">
<path d="M3.29167 5.21801C3.29167 5.06646 3.35312 4.92112 3.46252 4.81395C3.57192 4.70679 3.72029 4.64659 3.875 4.64659H8.54167C8.63381 4.64648 8.72466 4.66777 8.80679 4.70869C8.88892 4.74961 8.95999 4.80901 9.01417 4.88201C8.49967 5.07973 8.04583 5.39287 7.683 5.78944H3.875C3.72029 5.78944 3.57192 5.72923 3.46252 5.62207C3.35312 5.51491 3.29167 5.36956 3.29167 5.21801ZM6.79167 8.07513H3.875C3.72029 8.07513 3.57192 8.13533 3.46252 8.2425C3.35312 8.34966 3.29167 8.495 3.29167 8.64655C3.29167 8.79811 3.35312 8.94345 3.46252 9.05061C3.57192 9.15778 3.72029 9.21798 3.875 9.21798H6.99C6.86167 8.86027 6.79167 8.47513 6.79167 8.07513ZM5.51767 14.9322H2.125C1.97029 14.9322 1.82192 14.872 1.71252 14.7649C1.60312 14.6577 1.54167 14.5123 1.54167 14.3608V2.93232C1.54167 2.78076 1.60312 2.63542 1.71252 2.52826C1.82192 2.42109 1.97029 2.36089 2.125 2.36089H10.2917C10.4464 2.36089 10.5947 2.42109 10.7041 2.52826C10.8135 2.63542 10.875 2.78076 10.875 2.93232V4.69344C11.2938 4.76201 11.687 4.90487 12.0417 5.10487V2.93232C12.0417 2.47766 11.8573 2.04163 11.5291 1.72014C11.2009 1.39865 10.7558 1.21804 10.2917 1.21804V0.646619C10.2917 0.495068 10.2302 0.349724 10.1208 0.242562C10.0114 0.135399 9.86304 0.0751953 9.70833 0.0751953C9.55362 0.0751953 9.40525 0.135399 9.29585 0.242562C9.18646 0.349724 9.125 0.495068 9.125 0.646619V1.21804H6.79167V0.646619C6.79167 0.495068 6.73021 0.349724 6.62081 0.242562C6.51142 0.135399 6.36304 0.0751953 6.20833 0.0751953C6.05362 0.0751953 5.90525 0.135399 5.79585 0.242562C5.68646 0.349724 5.625 0.495068 5.625 0.646619V1.21804H3.29167V0.646619C3.29167 0.495068 3.23021 0.349724 3.12081 0.242562C3.01142 0.135399 2.86304 0.0751953 2.70833 0.0751953C2.55362 0.0751953 2.40525 0.135399 2.29585 0.242562C2.18646 0.349724 2.125 0.495068 2.125 0.646619V1.21804C1.66087 1.21804 1.21575 1.39865 0.887563 1.72014C0.559375 2.04163 0.375 2.47766 0.375 2.93232V14.3608C0.375 14.8154 0.559375 15.2515 0.887563 15.573C1.21575 15.8945 1.66087 16.0751 2.125 16.0751H6.30867C6.35456 16.0751 6.40044 16.0732 6.44633 16.0694C6.06836 15.7492 5.75358 15.3637 5.51767 14.9322ZM7.62 15.5002C7.19199 15.249 6.83727 14.8939 6.59001 14.4694C6.34276 14.0448 6.21131 13.565 6.20833 13.0762C6.20833 12.3071 6.82783 11.6774 7.62 11.61C7.66511 11.6062 7.711 11.6042 7.75767 11.6042H12.8257C13.6808 11.6042 14.375 12.2637 14.375 13.0762C14.375 14.3894 13.4335 15.5345 12.0907 15.8534L11.9938 15.8762C10.8752 16.1415 9.70812 16.1415 8.5895 15.8762L8.49267 15.8534C8.18474 15.781 7.89029 15.6618 7.62 15.5002ZM12.0417 9.58712C11.7282 9.93533 11.3139 10.1818 10.8539 10.2936C10.3939 10.4055 9.90999 10.3775 9.46664 10.2133C9.0233 10.0492 8.6415 9.75663 8.37205 9.37467C8.10261 8.9927 7.9583 8.53942 7.95833 8.07513C7.95836 7.70531 8.04999 7.34102 8.22536 7.01352C8.40073 6.68602 8.6546 6.40509 8.96519 6.19485C9.27578 5.98461 9.63381 5.85134 10.0086 5.80647C10.3833 5.76159 10.7635 5.80646 11.1167 5.93723C11.4698 6.06799 11.7853 6.28074 12.0361 6.55721C12.2868 6.83369 12.4653 7.16564 12.5563 7.52456C12.6472 7.88349 12.6479 8.25868 12.5583 8.61793C12.4687 8.97717 12.2914 9.30975 12.0417 9.58712ZM3.29167 12.0751C3.29167 11.9235 3.35312 11.7782 3.46252 11.671C3.57192 11.5639 3.72029 11.5037 3.875 11.5037H4.45833C4.61304 11.5037 4.76142 11.5639 4.87081 11.671C4.98021 11.7782 5.04167 11.9235 5.04167 12.0751C5.04167 12.2267 4.98021 12.372 4.87081 12.4792C4.76142 12.5863 4.61304 12.6465 4.45833 12.6465H3.875C3.72029 12.6465 3.57192 12.5863 3.46252 12.4792C3.35312 12.372 3.29167 12.2267 3.29167 12.0751Z" fill="#2EC291"/>
</svg>
