<svg width="31" height="36" viewBox="0 0 31 36" fill="none" xmlns="http://www.w3.org/2000/svg">
<g clip-path="url(#clip0_5234_35476)">
<path fill-rule="evenodd" clip-rule="evenodd" d="M0 0.855C0 0.382797 0.37672 0 0.841429 0H17.7143L31 13.5V35.145C31 35.6172 30.6233 36 30.1586 36H0.841429C0.376721 36 0 35.6172 0 35.145V0.855Z" fill="#34A770"/>
<path d="M9.82057 30.497L8.48318 28.382L7.26975 30.497H5.87032L7.81889 27.329L5.84375 24.215H7.26975L8.60718 26.321L9.81171 24.215H11.2111L9.27143 27.374L11.2466 30.497H9.82057ZM13.8732 29.498H15.9103V30.497H12.6332V24.215H13.8732V29.498ZM19.2758 30.56C18.8448 30.56 18.4551 30.485 18.1067 30.335C17.7643 30.185 17.4926 29.969 17.2918 29.687C17.0911 29.405 16.9878 29.072 16.9818 28.688H18.3104C18.3281 28.946 18.4167 29.15 18.5761 29.3C18.7415 29.45 18.9658 29.525 19.2493 29.525C19.5386 29.525 19.766 29.456 19.9313 29.318C20.0966 29.174 20.1793 28.988 20.1793 28.76C20.1793 28.574 20.1232 28.421 20.011 28.301C19.8988 28.181 19.7571 28.088 19.5858 28.022C19.4206 27.95 19.1903 27.872 18.895 27.788C18.4935 27.668 18.1658 27.551 17.9118 27.437C17.6638 27.317 17.4483 27.14 17.2653 26.906C17.0881 26.666 16.9996 26.348 16.9996 25.952C16.9996 25.58 17.0911 25.256 17.2741 24.98C17.4572 24.704 17.7141 24.494 18.0447 24.35C18.3754 24.2 18.7533 24.125 19.1784 24.125C19.8161 24.125 20.3328 24.284 20.7284 24.602C21.13 24.914 21.3514 25.352 21.3927 25.916H20.0287C20.0169 25.7 19.9254 25.523 19.7541 25.385C19.5888 25.241 19.3674 25.169 19.0898 25.169C18.8478 25.169 18.6529 25.232 18.5053 25.358C18.3636 25.484 18.2927 25.667 18.2927 25.907C18.2927 26.075 18.3458 26.216 18.4521 26.33C18.5643 26.438 18.7001 26.528 18.8596 26.6C19.0249 26.666 19.2552 26.744 19.5504 26.834C19.952 26.954 20.2797 27.074 20.5336 27.194C20.7875 27.314 21.006 27.494 21.189 27.734C21.3721 27.974 21.4636 28.289 21.4636 28.679C21.4636 29.015 21.378 29.327 21.2067 29.615C21.0355 29.903 20.7846 30.134 20.4538 30.308C20.1232 30.476 19.7306 30.56 19.2758 30.56Z" fill="white"/>
<path fill-rule="evenodd" clip-rule="evenodd" d="M17.7109 0L30.9967 13.5H18.5524C18.0876 13.5 17.7109 13.1172 17.7109 12.645V0Z" fill="#258859"/>
</g>
<defs>
<clipPath id="clip0_5234_35476">
<rect width="31" height="36" rx="5" fill="white"/>
</clipPath>
</defs>
</svg>
