<svg width="20" height="21" viewBox="0 0 20 21" fill="none" xmlns="http://www.w3.org/2000/svg">
<path d="M18.9995 5.66552C18.823 5.75695 18.6174 5.77453 18.4278 5.71441C18.2383 5.65429 18.0805 5.52138 17.9889 5.3449C17.273 3.93067 16.1894 2.73537 14.852 1.88459C14.7687 1.83202 14.6965 1.76355 14.6396 1.68308C14.5827 1.60262 14.5423 1.51174 14.5205 1.41563C14.4987 1.31952 14.4961 1.22007 14.5128 1.12294C14.5294 1.02582 14.5651 0.932936 14.6177 0.849587C14.6702 0.766239 14.7387 0.694061 14.8192 0.637175C14.8996 0.580289 14.9905 0.539808 15.0866 0.518044C15.1827 0.496281 15.2822 0.49366 15.3793 0.510332C15.4764 0.527004 15.5693 0.562643 15.6527 0.615212C17.2113 1.61322 18.477 3.0073 19.3202 4.6549C19.4116 4.83145 19.4292 5.03707 19.369 5.22658C19.3089 5.41609 19.176 5.57397 18.9995 5.66552ZM1.34734 5.7499C1.48474 5.74984 1.61949 5.71204 1.73687 5.64062C1.85426 5.5692 1.94976 5.4669 2.01297 5.3449C2.72884 3.93067 3.81242 2.73537 5.14984 1.88459C5.31817 1.77842 5.43743 1.60973 5.48139 1.41563C5.52534 1.22153 5.49039 1.01792 5.38422 0.849587C5.27805 0.681258 5.10936 0.561998 4.91526 0.518044C4.72116 0.47409 4.51755 0.509043 4.34922 0.615212C2.79053 1.61322 1.52489 3.0073 0.681717 4.6549C0.622503 4.7692 0.593704 4.89682 0.598092 5.02547C0.602481 5.15412 0.639909 5.27948 0.706774 5.38948C0.77364 5.49948 0.867693 5.59041 0.97988 5.65354C1.09207 5.71666 1.21861 5.74985 1.34734 5.7499ZM18.7942 15.4943C18.9271 15.7221 18.9975 15.981 18.9984 16.2448C18.9993 16.5085 18.9307 16.7679 18.7994 16.9966C18.6681 17.2254 18.4788 17.4155 18.2506 17.5477C18.0223 17.68 17.7633 17.7497 17.4995 17.7499H13.6745C13.5024 18.5976 13.0425 19.3598 12.3727 19.9072C11.703 20.4546 10.8645 20.7537 9.99953 20.7537C9.13451 20.7537 8.2961 20.4546 7.62634 19.9072C6.95658 19.3598 6.49667 18.5976 6.32453 17.7499H2.49953C2.23592 17.7494 1.97711 17.6794 1.74916 17.547C1.52121 17.4146 1.33217 17.2245 1.20109 16.9958C1.07001 16.7671 1.00151 16.5079 1.0025 16.2443C1.00349 15.9807 1.07393 15.722 1.20672 15.4943C2.0514 14.0365 2.49953 11.9637 2.49953 9.4999C2.49953 7.51078 3.28971 5.60312 4.69623 4.1966C6.10275 2.79008 8.01041 1.9999 9.99953 1.9999C11.9887 1.9999 13.8963 2.79008 15.3028 4.1966C16.7094 5.60312 17.4995 7.51078 17.4995 9.4999C17.4995 11.9627 17.9477 14.0355 18.7942 15.4943ZM12.1202 17.7499H7.8789C8.03429 18.1881 8.3216 18.5674 8.70134 18.8357C9.08108 19.1039 9.5346 19.2479 9.99953 19.2479C10.4645 19.2479 10.918 19.1039 11.2977 18.8357C11.6775 18.5674 11.9648 18.1881 12.1202 17.7499ZM17.4995 16.2499C16.502 14.5371 15.9995 12.2665 15.9995 9.4999C15.9995 7.9086 15.3674 6.38248 14.2422 5.25726C13.117 4.13204 11.5908 3.4999 9.99953 3.4999C8.40823 3.4999 6.88211 4.13204 5.75689 5.25726C4.63167 6.38248 3.99953 7.9086 3.99953 9.4999C3.99953 12.2674 3.49515 14.538 2.49953 16.2499H17.4995Z" fill="#618889"/>
</svg>
