<svg width="20" height="18" viewBox="0 0 20 18" fill="none" xmlns="http://www.w3.org/2000/svg">
<path d="M19.5005 2.25013V6.75013C19.5005 6.94905 19.4215 7.13981 19.2808 7.28046C19.1402 7.42112 18.9494 7.50013 18.7505 7.50013H14.2505C14.0516 7.50013 13.8608 7.42112 13.7202 7.28046C13.5795 7.13981 13.5005 6.94905 13.5005 6.75013C13.5005 6.55122 13.5795 6.36046 13.7202 6.2198C13.8608 6.07915 14.0516 6.00013 14.2505 6.00013H16.8192L14.3264 3.71638L14.303 3.69388C13.2606 2.65184 11.9342 1.94006 10.4896 1.64746C9.04497 1.35485 7.54616 1.4944 6.1804 2.04866C4.81463 2.60293 3.64246 3.54734 2.81031 4.76391C1.97817 5.98048 1.52294 7.41529 1.50149 8.88908C1.48005 10.3629 1.89334 11.8103 2.68974 13.0506C3.48615 14.2908 4.63035 15.269 5.97941 15.8627C7.32847 16.4565 8.82258 16.6396 10.2751 16.3891C11.7276 16.1387 13.0741 15.4658 14.1464 14.4545C14.291 14.3178 14.484 14.244 14.6829 14.2496C14.8819 14.2551 15.0705 14.3395 15.2072 14.484C15.344 14.6286 15.4177 14.8216 15.4121 15.0205C15.4066 15.2195 15.3223 15.4081 15.1777 15.5448C13.5103 17.1261 11.2985 18.0053 9.0005 18.0001H8.87675C7.40275 17.9799 5.95628 17.598 4.66446 16.8879C3.37265 16.1777 2.27504 15.1612 1.46811 13.9275C0.661184 12.6938 0.16964 11.2808 0.0366835 9.81272C-0.0962733 8.34459 0.133428 6.86628 0.705598 5.50772C1.27777 4.14916 2.17489 2.95194 3.31811 2.02128C4.46133 1.09063 5.81566 0.455042 7.26204 0.170377C8.70843 -0.114288 10.2026 -0.0393122 11.6132 0.388714C13.0239 0.816741 14.3077 1.58471 15.3521 2.62513L18.0005 5.04388V2.25013C18.0005 2.05122 18.0795 1.86046 18.2202 1.7198C18.3608 1.57915 18.5516 1.50013 18.7505 1.50013C18.9494 1.50013 19.1402 1.57915 19.2808 1.7198C19.4215 1.86046 19.5005 2.05122 19.5005 2.25013Z" fill="#618889"/>
</svg>
