<svg width="33" height="33" viewBox="0 0 33 33" fill="none" xmlns="http://www.w3.org/2000/svg">
<path d="M28.5008 16.5C28.5008 16.7652 28.3954 17.0196 28.2079 17.2071C28.0204 17.3947 27.766 17.5 27.5008 17.5H7.91454L15.2083 24.7925C15.3012 24.8854 15.3749 24.9957 15.4252 25.1171C15.4755 25.2385 15.5013 25.3686 15.5013 25.5C15.5013 25.6314 15.4755 25.7615 15.4252 25.8829C15.3749 26.0043 15.3012 26.1146 15.2083 26.2075C15.1154 26.3004 15.0051 26.3741 14.8837 26.4244C14.7623 26.4747 14.6322 26.5006 14.5008 26.5006C14.3694 26.5006 14.2393 26.4747 14.1179 26.4244C13.9965 26.3741 13.8862 26.3004 13.7933 26.2075L4.79329 17.2075C4.70031 17.1146 4.62655 17.0043 4.57623 16.8829C4.5259 16.7615 4.5 16.6314 4.5 16.5C4.5 16.3686 4.5259 16.2385 4.57623 16.1171C4.62655 15.9957 4.70031 15.8854 4.79329 15.7925L13.7933 6.79251C13.9809 6.60487 14.2354 6.49945 14.5008 6.49945C14.7662 6.49945 15.0206 6.60487 15.2083 6.79251C15.3959 6.98015 15.5013 7.23464 15.5013 7.50001C15.5013 7.76537 15.3959 8.01987 15.2083 8.20751L7.91454 15.5H27.5008C27.766 15.5 28.0204 15.6054 28.2079 15.7929C28.3954 15.9804 28.5008 16.2348 28.5008 16.5Z" fill="#676767"/>
</svg>
