<svg width="15" height="14" viewBox="0 0 15 14" fill="none" xmlns="http://www.w3.org/2000/svg">
<path d="M1.23679 12.7647V1.23529V4.80179V4.37109V12.7647ZM3.09198 7.61765H7.44136C7.46362 7.39488 7.51254 7.18056 7.58812 6.97468C7.66357 6.76879 7.75736 6.57135 7.86949 6.38235H3.09198V7.61765ZM3.09198 10.9118H6.14582C6.33189 10.7005 6.53912 10.5224 6.76751 10.3773C6.99577 10.2321 7.23515 10.1125 7.48567 10.0186C7.45187 9.96786 7.42225 9.91296 7.39683 9.85394C7.37155 9.79478 7.35045 9.73563 7.33355 9.67647H3.09198V10.9118ZM3.09198 4.32353H10.925V3.08824H3.09198V4.32353ZM1.49054 14C1.07402 14 0.721461 13.8559 0.432877 13.5676C0.144292 13.2794 0 12.9273 0 12.5113V1.48874C0 1.07272 0.144292 0.720588 0.432877 0.432353C0.721461 0.144118 1.07402 0 1.49054 0H12.5264C12.9429 0 13.2955 0.144118 13.5841 0.432353C13.8727 0.720588 14.017 1.07272 14.017 1.48874V5.96112C13.8615 5.7098 13.6821 5.48779 13.4785 5.29509C13.2752 5.10238 13.0424 4.93795 12.7802 4.80179V1.48874C12.7802 1.42532 12.7537 1.36726 12.7008 1.31456C12.648 1.26172 12.5899 1.23529 12.5264 1.23529H1.49054C1.42705 1.23529 1.36892 1.26172 1.31615 1.31456C1.26324 1.36726 1.23679 1.42532 1.23679 1.48874V12.5113C1.23679 12.5747 1.26324 12.6327 1.31615 12.6854C1.36892 12.7383 1.42705 12.7647 1.49054 12.7647H5.38478C5.3764 12.8154 5.37008 12.866 5.36582 12.9166C5.36156 12.9674 5.35943 13.0181 5.35943 13.0688V14H1.49054ZM11.0835 9.88235C10.5698 9.88235 10.1322 9.70179 9.77064 9.34068C9.40909 8.97956 9.22831 8.54247 9.22831 8.02941C9.22831 7.51622 9.40909 7.07913 9.77064 6.71815C10.1322 6.35703 10.5698 6.17647 11.0835 6.17647C11.5973 6.17647 12.0349 6.35703 12.3963 6.71815C12.7579 7.07913 12.9387 7.51622 12.9387 8.02941C12.9387 8.54247 12.7579 8.97956 12.3963 9.34068C12.0349 9.70179 11.5973 9.88235 11.0835 9.88235ZM7.16699 14V13.0529C7.16699 12.7605 7.2423 12.492 7.39291 12.2475C7.54367 12.0032 7.75591 11.8272 8.02966 11.7194C8.50843 11.5189 9.00445 11.3685 9.51772 11.2681C10.031 11.1678 10.5529 11.1176 11.0835 11.1176C11.6036 11.1176 12.1203 11.1678 12.6334 11.2681C13.1467 11.3685 13.6481 11.5189 14.1375 11.7194C14.4113 11.8272 14.6235 12.0032 14.7741 12.2475C14.9247 12.492 15 12.7605 15 13.0529V14H7.16699Z" fill="#4A6263"/>
</svg>
