<svg width="22" height="22" viewBox="0 0 22 22" fill="none" xmlns="http://www.w3.org/2000/svg">
<path d="M11.737 0.158449L21.087 4.90845C21.3615 5.03302 21.5923 5.22468 21.7536 5.46192C21.9149 5.69915 22.0002 5.97256 22 6.25145V7.69145C22 8.38145 21.384 8.94145 20.625 8.94145H19.8V16.9414H20.9C21.1917 16.9414 21.4715 17.0468 21.6778 17.2343C21.8841 17.4219 22 17.6762 22 17.9414C22 18.2067 21.8841 18.461 21.6778 18.6486C21.4715 18.8361 21.1917 18.9414 20.9 18.9414H1.1C0.808262 18.9414 0.528472 18.8361 0.322183 18.6486C0.115892 18.461 0 18.2067 0 17.9414C0 17.6762 0.115892 17.4219 0.322183 17.2343C0.528472 17.0468 0.808262 16.9414 1.1 16.9414H2.2V8.94145H1.375C0.616 8.94145 0 8.38145 0 7.69145V6.25145C0 5.72945 0.297 5.24945 0.7766 4.97745L10.2619 0.158449C10.4911 0.0542491 10.7438 0 11 0C11.2562 0 11.5078 0.0542491 11.737 0.158449ZM17.6 8.94145H4.4V16.9414H7.7V10.9414H9.9V16.9414H12.1V10.9414H14.3V16.9414H17.6V8.94145ZM11 2.05945L2.2 6.55945V6.94145H19.8V6.55945L11 2.05945ZM11 3.94145C11.2917 3.94145 11.5715 4.04681 11.7778 4.23434C11.9841 4.42188 12.1 4.67623 12.1 4.94145C12.1 5.20667 11.9841 5.46102 11.7778 5.64856C11.5715 5.83609 11.2917 5.94145 11 5.94145C10.7083 5.94145 10.4285 5.83609 10.2222 5.64856C10.0159 5.46102 9.9 5.20667 9.9 4.94145C9.9 4.67623 10.0159 4.42188 10.2222 4.23434C10.4285 4.04681 10.7083 3.94145 11 3.94145Z" fill="#B1B1B1"/>
</svg>
