<svg width="49" height="49" viewBox="0 0 49 49" fill="none" xmlns="http://www.w3.org/2000/svg">
<path d="M10.5 16.626C7.18 16.626 4.5 19.306 4.5 22.626V38.626C4.5 41.946 7.18 44.626 10.5 44.626H13.5C15.7 44.626 17.5 42.826 17.5 40.626V20.626C17.5 18.426 15.7 16.626 13.5 16.626H10.5ZM12.5 34.626C12.5 35.446 11.82 36.126 11 36.126C10.18 36.126 9.5 35.446 9.5 34.626V26.626C9.5 25.806 10.18 25.126 11 25.126C11.82 25.126 12.5 25.806 12.5 26.626V34.626Z" fill="url(#paint0_linear_485_33680)"/>
<path d="M38.5 4.62598H26.5C23.18 4.62598 20.5 7.30598 20.5 10.626V38.626C20.5 41.946 23.18 44.626 26.5 44.626H27.5C28.06 44.626 28.5 44.186 28.5 43.626V36.626C28.5 35.526 29.4 34.626 30.5 34.626H34.5C35.6 34.626 36.5 35.526 36.5 36.626V43.626C36.5 44.186 36.94 44.626 37.5 44.626H38.5C41.82 44.626 44.5 41.946 44.5 38.626V10.626C44.5 7.30598 41.82 4.62598 38.5 4.62598ZM30 26.626C30 27.446 29.32 28.126 28.5 28.126C27.68 28.126 27 27.446 27 26.626V16.626C27 15.806 27.68 15.126 28.5 15.126C29.32 15.126 30 15.806 30 16.626V26.626ZM38 26.626C38 27.446 37.32 28.126 36.5 28.126C35.68 28.126 35 27.446 35 26.626V16.626C35 15.806 35.68 15.126 36.5 15.126C37.32 15.126 38 15.806 38 16.626V26.626Z" fill="url(#paint1_linear_485_33680)"/>
<defs>
<linearGradient id="paint0_linear_485_33680" x1="11" y1="16.626" x2="11" y2="44.626" gradientUnits="userSpaceOnUse">
<stop stop-color="#0D99FF"/>
<stop offset="1" stop-color="#A7DAFF"/>
</linearGradient>
<linearGradient id="paint1_linear_485_33680" x1="32.5" y1="4.62598" x2="32.5" y2="44.626" gradientUnits="userSpaceOnUse">
<stop stop-color="#0D99FF"/>
<stop offset="1" stop-color="#A7DAFF"/>
</linearGradient>
</defs>
</svg>
