<svg width="45" height="45" viewBox="0 0 45 45" fill="none" xmlns="http://www.w3.org/2000/svg">
<path d="M30.8472 25.3554L26.4306 23.3764L26.4184 23.3707C26.1892 23.2727 25.939 23.2333 25.6907 23.2562C25.4424 23.2792 25.2037 23.3636 24.9963 23.502C24.9718 23.5181 24.9484 23.5357 24.9259 23.5545L22.6441 25.4998C21.1984 24.7976 19.7059 23.3164 19.0038 21.8895L20.9519 19.5729C20.9706 19.5495 20.9884 19.5261 21.0053 19.5007C21.1407 19.2938 21.2229 19.0567 21.2445 18.8103C21.2661 18.564 21.2264 18.3162 21.1291 18.0889V18.0776L19.1444 13.6536C19.0157 13.3566 18.7944 13.1093 18.5136 12.9484C18.2328 12.7876 17.9075 12.7218 17.5863 12.7611C16.3159 12.9282 15.1499 13.5521 14.3059 14.5161C13.4619 15.4802 12.9977 16.7185 13 17.9998C13 25.4436 19.0563 31.4998 26.5 31.4998C27.7813 31.5021 29.0196 31.0379 29.9837 30.1939C30.9477 29.35 31.5716 28.1839 31.7388 26.9136C31.7781 26.5924 31.7125 26.2672 31.5518 25.9864C31.3911 25.7056 31.144 25.4843 30.8472 25.3554ZM26.5 29.9998C23.3185 29.9963 20.2682 28.7309 18.0186 26.4813C15.7689 24.2316 14.5035 21.1813 14.5 17.9998C14.4965 17.0843 14.8263 16.1989 15.4279 15.5088C16.0295 14.8187 16.8617 14.3712 17.7691 14.2498C17.7687 14.2536 17.7687 14.2573 17.7691 14.2611L19.7378 18.6673L17.8 20.9867C17.7803 21.0093 17.7625 21.0335 17.7466 21.0589C17.6055 21.2754 17.5227 21.5246 17.5063 21.7825C17.4899 22.0404 17.5403 22.2981 17.6528 22.5307C18.5022 24.2679 20.2525 26.0051 22.0084 26.8536C22.2428 26.965 22.502 27.0137 22.7608 26.995C23.0196 26.9762 23.2692 26.8907 23.485 26.7467C23.5091 26.7305 23.5322 26.7129 23.5544 26.6942L25.8334 24.7498L30.2397 26.7232C30.2397 26.7232 30.2472 26.7232 30.25 26.7232C30.1301 27.6319 29.6833 28.4658 28.9931 29.0689C28.3028 29.672 27.4166 30.0029 26.5 29.9998Z" fill="#B1B1B1"/>
</svg>
