<svg width="14" height="12" viewBox="0 0 14 12" fill="none" xmlns="http://www.w3.org/2000/svg">
<path d="M10.25 2.5H1.25C0.918479 2.5 0.600537 2.6317 0.366117 2.86612C0.131696 3.10054 0 3.41848 0 3.75V10.75C0 11.0815 0.131696 11.3995 0.366117 11.6339C0.600537 11.8683 0.918479 12 1.25 12H10.25C10.5815 12 10.8995 11.8683 11.1339 11.6339C11.3683 11.3995 11.5 11.0815 11.5 10.75V3.75C11.5 3.41848 11.3683 3.10054 11.1339 2.86612C10.8995 2.6317 10.5815 2.5 10.25 2.5ZM10 10.5H1.5V4H10V10.5ZM14 1.25V9C14 9.19891 13.921 9.38968 13.7803 9.53033C13.6397 9.67098 13.4489 9.75 13.25 9.75C13.0511 9.75 12.8603 9.67098 12.7197 9.53033C12.579 9.38968 12.5 9.19891 12.5 9V1.5H3C2.80109 1.5 2.61032 1.42098 2.46967 1.28033C2.32902 1.13968 2.25 0.948912 2.25 0.75C2.25 0.551088 2.32902 0.360322 2.46967 0.21967C2.61032 0.0790175 2.80109 4.19176e-09 3 0H12.75C13.0815 0 13.3995 0.131696 13.6339 0.366117C13.8683 0.600537 14 0.918479 14 1.25Z" fill="black"/>
</svg>
