<svg width="25" height="25" viewBox="0 0 25 25" fill="none" xmlns="http://www.w3.org/2000/svg">
<mask id="mask0_3111_41095" style="mask-type:alpha" maskUnits="userSpaceOnUse" x="0" y="0" width="25" height="25">
<rect width="24.2031" height="24.2031" fill="#D9D9D9"/>
</mask>
<g mask="url(#mask0_3111_41095)">
<path d="M5.68093 15.5565H14.8201V13.7286H5.68093V15.5565ZM5.68093 11.9008H19.6944V10.0729H5.68093V11.9008ZM5.68093 8.2451H19.6944V6.41726H5.68093V8.2451ZM1.11133 24.4379V4.05051C1.11133 3.43493 1.32458 2.9139 1.75107 2.4874C2.17757 2.0609 2.6986 1.84766 3.31418 1.84766H22.0611C22.6767 1.84766 23.1977 2.0609 23.6242 2.4874C24.0507 2.9139 24.264 3.43493 24.264 4.05051V17.9232C24.264 18.5388 24.0507 19.0598 23.6242 19.4863C23.1977 19.9128 22.6767 20.1261 22.0611 20.1261H5.4232L1.11133 24.4379ZM4.64515 18.2982H22.0611C22.155 18.2982 22.2409 18.2591 22.3188 18.1809C22.397 18.1029 22.4361 18.017 22.4361 17.9232V4.05051C22.4361 3.95668 22.397 3.87077 22.3188 3.79278C22.2409 3.71459 22.155 3.6755 22.0611 3.6755H3.31418C3.22035 3.6755 3.13444 3.71459 3.05646 3.79278C2.97826 3.87077 2.93917 3.95668 2.93917 4.05051V19.9856L4.64515 18.2982Z" fill="#486566"/>
</g>
</svg>
