<svg width="21" height="19" viewBox="0 0 21 19" fill="none" xmlns="http://www.w3.org/2000/svg">
<path d="M2.25 1H18.75C18.9821 1 19.2058 1.08074 19.3838 1.22656L19.457 1.29297C19.6446 1.48051 19.75 1.73478 19.75 2V14C19.75 14.2321 19.6693 14.4558 19.5234 14.6338L19.457 14.707C19.2695 14.8946 19.0152 15 18.75 15H6.0957L5.9541 15.1221L2.91797 17.7451L2.90918 17.752L2.89355 17.7656C2.7142 17.9177 2.48611 18.0005 2.25098 18L2.14062 17.9941C2.06569 17.9857 1.99212 17.9681 1.9209 17.9434L2.57617 17.3789L5.83594 14.5664L5.84082 14.5625C5.8746 14.5328 5.9153 14.5122 5.95898 14.5039L6.00391 14.5H19.25V1.5H1.75V17.8633C1.65122 17.8071 1.5621 17.7364 1.48828 17.6504L1.40332 17.5371C1.32733 17.4174 1.27903 17.283 1.25977 17.1436L1.25 17.0029V2C1.25 1.76791 1.33073 1.54417 1.47656 1.36621L1.54297 1.29297C1.70711 1.12883 1.92238 1.02758 2.15137 1.00488L2.25 1ZM6.49707 7.38672C6.588 7.40481 6.67319 7.44329 6.74707 7.49805L6.81738 7.55762C6.88294 7.62318 6.93285 7.70249 6.96387 7.78906L6.98828 7.87793C7.00635 7.96877 7.00369 8.06224 6.98145 8.15137L6.95215 8.23926C6.91667 8.32483 6.86298 8.40116 6.79492 8.46289L6.72266 8.51953C6.61987 8.58821 6.49861 8.625 6.375 8.625C6.25062 8.62499 6.13028 8.58757 6.02832 8.51953L5.93262 8.44238C5.81541 8.32517 5.75 8.16575 5.75 8C5.75 7.90746 5.77043 7.81641 5.80957 7.7334L5.85547 7.65234C5.907 7.57534 5.97488 7.51111 6.05371 7.46387L6.13574 7.42285C6.22134 7.38739 6.31348 7.37153 6.40527 7.37598L6.49707 7.38672ZM10.6221 7.38672C10.713 7.40481 10.7982 7.44329 10.8721 7.49805L10.9424 7.55762C11.0079 7.62318 11.0579 7.70249 11.0889 7.78906L11.1133 7.87793C11.1374 7.99917 11.1245 8.12505 11.0771 8.23926C11.0417 8.32483 10.988 8.40116 10.9199 8.46289L10.8477 8.51953C10.7449 8.58821 10.6236 8.625 10.5 8.625C10.3343 8.62499 10.1748 8.55959 10.0576 8.44238C9.94041 8.32517 9.875 8.16575 9.875 8C9.875 7.90746 9.89543 7.81641 9.93457 7.7334L9.98047 7.65234C10.032 7.57533 10.0999 7.51111 10.1787 7.46387L10.2607 7.42285C10.3463 7.38739 10.4385 7.37153 10.5303 7.37598L10.6221 7.38672ZM14.7471 7.38672C14.838 7.40481 14.9232 7.44329 14.9971 7.49805L15.0674 7.55762C15.1329 7.62318 15.1829 7.70249 15.2139 7.78906L15.2383 7.87793C15.2624 7.99917 15.2495 8.12505 15.2021 8.23926C15.1667 8.32483 15.113 8.40116 15.0449 8.46289L14.9727 8.51953C14.8699 8.58821 14.7486 8.625 14.625 8.625C14.4593 8.62499 14.2998 8.55959 14.1826 8.44238C14.0654 8.32517 14 8.16575 14 8C14 7.87639 14.0368 7.75513 14.1055 7.65234C14.157 7.57534 14.2249 7.51111 14.3037 7.46387L14.3857 7.42285C14.4713 7.38739 14.5635 7.37153 14.6553 7.37598L14.7471 7.38672Z" fill="#6B6A69" stroke="#5555AA"/>
</svg>
