<svg width="45" height="45" viewBox="0 0 45 45" fill="none" xmlns="http://www.w3.org/2000/svg">
<path d="M21.375 22.5C21.375 22.2775 21.441 22.06 21.5646 21.875C21.6882 21.69 21.8639 21.5458 22.0695 21.4606C22.2751 21.3755 22.5013 21.3532 22.7195 21.3966C22.9377 21.44 23.1382 21.5472 23.2955 21.7045C23.4529 21.8618 23.56 22.0623 23.6034 22.2805C23.6468 22.4988 23.6245 22.725 23.5394 22.9305C23.4542 23.1361 23.31 23.3118 23.125 23.4354C22.94 23.559 22.7225 23.625 22.5 23.625C22.2017 23.625 21.9155 23.5065 21.7045 23.2955C21.4936 23.0845 21.375 22.7984 21.375 22.5ZM18.375 23.625C18.5975 23.625 18.815 23.559 19 23.4354C19.185 23.3118 19.3292 23.1361 19.4144 22.9305C19.4995 22.725 19.5218 22.4988 19.4784 22.2805C19.435 22.0623 19.3279 21.8618 19.1705 21.7045C19.0132 21.5472 18.8127 21.44 18.5945 21.3966C18.3763 21.3532 18.1501 21.3755 17.9445 21.4606C17.7389 21.5458 17.5632 21.69 17.4396 21.875C17.316 22.06 17.25 22.2775 17.25 22.5C17.25 22.7984 17.3686 23.0845 17.5795 23.2955C17.7905 23.5065 18.0767 23.625 18.375 23.625ZM26.625 23.625C26.8475 23.625 27.065 23.559 27.25 23.4354C27.435 23.3118 27.5792 23.1361 27.6644 22.9305C27.7495 22.725 27.7718 22.4988 27.7284 22.2805C27.685 22.0623 27.5779 21.8618 27.4205 21.7045C27.2632 21.5472 27.0627 21.44 26.8445 21.3966C26.6263 21.3532 26.4001 21.3755 26.1945 21.4606C25.9889 21.5458 25.8132 21.69 25.6896 21.875C25.566 22.06 25.5 22.2775 25.5 22.5C25.5 22.7984 25.6186 23.0845 25.8295 23.2955C26.0405 23.5065 26.3267 23.625 26.625 23.625ZM32.25 16.5V28.5C32.25 28.8978 32.092 29.2794 31.8107 29.5607C31.5294 29.842 31.1479 30 30.75 30H18.2813L15.225 32.64L15.2166 32.6466C14.9466 32.8755 14.604 33.0008 14.25 33C14.0297 32.9995 13.8121 32.9509 13.6125 32.8575C13.3537 32.7379 13.1347 32.5462 12.9817 32.3055C12.8288 32.0648 12.7484 31.7852 12.75 31.5V16.5C12.75 16.1022 12.9081 15.7206 13.1894 15.4393C13.4707 15.158 13.8522 15 14.25 15H30.75C31.1479 15 31.5294 15.158 31.8107 15.4393C32.092 15.7206 32.25 16.1022 32.25 16.5ZM30.75 16.5H14.25V31.5L17.5097 28.6875C17.6452 28.568 17.8193 28.5014 18 28.5H30.75V16.5Z" fill="#2B2C2C"/>
</svg>
