<svg width="26" height="26" viewBox="0 0 26 26" fill="none" xmlns="http://www.w3.org/2000/svg">
<path d="M20.5789 1V3.4M5.42105 1V3.4M11.8 25C6.70947 25 4.16295 25 2.58147 23.3752C1 21.7516 1 19.1368 1 13.9072V13.2916C1 8.0632 1 5.4484 2.58147 3.8236C4.16295 2.2 6.70947 2.2 11.8 2.2H14.2C19.2905 2.2 21.8371 2.2 23.4185 3.8248C24.9078 5.3536 24.9949 7.7608 25 12.4V14.2" stroke="#618889" stroke-width="1.5" stroke-linecap="round" stroke-linejoin="round"/>
<path d="M14.2624 19.6002H24.3677M14.2624 19.6002C14.2624 20.4402 16.7812 22.011 17.4203 22.6002M14.2624 19.6002C14.2624 18.7602 16.7812 17.1906 17.4203 16.6002M1.63086 8.2002H24.3677" stroke="#618889" stroke-width="1.5" stroke-linecap="round" stroke-linejoin="round"/>
</svg>
