<svg width="26" height="26" viewBox="0 0 26 26" fill="none" xmlns="http://www.w3.org/2000/svg">
<path d="M5.42105 1V3.4M20.5789 1V3.4M14.2 25C19.2905 25 21.8371 25 23.4185 23.3752C25 21.7516 25 19.1368 25 13.9072V13.2916C25 8.0632 25 5.4484 23.4185 3.8236C21.8371 2.2 19.2905 2.2 14.2 2.2H11.8C6.70947 2.2 4.16295 2.2 2.58148 3.8248C1.09221 5.3536 1.00505 7.7608 1 12.4V14.2" stroke="#618889" stroke-width="1.5" stroke-linecap="round" stroke-linejoin="round"/>
<path d="M11.7376 19.6002H1.6323M11.7376 19.6002C11.7376 20.4402 9.21882 22.011 8.57967 22.6002M11.7376 19.6002C11.7376 18.7602 9.21882 17.1906 8.57967 16.6002M24.3691 8.2002H1.6323" stroke="#618889" stroke-width="1.5" stroke-linecap="round" stroke-linejoin="round"/>
</svg>
