<svg width="13" height="20" viewBox="0 0 13 20" fill="none" xmlns="http://www.w3.org/2000/svg">
<path fill-rule="evenodd" clip-rule="evenodd" d="M11.5032 8.08429C11.8978 8.45259 12.1237 8.95618 12.1311 9.48444C12.1385 10.0127 11.9269 10.5224 11.5427 10.9016L3.80723 18.5307C3.42238 18.91 2.89631 19.1273 2.34476 19.1349C1.7932 19.1425 1.26135 18.9398 0.866194 18.5713C0.471038 18.2028 0.244949 17.6987 0.237666 17.17C0.230382 16.6413 0.4425 16.1312 0.827356 15.7519L7.11313 9.55479L0.656077 3.53632C0.271831 3.16585 0.0549251 2.66535 0.0520756 2.14261C0.0492262 1.61988 0.260661 1.11674 0.640842 0.741571C1.02102 0.366398 1.53953 0.149205 2.08469 0.136773C2.62984 0.124342 3.15803 0.317668 3.55548 0.675108L11.5046 8.08294L11.5032 8.08429Z" fill="white"/>
</svg>
