<svg width="24" height="14" viewBox="0 0 24 14" fill="none" xmlns="http://www.w3.org/2000/svg">
<path d="M14.2494 2.50014C14.2494 2.30123 14.3284 2.11047 14.469 1.96981C14.6097 1.82916 14.8004 1.75014 14.9994 1.75014H23.2494C23.4483 1.75014 23.639 1.82916 23.7797 1.96981C23.9203 2.11047 23.9994 2.30123 23.9994 2.50014C23.9994 2.69906 23.9203 2.88982 23.7797 3.03047C23.639 3.17113 23.4483 3.25014 23.2494 3.25014H14.9994C14.8004 3.25014 14.6097 3.17113 14.469 3.03047C14.3284 2.88982 14.2494 2.69906 14.2494 2.50014ZM23.2494 6.25014H14.9994C14.8004 6.25014 14.6097 6.32916 14.469 6.46981C14.3284 6.61047 14.2494 6.80123 14.2494 7.00014C14.2494 7.19906 14.3284 7.38982 14.469 7.53047C14.6097 7.67113 14.8004 7.75014 14.9994 7.75014H23.2494C23.4483 7.75014 23.639 7.67113 23.7797 7.53047C23.9203 7.38982 23.9994 7.19906 23.9994 7.00014C23.9994 6.80123 23.9203 6.61047 23.7797 6.46981C23.639 6.32916 23.4483 6.25014 23.2494 6.25014ZM23.2494 10.7501H17.2494C17.0504 10.7501 16.8597 10.8292 16.719 10.9698C16.5784 11.1105 16.4994 11.3012 16.4994 11.5001C16.4994 11.6991 16.5784 11.8898 16.719 12.0305C16.8597 12.1711 17.0504 12.2501 17.2494 12.2501H23.2494C23.4483 12.2501 23.639 12.1711 23.7797 12.0305C23.9203 11.8898 23.9994 11.6991 23.9994 11.5001C23.9994 11.3012 23.9203 11.1105 23.7797 10.9698C23.639 10.8292 23.4483 10.7501 23.2494 10.7501ZM14.2259 12.8126C14.2504 12.9081 14.2559 13.0074 14.242 13.1049C14.2282 13.2024 14.1952 13.2963 14.1451 13.3811C14.0949 13.4659 14.0286 13.54 13.9498 13.5991C13.871 13.6582 13.7813 13.7013 13.6859 13.7258C13.6248 13.7422 13.5617 13.7504 13.4984 13.7501C13.3321 13.7502 13.1704 13.695 13.0389 13.5932C12.9074 13.4914 12.8134 13.3487 12.7719 13.1876C12.1944 10.9433 9.92748 9.25014 7.49842 9.25014C5.06935 9.25014 2.80248 10.9423 2.22498 13.1876C2.17525 13.3803 2.05101 13.5454 1.87959 13.6465C1.70817 13.7476 1.50361 13.7764 1.31092 13.7267C1.11822 13.677 0.953169 13.5527 0.852075 13.3813C0.750981 13.2099 0.722125 13.0053 0.771853 12.8126C1.29592 10.7773 2.81935 9.12921 4.75248 8.31264C4.00813 7.73933 3.4619 6.9474 3.1904 6.04794C2.9189 5.14848 2.93573 4.1866 3.23855 3.29719C3.54137 2.40779 4.11498 1.63547 4.87893 1.08855C5.64289 0.541638 6.55887 0.247559 7.49842 0.247559C8.43796 0.247559 9.35394 0.541638 10.1179 1.08855C10.8819 1.63547 11.4555 2.40779 11.7583 3.29719C12.0611 4.1866 12.0779 5.14848 11.8064 6.04794C11.5349 6.9474 10.9887 7.73933 10.2444 8.31264C12.1784 9.12921 13.7019 10.7773 14.2259 12.8126ZM7.49935 7.75014C8.0927 7.75014 8.67272 7.5742 9.16606 7.24455C9.65941 6.91491 10.0439 6.44637 10.271 5.89819C10.4981 5.35002 10.5575 4.74682 10.4417 4.16487C10.326 3.58293 10.0402 3.04838 9.62067 2.62882C9.20112 2.20927 8.66657 1.92354 8.08462 1.80779C7.50268 1.69203 6.89948 1.75144 6.3513 1.9785C5.80312 2.20557 5.33459 2.59009 5.00494 3.08343C4.6753 3.57678 4.49935 4.1568 4.49935 4.75014C4.49935 5.54579 4.81542 6.30885 5.37803 6.87146C5.94064 7.43407 6.7037 7.75014 7.49935 7.75014Z" fill="#618889"/>
</svg>
