<svg width="21" height="21" viewBox="0 0 21 21" fill="none" xmlns="http://www.w3.org/2000/svg">
<path d="M9.96697 15.8554L9.31072 16.2054L9.12697 16.0304C8.96072 15.8729 8.72447 15.8379 8.52322 15.9517L8.26072 16.0917L8.12947 15.7854C8.05947 15.6104 7.90197 15.4967 7.71822 15.4704C7.53447 15.4529 7.35947 15.5229 7.24572 15.6629L6.30947 16.8442C6.19572 16.9842 6.22197 17.1942 6.36197 17.3079C6.42322 17.3517 6.49322 17.3779 6.56322 17.3779C6.65947 17.3779 6.75572 17.3342 6.81697 17.2554L7.61322 16.2492L7.71822 16.4854C7.77072 16.6167 7.88447 16.7217 8.02447 16.7742C8.16447 16.8267 8.31322 16.8092 8.44447 16.7392L8.75072 16.5729L8.92572 16.7479C9.09197 16.9054 9.32822 16.9404 9.52947 16.8354L10.2732 16.4417C10.4307 16.3542 10.492 16.1617 10.4132 15.9954C10.3345 15.8292 10.1245 15.7767 9.96697 15.8554Z" fill="white"/>
<path d="M17.1162 1.00969H4.88379C4.40172 1.00969 4 1.38776 4 1.86276V19.1469C4 19.6122 4.39168 20 4.88379 20H17.1162C17.5983 20 18 19.6219 18 19.1469V1.85306C18 1.38776 17.6083 1 17.1162 1V1.00969ZM17.2367 19.1469C17.2367 19.2148 17.1765 19.2633 17.1162 19.2633H4.88379C4.81349 19.2633 4.76327 19.2051 4.76327 19.1469V1.85306C4.76327 1.7852 4.82353 1.73673 4.88379 1.73673H17.1162C17.1865 1.73673 17.2367 1.7949 17.2367 1.85306V19.1469Z" fill="white"/>
<path d="M8.00752 4.76792H13.4565C13.7624 4.76792 14.011 4.51945 14.011 4.21365V3.55427C14.011 3.24846 13.7624 3 13.4565 3H8.00752C7.70161 3 7.45306 3.24846 7.45306 3.55427V4.21365C7.45306 4.51945 7.70161 4.76792 8.00752 4.76792ZM8.17003 3.71672H13.294V4.05119H8.17003V3.71672ZM6.36327 6.86075H15.0912C15.2919 6.86075 15.4545 6.69829 15.4545 6.49761C15.4545 6.29693 15.2919 6.13447 15.0912 6.13447H6.36327C6.16251 6.13447 6 6.29693 6 6.49761C6 6.69829 6.16251 6.86075 6.36327 6.86075ZM6.36327 8.68601H15.0912C15.2919 8.68601 15.4545 8.52355 15.4545 8.32287C15.4545 8.12218 15.2919 7.95973 15.0912 7.95973H6.36327C6.16251 7.95973 6 8.12218 6 8.32287C6 8.52355 6.16251 8.68601 6.36327 8.68601ZM11.535 10.1481C11.535 9.94744 11.3725 9.78498 11.1718 9.78498H6.36327C6.16251 9.78498 6 9.94744 6 10.1481C6 10.3488 6.16251 10.5113 6.36327 10.5113H11.1718C11.3725 10.5113 11.535 10.3488 11.535 10.1481ZM15.6074 9.74676L14.8904 9.39317C14.7184 9.30717 14.5272 9.29761 14.336 9.36451C14.1352 9.4314 13.9632 9.5843 13.858 9.78498L11.4872 14.5918C11.3725 14.8212 11.3151 15.0696 11.3056 15.3085L11.2769 16.3597C11.2769 16.6177 11.3916 16.8375 11.6019 16.9427C11.6784 16.9809 11.7644 17 11.8505 17C11.9939 17 12.1373 16.9522 12.2615 16.8471L13.0837 16.1782C13.2653 16.0253 13.4278 15.8341 13.533 15.6143L15.9133 10.798C16.1045 10.3966 15.9707 9.92833 15.5979 9.74676H15.6074ZM14.5081 10.1003C14.5272 10.0526 14.5654 10.0334 14.575 10.0334L15.2919 10.387C15.2919 10.387 15.3111 10.4348 15.2919 10.4826L14.986 11.1038L14.2213 10.7215L14.5272 10.1003H14.5081ZM12.013 16.1304L12.0321 15.3276L12.6439 15.6239L12.013 16.1304ZM13.0359 15.0123L12.2711 14.63L13.8867 11.3522L14.6515 11.7345L13.0359 15.0123Z" fill="white"/>
</svg>
