<svg width="45" height="45" viewBox="0 0 45 45" fill="none" xmlns="http://www.w3.org/2000/svg">
<path d="M32.9503 24.6002C32.8715 24.6593 32.7818 24.7023 32.6864 24.7267C32.591 24.7511 32.4917 24.7566 32.3942 24.7426C32.2967 24.7287 32.2029 24.6957 32.1182 24.6455C32.0334 24.5953 31.9594 24.529 31.9003 24.4502C31.4482 23.8425 30.8598 23.3495 30.1824 23.0108C29.5051 22.6721 28.7576 22.4972 28.0003 22.5002C27.8528 22.5002 27.7086 22.4567 27.5857 22.3751C27.4628 22.2936 27.3667 22.1776 27.3093 22.0417C27.2704 21.9495 27.2504 21.8503 27.2504 21.7502C27.2504 21.65 27.2704 21.5509 27.3093 21.4586C27.3667 21.3227 27.4628 21.2068 27.5857 21.1252C27.7086 21.0437 27.8528 21.0002 28.0003 21.0002C28.4211 21.0001 28.8335 20.8821 29.1906 20.6594C29.5476 20.4368 29.8351 20.1184 30.0204 19.7406C30.2056 19.3627 30.2812 18.9405 30.2385 18.5219C30.1958 18.1032 30.0365 17.7049 29.7788 17.3723C29.5211 17.0396 29.1753 16.7858 28.7806 16.6399C28.3859 16.4939 27.9582 16.4615 27.546 16.5465C27.1338 16.6314 26.7538 16.8302 26.4489 17.1203C26.1441 17.4104 25.9267 17.7802 25.8215 18.1877C25.7969 18.2831 25.7537 18.3727 25.6945 18.4514C25.6352 18.5302 25.561 18.5965 25.4761 18.6465C25.3913 18.6966 25.2974 18.7294 25.1998 18.7432C25.1022 18.7569 25.0029 18.7514 24.9075 18.7267C24.8121 18.7021 24.7224 18.6589 24.6437 18.5997C24.565 18.5404 24.4987 18.4662 24.4486 18.3813C24.3986 18.2965 24.3657 18.2026 24.352 18.105C24.3382 18.0074 24.3438 17.9081 24.3684 17.8127C24.5144 17.2476 24.7903 16.7245 25.1741 16.2849C25.5579 15.8452 26.039 15.5012 26.5791 15.2802C27.1192 15.0593 27.7034 14.9674 28.2853 15.0119C28.8672 15.0565 29.4307 15.2362 29.9309 15.5368C30.431 15.8374 30.8542 16.2506 31.1666 16.7436C31.479 17.2365 31.672 17.7955 31.7303 18.3762C31.7887 18.9568 31.7107 19.5431 31.5026 20.0883C31.2944 20.6335 30.9619 21.1226 30.5315 21.5167C31.5514 21.9583 32.4379 22.659 33.1031 23.5492C33.1622 23.6282 33.2051 23.7181 33.2294 23.8137C33.2537 23.9093 33.2589 24.0088 33.2447 24.1064C33.2305 24.204 33.1972 24.2979 33.1467 24.3826C33.0962 24.4673 33.0294 24.5413 32.9503 24.6002ZM27.899 30.3752C27.9533 30.4605 27.9897 30.556 28.0062 30.6558C28.0226 30.7556 28.0186 30.8577 27.9946 30.956C27.9705 31.0542 27.9268 31.1466 27.8661 31.2275C27.8054 31.3084 27.729 31.3762 27.6414 31.4268C27.5539 31.4775 27.4569 31.5099 27.3565 31.522C27.2561 31.5342 27.1543 31.526 27.0571 31.4978C26.96 31.4696 26.8695 31.4221 26.7912 31.3581C26.713 31.294 26.6484 31.2148 26.6015 31.1252C26.1291 30.3252 25.4562 29.6622 24.6493 29.2016C23.8424 28.741 22.9294 28.4988 22.0003 28.4988C21.0712 28.4988 20.1582 28.741 19.3513 29.2016C18.5444 29.6622 17.8715 30.3252 17.399 31.1252C17.3521 31.2148 17.2876 31.294 17.2093 31.3581C17.131 31.4221 17.0406 31.4696 16.9434 31.4978C16.8463 31.526 16.7444 31.5342 16.644 31.522C16.5436 31.5099 16.4467 31.4775 16.3591 31.4268C16.2716 31.3762 16.1951 31.3084 16.1344 31.2275C16.0738 31.1466 16.0301 31.0542 16.006 30.956C15.9819 30.8577 15.978 30.7556 15.9944 30.6558C16.0108 30.556 16.0473 30.4605 16.1015 30.3752C16.8287 29.1258 17.9373 28.1427 19.2647 27.5702C18.5178 26.9983 17.9689 26.2068 17.6951 25.3069C17.4213 24.4069 17.4364 23.4438 17.7383 22.553C18.0402 21.6621 18.6137 20.8882 19.3782 20.3401C20.1426 19.7919 21.0596 19.4972 22.0003 19.4972C22.9409 19.4972 23.8579 19.7919 24.6224 20.3401C25.3869 20.8882 25.9603 21.6621 26.2622 22.553C26.5641 23.4438 26.5792 24.4069 26.3055 25.3069C26.0317 26.2068 25.4828 26.9983 24.7359 27.5702C26.0632 28.1427 27.1719 29.1258 27.899 30.3752ZM22.0003 27.0002C22.5936 27.0002 23.1736 26.8242 23.667 26.4946C24.1603 26.1649 24.5449 25.6964 24.7719 25.1482C24.999 24.6 25.0584 23.9968 24.9426 23.4149C24.8269 22.833 24.5412 22.2984 24.1216 21.8788C23.702 21.4593 23.1675 21.1736 22.5856 21.0578C22.0036 20.9421 21.4004 21.0015 20.8522 21.2285C20.3041 21.4556 19.8355 21.8401 19.5059 22.3335C19.1762 22.8268 19.0003 23.4068 19.0003 24.0002C19.0003 24.7958 19.3164 25.5589 19.879 26.1215C20.4416 26.6841 21.2046 27.0002 22.0003 27.0002ZM16.7503 21.7502C16.7503 21.5513 16.6713 21.3605 16.5306 21.2198C16.39 21.0792 16.1992 21.0002 16.0003 21.0002C15.5795 21.0001 15.1671 20.8821 14.81 20.6594C14.4529 20.4368 14.1654 20.1184 13.9802 19.7406C13.795 19.3627 13.7194 18.9405 13.7621 18.5219C13.8048 18.1032 13.964 17.7049 14.2218 17.3723C14.4795 17.0396 14.8253 16.7858 15.22 16.6399C15.6147 16.4939 16.0424 16.4615 16.4546 16.5465C16.8667 16.6314 17.2468 16.8302 17.5516 17.1203C17.8565 17.4104 18.0738 17.7802 18.179 18.1877C18.2288 18.3804 18.353 18.5454 18.5244 18.6465C18.6958 18.7476 18.9004 18.7765 19.0931 18.7267C19.2858 18.677 19.4508 18.5528 19.5519 18.3813C19.653 18.2099 19.6819 18.0054 19.6322 17.8127C19.4861 17.2476 19.2103 16.7245 18.8265 16.2849C18.4427 15.8452 17.9616 15.5012 17.4215 15.2802C16.8814 15.0593 16.2971 14.9674 15.7152 15.0119C15.1334 15.0565 14.5699 15.2362 14.0697 15.5368C13.5695 15.8374 13.1464 16.2506 12.834 16.7436C12.5216 17.2365 12.3286 17.7955 12.2702 18.3762C12.2119 18.9568 12.2899 19.5431 12.498 20.0883C12.7061 20.6335 13.0386 21.1226 13.469 21.5167C12.4502 21.9587 11.5647 22.6594 10.9003 23.5492C10.7808 23.7084 10.7294 23.9084 10.7575 24.1054C10.7855 24.3024 10.8907 24.4802 11.0498 24.5997C11.2089 24.7192 11.409 24.7705 11.606 24.7425C11.803 24.7144 11.9808 24.6093 12.1003 24.4502C12.5523 23.8425 13.1407 23.3495 13.8181 23.0108C14.4955 22.6721 15.2429 22.4972 16.0003 22.5002C16.1992 22.5002 16.39 22.4211 16.5306 22.2805C16.6713 22.1398 16.7503 21.9491 16.7503 21.7502Z" fill="#B1B1B1"/>
</svg>
