<svg width="22" height="17" viewBox="0 0 22 17" fill="none" xmlns="http://www.w3.org/2000/svg">
<path d="M3.14591 16.9996H18.8541C20.9477 16.9996 22 15.959 22 13.877V3.13333C22 1.05134 20.9477 0 18.8541 0H3.14591C1.05234 0 0 1.05134 0 3.13333V13.877C0 15.959 1.05191 16.9996 3.14591 16.9996ZM1.61313 3.22475C1.61313 2.17341 2.17435 1.6279 3.17583 1.6279H18.834C19.8256 1.6279 20.3869 2.17341 20.3869 3.22475V4.07341H1.61313V3.22475ZM3.17583 15.3734C2.17393 15.3734 1.61313 14.8374 1.61313 13.7865V6.36756H20.3869V13.786C20.3869 14.8369 19.8256 15.373 18.834 15.373L3.17583 15.3734ZM4.32776 12.3811H6.78251C7.37365 12.3811 7.76433 11.9869 7.76433 11.4108V9.54099C7.76433 8.97522 7.37365 8.57072 6.78251 8.57072H4.32776C3.73662 8.57072 3.34595 8.97522 3.34595 9.54099V11.4108C3.34595 11.9869 3.73662 12.3811 4.32776 12.3811Z" fill="#B1B1B1"/>
</svg>
