<svg width="18" height="19" viewBox="0 0 18 19" fill="none" xmlns="http://www.w3.org/2000/svg">
<path d="M1.5 14.875C1.5 15.9062 2.17313 16.75 3 16.75C3.18098 16.7459 3.35925 16.7051 3.52396 16.63C3.68867 16.5549 3.83638 16.4471 3.95813 16.3131C4.0963 16.1724 4.28436 16.0917 4.48157 16.0887C4.67878 16.0856 4.86926 16.1603 5.01178 16.2966C5.15429 16.433 5.23736 16.62 5.24299 16.8171C5.24862 17.0143 5.17637 17.2057 5.04187 17.35C4.78073 17.6311 4.46492 17.8559 4.11381 18.0107C3.7627 18.1655 3.38369 18.2469 3 18.25C1.34531 18.25 0 16.7359 0 14.875C0 13.0141 1.34531 11.5 3 11.5C3.38369 11.5031 3.7627 11.5845 4.11381 11.7393C4.46492 11.8941 4.78073 12.1189 5.04187 12.4C5.17637 12.5443 5.24862 12.7357 5.24299 12.9329C5.23736 13.13 5.15429 13.317 5.01178 13.4533C4.86926 13.5897 4.67878 13.6644 4.48157 13.6613C4.28436 13.6583 4.0963 13.5776 3.95813 13.4369C3.83638 13.3029 3.68867 13.1951 3.52396 13.12C3.35925 13.0449 3.18098 13.0041 3 13C2.17313 13 1.5 13.8437 1.5 14.875ZM8.9625 14.0603C8.5875 13.9516 8.19938 13.84 7.98281 13.7003C7.86563 13.6244 7.8675 13.6066 7.87781 13.5222C7.87945 13.4541 7.89731 13.3873 7.92992 13.3275C7.96253 13.2676 8.00895 13.2164 8.06531 13.1781C8.49656 12.8856 9.50344 13.0159 9.92344 13.1256C10.1159 13.1772 10.3209 13.1502 10.4935 13.0506C10.6661 12.951 10.792 12.787 10.8436 12.5945C10.8952 12.4021 10.8682 12.197 10.7686 12.0245C10.669 11.8519 10.5049 11.726 10.3125 11.6744C10.1138 11.6228 8.34375 11.185 7.23375 11.9331C6.99902 12.0907 6.80178 12.2979 6.65597 12.5401C6.51017 12.7822 6.41937 13.0535 6.39 13.3347C6.2025 14.8234 7.66969 15.2481 8.54625 15.5012C9.67688 15.8284 9.77625 15.9625 9.74438 16.2128C9.71531 16.4387 9.62625 16.5259 9.54375 16.5812C9.1125 16.8681 8.12156 16.7275 7.71094 16.615C7.51899 16.5614 7.31361 16.5863 7.14 16.6841C6.96638 16.782 6.83874 16.9448 6.78516 17.1367C6.73157 17.3287 6.75644 17.534 6.85428 17.7077C6.95212 17.8813 7.11492 18.0089 7.30688 18.0625C7.77186 18.1843 8.25028 18.2473 8.73094 18.25C9.27656 18.25 9.88406 18.1562 10.3706 17.8319C10.6108 17.6723 10.8126 17.4615 10.9616 17.2146C11.1105 16.9677 11.203 16.6909 11.2322 16.4041C11.4375 14.7812 9.88969 14.3284 8.9625 14.0603ZM16.7522 11.5441C16.6594 11.5109 16.561 11.4962 16.4626 11.5011C16.3642 11.5059 16.2677 11.5301 16.1786 11.5722C16.0896 11.6144 16.0097 11.6736 15.9435 11.7467C15.8774 11.8197 15.8263 11.905 15.7931 11.9978L14.625 15.2697L13.4559 11.9978C13.3891 11.8105 13.2505 11.6574 13.0707 11.5722C12.8909 11.487 12.6847 11.4767 12.4973 11.5436C12.31 11.6105 12.1569 11.749 12.0717 11.9288C11.9865 12.1086 11.9762 12.3148 12.0431 12.5022L13.9181 17.7522C13.9701 17.8979 14.0659 18.024 14.1924 18.1132C14.3188 18.2024 14.4698 18.2502 14.6245 18.2502C14.7793 18.2502 14.9302 18.2024 15.0567 18.1132C15.1832 18.024 15.279 17.8979 15.3309 17.7522L17.2059 12.5022C17.2727 12.315 17.2624 12.1089 17.1774 11.9292C17.0923 11.7496 16.9394 11.611 16.7522 11.5441ZM17.25 6.25V8.5C17.25 8.69891 17.171 8.88968 17.0303 9.03033C16.8897 9.17098 16.6989 9.25 16.5 9.25C16.3011 9.25 16.1103 9.17098 15.9697 9.03033C15.829 8.88968 15.75 8.69891 15.75 8.5V7H11.25C11.0511 7 10.8603 6.92098 10.7197 6.78033C10.579 6.63968 10.5 6.44891 10.5 6.25V1.75H2.25V8.5C2.25 8.69891 2.17098 8.88968 2.03033 9.03033C1.88968 9.17098 1.69891 9.25 1.5 9.25C1.30109 9.25 1.11032 9.17098 0.96967 9.03033C0.829018 8.88968 0.75 8.69891 0.75 8.5V1.75C0.75 1.35218 0.908035 0.970644 1.18934 0.68934C1.47064 0.408035 1.85218 0.25 2.25 0.25H11.25C11.3485 0.249923 11.4461 0.269257 11.5371 0.306898C11.6282 0.344539 11.7109 0.399749 11.7806 0.469375L17.0306 5.71937C17.1003 5.78908 17.1555 5.87182 17.1931 5.96286C17.2307 6.05391 17.2501 6.15148 17.25 6.25ZM14.6897 5.5L12 2.81031V5.5H14.6897Z" fill="#618889"/>
</svg>
