<svg width="17" height="18" viewBox="0 0 17 18" fill="none" xmlns="http://www.w3.org/2000/svg">
<path d="M6.5 0.75H2C1.60218 0.75 1.22064 0.908035 0.93934 1.18934C0.658035 1.47064 0.5 1.85218 0.5 2.25V6.75C0.5 7.14782 0.658035 7.52936 0.93934 7.81066C1.22064 8.09196 1.60218 8.25 2 8.25H6.5C6.89782 8.25 7.27936 8.09196 7.56066 7.81066C7.84196 7.52936 8 7.14782 8 6.75V2.25C8 1.85218 7.84196 1.47064 7.56066 1.18934C7.27936 0.908035 6.89782 0.75 6.5 0.75ZM6.5 6.75H2V2.25H6.5V6.75ZM6.5 9.75H2C1.60218 9.75 1.22064 9.90804 0.93934 10.1893C0.658035 10.4706 0.5 10.8522 0.5 11.25V15.75C0.5 16.1478 0.658035 16.5294 0.93934 16.8107C1.22064 17.092 1.60218 17.25 2 17.25H6.5C6.89782 17.25 7.27936 17.092 7.56066 16.8107C7.84196 16.5294 8 16.1478 8 15.75V11.25C8 10.8522 7.84196 10.4706 7.56066 10.1893C7.27936 9.90804 6.89782 9.75 6.5 9.75ZM6.5 15.75H2V11.25H6.5V15.75ZM15.5 0.75H11C10.6022 0.75 10.2206 0.908035 9.93934 1.18934C9.65804 1.47064 9.5 1.85218 9.5 2.25V6.75C9.5 7.14782 9.65804 7.52936 9.93934 7.81066C10.2206 8.09196 10.6022 8.25 11 8.25H15.5C15.8978 8.25 16.2794 8.09196 16.5607 7.81066C16.842 7.52936 17 7.14782 17 6.75V2.25C17 1.85218 16.842 1.47064 16.5607 1.18934C16.2794 0.908035 15.8978 0.75 15.5 0.75ZM15.5 6.75H11V2.25H15.5V6.75ZM9.5 13.5V10.5C9.5 10.3011 9.57902 10.1103 9.71967 9.96967C9.86032 9.82902 10.0511 9.75 10.25 9.75C10.4489 9.75 10.6397 9.82902 10.7803 9.96967C10.921 10.1103 11 10.3011 11 10.5V13.5C11 13.6989 10.921 13.8897 10.7803 14.0303C10.6397 14.171 10.4489 14.25 10.25 14.25C10.0511 14.25 9.86032 14.171 9.71967 14.0303C9.57902 13.8897 9.5 13.6989 9.5 13.5ZM17 12C17 12.1989 16.921 12.3897 16.7803 12.5303C16.6397 12.671 16.4489 12.75 16.25 12.75H14V16.5C14 16.6989 13.921 16.8897 13.7803 17.0303C13.6397 17.171 13.4489 17.25 13.25 17.25H10.25C10.0511 17.25 9.86032 17.171 9.71967 17.0303C9.57902 16.8897 9.5 16.6989 9.5 16.5C9.5 16.3011 9.57902 16.1103 9.71967 15.9697C9.86032 15.829 10.0511 15.75 10.25 15.75H12.5V10.5C12.5 10.3011 12.579 10.1103 12.7197 9.96967C12.8603 9.82902 13.0511 9.75 13.25 9.75C13.4489 9.75 13.6397 9.82902 13.7803 9.96967C13.921 10.1103 14 10.3011 14 10.5V11.25H16.25C16.4489 11.25 16.6397 11.329 16.7803 11.4697C16.921 11.6103 17 11.8011 17 12ZM17 15V16.5C17 16.6989 16.921 16.8897 16.7803 17.0303C16.6397 17.171 16.4489 17.25 16.25 17.25C16.0511 17.25 15.8603 17.171 15.7197 17.0303C15.579 16.8897 15.5 16.6989 15.5 16.5V15C15.5 14.8011 15.579 14.6103 15.7197 14.4697C15.8603 14.329 16.0511 14.25 16.25 14.25C16.4489 14.25 16.6397 14.329 16.7803 14.4697C16.921 14.6103 17 14.8011 17 15Z" fill="white"/>
</svg>
