<svg width="26" height="25" viewBox="0 0 26 25" fill="none" xmlns="http://www.w3.org/2000/svg">
<rect x="0.75" width="25" height="25" rx="12.5" fill="#C05840"/>
<path d="M20.5244 8.4986L17.2512 5.22614C17.1424 5.11729 17.0132 5.03095 16.871 4.97204C16.7288 4.91313 16.5764 4.88281 16.4225 4.88281C16.2686 4.88281 16.1162 4.91313 15.974 4.97204C15.8318 5.03095 15.7026 5.11729 15.5938 5.22614L6.56226 14.2576C6.45297 14.3661 6.36632 14.4951 6.30735 14.6373C6.24838 14.7795 6.21826 14.9321 6.21876 15.086V18.3592C6.21876 18.67 6.34222 18.9681 6.56199 19.1878C6.78176 19.4076 7.07983 19.5311 7.39063 19.5311H19.6953C19.8507 19.5311 19.9998 19.4693 20.1096 19.3595C20.2195 19.2496 20.2813 19.1005 20.2813 18.9451C20.2813 18.7897 20.2195 18.6407 20.1096 18.5308C19.9998 18.4209 19.8507 18.3592 19.6953 18.3592H12.3213L20.5244 10.1561C20.6333 10.0473 20.7196 9.91805 20.7785 9.77586C20.8374 9.63366 20.8677 9.48125 20.8677 9.32734C20.8677 9.17342 20.8374 9.02101 20.7785 8.87882C20.7196 8.73662 20.6333 8.60742 20.5244 8.4986ZM10.6638 18.3592H7.39063V15.086L13.8359 8.64069L17.1091 11.9139L10.6638 18.3592ZM17.9375 11.0855L14.665 7.81232L16.4229 6.05451L19.6953 9.3277L17.9375 11.0855Z" fill="white"/>
</svg>
