<svg width="22" height="18" viewBox="0 0 22 18" fill="none" xmlns="http://www.w3.org/2000/svg">
<path d="M18.8456 0.964844H2.97347C2.27211 0.965594 1.5997 1.24454 1.10376 1.74048C0.607822 2.23641 0.328875 2.90883 0.328125 3.61019V14.9474C0.328875 15.6488 0.607822 16.3212 1.10376 16.8171C1.5997 17.3131 2.27211 17.592 2.97347 17.5928H18.8456C19.5469 17.592 20.2193 17.3131 20.7153 16.8171C21.2112 16.3212 21.4902 15.6488 21.4909 14.9474V3.61019C21.4902 2.90883 21.2112 2.23641 20.7153 1.74048C20.2193 1.24454 19.5469 0.965594 18.8456 0.964844ZM18.1757 5.34053L11.3734 10.6312C11.2408 10.7343 11.0775 10.7903 10.9095 10.7903C10.7415 10.7903 10.5783 10.7343 10.4456 10.6312L3.64331 5.34053C3.56339 5.28018 3.49626 5.20454 3.44583 5.11802C3.39539 5.0315 3.36265 4.93581 3.34951 4.83653C3.33638 4.73725 3.3431 4.63634 3.3693 4.53968C3.3955 4.44301 3.44065 4.35252 3.50212 4.27346C3.56359 4.19439 3.64017 4.12834 3.72739 4.07912C3.81461 4.02991 3.91075 3.99852 4.01021 3.98678C4.10967 3.97504 4.21047 3.98319 4.30675 4.01074C4.40304 4.0383 4.49289 4.08471 4.57108 4.14729L10.9095 9.07709L17.248 4.14729C17.4065 4.0276 17.6057 3.97511 17.8026 4.00116C17.9995 4.02721 18.1782 4.12972 18.3001 4.28652C18.422 4.44331 18.4773 4.64179 18.4541 4.83903C18.4308 5.03628 18.3308 5.21643 18.1757 5.34053Z" fill="white"/>
</svg>
