<svg width="45" height="45" viewBox="0 0 45 45" fill="none" xmlns="http://www.w3.org/2000/svg">
<path d="M21.25 15.75V20.25C21.25 20.6478 21.092 21.0294 20.8107 21.3107C20.5294 21.592 20.1478 21.75 19.75 21.75H15.25C14.8522 21.75 14.4706 21.592 14.1893 21.3107C13.908 21.0294 13.75 20.6478 13.75 20.25V15.75C13.75 15.3522 13.908 14.9706 14.1893 14.6893C14.4706 14.408 14.8522 14.25 15.25 14.25H19.75C20.1478 14.25 20.5294 14.408 20.8107 14.6893C21.092 14.9706 21.25 15.3522 21.25 15.75ZM28.75 14.25H24.25C23.8522 14.25 23.4706 14.408 23.1893 14.6893C22.908 14.9706 22.75 15.3522 22.75 15.75V20.25C22.75 20.6478 22.908 21.0294 23.1893 21.3107C23.4706 21.592 23.8522 21.75 24.25 21.75H28.75C29.1478 21.75 29.5294 21.592 29.8107 21.3107C30.092 21.0294 30.25 20.6478 30.25 20.25V15.75C30.25 15.3522 30.092 14.9706 29.8107 14.6893C29.5294 14.408 29.1478 14.25 28.75 14.25ZM19.75 23.25H15.25C14.8522 23.25 14.4706 23.408 14.1893 23.6893C13.908 23.9706 13.75 24.3522 13.75 24.75V29.25C13.75 29.6478 13.908 30.0294 14.1893 30.3107C14.4706 30.592 14.8522 30.75 15.25 30.75H19.75C20.1478 30.75 20.5294 30.592 20.8107 30.3107C21.092 30.0294 21.25 29.6478 21.25 29.25V24.75C21.25 24.3522 21.092 23.9706 20.8107 23.6893C20.5294 23.408 20.1478 23.25 19.75 23.25ZM28.75 23.25H24.25C23.8522 23.25 23.4706 23.408 23.1893 23.6893C22.908 23.9706 22.75 24.3522 22.75 24.75V29.25C22.75 29.6478 22.908 30.0294 23.1893 30.3107C23.4706 30.592 23.8522 30.75 24.25 30.75H28.75C29.1478 30.75 29.5294 30.592 29.8107 30.3107C30.092 30.0294 30.25 29.6478 30.25 29.25V24.75C30.25 24.3522 30.092 23.9706 29.8107 23.6893C29.5294 23.408 29.1478 23.25 28.75 23.25Z" fill="#B1B1B1"/>
</svg>
