<svg width="18" height="18" viewBox="0 0 18 18" fill="none" xmlns="http://www.w3.org/2000/svg">
<path d="M2.25 10.25H6.75C7.01522 10.25 7.26949 10.3554 7.45703 10.543C7.64457 10.7305 7.75 10.9848 7.75 11.25V15.75C7.75 15.9821 7.66927 16.2058 7.52344 16.3838L7.45703 16.457C7.2695 16.6446 7.01522 16.75 6.75 16.75H2.25C2.01791 16.75 1.79417 16.6693 1.61621 16.5234L1.54297 16.457C1.35543 16.2695 1.25 16.0152 1.25 15.75V11.25L1.25488 11.1514C1.27434 10.955 1.35151 10.7688 1.47656 10.6162L1.54297 10.543C1.73051 10.3554 1.98478 10.25 2.25 10.25ZM11.25 10.25H15.75C15.9821 10.25 16.2058 10.3307 16.3838 10.4766L16.457 10.543C16.6446 10.7305 16.75 10.9848 16.75 11.25V15.75C16.75 15.9821 16.6693 16.2058 16.5234 16.3838L16.457 16.457C16.2695 16.6446 16.0152 16.75 15.75 16.75H11.25C11.0179 16.75 10.7942 16.6693 10.6162 16.5234L10.543 16.457C10.3554 16.2695 10.25 16.0152 10.25 15.75V11.25C10.25 10.9848 10.3554 10.7305 10.543 10.543C10.7305 10.3554 10.9848 10.25 11.25 10.25ZM2.25 1.25H6.75C6.98209 1.25 7.20583 1.33073 7.38379 1.47656L7.45703 1.54297C7.64457 1.73051 7.75 1.98478 7.75 2.25V6.75C7.75 7.01522 7.64457 7.26949 7.45703 7.45703C7.26949 7.64457 7.01522 7.75 6.75 7.75H2.25C2.01791 7.75 1.79417 7.66927 1.61621 7.52344L1.54297 7.45703C1.35543 7.2695 1.25 7.01522 1.25 6.75V2.25C1.25 2.01791 1.33073 1.79417 1.47656 1.61621L1.54297 1.54297C1.70711 1.37883 1.92237 1.27757 2.15137 1.25488L2.25 1.25ZM11.25 1.25H15.75C15.9821 1.25 16.2058 1.33073 16.3838 1.47656L16.457 1.54297C16.6446 1.73051 16.75 1.98478 16.75 2.25V6.75C16.75 6.98209 16.6693 7.20583 16.5234 7.38379L16.457 7.45703C16.2695 7.64457 16.0152 7.75 15.75 7.75H11.25C10.9848 7.75 10.7305 7.64457 10.543 7.45703C10.3554 7.26949 10.25 7.01522 10.25 6.75V2.25C10.25 2.01791 10.3307 1.79417 10.4766 1.61621L10.543 1.54297C10.7305 1.35543 10.9848 1.25 11.25 1.25Z" stroke="#000080"/>
</svg>
