<svg width="36" height="43" viewBox="0 0 36 43" fill="none" xmlns="http://www.w3.org/2000/svg">
<rect width="36" height="43" rx="6" fill="#E7EDED"/>
<path d="M14.8333 14.666H14.6667C14.7583 14.666 14.8333 14.591 14.8333 14.4993V14.666ZM14.8333 14.666H21.1667V14.4993C21.1667 14.591 21.2417 14.666 21.3333 14.666H21.1667V16.166H22.6667V14.4993C22.6667 13.7639 22.0688 13.166 21.3333 13.166H14.6667C13.9313 13.166 13.3333 13.7639 13.3333 14.4993V16.166H14.8333V14.666ZM25.3333 16.166H10.6667C10.2979 16.166 10 16.4639 10 16.8327V17.4993C10 17.591 10.075 17.666 10.1667 17.666H11.425L11.9396 28.5618C11.9729 29.2723 12.5604 29.8327 13.2708 29.8327H22.7292C23.4417 29.8327 24.0271 29.2743 24.0604 28.5618L24.575 17.666H25.8333C25.925 17.666 26 17.591 26 17.4993V16.8327C26 16.4639 25.7021 16.166 25.3333 16.166ZM22.5688 28.3327H13.4313L12.9271 17.666H23.0729L22.5688 28.3327Z" fill="#363636"/>
</svg>
