<svg width="36" height="37" viewBox="0 0 36 37" fill="none" xmlns="http://www.w3.org/2000/svg">
<rect width="36" height="36.6667" rx="6" fill="#EF4444"/>
<path d="M14.8333 11.5H14.6667C14.7583 11.5 14.8333 11.425 14.8333 11.3333V11.5ZM14.8333 11.5H21.1667V11.3333C21.1667 11.425 21.2417 11.5 21.3333 11.5H21.1667V13H22.6667V11.3333C22.6667 10.5979 22.0688 10 21.3333 10H14.6667C13.9313 10 13.3333 10.5979 13.3333 11.3333V13H14.8333V11.5ZM25.3333 13H10.6667C10.2979 13 10 13.2979 10 13.6667V14.3333C10 14.425 10.075 14.5 10.1667 14.5H11.425L11.9396 25.3958C11.9729 26.1062 12.5604 26.6667 13.2708 26.6667H22.7292C23.4417 26.6667 24.0271 26.1083 24.0604 25.3958L24.575 14.5H25.8333C25.925 14.5 26 14.425 26 14.3333V13.6667C26 13.2979 25.7021 13 25.3333 13ZM22.5688 25.1667H13.4313L12.9271 14.5H23.0729L22.5688 25.1667Z" fill="white"/>
</svg>
