<svg width="28" height="24" viewBox="0 0 28 24" fill="none" xmlns="http://www.w3.org/2000/svg">
<mask id="mask0_3111_41107" style="mask-type:alpha" maskUnits="userSpaceOnUse" x="0" y="0" width="28" height="24">
<rect width="28" height="24" fill="#D9D9D9"/>
</mask>
<g mask="url(#mask0_3111_41107)">
<path d="M1 18V16.4877C1 15.6624 1.39273 14.9846 2.1782 14.4541C2.96385 13.9238 3.98783 13.6587 5.25015 13.6587C5.45872 13.6587 5.66879 13.6658 5.88037 13.6801C6.09195 13.6944 6.30504 13.7222 6.51963 13.7635C6.29938 14.1501 6.13594 14.5513 6.0293 14.967C5.92286 15.3829 5.86963 15.8095 5.86963 16.2467V18H1ZM7.78261 18V16.2945C7.78261 15.7138 7.93117 15.183 8.22828 14.7022C8.5254 14.2211 8.95364 13.8018 9.51302 13.4441C10.0724 13.0863 10.7333 12.8179 11.4958 12.6391C12.2581 12.4601 13.0914 12.3706 13.9958 12.3706C14.9174 12.3706 15.7594 12.4601 16.5217 12.6391C17.284 12.8179 17.9448 13.0863 18.5042 13.4441C19.0638 13.8018 19.4892 14.2211 19.7805 14.7022C20.0718 15.183 20.2174 15.7138 20.2174 16.2945V18H7.78261ZM22.1304 18V16.2505C22.1304 15.7839 22.0801 15.3442 21.9795 14.9313C21.8787 14.5187 21.7276 14.1294 21.5262 13.7635C21.7479 13.7222 21.9599 13.6944 22.162 13.6801C22.3642 13.6658 22.5638 13.6587 22.7609 13.6587C24.0232 13.6587 25.0453 13.9207 25.8272 14.4448C26.6091 14.9686 27 15.6496 27 16.4877V18H22.1304ZM9.5653 16.1394H18.4522V16.0083C18.3363 15.5074 17.8552 15.086 17.0087 14.744C16.1623 14.4021 15.1594 14.2311 14 14.2311C12.8406 14.2311 11.8377 14.4021 10.9913 14.744C10.1448 15.086 9.66949 15.5074 9.5653 16.0083V16.1394ZM5.24704 12.454C4.71423 12.454 4.25904 12.2461 3.88148 11.8304C3.50391 11.4147 3.31513 10.9149 3.31513 10.3311C3.31513 9.73966 3.50467 9.24 3.88374 8.83212C4.26262 8.42425 4.71809 8.22031 5.25015 8.22031C5.78918 8.22031 6.24635 8.42425 6.62165 8.83212C6.99714 9.24 7.18489 9.7409 7.18489 10.3348C7.18489 10.9112 6.99912 11.4085 6.62759 11.8267C6.25624 12.2449 5.79606 12.454 5.24704 12.454ZM22.7609 12.454C22.2333 12.454 21.779 12.2449 21.3978 11.8267C21.0167 11.4085 20.8261 10.9112 20.8261 10.3348C20.8261 9.7409 21.0167 9.24 21.3978 8.83212C21.779 8.42425 22.234 8.22031 22.7628 8.22031C23.3079 8.22031 23.7663 8.42425 24.138 8.83212C24.5097 9.24 24.6956 9.73966 24.6956 10.3311C24.6956 10.9149 24.5102 11.4147 24.1394 11.8304C23.7687 12.2461 23.3091 12.454 22.7609 12.454ZM14.004 11.4403C13.1897 11.4403 12.4963 11.1272 11.924 10.501C11.3516 9.87506 11.0654 9.11482 11.0654 8.22031C11.0654 7.30781 11.3506 6.54302 11.9211 5.92594C12.4918 5.30864 13.1848 5 14 5C14.8314 5 15.5284 5.30823 16.091 5.9247C16.6534 6.54095 16.9346 7.30471 16.9346 8.21597C16.9346 9.10924 16.6538 9.87 16.0922 10.4982C15.5303 11.1263 14.8343 11.4403 14.004 11.4403ZM14.0054 9.57975C14.3511 9.57975 14.6431 9.44703 14.8815 9.18159C15.12 8.91595 15.2392 8.59345 15.2392 8.21411C15.2392 7.83497 15.1204 7.51454 14.8829 7.25282C14.6453 6.99131 14.351 6.86055 14 6.86055C13.658 6.86055 13.366 6.9909 13.1239 7.25158C12.8818 7.51206 12.7608 7.83497 12.7608 8.22031C12.7608 8.59552 12.8818 8.91595 13.1239 9.18159C13.366 9.44703 13.6598 9.57975 14.0054 9.57975Z" fill="#486566"/>
</g>
</svg>
