<svg width="44" height="44" viewBox="0 0 44 44" fill="none" xmlns="http://www.w3.org/2000/svg">
<g filter="url(#filter0_d_2013_116300)">
<circle cx="22" cy="20" r="19" fill="#BABABA"/>
</g>
<path d="M28 10.1914V12.1914M16 10.1914V12.1914M21.05 30.1914C17.02 30.1914 15.004 30.1914 13.752 28.8374C12.5 27.4844 12.5 25.3054 12.5 20.9474V20.4344C12.5 16.0774 12.5 13.8984 13.752 12.5444C15.004 11.1914 17.02 11.1914 21.05 11.1914H22.95C26.98 11.1914 28.996 11.1914 30.248 12.5454C31.427 13.8194 31.496 15.8254 31.5 19.6914V21.1914" stroke="white" stroke-width="1.5" stroke-linecap="round" stroke-linejoin="round"/>
<path d="M23 25.6914H31M23 25.6914C23 26.3914 24.994 27.7004 25.5 28.1914M23 25.6914C23 24.9914 24.994 23.6834 25.5 23.1914M13 16.1914H31" stroke="white" stroke-width="1.5" stroke-linecap="round" stroke-linejoin="round"/>
<defs>
<filter id="filter0_d_2013_116300" x="0.0769231" y="0.0769231" width="43.8462" height="43.8462" filterUnits="userSpaceOnUse" color-interpolation-filters="sRGB">
<feFlood flood-opacity="0" result="BackgroundImageFix"/>
<feColorMatrix in="SourceAlpha" type="matrix" values="0 0 0 0 0 0 0 0 0 0 0 0 0 0 0 0 0 0 127 0" result="hardAlpha"/>
<feOffset dy="2"/>
<feGaussianBlur stdDeviation="1.46154"/>
<feComposite in2="hardAlpha" operator="out"/>
<feColorMatrix type="matrix" values="0 0 0 0 0 0 0 0 0 0 0 0 0 0 0 0 0 0 0.25 0"/>
<feBlend mode="normal" in2="BackgroundImageFix" result="effect1_dropShadow_2013_116300"/>
<feBlend mode="normal" in="SourceGraphic" in2="effect1_dropShadow_2013_116300" result="shape"/>
</filter>
</defs>
</svg>
