<svg width="44" height="44" viewBox="0 0 44 44" fill="none" xmlns="http://www.w3.org/2000/svg">
<g filter="url(#filter0_d_2013_116301)">
<circle cx="22" cy="20" r="19" fill="white"/>
</g>
<path d="M16.5 10V12M28.5 10V12M23.45 30C27.48 30 29.496 30 30.748 28.646C32 27.293 32 25.114 32 20.756V20.243C32 15.886 32 13.707 30.748 12.353C29.496 11 27.48 11 23.45 11H21.55C17.52 11 15.504 11 14.252 12.354C13.073 13.628 13.004 15.634 13 19.5V21" stroke="#618889" stroke-width="1.5" stroke-linecap="round" stroke-linejoin="round"/>
<path d="M21.5 25.5H13.5M21.5 25.5C21.5 26.2 19.506 27.509 19 28M21.5 25.5C21.5 24.8 19.506 23.492 19 23M31.5 16H13.5" stroke="#618889" stroke-width="1.5" stroke-linecap="round" stroke-linejoin="round"/>
<defs>
<filter id="filter0_d_2013_116301" x="0.0769231" y="0.0769231" width="43.8462" height="43.8462" filterUnits="userSpaceOnUse" color-interpolation-filters="sRGB">
<feFlood flood-opacity="0" result="BackgroundImageFix"/>
<feColorMatrix in="SourceAlpha" type="matrix" values="0 0 0 0 0 0 0 0 0 0 0 0 0 0 0 0 0 0 127 0" result="hardAlpha"/>
<feOffset dy="2"/>
<feGaussianBlur stdDeviation="1.46154"/>
<feComposite in2="hardAlpha" operator="out"/>
<feColorMatrix type="matrix" values="0 0 0 0 0 0 0 0 0 0 0 0 0 0 0 0 0 0 0.25 0"/>
<feBlend mode="normal" in2="BackgroundImageFix" result="effect1_dropShadow_2013_116301"/>
<feBlend mode="normal" in="SourceGraphic" in2="effect1_dropShadow_2013_116301" result="shape"/>
</filter>
</defs>
</svg>
