<svg width="19" height="22" viewBox="0 0 19 22" fill="none" xmlns="http://www.w3.org/2000/svg">
<path d="M14 0.59375C14.7652 0.593707 15.5015 0.886075 16.0583 1.41103C16.615 1.93599 16.9501 2.65386 16.995 3.41775L17 3.59375V13.5938H17.75C18.397 13.5938 18.93 14.0857 18.994 14.7157L19 14.8438V16.5938C19 17.359 18.7077 18.0953 18.1827 18.652C17.6578 19.2088 16.9399 19.5439 16.176 19.5888L16 19.5938H6C5.23479 19.5938 4.49849 19.3014 3.94174 18.7765C3.38499 18.2515 3.04989 17.5336 3.005 16.7698L3 16.5938V6.59375H1.25C0.940542 6.59389 0.642032 6.47924 0.412234 6.27198C0.182437 6.06472 0.0376885 5.77958 0.00600005 5.47175L4.66045e-09 5.34375V3.59375C-4.26217e-05 2.82854 0.292325 2.09224 0.817284 1.53549C1.34224 0.978743 2.06011 0.643642 2.824 0.59875L3 0.59375H14ZM14 2.59375H5V16.5938C5 16.859 5.10536 17.1133 5.29289 17.3009C5.48043 17.4884 5.73478 17.5938 6 17.5938C6.26522 17.5938 6.51957 17.4884 6.70711 17.3009C6.89464 17.1133 7 16.859 7 16.5938V14.8438C7 14.1538 7.56 13.5938 8.25 13.5938H15V3.59375C15 3.32853 14.8946 3.07418 14.7071 2.88664C14.5196 2.69911 14.2652 2.59375 14 2.59375ZM17 15.5938H9V16.5938C9 16.9438 8.94 17.2808 8.83 17.5938H16C16.2652 17.5938 16.5196 17.4884 16.7071 17.3009C16.8946 17.1133 17 16.859 17 16.5938V15.5938ZM10 9.59375C10.2652 9.59375 10.5196 9.69911 10.7071 9.88664C10.8946 10.0742 11 10.3285 11 10.5938C11 10.859 10.8946 11.1133 10.7071 11.3009C10.5196 11.4884 10.2652 11.5938 10 11.5938H8C7.73478 11.5938 7.48043 11.4884 7.29289 11.3009C7.10536 11.1133 7 10.859 7 10.5938C7 10.3285 7.10536 10.0742 7.29289 9.88664C7.48043 9.69911 7.73478 9.59375 8 9.59375H10ZM12 5.59375C12.2652 5.59375 12.5196 5.69911 12.7071 5.88664C12.8946 6.07418 13 6.32853 13 6.59375C13 6.85897 12.8946 7.11332 12.7071 7.30086C12.5196 7.48839 12.2652 7.59375 12 7.59375H8C7.73478 7.59375 7.48043 7.48839 7.29289 7.30086C7.10536 7.11332 7 6.85897 7 6.59375C7 6.32853 7.10536 6.07418 7.29289 5.88664C7.48043 5.69911 7.73478 5.59375 8 5.59375H12ZM3 2.59375C2.75507 2.59378 2.51866 2.68371 2.33563 2.84647C2.15259 3.00922 2.03566 3.2335 2.007 3.47675L2 3.59375V4.59375H3V2.59375Z" fill="black"/>
</svg>
