<svg width="35" height="36" viewBox="0 0 35 36" fill="none" xmlns="http://www.w3.org/2000/svg">
<path fill-rule="evenodd" clip-rule="evenodd" d="M31.7987 34.4581C31.7987 34.7629 31.5509 35.0135 31.2432 35.0135H3.59899C3.29421 35.0135 3.04354 34.7657 3.04354 34.4581V16.5869C2.42258 16.8261 1.84434 16.829 1.36295 16.6695C0.986958 16.5413 0.667931 16.3163 0.437206 16.02C0.203633 15.7266 0.0555136 15.3677 0.0127867 14.9746C-0.0527277 14.3622 0.129573 13.6672 0.65084 13.0178C0.679325 12.9836 0.70781 12.9551 0.741991 12.9266L17.0807 1.13401C17.2773 0.951705 17.5792 0.934614 17.7957 1.10267L34.1686 12.8725C34.1914 12.8896 34.2142 12.9124 34.2341 12.9323C34.9348 13.6871 35.1086 14.5217 34.9405 15.2339C34.8551 15.5814 34.6899 15.8975 34.4591 16.1539C34.2284 16.4131 33.9379 16.6125 33.6018 16.7321C33.0691 16.9258 32.4424 16.9173 31.8015 16.6154C31.7987 21.3267 31.7987 29.7524 31.7987 34.4581ZM19.7583 7.79939V12.4139H18.129V10.6934H16.8642V12.4139H15.2349V7.79939H16.8642V9.49707H18.129V7.79939H19.7583ZM22.658 10.2804C22.6124 11.6391 22.0456 12.8639 21.1483 13.7612C20.214 14.6955 18.9208 15.2737 17.4966 15.2737C16.0695 15.2737 14.7792 14.6955 13.8449 13.7612C12.9476 12.8639 12.3808 11.642 12.3352 10.2832L4.42219 15.8662C4.43359 15.9118 4.43928 15.9602 4.43928 16.0086V33.6149H8.18785V17.3104C8.18785 16.9543 8.48124 16.6609 8.8373 16.6609H9.50099C9.85705 16.6609 10.1504 16.9543 10.1504 17.3104V22.8763C16.1493 22.8763 18.8382 22.8763 24.8399 22.8763V17.7092C24.8399 17.3531 25.1333 17.0597 25.4894 17.0597H26.1531C26.5091 17.0597 26.8025 17.3531 26.8025 17.7092V33.6149H30.4029V15.9688C30.4029 15.9317 30.4058 15.8975 30.4115 15.8634L22.658 10.2804ZM20.5701 7.03315C19.7839 6.24698 18.6986 5.7599 17.4966 5.7599C16.2974 5.7599 15.2093 6.24698 14.4231 7.03315C13.6369 7.81933 13.1499 8.90459 13.1499 10.1066C13.1499 11.3087 13.6369 12.3939 14.4231 13.1801C15.2093 13.9663 16.2946 14.4534 17.4966 14.4534C18.6958 14.4534 19.7839 13.9663 20.5701 13.1801C21.3563 12.3939 21.8433 11.3087 21.8433 10.1066C21.8433 8.90459 21.3563 7.81933 20.5701 7.03315ZM24.8399 33.6149V32.8686H10.1533V33.6149H24.8399ZM12.5118 26.3941C13.1669 26.3941 13.6968 26.9239 13.6968 27.5791C13.6968 28.2342 13.1669 28.764 12.5118 28.764C11.8567 28.764 11.3268 28.2342 11.3268 27.5791C11.3268 26.9239 11.8595 26.3941 12.5118 26.3941ZM16.2604 24.5882V24.5939L16.0353 24.8275H16.2689V24.9129H15.8901V24.8303L16.1123 24.5996H15.9129V24.591H10.1533V31.1653C10.6859 31.1653 16.7873 31.1653 24.8428 31.1653V24.5882H16.2604ZM13.5344 25.2519H14.2921V25.4256L13.805 25.9327H14.3092V26.1207L13.486 26.2802V25.9412L13.9674 25.4399H13.5316V25.2519H13.5344ZM14.896 24.9471H15.4372V25.0696L15.0897 25.4313H15.4486V25.5652H14.8618V25.437L15.2036 25.0781H14.8931L14.896 24.9471ZM15.9841 26.6134H22.4415C23.2305 26.6134 23.8771 27.26 23.8771 28.0491V30.2481C19.6956 30.2481 15.2976 30.2481 11.1189 30.2481V29.2568C11.1189 29.103 11.2471 28.9748 11.4009 28.9748H13.9104C13.9702 27.4224 14.6624 26.6334 15.9841 26.6134ZM12.5118 17.9883C13.1669 17.9883 13.6968 18.5181 13.6968 19.1733C13.6968 19.8284 13.1669 20.3582 12.5118 20.3582C11.8567 20.3582 11.3268 19.8284 11.3268 19.1733C11.3268 18.521 11.8595 17.9883 12.5118 17.9883ZM15.9129 16.1083H16.2604V16.1881L16.0353 16.4217H16.2689V16.5071H15.8901V16.4245L16.1123 16.1938H15.9129V16.1083ZM13.5344 16.8461H14.2921V17.0198L13.805 17.5269H14.3092V17.7149L13.486 17.8744V17.5354L13.9674 17.0341H13.5316V16.8461H13.5344ZM14.896 16.5441H15.4372V16.6666L15.0897 17.0284H15.4486V17.1623H14.8618V17.0341L15.2036 16.6752H14.8931L14.896 16.5441ZM15.9841 18.2105H22.4415C23.2305 18.2105 23.8771 18.8571 23.8771 19.6461V21.8451C19.6956 21.8451 15.2976 21.8451 11.1189 21.8451V20.8539C11.1189 20.7 11.2471 20.5719 11.4009 20.5719H13.9104C13.9702 19.0166 14.6624 18.2304 15.9841 18.2105Z" fill="white"/>
</svg>
