<svg width="24" height="24" viewBox="0 0 24 24" fill="none" xmlns="http://www.w3.org/2000/svg">
<g clip-path="url(#clip0_4495_5091)">
<path d="M8.78122 18.9693C8.8509 19.039 8.90617 19.1217 8.94388 19.2128C8.9816 19.3038 9.00101 19.4014 9.00101 19.4999C9.00101 19.5985 8.9816 19.6961 8.94388 19.7871C8.90617 19.8781 8.8509 19.9609 8.78122 20.0306C8.71153 20.1002 8.62881 20.1555 8.53776 20.1932C8.44672 20.2309 8.34914 20.2503 8.25059 20.2503C8.15204 20.2503 8.05446 20.2309 7.96342 20.1932C7.87237 20.1555 7.78965 20.1002 7.71996 20.0306L0.219965 12.5306C0.150232 12.4609 0.0949136 12.3782 0.0571704 12.2871C0.0194272 12.1961 0 12.0985 0 11.9999C0 11.9014 0.0194272 11.8038 0.0571704 11.7127C0.0949136 11.6217 0.150232 11.539 0.219965 11.4693L7.71996 3.9693C7.8607 3.82857 8.05157 3.74951 8.25059 3.74951C8.44961 3.74951 8.64048 3.82857 8.78122 3.9693C8.92195 4.11003 9.00101 4.30091 9.00101 4.49993C9.00101 4.69895 8.92195 4.88982 8.78122 5.03055L1.8109 11.9999L8.78122 18.9693Z" fill="white"/>
</g>
<defs>
<clipPath id="clip0_4495_5091">
<rect width="24" height="24" fill="white"/>
</clipPath>
</defs>
</svg>
