<svg width="19" height="23" viewBox="0 0 19 23" fill="none" xmlns="http://www.w3.org/2000/svg">
<path d="M9.49761 11.3398C10.0988 11.3398 10.6127 11.1257 11.0394 10.6976C11.4664 10.2694 11.6799 9.75475 11.6799 9.1536C11.6799 8.55246 11.4658 8.03841 11.0376 7.61147C10.6095 7.18473 10.0947 6.97135 9.49338 6.97135C8.89224 6.97135 8.37829 7.18543 7.95155 7.61358C7.52461 8.04174 7.31114 8.55649 7.31114 9.15783C7.31114 9.75898 7.52521 10.2729 7.95336 10.6997C8.38152 11.1264 8.89627 11.3398 9.49761 11.3398ZM9.4955 20.5814C11.8594 18.4652 13.6684 16.4354 14.9224 14.492C16.1765 12.5486 16.8035 10.8465 16.8035 9.3856C16.8035 7.18281 16.1037 5.37192 14.704 3.95294C13.3044 2.53395 11.5682 1.82446 9.4955 1.82446C7.4228 1.82446 5.68663 2.53395 4.28698 3.95294C2.88733 5.37192 2.1875 7.18281 2.1875 9.3856C2.1875 10.8465 2.81452 12.5486 4.06857 14.492C5.32262 16.4354 7.1316 18.4652 9.4955 20.5814ZM9.4955 22.9932C6.45453 20.3583 4.1742 17.9061 2.65452 15.6366C1.13484 13.367 0.375 11.2833 0.375 9.3856C0.375 6.59717 1.27692 4.3397 3.08076 2.6132C4.8848 0.88669 7.02305 0.0234375 9.4955 0.0234375C11.968 0.0234375 14.1062 0.88669 15.9102 2.6132C17.7141 4.3397 18.616 6.59717 18.616 9.3856C18.616 11.2833 17.8562 13.367 16.3365 15.6366C14.8168 17.9061 12.5365 20.3583 9.4955 22.9932Z" fill="#608082"/>
</svg>
