<svg width="209" height="208" viewBox="0 0 209 208" fill="none" xmlns="http://www.w3.org/2000/svg">
<g clip-path="url(#clip0_485_42669)">
<path d="M30.9491 191.078C71.5479 213.623 137.406 213.623 178.005 191.078C218.604 168.534 218.604 132.063 178.005 109.518C137.406 86.9732 71.5479 86.9732 30.9491 109.518C-9.6497 132.063 -9.6497 168.586 30.9491 191.078Z" fill="#F5F5F5"/>
<path d="M58.2283 54.9164L66.1276 49.7137C66.8165 49.2933 67.9187 49.2933 68.5617 49.7137L69.5721 50.3969C70.261 50.8173 70.8121 51.9209 70.8121 52.8143V63.2196C70.8121 64.1129 70.261 65.2165 69.5721 65.6369L61.6728 70.8396C60.9839 71.26 59.8816 71.26 59.2387 70.8396L58.2283 70.1564C57.5394 69.736 56.9883 68.6324 56.9883 67.739V57.3338C56.9883 56.4404 57.5394 55.3368 58.2283 54.9164Z" fill="#5555AA"/>
<path opacity="0.5" d="M58.2283 54.9164L66.1276 49.7137C66.8165 49.2933 67.9187 49.2933 68.5617 49.7137L69.5721 50.3969C70.261 50.8173 70.8121 51.9209 70.8121 52.8143V63.2196C70.8121 64.1129 70.261 65.2165 69.5721 65.6369L61.6728 70.8396C60.9839 71.26 59.8816 71.26 59.2387 70.8396L58.2283 70.1564C57.5394 69.736 56.9883 68.6324 56.9883 67.739V57.3338C56.9883 56.4404 57.5394 55.3368 58.2283 54.9164Z" fill="white"/>
<path d="M70.766 52.762C70.766 51.8687 70.2149 51.5008 69.526 51.9738L61.6267 57.1764C60.9378 57.5968 60.3867 58.7004 60.3867 59.5938V69.999C60.3867 70.8924 60.9378 71.2603 61.6267 70.7873L69.526 65.5847C70.2149 65.1643 70.766 64.0607 70.766 63.1673V52.762Z" fill="#5555AA"/>
<path d="M56.9883 67.7394C56.9883 68.6328 57.5394 69.7363 58.2283 70.1568L59.2387 70.8399C59.8357 71.2603 60.8002 71.2603 61.4891 70.945C60.892 71.2078 60.4787 70.8399 60.4787 69.9991V59.5938C60.4787 59.1734 60.6165 58.6479 60.8461 58.2275L57.4016 55.9678C57.172 56.3882 57.0342 56.9137 57.0342 57.3341V67.7394H56.9883Z" fill="#5555AA"/>
<path opacity="0.1" d="M56.9883 67.7394C56.9883 68.6328 57.5394 69.7363 58.2283 70.1568L59.2387 70.8399C59.8357 71.2603 60.8002 71.2603 61.4891 70.945C60.892 71.2078 60.4787 70.8399 60.4787 69.9991V59.5938C60.4787 59.1734 60.6165 58.6479 60.8461 58.2275L57.4016 55.9678C57.172 56.3882 57.0342 56.9137 57.0342 57.3341V67.7394H56.9883Z" fill="black"/>
<path d="M62.2707 60.3294L68.9759 55.8625C69.1596 55.7574 69.2974 55.8625 69.2974 56.0727V61.2754C69.2974 61.5381 69.1596 61.8009 68.9759 61.906L62.2707 66.3729C62.087 66.478 61.9492 66.3729 61.9492 66.1627V60.96C61.9492 60.6973 62.087 60.4345 62.2707 60.3294Z" fill="white"/>
<path d="M61.9492 60.5397L65.9448 62.0111L69.2974 55.6523L66.0367 62.5366L61.9492 60.5397Z" fill="#5555AA"/>
<path d="M58.6892 75.4115L66.5885 70.2089C67.2774 69.7885 68.3797 69.7885 69.0226 70.2089L70.033 70.892C70.7219 71.3125 71.273 72.416 71.273 73.3094V83.7147C71.273 84.6081 70.7219 85.7116 70.033 86.1321L62.1337 91.3347C61.4448 91.7551 60.3426 91.7551 59.6996 91.3347L58.6892 90.6515C58.0003 90.2311 57.4492 89.1275 57.4492 88.2341V77.8289C57.4492 76.9355 58.0003 75.8319 58.6892 75.4115Z" fill="#5555AA"/>
<path opacity="0.5" d="M58.6892 75.4115L66.5885 70.2089C67.2774 69.7885 68.3797 69.7885 69.0226 70.2089L70.033 70.892C70.7219 71.3125 71.273 72.416 71.273 73.3094V83.7147C71.273 84.6081 70.7219 85.7116 70.033 86.1321L62.1337 91.3347C61.4448 91.7551 60.3426 91.7551 59.6996 91.3347L58.6892 90.6515C58.0003 90.2311 57.4492 89.1275 57.4492 88.2341V77.8289C57.4492 76.9355 58.0003 75.8319 58.6892 75.4115Z" fill="white"/>
<path d="M71.227 73.3099C71.227 72.4165 70.6759 72.0487 69.987 72.5216L62.0877 77.7243C61.3988 78.1447 60.8477 79.2483 60.8477 80.1416V90.5469C60.8477 91.4403 61.3988 91.8081 62.0877 91.3352L69.987 86.1325C70.6759 85.7121 71.227 84.6085 71.227 83.7152V73.3099Z" fill="#5555AA"/>
<path d="M57.4492 88.2345C57.4492 89.1279 58.0003 90.2315 58.6892 90.6519L59.6996 91.335C60.2966 91.7555 61.2611 91.7555 61.95 91.4402C61.3529 91.7029 60.9396 91.3351 60.9396 90.4942V80.089C60.9396 79.6686 61.0774 79.143 61.307 78.7226L57.8626 76.4629C57.6329 76.8833 57.4951 77.4088 57.4951 77.8292V88.2345H57.4492Z" fill="#5555AA"/>
<path opacity="0.1" d="M57.4492 88.2345C57.4492 89.1279 58.0003 90.2315 58.6892 90.6519L59.6996 91.335C60.2966 91.7555 61.2611 91.7555 61.95 91.4402C61.3529 91.7029 60.9396 91.3351 60.9396 90.4942V80.089C60.9396 79.6686 61.0774 79.143 61.307 78.7226L57.8626 76.4629C57.6329 76.8833 57.4951 77.4088 57.4951 77.8292V88.2345H57.4492Z" fill="black"/>
<path d="M66.0848 80.141C65.3041 80.6666 64.707 81.9804 64.707 83.1365C64.707 84.2926 65.3041 84.8181 66.0848 84.3452C66.8656 83.8197 67.4626 82.5059 67.4626 81.3497C67.4626 80.1936 66.8196 79.6681 66.0848 80.141Z" fill="white"/>
<path d="M63.6523 80.6667L64.2035 80.2988V80.6667L63.6523 81.0346V80.6667Z" fill="white"/>
<path d="M68.7027 77.7762L67.6004 78.5119C67.4167 78.6696 67.233 78.5119 67.233 78.1966C67.233 77.8813 67.0493 77.7236 66.8656 77.8813L65.2123 78.9849C65.0286 79.1425 64.8449 79.5104 64.8449 79.8257C64.8449 80.141 64.6612 80.5089 64.4775 80.6665L63.3752 81.4023C63.1915 81.5599 63.0078 81.9278 63.0078 82.2431V86.9728C63.0078 87.2881 63.1915 87.4457 63.3752 87.2881L68.7027 83.7671C68.8864 83.6094 69.0701 83.2416 69.0701 82.9263V78.1966C69.116 77.7762 68.9323 77.6711 68.7027 77.7762ZM66.0849 84.6605C65.2123 85.2385 64.4775 84.6079 64.4775 83.2941C64.4775 81.9803 65.1663 80.4038 66.0849 79.8257C66.9575 79.2476 67.6923 79.8783 67.6923 81.1921C67.6464 82.5584 66.9575 84.0824 66.0849 84.6605ZM67.6923 79.6155C67.6004 79.6681 67.5545 79.6155 67.5545 79.5104C67.5545 79.4053 67.6004 79.2476 67.6923 79.1951C67.7841 79.1425 67.8301 79.1951 67.8301 79.3002C67.8301 79.4579 67.7841 79.563 67.6923 79.6155Z" fill="white"/>
<path d="M103.604 184.772C119.609 184.772 132.584 177.69 132.584 168.954C132.584 160.218 119.609 153.136 103.604 153.136C87.5996 153.136 74.625 160.218 74.625 168.954C74.625 177.69 87.5996 184.772 103.604 184.772Z" fill="#EBEBEB"/>
<path d="M137.175 35.2626C139.379 32.6875 142.456 30.9008 144.569 32.7401C146.682 34.6319 146.727 39.2039 145.35 41.5162C143.283 45.0372 137.129 50.8704 137.129 50.8704L137.175 35.2626Z" fill="#FFA8A7"/>
<path d="M92.2617 73.835C92.2617 73.835 96.8543 67.4237 97.4514 64.0078V103.159H92.2617V73.835Z" fill="#F28F8F"/>
<path d="M123.121 137.423C123.305 132.115 126.933 130.065 130.423 122.708C134.511 113.985 134.97 104.525 135.429 96.3271H95.7031V137.423H123.121Z" fill="#FFA8A7"/>
<path d="M102.593 124.863L134.971 103.474C135.201 101.004 135.292 98.6394 135.43 96.3271H132.583L99.1484 115.876L102.593 124.863Z" fill="#F28F8F"/>
<path d="M97.8617 124.022L96.9891 123.444C96.2542 122.971 95.7031 121.815 95.7031 120.869V32.9499C95.7031 32.004 96.3002 30.8478 96.9891 30.3749L132.444 6.93676C133.179 6.46379 134.327 6.46379 135.016 6.93676L135.889 7.51483C136.623 7.98779 137.175 9.14393 137.175 10.0899V98.009C137.175 98.9549 136.577 100.111 135.889 100.584L100.434 124.022C99.7446 124.495 98.5506 124.495 97.8617 124.022Z" fill="#455A64"/>
<path d="M100.893 34.6844L96.0705 31.5312C95.8409 32.0042 95.7031 32.5297 95.7031 33.0027V120.869C95.7031 121.815 96.3002 122.971 96.9891 123.444L97.8617 124.022C98.5965 124.495 99.7446 124.495 100.434 124.022L100.893 123.707V34.6844Z" fill="#263238"/>
<path d="M99.1484 35.2094V123.129C99.1484 124.074 99.7455 124.442 100.434 123.969L135.889 100.531C136.624 100.058 137.175 98.9021 137.175 97.9562V10.0896C137.175 9.14367 136.578 8.7758 135.889 9.24877L100.434 32.6869C99.7455 33.1598 99.1484 34.2634 99.1484 35.2094Z" fill="#37474F"/>
<path d="M101.997 40.7803L134.329 19.3917C134.926 18.9713 135.431 19.3392 135.431 20.1274V90.2841C135.431 91.0724 134.926 92.0708 134.329 92.4912L101.997 113.88C101.4 114.3 100.895 113.932 100.895 113.144V42.9875C100.895 42.1466 101.354 41.2007 101.997 40.7803Z" fill="white"/>
<path d="M118.162 23.2274C118.621 22.912 119.034 23.1748 119.034 23.8054C119.034 24.436 118.667 25.2243 118.162 25.5396C117.702 25.8549 117.289 25.5922 117.289 24.9616C117.289 24.3309 117.702 23.5427 118.162 23.2274Z" fill="#263238"/>
<path d="M115.68 28.1677C117.425 27.0641 120.548 24.9095 122.293 23.7533C122.569 23.5431 122.845 23.7008 122.845 24.0686C122.845 24.4365 122.615 24.9095 122.293 25.0671L115.68 29.4289C115.404 29.6391 115.129 29.4815 115.129 29.1136C115.129 28.7983 115.359 28.3779 115.68 28.1677Z" fill="#263238"/>
<path d="M113.982 29.2711C114.257 29.1135 114.487 29.2186 114.487 29.5865C114.487 29.9543 114.257 30.3747 113.982 30.5324C113.706 30.69 113.477 30.5849 113.477 30.2171C113.522 29.9018 113.706 29.4813 113.982 29.2711Z" fill="#263238"/>
<path d="M118.159 105.471C119.124 104.841 119.904 105.366 119.904 106.627C119.904 107.889 119.124 109.413 118.159 110.043C117.195 110.674 116.414 110.148 116.414 108.887C116.414 107.626 117.195 106.102 118.159 105.471Z" fill="#263238"/>
<path d="M98.6443 60.907C99.7466 61.4851 100.941 65.3214 100.573 69.0526C100.298 71.6802 98.6443 76.0945 97.3125 77.8813C95.9806 79.7206 94.0058 82.9788 93.9598 85.2911C93.9139 87.6034 93.8221 94.1198 96.4858 99.2173C99.1495 104.315 105.074 115.719 103.467 127.122H83.5805C83.5805 125.493 83.4427 120.501 82.1109 115.876C80.779 111.252 79.4472 105.891 79.3094 101.424C79.1716 96.9576 82.1109 79.9308 82.9835 77.3558C84.0857 74.0975 87.1628 71.9955 90.5154 68.2643C94.2813 64.0601 95.8428 59.4356 98.6443 60.907Z" fill="#FFA8A7"/>
<path d="M88.2206 173.788C96.6711 179.359 110.311 179.359 118.762 173.788C127.212 168.218 127.212 159.179 118.762 153.609C110.311 148.038 96.6711 148.038 88.2206 153.609C79.7702 159.179 79.7702 168.218 88.2206 173.788Z" fill="#FFA8A7"/>
<path d="M81.8828 163.698C81.8828 160.598 83.1228 143.991 83.3525 139.892C83.628 134.847 83.628 129.855 83.628 127.175H123.354C123.354 127.175 122.849 135.32 123.354 143.151C123.859 150.981 125.099 157.97 125.099 163.698H81.8828Z" fill="#FFA8A7"/>
<path opacity="0.2" d="M94.8317 70.6296C94.9695 70.3668 97.6332 66.478 98.2762 64.9014C98.9192 63.3774 98.8273 61.5906 96.9903 60.6973C95.0614 61.3279 93.454 64.9014 90.4688 68.2647C90.5147 68.3173 91.9384 70.8398 94.8317 70.6296Z" fill="white"/>
<path d="M124.043 133.534C122.619 136.319 118.715 142.678 108.336 143.992C108.336 143.992 117.292 145.358 123.124 138.106C123.124 137.896 123.124 137.686 123.124 137.476C123.216 135.952 123.538 134.69 124.043 133.534Z" fill="#F28F8F"/>
<path d="M143.008 89.4962C141.906 91.5983 137.176 95.5397 137.176 95.5397V83.3477L143.008 89.4962Z" fill="#F28F8F"/>
<path d="M140.804 78.8807C138.186 78.6179 136.211 80.0368 136.211 82.6118V87.2364C136.211 89.7063 138.14 91.6507 140.252 91.2829C140.298 91.2829 140.298 91.2829 140.344 91.2829C143.789 90.6523 143.743 87.0262 143.789 85.1343C143.835 83.295 143.146 79.1434 140.804 78.8807Z" fill="#FFA8A7"/>
<path d="M143.33 59.3838C142.182 61.6435 137.176 65.7426 137.176 65.7426V52.9199L143.33 59.3838Z" fill="#F28F8F"/>
<path d="M140.988 48.2425C138.232 47.9271 136.762 49.346 136.12 52.1838C135.89 53.2349 135.844 54.9691 136.12 57.0712C136.395 59.1732 138.14 61.7483 140.391 61.3278C140.437 61.3278 140.483 61.3278 140.483 61.3278C144.111 60.6447 144.524 58.385 144.524 54.8114C144.57 51.1854 143.468 48.5052 140.988 48.2425Z" fill="#FFA8A7"/>
<path d="M143.559 70.9976C141.997 74.1507 137.129 77.8293 137.129 77.8293V65.7949L143.559 70.9976Z" fill="#F28F8F"/>
<path d="M140.941 60.9599C138.415 60.6971 137.083 61.9583 136.532 64.5859C136.302 65.5844 136.302 67.1084 136.532 69.0528C136.761 70.9972 138.369 73.3095 140.435 72.9417C140.481 72.9417 140.481 72.9417 140.527 72.9417C143.88 72.311 144.247 70.2615 144.247 66.9508C144.201 63.64 143.191 61.1701 140.941 60.9599Z" fill="#FFA8A7"/>
<path d="M91.2045 67.4766C90.9749 67.7393 90.7453 68.0021 90.5156 68.3174C90.5156 68.3174 91.9393 70.8399 94.8327 70.6297C94.8327 70.6297 93.6386 68.1072 91.2045 67.4766Z" fill="#F28F8F"/>
<path d="M103.836 44.7748V44.1442C103.836 43.9865 103.928 43.8288 104.02 43.7763L104.066 43.7237C104.157 43.6712 104.249 43.7237 104.249 43.8288V44.4595C104.249 44.6171 104.157 44.7748 104.066 44.8273L104.02 44.8799C103.928 44.9324 103.836 44.8799 103.836 44.7748Z" fill="#5555AA"/>
<path d="M104.707 44.1962V43.1451C104.707 42.9875 104.799 42.8298 104.891 42.7773L104.937 42.7247C105.029 42.6722 105.12 42.7247 105.12 42.8298V43.8809C105.12 44.0385 105.029 44.1962 104.937 44.2487L104.891 44.3013C104.753 44.4064 104.707 44.3538 104.707 44.1962Z" fill="#5555AA"/>
<path d="M105.535 43.6711V42.1471C105.535 41.9894 105.627 41.8318 105.719 41.7792L105.765 41.7267C105.857 41.6741 105.948 41.7267 105.948 41.8318V43.3558C105.948 43.5134 105.857 43.6711 105.765 43.7236L105.719 43.7762C105.627 43.8287 105.535 43.7762 105.535 43.6711Z" fill="#5555AA"/>
<path d="M106.363 43.093V40.4654C106.363 40.3078 106.455 40.1501 106.547 40.0976L106.593 40.045C106.685 39.9925 106.777 40.045 106.777 40.1501V42.7777C106.777 42.9354 106.685 43.093 106.593 43.1456L106.547 43.1981C106.455 43.3032 106.363 43.2507 106.363 43.093Z" fill="#5555AA"/>
<path d="M108.658 41.7782L108.612 41.7256V41.3577L107.693 41.9884C107.647 42.0409 107.602 41.9884 107.602 41.9358V41.7782C107.602 41.7256 107.602 41.7256 107.602 41.6731C107.602 41.6731 107.602 41.6205 107.647 41.568L108.658 39.5184C108.658 39.4659 108.704 39.4659 108.704 39.4133L108.75 39.3608L108.887 39.2557C108.933 39.2031 108.933 39.2031 108.979 39.2031L109.025 39.2557V40.622L109.255 40.4644C109.301 40.4644 109.301 40.4118 109.347 40.4118L109.393 40.4644V40.5695C109.393 40.622 109.393 40.622 109.347 40.6746C109.347 40.7271 109.301 40.7271 109.255 40.7797L109.025 40.9373V41.3052C109.025 41.3577 109.025 41.3578 108.979 41.4103C108.979 41.4629 108.933 41.4629 108.887 41.5154L108.75 41.6205C108.704 41.7782 108.658 41.7782 108.658 41.7782ZM108.658 40.9373V39.9914L107.969 41.4103L108.658 40.9373Z" fill="#5555AA"/>
<path d="M109.76 40.78C109.576 40.6749 109.484 40.4647 109.484 40.0443C109.484 39.6764 109.576 39.3085 109.76 38.9932C109.944 38.6779 110.219 38.3626 110.541 38.1524C110.678 38.0473 110.816 37.9948 110.908 37.9422C111.046 37.8896 111.138 37.8896 111.184 37.8896C111.184 37.8896 111.23 37.8896 111.23 37.9422V37.9948L111.138 38.205C111.138 38.2575 111.092 38.2575 111.092 38.2575C111.092 38.2575 111.092 38.2575 111.046 38.2575C110.908 38.2575 110.77 38.3101 110.587 38.4677C110.357 38.6254 110.173 38.783 110.035 39.0458C109.898 39.256 109.852 39.5188 109.852 39.8341C109.852 40.1494 109.898 40.307 110.035 40.3596C110.173 40.4121 110.311 40.3596 110.541 40.2545C110.633 40.2019 110.678 40.1494 110.77 40.0968C110.862 40.0443 110.908 39.9917 110.954 39.8866V39.256L110.541 39.5188C110.495 39.5713 110.495 39.5713 110.449 39.5188L110.403 39.4662V39.4137C110.403 39.3611 110.403 39.3611 110.449 39.3085C110.449 39.256 110.495 39.256 110.541 39.2034L111.184 38.783C111.23 38.7305 111.275 38.7305 111.275 38.783C111.275 38.783 111.321 38.8356 111.321 38.8881V39.7815C111.321 39.8341 111.321 39.8341 111.321 39.8866C111.321 39.8866 111.321 39.9392 111.275 39.9392C111.092 40.2019 110.862 40.4121 110.541 40.6223C110.219 40.8326 109.944 40.8851 109.76 40.78Z" fill="#5555AA"/>
<path d="M117.43 34.3685V35.84C117.43 35.9451 117.476 35.9976 117.567 35.9451L118.67 35.2094C118.762 35.1568 118.807 34.9991 118.807 34.894V33.4226C118.807 33.3175 118.762 33.2649 118.67 33.3175L117.567 34.0532C117.476 34.1058 117.43 34.2634 117.43 34.3685Z" fill="#5555AA"/>
<path d="M118.534 33.1075C118.534 32.9498 118.488 32.8447 118.396 32.7396C118.304 32.687 118.166 32.687 118.074 32.7921C117.845 32.9498 117.707 33.2651 117.707 33.5279V34.0534H117.891V33.5279C117.891 33.3177 118.029 33.0549 118.166 32.9498C118.212 32.8973 118.258 32.8973 118.304 32.8973C118.35 32.8973 118.35 32.9498 118.35 33.0549V33.5804H118.534V33.1075Z" fill="#5555AA"/>
<path d="M132.677 23.8587C132.585 23.8062 132.447 23.8062 132.355 23.9113L129.875 25.5404C129.646 25.698 129.508 26.0134 129.508 26.2761V27.4848C129.508 27.6425 129.554 27.7476 129.646 27.8001C129.692 27.8001 129.737 27.8527 129.783 27.8527C129.829 27.8527 129.921 27.8527 129.967 27.8001L132.447 26.171C132.677 26.0134 132.815 25.6981 132.815 25.4353V24.174C132.815 24.0164 132.769 23.9113 132.677 23.8587ZM129.737 27.5899C129.692 27.5899 129.692 27.4848 129.692 27.4323V26.2761C129.692 26.0659 129.829 25.8032 129.967 25.6981L132.447 24.0689C132.493 24.0689 132.539 24.0164 132.539 24.0164H132.585C132.631 24.0164 132.631 24.1215 132.631 24.174V25.3827C132.631 25.5929 132.493 25.8557 132.355 25.9608L129.875 27.5899C129.829 27.5899 129.783 27.6425 129.737 27.5899Z" fill="#5555AA"/>
<path d="M129.785 27.4844V26.2232C129.785 26.0655 129.877 25.8553 130.015 25.7502L132.495 24.1211H132.541C132.541 24.1211 132.541 24.1211 132.541 24.1736V25.3823C132.541 25.54 132.449 25.7502 132.311 25.8553L129.785 27.4844Z" fill="#5555AA"/>
<path d="M132.953 24.1215C133.045 24.069 133.137 24.2266 133.137 24.4368V24.647C133.137 24.9098 133.045 25.12 132.953 25.2251L132.77 25.3302V24.2266C132.77 24.2266 132.861 24.1741 132.953 24.1215Z" fill="#5555AA"/>
<path d="M110.129 54.0235C110.359 54.1286 110.772 54.0761 111.14 53.8133C111.966 53.2878 112.609 52.2368 112.655 50.45C112.288 51.1332 111.737 51.8163 111.278 52.1317C110.175 52.8674 109.395 52.7097 109.395 51.3959C109.395 50.1347 110.313 48.7158 111.415 47.9801C112.655 47.1392 113.712 47.402 113.712 49.5566C113.712 52.0266 112.518 53.8133 111.186 54.7067C110.405 55.2322 109.854 55.2848 109.486 55.1271L110.129 54.0235ZM112.655 49.7143C112.518 48.6632 112.058 48.5056 111.461 48.926C110.956 49.2939 110.497 49.977 110.497 50.7653C110.497 51.501 110.864 51.6587 111.507 51.2383C111.875 50.923 112.288 50.45 112.655 49.7143Z" fill="#5555AA"/>
<path d="M115.594 46.8767C116.008 46.6139 116.329 46.719 116.329 47.1394C116.329 47.6124 116.008 48.1379 115.594 48.4007C115.181 48.6634 114.859 48.5583 114.859 48.1379C114.813 47.7175 115.181 47.1394 115.594 46.8767ZM115.594 50.2925C116.008 50.0298 116.329 50.1349 116.329 50.5553C116.329 51.0282 116.008 51.5538 115.594 51.8165C115.181 52.0793 114.859 51.9742 114.859 51.5538C114.813 51.1333 115.181 50.5553 115.594 50.2925Z" fill="#5555AA"/>
<path d="M117.387 47.3496C117.387 45.195 118.213 43.5133 119.545 42.6725C120.877 41.7791 121.704 42.3572 121.704 44.5118C121.704 46.6664 120.877 48.4006 119.545 49.294C118.213 50.1348 117.387 49.5042 117.387 47.3496ZM120.602 45.195C120.602 43.4082 120.142 43.1454 119.545 43.5133C118.948 43.9337 118.489 44.7745 118.489 46.5613C118.489 48.3481 118.948 48.6634 119.545 48.2955C120.188 47.9277 120.602 46.9817 120.602 45.195Z" fill="#5555AA"/>
<path d="M122.531 43.9336C122.531 41.7789 123.358 40.0973 124.69 39.2565C126.022 38.3631 126.848 38.9411 126.848 41.0958C126.848 43.2504 126.022 44.9846 124.69 45.878C123.358 46.7188 122.531 46.0882 122.531 43.9336ZM125.792 41.7789C125.792 39.9922 125.333 39.7294 124.736 40.0973C124.139 40.5177 123.679 41.3585 123.679 43.1453C123.679 44.932 124.139 45.2474 124.736 44.8795C125.333 44.5116 125.792 43.6183 125.792 41.7789Z" fill="#5555AA"/>
<path opacity="0.8" d="M105.167 67.372L131.161 50.1876C131.712 49.8197 132.171 50.135 132.171 50.8182V59.5944C132.171 60.3301 131.712 61.2235 131.161 61.5388L105.167 78.7232C104.616 79.0911 104.156 78.7758 104.156 78.0926V69.3164C104.156 68.5807 104.616 67.6873 105.167 67.372Z" fill="#5555AA"/>
<path d="M107.051 68.3708L110.404 66.1636C110.909 65.8483 111.322 66.1111 111.322 66.7943V71.2086C111.322 71.8918 110.909 72.6801 110.404 73.0479L107.051 75.2551C106.546 75.5704 106.133 75.3076 106.133 74.6245V70.2101C106.133 69.5269 106.546 68.7387 107.051 68.3708Z" fill="#F0F0F0"/>
<path d="M113.571 64.0613L122.848 57.9652C123.169 57.755 123.399 57.9127 123.399 58.2806C123.399 58.6484 123.169 59.1214 122.848 59.3316L113.571 65.4276C113.249 65.6378 113.02 65.4802 113.02 65.1123C113.02 64.7444 113.295 64.2715 113.571 64.0613Z" fill="#F0F0F0"/>
<path d="M113.571 66.7942L129.737 56.0736C130.058 55.8634 130.288 56.0211 130.288 56.389C130.288 56.7568 130.058 57.2298 129.737 57.44L113.571 68.1606C113.249 68.3708 113.02 68.2131 113.02 67.8453C113.02 67.4774 113.295 67.0044 113.571 66.7942Z" fill="#F0F0F0"/>
<path d="M113.571 69.5266L129.737 58.8061C130.058 58.5959 130.288 58.7535 130.288 59.1214C130.288 59.4892 130.058 59.9622 129.737 60.1724L113.571 70.9455C113.249 71.1557 113.02 70.9981 113.02 70.6302C113.02 70.2624 113.295 69.7368 113.571 69.5266Z" fill="#F0F0F0"/>
<path opacity="0.8" d="M105.167 81.0351L131.161 63.8507C131.712 63.4828 132.171 63.7981 132.171 64.4813V73.2575C132.171 73.9932 131.712 74.8866 131.161 75.2019L105.167 92.3863C104.616 92.7542 104.156 92.4389 104.156 91.7557V82.9795C104.156 82.2438 104.616 81.3504 105.167 81.0351Z" fill="#5555AA"/>
<path d="M107.051 82.0339L110.404 79.8267C110.909 79.5114 111.322 79.7742 111.322 80.4573V84.8717C111.322 85.5549 110.909 86.3431 110.404 86.711L107.051 88.9182C106.546 89.2335 106.133 88.9707 106.133 88.2876V83.8732C106.133 83.19 106.546 82.4018 107.051 82.0339Z" fill="#F0F0F0"/>
<path d="M113.571 77.7243L122.848 71.6283C123.169 71.4181 123.399 71.5758 123.399 71.9436C123.399 72.3115 123.169 72.7845 122.848 72.9947L113.571 79.0907C113.249 79.3009 113.02 79.1432 113.02 78.7754C113.02 78.4075 113.295 77.9345 113.571 77.7243Z" fill="#F0F0F0"/>
<path d="M113.571 80.4573L129.737 69.7367C130.058 69.5265 130.288 69.6842 130.288 70.052C130.288 70.4199 130.058 70.8929 129.737 71.1031L113.571 81.8236C113.249 82.0338 113.02 81.8762 113.02 81.5083C113.02 81.1405 113.295 80.6675 113.571 80.4573Z" fill="#F0F0F0"/>
<path d="M113.571 83.1897L129.737 72.4692C130.058 72.2589 130.288 72.4166 130.288 72.7845C130.288 73.1523 130.058 73.6253 129.737 73.8355L113.571 84.6086C113.249 84.8188 113.02 84.6612 113.02 84.2933C113.02 83.8729 113.295 83.3999 113.571 83.1897Z" fill="#F0F0F0"/>
<path opacity="0.8" d="M105.167 94.6992L131.161 77.5147C131.712 77.1469 132.171 77.4622 132.171 78.1454V86.9215C132.171 87.6572 131.712 88.5506 131.161 88.8659L105.167 106.05C104.616 106.418 104.156 106.103 104.156 105.42V96.6436C104.156 95.9079 104.616 95.0145 105.167 94.6992Z" fill="#5555AA"/>
<path d="M107.051 95.698L110.404 93.4908C110.909 93.1755 111.322 93.4382 111.322 94.1214V98.5358C111.322 99.2189 110.909 100.007 110.404 100.375L107.051 102.582C106.546 102.898 106.133 102.635 106.133 101.952V97.5373C106.133 96.8541 106.546 96.0658 107.051 95.698Z" fill="#F0F0F0"/>
<path d="M113.571 91.3884L122.848 85.2924C123.169 85.0822 123.399 85.2398 123.399 85.6077C123.399 85.9756 123.169 86.4485 122.848 86.6587L113.571 92.7547C113.249 92.965 113.02 92.8073 113.02 92.4394C113.02 92.0716 113.295 91.5986 113.571 91.3884Z" fill="#F0F0F0"/>
<path d="M113.571 94.1214L129.737 83.4008C130.058 83.1906 130.288 83.3482 130.288 83.7161C130.288 84.084 130.058 84.5569 129.737 84.7671L113.571 95.4877C113.249 95.6979 113.02 95.5403 113.02 95.1724C113.02 94.8045 113.295 94.3316 113.571 94.1214Z" fill="#F0F0F0"/>
<path d="M113.571 96.8538L129.737 86.1332C130.058 85.923 130.288 86.0807 130.288 86.4485C130.288 86.8164 130.058 87.2894 129.737 87.4996L113.571 98.2727C113.249 98.4829 113.02 98.3252 113.02 97.9574C113.02 97.5895 113.295 97.064 113.571 96.8538Z" fill="#F0F0F0"/>
<path d="M174.467 160.808C185.475 160.808 194.399 155.938 194.399 149.93C194.399 143.922 185.475 139.052 174.467 139.052C163.459 139.052 154.535 143.922 154.535 149.93C154.535 155.938 163.459 160.808 174.467 160.808Z" fill="#EBEBEB"/>
<path d="M166.247 93.6994H174.927C176.213 93.6994 177.269 92.4907 177.269 91.0193V69.8934C177.269 65.6893 174.284 62.2734 170.61 62.2734C166.936 62.2734 163.951 65.6893 163.951 69.8934V91.0193C163.905 92.4907 164.961 93.6994 166.247 93.6994Z" fill="#263238"/>
<path d="M176.213 66.1093L177.775 65.1634C177.545 64.6379 177.04 64.4802 176.581 64.743C176.167 64.9532 175.984 65.5838 176.213 66.1093Z" fill="#263238"/>
<path d="M176.074 66.3195L177.728 67.0027C177.911 66.4772 177.682 65.8991 177.268 65.6889C176.763 65.4787 176.258 65.794 176.074 66.3195Z" fill="#263238"/>
<path d="M185.812 137.58C186.317 137.264 186.684 138.053 187.144 138.631C187.465 139.051 188.016 139.734 188.062 140.207C188.154 140.943 187.603 142.099 186.96 142.73C186.317 143.361 185.582 143.833 185.352 145.2C185.123 146.566 184.664 147.407 183.424 148.038C182.046 148.721 180.209 148.511 179.612 148.038C178.877 147.512 179.566 146.881 180.576 145.2C181.908 142.993 182.964 141.416 182.964 139.367L185.812 137.58Z" fill="#263238"/>
<path d="M184.708 135.74L185.81 137.58C186.269 138.368 186.132 139.524 185.443 140.049C185.443 140.049 185.443 140.049 185.397 140.049C184.708 140.575 183.835 140.365 183.284 139.682L181.539 137.527L184.708 135.74Z" fill="#F28F8F"/>
<path d="M164.778 100.478C164.686 102.843 164.364 111.462 165.834 116.034C167.258 120.29 168.544 122.55 168.957 123.444C169.416 124.337 182.368 138.789 182.368 138.789C182.368 138.789 184.572 138.578 184.939 136.161C184.939 136.161 179.612 125.808 178.464 123.706C177.316 121.604 173.228 118.346 173.228 118.346L173.596 98.4814L164.778 100.478Z" fill="#455A64"/>
<path d="M168.134 145.353L165.402 144.643L164.496 149.203L167.228 149.914L168.134 145.353Z" fill="#F28F8F"/>
<path d="M169.37 107.678C169.37 107.678 168.313 106.627 166.844 104.367C164.731 101.056 165.053 98.1133 165.053 98.1133H165.925L177.269 98.376C178.371 100.478 178.647 103.684 178.279 106.784C177.499 113.248 172.814 124.442 172.814 124.442C172.86 125.335 173.228 129.066 172.447 132.325C171.299 137.527 168.13 146.303 168.13 146.303C168.13 146.303 166.155 146.619 165.145 145.305C165.145 145.305 166.89 127.437 167.349 122.865C167.9 117.978 169.37 107.678 169.37 107.678Z" fill="#455A64"/>
<path d="M164.777 147.669L164.869 147.196C164.593 147.249 163.353 149.614 162.113 150.612C160.781 151.716 159.633 152.399 159.036 152.872C158.255 153.555 159.404 154.921 161.378 155.027C162.343 155.079 164.134 154.764 164.685 154.133C165.236 153.555 165.649 152.557 166.063 152.136C166.476 151.716 167.395 151.348 167.67 150.77C167.854 150.454 167.854 149.719 167.854 149.088C167.854 148.51 167.808 147.879 167.624 147.879C167.624 147.932 167.578 148.247 167.578 148.247C167.349 148.458 166.568 148.72 165.925 148.668C165.42 148.668 164.547 148.563 164.777 147.669Z" fill="#263238"/>
<path d="M167.718 119.923C167.718 119.923 169.049 109.202 169.371 107.731C169.371 107.731 167.029 106.732 166.34 105.786C166.34 105.786 166.845 107.1 168.498 108.256L167.718 119.923Z" fill="#263238"/>
<path d="M174.787 119.607C174.787 119.607 173.364 123.601 172.812 124.495C172.812 124.495 172.95 127.543 172.95 128.173L173.685 128.909C173.685 128.909 173.731 126.334 173.364 124.81" fill="#263238"/>
<path d="M165.42 90.8616C165.237 92.7535 164.777 100.479 164.777 100.479C170.197 103.789 176.948 101.582 177.958 100.216C177.04 96.6949 175.662 95.2234 174.927 94.2775L176.672 88.6544C176.672 88.6544 176.902 88.0764 176.856 88.0764C176.764 87.8662 174.146 85.186 175.432 80.8768C175.616 80.1936 175.203 79.5104 174.606 79.4579L173.044 79.3002L168.819 79.1426C167.809 79.1951 167.074 79.3002 167.074 79.3002C166.431 79.9834 165.42 81.8753 164.732 83.8197C164.364 85.1335 163.905 87.1304 165.42 90.8616Z" fill="#5555AA"/>
<path d="M175.569 90.7044L174.926 87.9717L174.191 94.2779L175.707 95.2764L174.926 94.2779L175.753 91.7029L175.569 90.7044Z" fill="#5555AA"/>
<path opacity="0.2" d="M175.569 90.7044L174.926 87.9717L174.191 94.2779L175.707 95.2764L174.926 94.2779L175.753 91.7029L175.569 90.7044Z" fill="black"/>
<path d="M166.293 65.584C165.604 66.057 164.731 68.1065 164.823 72.3632C164.915 75.9892 165.925 76.8826 166.431 77.0928C166.936 77.3556 167.946 77.1979 168.911 76.9877V79.1423C168.911 79.1423 167.579 80.9291 167.671 81.875C167.762 82.8735 169.599 83.0837 170.839 82.1378C172.079 81.1919 173.136 79.3 173.136 79.3V74.3076C173.136 74.3076 173.687 74.9382 174.651 73.9923C175.432 73.204 175.708 71.8376 175.111 71.1545C174.514 70.4187 173.365 70.629 172.906 71.68C172.906 71.68 171.391 71.7325 169.324 70.4713C167.211 69.1575 166.431 67.0029 166.293 65.584Z" fill="#F28F8F"/>
<path d="M168.312 71.4173C168.312 71.6801 168.45 71.8903 168.68 71.8903C168.91 71.8903 169.093 71.6801 169.093 71.4173C169.093 71.1545 168.955 70.9443 168.726 70.9443C168.496 70.9969 168.312 71.1545 168.312 71.4173Z" fill="#263238"/>
<g opacity="0.5">
<path d="M168.223 74.5176L167.305 74.8329C167.397 75.1482 167.626 75.3059 167.902 75.2008C168.131 75.0956 168.315 74.7803 168.223 74.5176Z" fill="#F28F8F"/>
</g>
<path d="M165.055 70.0508L165.835 69.4202C165.698 69.1574 165.376 69.1049 165.192 69.2625C165.009 69.4202 164.917 69.788 165.055 70.0508Z" fill="#263238"/>
<path d="M165.238 71.1019C165.238 71.3646 165.376 71.5748 165.606 71.5748C165.835 71.5748 166.019 71.3646 166.019 71.1019C166.019 70.8391 165.881 70.6289 165.652 70.6289C165.468 70.6289 165.284 70.8391 165.238 71.1019Z" fill="#263238"/>
<g opacity="0.5">
<path d="M167.121 70.8389L167.075 73.5716L165.789 73.1511L167.121 70.8389Z" fill="#F28F8F"/>
</g>
<g opacity="0.5">
<path d="M168.863 76.9879C169.874 76.8303 171.94 76.1471 172.308 75.2012C172.308 75.2012 172.216 75.7792 171.573 76.4099C170.93 77.0405 168.863 77.7237 168.863 77.7237V76.9879Z" fill="#F28F8F"/>
</g>
<path d="M181.358 97.6411C181.312 97.2733 180.715 93.0691 180.256 90.7568L175.984 92.2808L176.673 95.5391L180.21 99.4804C181.312 99.2177 181.358 98.0615 181.358 97.6411Z" fill="#F28F8F"/>
<path d="M174.652 79.458C176.305 79.6157 178.463 79.8784 179.474 85.2387C180.438 90.2311 180.668 92.0179 180.668 92.0179C180.668 92.0179 179.382 93.8572 176.121 93.647L174.927 87.9714C172.769 84.6606 173.457 82.2958 174.652 79.458Z" fill="#5555AA"/>
<path d="M160.827 93.8043C160.23 92.543 160.092 92.4905 159.725 92.2277C159.357 91.965 157.245 91.5971 156.326 91.492C155.27 91.3869 154.902 91.5971 155.178 92.6482C155.821 94.8553 157.704 99.5324 158.117 100.163C158.393 100.583 158.439 101.004 159.633 101.109C160.735 101.214 162.113 101.319 162.526 101.319C162.94 101.372 163.491 101.477 163.123 100.111C162.756 98.7442 161.883 96.537 161.516 95.5911C161.102 94.4349 160.827 93.8043 160.827 93.8043Z" fill="#263238"/>
<path d="M176.625 95.5389C176.625 95.5389 167.118 96.6951 165.878 96.2747C164.638 95.8542 162.985 94.4353 162.112 93.8573C161.24 93.2792 160.597 93.2266 160.597 93.4894C160.597 93.7522 161.378 95.066 161.515 95.5915C161.699 96.117 160.689 96.1696 159.403 95.8017C158.117 95.4338 157.566 94.593 157.244 95.1185C156.923 95.644 157.979 98.114 160.138 99.0073C162.296 99.9533 163.904 99.3227 165.695 99.4278C167.486 99.5329 177.727 100.426 180.207 99.5329C180.207 99.5329 180.483 98.2191 179.335 97.1155C178.187 95.9593 176.625 95.5389 176.625 95.5389Z" fill="#F28F8F"/>
<path d="M41.557 182.11C52.5651 182.11 61.489 177.24 61.489 171.232C61.489 165.224 52.5651 160.354 41.557 160.354C30.5489 160.354 21.625 165.224 21.625 171.232C21.625 177.24 30.5489 182.11 41.557 182.11Z" fill="#EBEBEB"/>
<path d="M49.4083 113.004C48.352 105.751 49.4083 99.9182 49.2706 98.0264L52.5313 106.119C52.5313 106.119 52.9447 110.586 53.2202 113.739C53.4498 116.472 53.8173 119.94 54.4602 122.095C54.598 122.463 54.8276 122.831 55.1491 122.988C55.9758 123.514 56.3432 124.092 56.9862 124.828C57.4914 125.406 57.9047 125.511 57.8588 125.669C57.7669 125.931 57.4454 126.299 56.8484 126.142C56.5269 126.036 56.1595 125.826 55.6543 125.458C55.6543 125.458 56.0217 126.615 56.9402 127.718C58.1343 129.295 58.2262 130.241 55.9299 130.398C54.4602 130.503 53.2661 129.505 52.0721 125.931C51.7047 124.88 51.1535 123.251 50.9239 121.885C50.1891 118.311 49.7298 115.158 49.4083 113.004Z" fill="#FFA8A7"/>
<path d="M26.5839 162.087C26.0328 161.772 25.6654 162.56 25.1602 163.191C24.7928 163.664 24.2416 164.347 24.1957 164.873C24.0579 165.608 24.655 166.817 25.3439 167.5C25.9868 168.183 26.7676 168.656 26.9972 170.075C27.2269 171.547 27.732 172.388 29.0639 173.018C30.4876 173.701 32.4165 173.491 33.0595 173.018C33.8402 172.44 33.1054 171.809 32.0491 170.023C30.6254 167.71 29.5232 166.029 29.5232 163.874L26.5839 162.087Z" fill="#263238"/>
<path d="M27.4555 160.038L26.5829 162.14C26.0777 162.981 26.2154 164.137 26.9962 164.715C26.9962 164.715 27.0421 164.715 27.0421 164.768C27.731 165.293 28.6955 165.083 29.2466 164.347L30.8081 161.93L27.4555 160.038Z" fill="#FFA8A7"/>
<path d="M37.5621 118.364C37.011 123.146 36.965 124.881 36.965 128.612C36.965 132.921 36.4139 143.642 36.4139 143.642C36.4139 143.642 34.4391 144.693 32.9695 147.425C31.4998 150.106 26.9531 160.931 26.9531 160.931C26.9531 160.931 28.1931 162.876 30.2139 162.981C30.2139 162.981 39.6288 149.475 41.1443 147.163C42.6599 144.85 46.1503 128.086 46.1503 128.086L37.5621 118.364Z" fill="#37474F"/>
<path d="M48.4467 166.922L51.386 166.607L50.9267 161.352L47.7578 161.719L48.4467 166.922Z" fill="#FFA8A7"/>
<path d="M51.1993 164.82L51.1534 164.295C51.4749 164.4 52.5771 167.238 53.8171 168.552C55.1949 170.023 56.389 170.969 57.032 171.6C57.8586 172.493 56.389 173.859 54.1386 173.649C53.0364 173.544 51.0615 172.913 50.5564 172.125C50.0052 171.389 49.8675 170.338 49.4541 169.76C49.0408 169.235 48.1682 168.709 47.8926 168.079C47.7549 167.711 47.8467 166.712 47.8008 165.977C47.8008 165.031 47.9386 164.61 48.1223 164.61C48.1223 164.663 48.1682 165.083 48.1682 165.083C48.4437 165.346 48.8112 165.924 49.546 165.977C50.0971 166.029 51.383 165.871 51.1993 164.82Z" fill="#263238"/>
<path d="M52.0254 118.364L51.1068 162.35C51.1068 162.35 50.1424 163.454 47.7542 162.771C47.7542 162.771 45.3201 151.104 45.1824 148.319C45.0446 145.534 45.7335 142.538 45.7335 142.538L44.769 132.658L37.5586 118.364H52.0254Z" fill="#37474F"/>
<path d="M44.8633 133.604C44.8633 133.499 46.5166 126.615 46.5166 126.615C46.5166 126.615 49.7315 125.984 50.8337 125.144C50.8337 125.144 48.9966 127.088 47.2514 127.456L45.4144 133.815L45.5062 139.753L44.8633 133.604Z" fill="#263238"/>
<path d="M47.25 95.9248C49.4545 95.9248 51.4293 96.3452 52.0263 99.0779C52.6234 101.6 53.1286 109.798 53.1286 109.798C53.1286 109.798 52.5774 110.692 49.4545 110.429L47.25 95.9248Z" fill="#263238"/>
<path d="M42.703 96.0825C40.3148 96.2927 37.4674 96.608 36.1815 99.8136C34.7578 103.335 33.2422 109.536 33.2422 109.536C34.0689 110.639 35.7681 111.69 37.1459 111.217L38.2941 108.274L37.5593 118.364C39.6259 120.939 47.5253 122.148 52.026 118.364C52.026 118.364 51.7045 104.543 51.6127 101.968C51.5208 98.9728 50.7401 96.1876 47.2038 95.9248L42.703 96.0825Z" fill="#455A64"/>
<path d="M38.296 108.222L40.2249 104.648L38.0664 111.48L38.296 108.222Z" fill="#263238"/>
<path d="M40.2227 86.9381L41.1871 91.3525C41.4167 92.2984 42.1516 92.9816 42.9782 92.9816H44.1264V86.833L40.2227 86.9381Z" fill="#263238"/>
<path d="M48.0787 90.0394C50.3615 90.0394 52.212 87.9219 52.212 85.3097C52.212 82.6976 50.3615 80.5801 48.0787 80.5801C45.7959 80.5801 43.9453 82.6976 43.9453 85.3097C43.9453 87.9219 45.7959 90.0394 48.0787 90.0394Z" fill="#263238"/>
<path d="M41.693 82.629C41.693 82.629 40.9581 82.4713 40.407 83.1545C39.8559 83.7851 39.9478 84.9938 40.407 87.7791L42.1522 87.9893L41.693 82.629Z" fill="#263238"/>
<path d="M42.52 88.0424C42.2445 88.2 41.877 87.6745 41.6015 87.2541C41.28 86.8862 40.2696 86.3607 39.7185 87.6219C39.2133 88.8832 39.9941 90.5648 40.8207 90.9327C41.923 91.4582 42.4282 90.3546 42.4282 90.3546L42.7496 96.0828C42.7496 96.0828 43.6682 98.6578 46.1482 99.0257C48.6282 99.3935 48.123 97.0813 47.2963 95.9251V94.1909C47.2963 94.1909 48.5823 94.4537 49.1793 94.296C50.0978 94.0858 50.5112 93.1399 50.9704 91.9312C51.6134 90.0919 51.9808 87.5168 51.4297 84.2061C50.6949 79.8443 46.4697 79.7392 44.0815 81.4734C41.6015 83.2076 42.52 88.0424 42.52 88.0424Z" fill="#FFA8A7"/>
<path d="M42.5219 88.5149C42.3841 88.5149 41.9248 87.569 41.6033 87.2537C41.1441 86.7807 41.7411 82.6291 41.7411 82.6291C41.9707 79.2133 46.3797 78.9505 47.5737 78.8454C50.3752 78.6352 52.2582 80.3694 51.4775 82.5766C50.9723 83.5751 49.9619 83.8378 48.9975 83.9955C47.3441 84.2057 44.5885 83.2072 44.2211 83.1547C43.7619 83.1021 43.6241 83.6276 43.3944 85.0465C43.1189 86.3603 42.9352 88.5149 42.5219 88.5149Z" fill="#263238"/>
<path d="M41.6943 82.9443L40.1328 81.9984C40.3624 81.4728 40.8676 81.3152 41.3269 81.5779C41.7402 81.8407 41.9239 82.4188 41.6943 82.9443Z" fill="#263238"/>
<path d="M47.2496 94.1377C47.2496 94.1377 44.9533 93.6121 44.1725 93.1392C43.6214 92.8239 43.2081 92.2458 43.0703 91.8779C43.0703 91.8779 43.2081 92.6662 43.7133 93.3494C44.3103 94.1902 47.2955 94.8208 47.2955 94.8208V94.1377H47.2496Z" fill="#F28F8F"/>
<path d="M47.2974 87.9365C47.2974 88.2519 47.1137 88.4621 46.8382 88.4621C46.5626 88.4621 46.3789 88.1993 46.3789 87.9365C46.3789 87.6212 46.5626 87.411 46.8382 87.411C47.1137 87.3585 47.2974 87.6212 47.2974 87.9365Z" fill="#263238"/>
<path d="M46.8363 85.9395L45.8719 86.5701C45.7341 86.2548 45.826 85.8344 46.1015 85.6768C46.3312 85.4666 46.6526 85.6242 46.8363 85.9395Z" fill="#263238"/>
<path d="M47.0205 91.458L48.0768 91.931C47.985 92.2988 47.6635 92.4565 47.342 92.3514C47.0665 92.1412 46.9287 91.7733 47.0205 91.458Z" fill="#F28F8F"/>
<path d="M51.1529 86.3601L50.2344 85.5719C50.4181 85.2566 50.7855 85.204 51.0151 85.4142C51.2907 85.677 51.3366 86.0974 51.1529 86.3601Z" fill="#263238"/>
<path d="M50.8795 87.6211C50.8795 87.9364 50.6958 88.1466 50.4202 88.1466C50.1446 88.1466 49.9609 87.8839 49.9609 87.6211C49.9609 87.3058 50.1446 87.0956 50.4202 87.0956C50.6958 87.043 50.8795 87.3058 50.8795 87.6211Z" fill="#263238"/>
<path d="M48.9485 87.7266L48.5352 90.8271L50.0507 90.6169L48.9485 87.7266Z" fill="#F28F8F"/>
<path d="M54.327 94.1573C54.327 94.1573 54.3184 102.527 54.2671 103.115C54.2159 103.703 49.8512 103.679 49.7067 102.946C49.5622 102.214 49.7201 94.7967 49.7072 94.2095C49.7159 93.1448 54.2779 93.387 54.327 94.1573Z" fill="#263238"/>
<path d="M50.6605 100.639C52.0327 100.341 53.013 100.662 53.8901 101.344C55.1671 102.268 54.9275 104.555 53.7048 104.986C53.2947 105.155 51.2699 105.438 50.3929 105.692C49.8177 105.876 49.2759 105.427 48.3628 105.713C45.0406 106.83 40.9036 110.417 37.4937 111.745C36.6451 112.041 35.7965 112.336 34.9452 112.032C34.4087 111.846 33.8231 111.504 33.5264 110.902C32.742 109.335 35.298 107.103 36.9564 105.946C38.9966 104.579 47.4467 102.594 47.8078 102.269C48.7183 101.383 49.0226 100.976 49.7525 100.253C50.1497 99.8955 50.5882 99.7685 50.8409 99.5412L50.6605 100.639Z" fill="#FFA8A7"/>
<path d="M185.814 7.04219C185.814 6.14881 185.263 5.04523 184.574 4.62481L183.563 3.94164C182.875 3.46867 181.772 3.46867 181.083 3.94164L157.431 19.6021C156.743 20.075 156.191 21.1261 156.191 22.0195V48.1377C156.191 49.0311 156.743 50.1347 157.431 50.5551L158.442 51.2383C159.131 51.7112 160.233 51.7112 160.922 51.2383L184.712 35.5253C185.814 34.7895 185.814 34.1064 185.814 33.1604V7.04219Z" fill="#37474F"/>
<path d="M156.234 48.085C156.234 48.9784 156.785 50.082 157.474 50.5024L158.485 51.1855C159.082 51.606 160.046 51.606 160.735 51.2907C160.138 51.5534 159.725 51.1856 159.725 50.3447V24.2265C159.725 23.7535 159.863 23.2805 160.092 22.8601L156.648 20.5479C156.418 20.9683 156.28 21.4938 156.28 21.9142V48.085H156.234Z" fill="#263238"/>
<path d="M185.765 6.62125C185.627 6.04318 185.168 5.83297 184.571 6.20083L160.919 21.8613C160.597 22.0715 160.276 22.4393 160.046 22.9123L156.602 20.6C156.831 20.1796 157.107 19.7592 157.474 19.549L181.126 3.88855C181.815 3.46814 182.917 3.46814 183.606 3.88855L184.617 4.57173C185.168 4.99214 185.627 5.83297 185.765 6.62125Z" fill="#455A64"/>
<path d="M162.113 26.0132C162.113 25.7504 162.297 25.3825 162.481 25.2774L182.045 12.3497C182.275 12.192 182.596 12.192 182.826 12.3497L183.239 12.6124C183.469 12.7701 183.607 13.0854 183.607 13.3482V30.4801C183.607 30.7428 183.423 31.1107 183.239 31.2158L163.675 44.1435C163.445 44.3012 163.124 44.3012 162.894 44.1435L162.481 43.8808C162.251 43.7231 162.113 43.4078 162.113 43.145V26.0132Z" fill="#5555AA"/>
<path opacity="0.4" d="M162.113 26.0132C162.113 25.7504 162.297 25.3825 162.481 25.2774L182.045 12.3497C182.275 12.192 182.596 12.192 182.826 12.3497L183.239 12.6124C183.469 12.7701 183.607 13.0854 183.607 13.3482V30.4801C183.607 30.7428 183.423 31.1107 183.239 31.2158L163.675 44.1435C163.445 44.3012 163.124 44.3012 162.894 44.1435L162.481 43.8808C162.251 43.7231 162.113 43.4078 162.113 43.145V26.0132Z" fill="white"/>
<path d="M163.904 26.6964L162.205 25.5928C162.113 25.7504 162.113 25.9081 162.113 26.0132V43.1451C162.113 43.4078 162.297 43.7757 162.481 43.8808L162.894 44.1436C163.124 44.3012 163.445 44.3012 163.675 44.1436L163.904 43.9859V26.6964Z" fill="#5555AA"/>
<path opacity="0.3" d="M163.904 26.6964L162.205 25.5928C162.113 25.7504 162.113 25.9081 162.113 26.0132V43.1451C162.113 43.4078 162.297 43.7757 162.481 43.8808L162.894 44.1436C163.124 44.3012 163.445 44.3012 163.675 44.1436L163.904 43.9859V26.6964Z" fill="black"/>
<path d="M183.653 13.4011V30.533C183.653 30.6906 183.607 30.8483 183.515 30.9534C183.469 31.0585 183.377 31.1636 183.286 31.2161C183.286 31.2161 183.286 31.2161 183.24 31.2161L163.675 44.1439C163.583 44.1964 163.491 44.1964 163.4 44.1964C163.308 44.1439 163.262 44.0388 163.262 43.9337V26.8018C163.262 26.539 163.445 26.3288 163.675 26.4339L171.896 28.6937L172.952 29.009C173.182 29.0615 173.503 28.9564 173.641 28.6937L174.881 26.6967L183.286 13.3485C183.515 13.0858 183.653 13.1383 183.653 13.4011Z" fill="#5555AA"/>
<path d="M183.24 31.3208C183.286 31.3208 183.286 31.3208 183.24 31.3208C183.378 31.2157 183.424 31.1106 183.516 31.0055C183.608 30.8479 183.654 30.6902 183.654 30.5851L175.02 26.6963L180.806 32.95L183.24 31.3208Z" fill="#5555AA"/>
<path opacity="0.2" d="M183.24 31.3208C183.286 31.3208 183.286 31.3208 183.24 31.3208C183.378 31.2157 183.424 31.1106 183.516 31.0055C183.608 30.8479 183.654 30.6902 183.654 30.5851L175.02 26.6963L180.806 32.95L183.24 31.3208Z" fill="black"/>
<path d="M163.309 43.9857C163.309 44.1434 163.355 44.2485 163.446 44.2485C163.492 44.3011 163.584 44.3011 163.722 44.196L170.473 39.7291L171.989 28.6406L163.355 43.6704V43.9857H163.309Z" fill="#5555AA"/>
<path opacity="0.2" d="M163.309 43.9857C163.309 44.1434 163.355 44.2485 163.446 44.2485C163.492 44.3011 163.584 44.3011 163.722 44.196L170.473 39.7291L171.989 28.6406L163.355 43.6704V43.9857H163.309Z" fill="black"/>
<path d="M183.515 31.0061C183.469 31.1112 183.377 31.2163 183.285 31.2688L163.721 44.1966C163.629 44.2491 163.537 44.2491 163.445 44.2491L172.814 27.1698C173.182 26.4866 174.008 26.1713 174.651 26.5392L183.515 31.0061Z" fill="#5555AA"/>
<path opacity="0.3" d="M163.492 26.4335L172.402 30.9004C173.045 31.2157 173.826 30.9529 174.239 30.2698L183.562 13.1904L163.492 26.4335Z" fill="black"/>
<path d="M163.492 26.4335L172.448 30.2698C173.091 30.5325 173.826 30.2698 174.193 29.6391L183.562 13.1904L163.492 26.4335Z" fill="#5555AA"/>
<path d="M186.134 -0.525391C183.976 0.893508 182.23 4.36193 182.23 7.25227C182.23 8.67117 182.69 9.66966 183.379 10.1426L185.308 11.4039L185.675 10.7207C186.042 10.6156 186.41 10.4579 186.777 10.1952C188.936 8.77628 190.681 5.30786 190.681 2.41751C190.681 1.9971 190.635 1.62923 190.543 1.26137" fill="#F28F8F"/>
<path d="M188.107 0.788189C185.948 2.20709 184.203 5.67551 184.203 8.56586C184.203 11.4037 185.948 12.6123 188.107 11.1409C190.265 9.722 192.011 6.25358 192.011 3.36323C192.057 0.52543 190.265 -0.63071 188.107 0.788189Z" fill="#FFA8A7"/>
<path d="M186.73 6.0962C186.684 6.04365 186.684 5.9911 186.684 5.93855C186.684 5.886 186.73 5.83344 186.73 5.72834L187.878 3.62627C187.924 3.57372 187.924 3.52117 187.97 3.46861C188.015 3.41606 188.061 3.36351 188.107 3.31096L188.75 2.89054C188.796 2.89054 188.842 2.83799 188.842 2.89054C188.888 2.89054 188.888 2.9431 188.888 2.99565V8.25083C188.888 8.30338 188.888 8.35593 188.842 8.40848C188.796 8.46103 188.796 8.51359 188.75 8.56614L188.061 9.0391C188.015 9.0391 187.97 9.09166 187.97 9.0391C187.924 9.0391 187.924 8.98655 187.924 8.934V5.41303L187.281 6.56917C187.235 6.62172 187.235 6.67427 187.189 6.67427C187.143 6.67427 187.097 6.67427 187.097 6.67427L186.73 6.0962Z" fill="white"/>
</g>
<defs>
<clipPath id="clip0_485_42669">
<rect width="208" height="208" fill="white" transform="translate(0.5)"/>
</clipPath>
</defs>
</svg>
