<svg width="209" height="208" viewBox="0 0 209 208" fill="none" xmlns="http://www.w3.org/2000/svg">
<g clip-path="url(#clip0_4194_37531)">
<path d="M30.9491 191.078C71.5479 213.623 137.406 213.623 178.005 191.078C218.604 168.534 218.604 132.063 178.005 109.518C137.406 86.9732 71.5479 86.9732 30.9491 109.518C-9.6497 132.063 -9.6497 168.586 30.9491 191.078Z" fill="#F5F5F5"/>
<path d="M58.2302 54.9164L66.1296 49.7137C66.8185 49.2933 67.9207 49.2933 68.5637 49.7137L69.574 50.3969C70.2629 50.8173 70.814 51.9209 70.814 52.8143V63.2196C70.814 64.1129 70.2629 65.2165 69.574 65.6369L61.6747 70.8396C60.9858 71.26 59.8836 71.26 59.2406 70.8396L58.2302 70.1564C57.5414 69.736 56.9902 68.6324 56.9902 67.739V57.3338C56.9902 56.4404 57.5414 55.3368 58.2302 54.9164Z" fill="#27DEBF"/>
<path opacity="0.5" d="M58.2302 54.9164L66.1296 49.7137C66.8185 49.2933 67.9207 49.2933 68.5637 49.7137L69.574 50.3969C70.2629 50.8173 70.814 51.9209 70.814 52.8143V63.2196C70.814 64.1129 70.2629 65.2165 69.574 65.6369L61.6747 70.8396C60.9858 71.26 59.8836 71.26 59.2406 70.8396L58.2302 70.1564C57.5414 69.736 56.9902 68.6324 56.9902 67.739V57.3338C56.9902 56.4404 57.5414 55.3368 58.2302 54.9164Z" fill="white"/>
<path d="M70.768 52.762C70.768 51.8687 70.2169 51.5008 69.528 51.9738L61.6287 57.1764C60.9398 57.5968 60.3887 58.7004 60.3887 59.5938V69.999C60.3887 70.8924 60.9398 71.2603 61.6287 70.7873L69.528 65.5847C70.2169 65.1643 70.768 64.0607 70.768 63.1673V52.762Z" fill="#27DEBF"/>
<path d="M56.9902 67.7394C56.9902 68.6328 57.5414 69.7363 58.2302 70.1568L59.2406 70.8399C59.8377 71.2603 60.8021 71.2603 61.491 70.945C60.894 71.2078 60.4806 70.8399 60.4806 69.9991V59.5938C60.4806 59.1734 60.6184 58.6479 60.848 58.2275L57.4036 55.9678C57.1739 56.3882 57.0362 56.9137 57.0362 57.3341V67.7394H56.9902Z" fill="#27DEBF"/>
<path opacity="0.1" d="M56.9902 67.7394C56.9902 68.6328 57.5414 69.7363 58.2302 70.1568L59.2406 70.8399C59.8377 71.2603 60.8021 71.2603 61.491 70.945C60.894 71.2078 60.4806 70.8399 60.4806 69.9991V59.5938C60.4806 59.1734 60.6184 58.6479 60.848 58.2275L57.4036 55.9678C57.1739 56.3882 57.0362 56.9137 57.0362 57.3341V67.7394H56.9902Z" fill="black"/>
<path d="M62.2727 60.3294L68.9779 55.8625C69.1616 55.7574 69.2994 55.8625 69.2994 56.0727V61.2754C69.2994 61.5381 69.1616 61.8009 68.9779 61.906L62.2727 66.3729C62.0889 66.478 61.9512 66.3729 61.9512 66.1627V60.96C61.9512 60.6973 62.0889 60.4345 62.2727 60.3294Z" fill="white"/>
<path d="M61.9512 60.5397L65.9468 62.0111L69.2994 55.6523L66.0386 62.5366L61.9512 60.5397Z" fill="#27DEBF"/>
<path d="M58.6892 75.4115L66.5885 70.2089C67.2774 69.7885 68.3797 69.7885 69.0226 70.2089L70.033 70.892C70.7219 71.3125 71.273 72.416 71.273 73.3094V83.7147C71.273 84.6081 70.7219 85.7116 70.033 86.1321L62.1337 91.3347C61.4448 91.7551 60.3426 91.7551 59.6996 91.3347L58.6892 90.6515C58.0003 90.2311 57.4492 89.1275 57.4492 88.2341V77.8289C57.4492 76.9355 58.0003 75.8319 58.6892 75.4115Z" fill="#27DEBF"/>
<path opacity="0.5" d="M58.6892 75.4115L66.5885 70.2089C67.2774 69.7885 68.3797 69.7885 69.0226 70.2089L70.033 70.892C70.7219 71.3125 71.273 72.416 71.273 73.3094V83.7147C71.273 84.6081 70.7219 85.7116 70.033 86.1321L62.1337 91.3347C61.4448 91.7551 60.3426 91.7551 59.6996 91.3347L58.6892 90.6515C58.0003 90.2311 57.4492 89.1275 57.4492 88.2341V77.8289C57.4492 76.9355 58.0003 75.8319 58.6892 75.4115Z" fill="white"/>
<path d="M71.227 73.3099C71.227 72.4165 70.6759 72.0487 69.987 72.5216L62.0877 77.7243C61.3988 78.1447 60.8477 79.2483 60.8477 80.1416V90.5469C60.8477 91.4403 61.3988 91.8081 62.0877 91.3352L69.987 86.1325C70.6759 85.7121 71.227 84.6085 71.227 83.7152V73.3099Z" fill="#27DEBF"/>
<path d="M57.4492 88.2345C57.4492 89.1279 58.0003 90.2315 58.6892 90.6519L59.6996 91.335C60.2966 91.7555 61.2611 91.7555 61.95 91.4402C61.3529 91.7029 60.9396 91.3351 60.9396 90.4942V80.089C60.9396 79.6686 61.0774 79.143 61.307 78.7226L57.8626 76.4629C57.6329 76.8833 57.4951 77.4088 57.4951 77.8292V88.2345H57.4492Z" fill="#27DEBF"/>
<path opacity="0.1" d="M57.4492 88.2345C57.4492 89.1279 58.0003 90.2315 58.6892 90.6519L59.6996 91.335C60.2966 91.7555 61.2611 91.7555 61.95 91.4402C61.3529 91.7029 60.9396 91.3351 60.9396 90.4942V80.089C60.9396 79.6686 61.0774 79.143 61.307 78.7226L57.8626 76.4629C57.6329 76.8833 57.4951 77.4088 57.4951 77.8292V88.2345H57.4492Z" fill="black"/>
<path d="M66.0829 80.141C65.3021 80.6666 64.7051 81.9804 64.7051 83.1365C64.7051 84.2926 65.3021 84.8181 66.0829 84.3452C66.8636 83.8197 67.4607 82.5059 67.4607 81.3497C67.4607 80.1936 66.8177 79.6681 66.0829 80.141Z" fill="white"/>
<path d="M63.6484 80.6667L64.1996 80.2988V80.6667L63.6484 81.0346V80.6667Z" fill="white"/>
<path d="M68.7007 77.7762L67.5985 78.5119C67.4148 78.6696 67.2311 78.5119 67.2311 78.1966C67.2311 77.8813 67.0474 77.7236 66.8637 77.8813L65.2103 78.9849C65.0266 79.1425 64.8429 79.5104 64.8429 79.8257C64.8429 80.141 64.6592 80.5089 64.4755 80.6665L63.3733 81.4023C63.1896 81.5599 63.0059 81.9278 63.0059 82.2431V86.9728C63.0059 87.2881 63.1896 87.4457 63.3733 87.2881L68.7007 83.7671C68.8844 83.6094 69.0681 83.2416 69.0681 82.9263V78.1966C69.114 77.7762 68.9303 77.6711 68.7007 77.7762ZM66.0829 84.6605C65.2103 85.2385 64.4755 84.6079 64.4755 83.2941C64.4755 81.9803 65.1644 80.4038 66.0829 79.8257C66.9555 79.2476 67.6903 79.8783 67.6903 81.1921C67.6444 82.5584 66.9555 84.0824 66.0829 84.6605ZM67.6903 79.6155C67.5985 79.6681 67.5526 79.6155 67.5526 79.5104C67.5526 79.4053 67.5985 79.2476 67.6903 79.1951C67.7822 79.1425 67.8281 79.1951 67.8281 79.3002C67.8281 79.4579 67.7822 79.563 67.6903 79.6155Z" fill="white"/>
<path d="M103.604 184.772C119.609 184.772 132.584 177.69 132.584 168.954C132.584 160.218 119.609 153.136 103.604 153.136C87.5996 153.136 74.625 160.218 74.625 168.954C74.625 177.69 87.5996 184.772 103.604 184.772Z" fill="#EBEBEB"/>
<path d="M137.177 35.2626C139.381 32.6875 142.458 30.9008 144.571 32.7401C146.684 34.6319 146.729 39.2039 145.352 41.5162C143.285 45.0372 137.131 50.8704 137.131 50.8704L137.177 35.2626Z" fill="#FFA8A7"/>
<path d="M92.2598 73.835C92.2598 73.835 96.8524 67.4237 97.4494 64.0078V103.159H92.2598V73.835Z" fill="#F28F8F"/>
<path d="M123.123 137.423C123.307 132.115 126.935 130.065 130.425 122.708C134.513 113.985 134.972 104.525 135.431 96.3271H95.7051V137.423H123.123Z" fill="#FFA8A7"/>
<path d="M102.595 124.863L134.973 103.474C135.202 101.004 135.294 98.6394 135.432 96.3271H132.585L99.1504 115.876L102.595 124.863Z" fill="#F28F8F"/>
<path d="M97.8636 124.022L96.991 123.444C96.2562 122.971 95.7051 121.815 95.7051 120.869V32.9499C95.7051 32.004 96.3021 30.8478 96.991 30.3749L132.446 6.93676C133.181 6.46379 134.329 6.46379 135.018 6.93676L135.891 7.51483C136.625 7.98779 137.176 9.14393 137.176 10.0899V98.009C137.176 98.9549 136.579 100.111 135.891 100.584L100.435 124.022C99.7466 124.495 98.5525 124.495 97.8636 124.022Z" fill="#455A64"/>
<path d="M100.895 34.6844L96.0725 31.5312C95.8429 32.0042 95.7051 32.5297 95.7051 33.0027V120.869C95.7051 121.815 96.3021 122.971 96.991 123.444L97.8636 124.022C98.5984 124.495 99.7466 124.495 100.435 124.022L100.895 123.707V34.6844Z" fill="#263238"/>
<path d="M99.1504 35.2094V123.129C99.1504 124.074 99.7474 124.442 100.436 123.969L135.891 100.531C136.626 100.058 137.177 98.9021 137.177 97.9562V10.0896C137.177 9.14367 136.58 8.7758 135.891 9.24877L100.436 32.6869C99.7474 33.1598 99.1504 34.2634 99.1504 35.2094Z" fill="#37474F"/>
<path d="M101.997 40.7803L134.329 19.3917C134.926 18.9713 135.431 19.3392 135.431 20.1274V90.2841C135.431 91.0724 134.926 92.0708 134.329 92.4912L101.997 113.88C101.4 114.3 100.895 113.932 100.895 113.144V42.9875C100.895 42.1466 101.354 41.2007 101.997 40.7803Z" fill="white"/>
<path d="M118.164 23.2274C118.623 22.912 119.036 23.1748 119.036 23.8054C119.036 24.436 118.669 25.2243 118.164 25.5396C117.704 25.8549 117.291 25.5922 117.291 24.9616C117.291 24.3309 117.704 23.5427 118.164 23.2274Z" fill="#263238"/>
<path d="M115.684 28.1677C117.429 27.0641 120.552 24.9095 122.297 23.7533C122.573 23.5431 122.848 23.7008 122.848 24.0686C122.848 24.4365 122.619 24.9095 122.297 25.0671L115.684 29.4289C115.408 29.6391 115.133 29.4815 115.133 29.1136C115.133 28.7983 115.362 28.3779 115.684 28.1677Z" fill="#263238"/>
<path d="M113.984 29.2711C114.259 29.1135 114.489 29.2186 114.489 29.5865C114.489 29.9543 114.259 30.3747 113.984 30.5324C113.708 30.69 113.479 30.5849 113.479 30.2171C113.524 29.9018 113.708 29.4813 113.984 29.2711Z" fill="#263238"/>
<path d="M118.163 105.471C119.128 104.841 119.908 105.366 119.908 106.627C119.908 107.889 119.128 109.413 118.163 110.043C117.199 110.674 116.418 110.148 116.418 108.887C116.418 107.626 117.199 106.102 118.163 105.471Z" fill="#263238"/>
<path d="M98.6443 60.907C99.7466 61.4851 100.941 65.3214 100.573 69.0526C100.298 71.6802 98.6443 76.0945 97.3125 77.8813C95.9806 79.7206 94.0058 82.9788 93.9598 85.2911C93.9139 87.6034 93.8221 94.1198 96.4858 99.2173C99.1495 104.315 105.074 115.719 103.467 127.122H83.5805C83.5805 125.493 83.4427 120.501 82.1109 115.876C80.779 111.252 79.4472 105.891 79.3094 101.424C79.1716 96.9576 82.1109 79.9308 82.9835 77.3558C84.0857 74.0975 87.1628 71.9955 90.5154 68.2643C94.2813 64.0601 95.8428 59.4356 98.6443 60.907Z" fill="#FFA8A7"/>
<path d="M88.2187 173.788C96.6691 179.359 110.309 179.359 118.76 173.788C127.21 168.218 127.21 159.179 118.76 153.609C110.309 148.038 96.6691 148.038 88.2187 153.609C79.7683 159.179 79.7683 168.218 88.2187 173.788Z" fill="#FFA8A7"/>
<path d="M81.8809 163.698C81.8809 160.598 83.1209 143.991 83.3505 139.892C83.6261 134.847 83.6261 129.855 83.6261 127.175H123.352C123.352 127.175 122.847 135.32 123.352 143.151C123.857 150.981 125.097 157.97 125.097 163.698H81.8809Z" fill="#FFA8A7"/>
<path opacity="0.2" d="M94.8317 70.6296C94.9695 70.3668 97.6332 66.478 98.2762 64.9014C98.9192 63.3774 98.8273 61.5906 96.9903 60.6973C95.0614 61.3279 93.454 64.9014 90.4688 68.2647C90.5147 68.3173 91.9384 70.8398 94.8317 70.6296Z" fill="white"/>
<path d="M124.041 133.534C122.617 136.319 118.713 142.678 108.334 143.992C108.334 143.992 117.29 145.358 123.122 138.106C123.122 137.896 123.122 137.686 123.122 137.476C123.214 135.952 123.536 134.69 124.041 133.534Z" fill="#F28F8F"/>
<path d="M143.01 89.4962C141.908 91.5983 137.178 95.5397 137.178 95.5397V83.3477L143.01 89.4962Z" fill="#F28F8F"/>
<path d="M140.806 78.8807C138.188 78.6179 136.213 80.0368 136.213 82.6118V87.2364C136.213 89.7063 138.142 91.6507 140.254 91.2829C140.3 91.2829 140.3 91.2829 140.346 91.2829C143.791 90.6523 143.745 87.0262 143.791 85.1343C143.837 83.295 143.148 79.1434 140.806 78.8807Z" fill="#FFA8A7"/>
<path d="M143.33 59.3838C142.182 61.6435 137.176 65.7426 137.176 65.7426V52.9199L143.33 59.3838Z" fill="#F28F8F"/>
<path d="M140.988 48.2425C138.232 47.9271 136.762 49.346 136.12 52.1838C135.89 53.2349 135.844 54.9691 136.12 57.0712C136.395 59.1732 138.14 61.7483 140.391 61.3278C140.437 61.3278 140.483 61.3278 140.483 61.3278C144.111 60.6447 144.524 58.385 144.524 54.8114C144.57 51.1854 143.468 48.5052 140.988 48.2425Z" fill="#FFA8A7"/>
<path d="M143.561 70.9976C141.999 74.1507 137.131 77.8293 137.131 77.8293V65.7949L143.561 70.9976Z" fill="#F28F8F"/>
<path d="M140.942 60.9599C138.417 60.6971 137.085 61.9583 136.534 64.5859C136.304 65.5844 136.304 67.1084 136.534 69.0528C136.763 70.9972 138.371 73.3095 140.437 72.9417C140.483 72.9417 140.483 72.9417 140.529 72.9417C143.882 72.311 144.249 70.2615 144.249 66.9508C144.203 63.64 143.193 61.1701 140.942 60.9599Z" fill="#FFA8A7"/>
<path d="M91.2045 67.4766C90.9749 67.7393 90.7453 68.0021 90.5156 68.3174C90.5156 68.3174 91.9393 70.8399 94.8327 70.6297C94.8327 70.6297 93.6386 68.1072 91.2045 67.4766Z" fill="#F28F8F"/>
<path d="M103.834 44.7748V44.1442C103.834 43.9865 103.926 43.8288 104.018 43.7763L104.064 43.7237C104.155 43.6712 104.247 43.7237 104.247 43.8288V44.4595C104.247 44.6171 104.155 44.7748 104.064 44.8273L104.018 44.8799C103.926 44.9324 103.834 44.8799 103.834 44.7748Z" fill="#27DEBF"/>
<path d="M104.707 44.1962V43.1451C104.707 42.9875 104.799 42.8298 104.891 42.7773L104.937 42.7247C105.029 42.6722 105.12 42.7247 105.12 42.8298V43.8809C105.12 44.0385 105.029 44.1962 104.937 44.2487L104.891 44.3013C104.753 44.4064 104.707 44.3538 104.707 44.1962Z" fill="#27DEBF"/>
<path d="M105.533 43.6711V42.1471C105.533 41.9894 105.625 41.8318 105.717 41.7792L105.763 41.7267C105.855 41.6741 105.947 41.7267 105.947 41.8318V43.3558C105.947 43.5134 105.855 43.6711 105.763 43.7236L105.717 43.7762C105.625 43.8287 105.533 43.7762 105.533 43.6711Z" fill="#27DEBF"/>
<path d="M106.359 43.093V40.4654C106.359 40.3078 106.451 40.1501 106.543 40.0976L106.589 40.045C106.681 39.9925 106.773 40.045 106.773 40.1501V42.7777C106.773 42.9354 106.681 43.093 106.589 43.1456L106.543 43.1981C106.451 43.3032 106.359 43.2507 106.359 43.093Z" fill="#27DEBF"/>
<path d="M108.656 41.7782L108.61 41.7256V41.3577L107.691 41.9884C107.646 42.0409 107.6 41.9884 107.6 41.9358V41.7782C107.6 41.7256 107.6 41.7256 107.6 41.6731C107.6 41.6731 107.6 41.6205 107.646 41.568L108.656 39.5184C108.656 39.4659 108.702 39.4659 108.702 39.4133L108.748 39.3608L108.886 39.2557C108.931 39.2031 108.931 39.2031 108.977 39.2031L109.023 39.2557V40.622L109.253 40.4644C109.299 40.4644 109.299 40.4118 109.345 40.4118L109.391 40.4644V40.5695C109.391 40.622 109.391 40.622 109.345 40.6746C109.345 40.7271 109.299 40.7271 109.253 40.7797L109.023 40.9373V41.3052C109.023 41.3577 109.023 41.3578 108.977 41.4103C108.977 41.4629 108.931 41.4629 108.886 41.5154L108.748 41.6205C108.702 41.7782 108.656 41.7782 108.656 41.7782ZM108.656 40.9373V39.9914L107.967 41.4103L108.656 40.9373Z" fill="#27DEBF"/>
<path d="M109.758 40.78C109.574 40.6749 109.482 40.4647 109.482 40.0443C109.482 39.6764 109.574 39.3085 109.758 38.9932C109.942 38.6779 110.217 38.3626 110.539 38.1524C110.677 38.0473 110.814 37.9948 110.906 37.9422C111.044 37.8896 111.136 37.8896 111.182 37.8896C111.182 37.8896 111.228 37.8896 111.228 37.9422V37.9948L111.136 38.205C111.136 38.2575 111.09 38.2575 111.09 38.2575C111.09 38.2575 111.09 38.2575 111.044 38.2575C110.906 38.2575 110.768 38.3101 110.585 38.4677C110.355 38.6254 110.171 38.783 110.034 39.0458C109.896 39.256 109.85 39.5188 109.85 39.8341C109.85 40.1494 109.896 40.307 110.034 40.3596C110.171 40.4121 110.309 40.3596 110.539 40.2545C110.631 40.2019 110.677 40.1494 110.768 40.0968C110.86 40.0443 110.906 39.9917 110.952 39.8866V39.256L110.539 39.5188C110.493 39.5713 110.493 39.5713 110.447 39.5188L110.401 39.4662V39.4137C110.401 39.3611 110.401 39.3611 110.447 39.3085C110.447 39.256 110.493 39.256 110.539 39.2034L111.182 38.783C111.228 38.7305 111.274 38.7305 111.274 38.783C111.274 38.783 111.319 38.8356 111.319 38.8881V39.7815C111.319 39.8341 111.319 39.8341 111.319 39.8866C111.319 39.8866 111.319 39.9392 111.274 39.9392C111.09 40.2019 110.86 40.4121 110.539 40.6223C110.217 40.8326 109.942 40.8851 109.758 40.78Z" fill="#27DEBF"/>
<path d="M117.428 34.3685V35.84C117.428 35.9451 117.474 35.9976 117.566 35.9451L118.668 35.2094C118.76 35.1568 118.806 34.9991 118.806 34.894V33.4226C118.806 33.3175 118.76 33.2649 118.668 33.3175L117.566 34.0532C117.474 34.1058 117.428 34.2634 117.428 34.3685Z" fill="#27DEBF"/>
<path d="M118.53 33.1075C118.53 32.9498 118.484 32.8447 118.392 32.7396C118.3 32.687 118.162 32.687 118.071 32.7921C117.841 32.9498 117.703 33.2651 117.703 33.5279V34.0534H117.887V33.5279C117.887 33.3177 118.025 33.0549 118.162 32.9498C118.208 32.8973 118.254 32.8973 118.3 32.8973C118.346 32.8973 118.346 32.9498 118.346 33.0549V33.5804H118.53V33.1075Z" fill="#27DEBF"/>
<path d="M132.675 23.8587C132.583 23.8062 132.445 23.8062 132.353 23.9113L129.873 25.5404C129.644 25.698 129.506 26.0134 129.506 26.2761V27.4848C129.506 27.6425 129.552 27.7476 129.644 27.8001C129.69 27.8001 129.735 27.8527 129.781 27.8527C129.827 27.8527 129.919 27.8527 129.965 27.8001L132.445 26.171C132.675 26.0134 132.813 25.6981 132.813 25.4353V24.174C132.813 24.0164 132.767 23.9113 132.675 23.8587ZM129.735 27.5899C129.69 27.5899 129.69 27.4848 129.69 27.4323V26.2761C129.69 26.0659 129.827 25.8032 129.965 25.6981L132.445 24.0689C132.491 24.0689 132.537 24.0164 132.537 24.0164H132.583C132.629 24.0164 132.629 24.1215 132.629 24.174V25.3827C132.629 25.5929 132.491 25.8557 132.353 25.9608L129.873 27.5899C129.827 27.5899 129.781 27.6425 129.735 27.5899Z" fill="#27DEBF"/>
<path d="M129.781 27.4844V26.2232C129.781 26.0655 129.873 25.8553 130.011 25.7502L132.491 24.1211H132.537C132.537 24.1211 132.537 24.1211 132.537 24.1736V25.3823C132.537 25.54 132.445 25.7502 132.307 25.8553L129.781 27.4844Z" fill="#27DEBF"/>
<path d="M132.951 24.1215C133.043 24.069 133.135 24.2266 133.135 24.4368V24.647C133.135 24.9098 133.043 25.12 132.951 25.2251L132.768 25.3302V24.2266C132.768 24.2266 132.859 24.1741 132.951 24.1215Z" fill="#27DEBF"/>
<path d="M110.125 54.0235C110.355 54.1286 110.768 54.0761 111.136 53.8133C111.962 53.2878 112.605 52.2368 112.651 50.45C112.284 51.1332 111.733 51.8163 111.274 52.1317C110.171 52.8674 109.391 52.7097 109.391 51.3959C109.391 50.1347 110.309 48.7158 111.411 47.9801C112.651 47.1392 113.708 47.402 113.708 49.5566C113.708 52.0266 112.514 53.8133 111.182 54.7067C110.401 55.2322 109.85 55.2848 109.482 55.1271L110.125 54.0235ZM112.651 49.7143C112.514 48.6632 112.054 48.5056 111.457 48.926C110.952 49.2939 110.493 49.977 110.493 50.7653C110.493 51.501 110.86 51.6587 111.503 51.2383C111.871 50.923 112.284 50.45 112.651 49.7143Z" fill="#27DEBF"/>
<path d="M115.59 46.8767C116.004 46.6139 116.325 46.719 116.325 47.1394C116.325 47.6124 116.004 48.1379 115.59 48.4007C115.177 48.6634 114.855 48.5583 114.855 48.1379C114.81 47.7175 115.177 47.1394 115.59 46.8767ZM115.59 50.2925C116.004 50.0298 116.325 50.1349 116.325 50.5553C116.325 51.0282 116.004 51.5538 115.59 51.8165C115.177 52.0793 114.855 51.9742 114.855 51.5538C114.81 51.1333 115.177 50.5553 115.59 50.2925Z" fill="#27DEBF"/>
<path d="M117.381 47.3496C117.381 45.195 118.208 43.5133 119.539 42.6725C120.871 41.7791 121.698 42.3572 121.698 44.5118C121.698 46.6664 120.871 48.4006 119.539 49.294C118.208 50.1348 117.381 49.5042 117.381 47.3496ZM120.596 45.195C120.596 43.4082 120.136 43.1454 119.539 43.5133C118.942 43.9337 118.483 44.7745 118.483 46.5613C118.483 48.3481 118.942 48.6634 119.539 48.2955C120.182 47.9277 120.596 46.9817 120.596 45.195Z" fill="#27DEBF"/>
<path d="M122.525 43.9336C122.525 41.7789 123.352 40.0973 124.684 39.2565C126.016 38.3631 126.842 38.9411 126.842 41.0958C126.842 43.2504 126.016 44.9846 124.684 45.878C123.352 46.7188 122.525 46.0882 122.525 43.9336ZM125.786 41.7789C125.786 39.9922 125.327 39.7294 124.73 40.0973C124.133 40.5177 123.674 41.3585 123.674 43.1453C123.674 44.932 124.133 45.2474 124.73 44.8795C125.327 44.5116 125.786 43.6183 125.786 41.7789Z" fill="#27DEBF"/>
<path opacity="0.8" d="M105.167 67.372L131.161 50.1876C131.712 49.8197 132.171 50.135 132.171 50.8182V59.5944C132.171 60.3301 131.712 61.2235 131.161 61.5388L105.167 78.7232C104.616 79.0911 104.156 78.7758 104.156 78.0926V69.3164C104.156 68.5807 104.616 67.6873 105.167 67.372Z" fill="#27DEBF"/>
<path d="M107.049 68.3708L110.402 66.1636C110.907 65.8483 111.321 66.1111 111.321 66.7943V71.2086C111.321 71.8918 110.907 72.6801 110.402 73.0479L107.049 75.2551C106.544 75.5704 106.131 75.3076 106.131 74.6245V70.2101C106.131 69.5269 106.544 68.7387 107.049 68.3708Z" fill="#F0F0F0"/>
<path d="M113.571 64.0613L122.848 57.9652C123.169 57.755 123.399 57.9127 123.399 58.2806C123.399 58.6484 123.169 59.1214 122.848 59.3316L113.571 65.4276C113.249 65.6378 113.02 65.4802 113.02 65.1123C113.02 64.7444 113.295 64.2715 113.571 64.0613Z" fill="#F0F0F0"/>
<path d="M113.571 66.7942L129.737 56.0736C130.058 55.8634 130.288 56.0211 130.288 56.389C130.288 56.7568 130.058 57.2298 129.737 57.44L113.571 68.1606C113.249 68.3708 113.02 68.2131 113.02 67.8453C113.02 67.4774 113.295 67.0044 113.571 66.7942Z" fill="#F0F0F0"/>
<path d="M113.571 69.5266L129.737 58.8061C130.058 58.5959 130.288 58.7535 130.288 59.1214C130.288 59.4892 130.058 59.9622 129.737 60.1724L113.571 70.9455C113.249 71.1557 113.02 70.9981 113.02 70.6302C113.02 70.2624 113.295 69.7368 113.571 69.5266Z" fill="#F0F0F0"/>
<path opacity="0.8" d="M105.167 81.0351L131.161 63.8507C131.712 63.4828 132.171 63.7981 132.171 64.4813V73.2575C132.171 73.9932 131.712 74.8866 131.161 75.2019L105.167 92.3863C104.616 92.7542 104.156 92.4389 104.156 91.7557V82.9795C104.156 82.2438 104.616 81.3504 105.167 81.0351Z" fill="#27DEBF"/>
<path d="M107.049 82.0339L110.402 79.8267C110.907 79.5114 111.321 79.7742 111.321 80.4573V84.8717C111.321 85.5549 110.907 86.3431 110.402 86.711L107.049 88.9182C106.544 89.2335 106.131 88.9707 106.131 88.2876V83.8732C106.131 83.19 106.544 82.4018 107.049 82.0339Z" fill="#F0F0F0"/>
<path d="M113.571 77.7243L122.848 71.6283C123.169 71.4181 123.399 71.5758 123.399 71.9436C123.399 72.3115 123.169 72.7845 122.848 72.9947L113.571 79.0907C113.249 79.3009 113.02 79.1432 113.02 78.7754C113.02 78.4075 113.295 77.9345 113.571 77.7243Z" fill="#F0F0F0"/>
<path d="M113.571 80.4573L129.737 69.7367C130.058 69.5265 130.288 69.6842 130.288 70.052C130.288 70.4199 130.058 70.8929 129.737 71.1031L113.571 81.8236C113.249 82.0338 113.02 81.8762 113.02 81.5083C113.02 81.1405 113.295 80.6675 113.571 80.4573Z" fill="#F0F0F0"/>
<path d="M113.571 83.1897L129.737 72.4692C130.058 72.2589 130.288 72.4166 130.288 72.7845C130.288 73.1523 130.058 73.6253 129.737 73.8355L113.571 84.6086C113.249 84.8188 113.02 84.6612 113.02 84.2933C113.02 83.8729 113.295 83.3999 113.571 83.1897Z" fill="#F0F0F0"/>
<path opacity="0.8" d="M105.167 94.6992L131.161 77.5147C131.712 77.1469 132.171 77.4622 132.171 78.1454V86.9215C132.171 87.6572 131.712 88.5506 131.161 88.8659L105.167 106.05C104.616 106.418 104.156 106.103 104.156 105.42V96.6436C104.156 95.9079 104.616 95.0145 105.167 94.6992Z" fill="#27DEBF"/>
<path d="M107.049 95.698L110.402 93.4908C110.907 93.1755 111.321 93.4382 111.321 94.1214V98.5358C111.321 99.2189 110.907 100.007 110.402 100.375L107.049 102.582C106.544 102.898 106.131 102.635 106.131 101.952V97.5373C106.131 96.8541 106.544 96.0658 107.049 95.698Z" fill="#F0F0F0"/>
<path d="M113.571 91.3884L122.848 85.2924C123.169 85.0822 123.399 85.2398 123.399 85.6077C123.399 85.9756 123.169 86.4485 122.848 86.6587L113.571 92.7547C113.249 92.965 113.02 92.8073 113.02 92.4394C113.02 92.0716 113.295 91.5986 113.571 91.3884Z" fill="#F0F0F0"/>
<path d="M113.571 94.1214L129.737 83.4008C130.058 83.1906 130.288 83.3482 130.288 83.7161C130.288 84.084 130.058 84.5569 129.737 84.7671L113.571 95.4877C113.249 95.6979 113.02 95.5403 113.02 95.1724C113.02 94.8045 113.295 94.3316 113.571 94.1214Z" fill="#F0F0F0"/>
<path d="M113.571 96.8538L129.737 86.1332C130.058 85.923 130.288 86.0807 130.288 86.4485C130.288 86.8164 130.058 87.2894 129.737 87.4996L113.571 98.2727C113.249 98.4829 113.02 98.3252 113.02 97.9574C113.02 97.5895 113.295 97.064 113.571 96.8538Z" fill="#F0F0F0"/>
<path d="M174.469 160.808C185.477 160.808 194.401 155.938 194.401 149.93C194.401 143.922 185.477 139.052 174.469 139.052C163.461 139.052 154.537 143.922 154.537 149.93C154.537 155.938 163.461 160.808 174.469 160.808Z" fill="#EBEBEB"/>
<path d="M166.249 93.6994H174.929C176.215 93.6994 177.271 92.4907 177.271 91.0193V69.8934C177.271 65.6893 174.286 62.2734 170.612 62.2734C166.938 62.2734 163.953 65.6893 163.953 69.8934V91.0193C163.907 92.4907 164.963 93.6994 166.249 93.6994Z" fill="#263238"/>
<path d="M176.213 66.1093L177.775 65.1634C177.545 64.6379 177.04 64.4802 176.581 64.743C176.167 64.9532 175.984 65.5838 176.213 66.1093Z" fill="#263238"/>
<path d="M176.076 66.3195L177.73 67.0027C177.913 66.4772 177.684 65.8991 177.27 65.6889C176.765 65.4787 176.26 65.794 176.076 66.3195Z" fill="#263238"/>
<path d="M185.814 137.58C186.319 137.264 186.686 138.053 187.146 138.631C187.467 139.051 188.018 139.734 188.064 140.207C188.156 140.943 187.605 142.099 186.962 142.73C186.319 143.361 185.584 143.833 185.354 145.2C185.125 146.566 184.665 147.407 183.425 148.038C182.048 148.721 180.211 148.511 179.614 148.038C178.879 147.512 179.568 146.881 180.578 145.2C181.91 142.993 182.966 141.416 182.966 139.367L185.814 137.58Z" fill="#263238"/>
<path d="M184.71 135.74L185.812 137.58C186.271 138.368 186.134 139.524 185.445 140.049C185.445 140.049 185.445 140.049 185.399 140.049C184.71 140.575 183.837 140.365 183.286 139.682L181.541 137.527L184.71 135.74Z" fill="#F28F8F"/>
<path d="M164.78 100.478C164.688 102.843 164.366 111.462 165.836 116.034C167.26 120.29 168.546 122.55 168.959 123.444C169.418 124.337 182.37 138.789 182.37 138.789C182.37 138.789 184.574 138.578 184.941 136.161C184.941 136.161 179.614 125.808 178.466 123.706C177.318 121.604 173.23 118.346 173.23 118.346L173.598 98.4814L164.78 100.478Z" fill="#455A64"/>
<path d="M168.138 145.353L165.406 144.643L164.5 149.203L167.232 149.914L168.138 145.353Z" fill="#F28F8F"/>
<path d="M169.372 107.678C169.372 107.678 168.315 106.627 166.846 104.367C164.733 101.056 165.055 98.1133 165.055 98.1133H165.927L177.271 98.376C178.373 100.478 178.649 103.684 178.281 106.784C177.501 113.248 172.816 124.442 172.816 124.442C172.862 125.335 173.229 129.066 172.449 132.325C171.301 137.527 168.132 146.303 168.132 146.303C168.132 146.303 166.157 146.619 165.146 145.305C165.146 145.305 166.892 127.437 167.351 122.865C167.902 117.978 169.372 107.678 169.372 107.678Z" fill="#455A64"/>
<path d="M164.779 147.669L164.871 147.196C164.595 147.249 163.355 149.614 162.115 150.612C160.783 151.716 159.635 152.399 159.038 152.872C158.257 153.555 159.405 154.921 161.38 155.027C162.345 155.079 164.136 154.764 164.687 154.133C165.238 153.555 165.651 152.557 166.065 152.136C166.478 151.716 167.397 151.348 167.672 150.77C167.856 150.454 167.856 149.719 167.856 149.088C167.856 148.51 167.81 147.879 167.626 147.879C167.626 147.932 167.58 148.247 167.58 148.247C167.351 148.458 166.57 148.72 165.927 148.668C165.422 148.668 164.549 148.563 164.779 147.669Z" fill="#263238"/>
<path d="M167.718 119.923C167.718 119.923 169.049 109.202 169.371 107.731C169.371 107.731 167.029 106.732 166.34 105.786C166.34 105.786 166.845 107.1 168.498 108.256L167.718 119.923Z" fill="#263238"/>
<path d="M174.791 119.607C174.791 119.607 173.368 123.601 172.816 124.495C172.816 124.495 172.954 127.543 172.954 128.173L173.689 128.909C173.689 128.909 173.735 126.334 173.368 124.81" fill="#263238"/>
<path d="M165.422 90.8616C165.239 92.7535 164.779 100.479 164.779 100.479C170.199 103.789 176.95 101.582 177.96 100.216C177.042 96.6949 175.664 95.2234 174.929 94.2775L176.674 88.6544C176.674 88.6544 176.904 88.0764 176.858 88.0764C176.766 87.8662 174.148 85.186 175.434 80.8768C175.618 80.1936 175.205 79.5104 174.608 79.4579L173.046 79.3002L168.821 79.1426C167.811 79.1951 167.076 79.3002 167.076 79.3002C166.433 79.9834 165.422 81.8753 164.733 83.8197C164.366 85.1335 163.907 87.1304 165.422 90.8616Z" fill="#27DEBF"/>
<path d="M175.571 90.7044L174.928 87.9717L174.193 94.2779L175.709 95.2764L174.928 94.2779L175.755 91.7029L175.571 90.7044Z" fill="#27DEBF"/>
<path opacity="0.2" d="M175.571 90.7044L174.928 87.9717L174.193 94.2779L175.709 95.2764L174.928 94.2779L175.755 91.7029L175.571 90.7044Z" fill="black"/>
<path d="M166.295 65.584C165.606 66.057 164.733 68.1065 164.825 72.3632C164.917 75.9892 165.927 76.8826 166.432 77.0928C166.938 77.3556 167.948 77.1979 168.912 76.9877V79.1423C168.912 79.1423 167.581 80.9291 167.672 81.875C167.764 82.8735 169.601 83.0837 170.841 82.1378C172.081 81.1919 173.138 79.3 173.138 79.3V74.3076C173.138 74.3076 173.689 74.9382 174.653 73.9923C175.434 73.204 175.71 71.8376 175.113 71.1545C174.516 70.4187 173.367 70.629 172.908 71.68C172.908 71.68 171.393 71.7325 169.326 70.4713C167.213 69.1575 166.432 67.0029 166.295 65.584Z" fill="#F28F8F"/>
<path d="M168.316 71.4173C168.316 71.6801 168.454 71.8903 168.684 71.8903C168.913 71.8903 169.097 71.6801 169.097 71.4173C169.097 71.1545 168.959 70.9443 168.73 70.9443C168.5 70.9969 168.316 71.1545 168.316 71.4173Z" fill="#263238"/>
<g opacity="0.5">
<path d="M168.223 74.5176L167.305 74.8329C167.397 75.1482 167.626 75.3059 167.902 75.2008C168.131 75.0956 168.315 74.7803 168.223 74.5176Z" fill="#F28F8F"/>
</g>
<path d="M165.055 70.0508L165.835 69.4202C165.698 69.1574 165.376 69.1049 165.192 69.2625C165.009 69.4202 164.917 69.788 165.055 70.0508Z" fill="#263238"/>
<path d="M165.238 71.1019C165.238 71.3646 165.376 71.5748 165.606 71.5748C165.835 71.5748 166.019 71.3646 166.019 71.1019C166.019 70.8391 165.881 70.6289 165.652 70.6289C165.468 70.6289 165.284 70.8391 165.238 71.1019Z" fill="#263238"/>
<g opacity="0.5">
<path d="M167.121 70.8389L167.075 73.5716L165.789 73.1511L167.121 70.8389Z" fill="#F28F8F"/>
</g>
<g opacity="0.5">
<path d="M168.867 76.9879C169.878 76.8303 171.944 76.1471 172.312 75.2012C172.312 75.2012 172.22 75.7792 171.577 76.4099C170.934 77.0405 168.867 77.7237 168.867 77.7237V76.9879Z" fill="#F28F8F"/>
</g>
<path d="M181.358 97.6411C181.312 97.2733 180.715 93.0691 180.256 90.7568L175.984 92.2808L176.673 95.5391L180.21 99.4804C181.312 99.2177 181.358 98.0615 181.358 97.6411Z" fill="#F28F8F"/>
<path d="M174.653 79.458C176.307 79.6157 178.465 79.8784 179.476 85.2387C180.44 90.2311 180.67 92.0179 180.67 92.0179C180.67 92.0179 179.384 93.8572 176.123 93.647L174.929 87.9714C172.77 84.6606 173.459 82.2958 174.653 79.458Z" fill="#27DEBF"/>
<path d="M160.829 93.8043C160.232 92.543 160.094 92.4905 159.727 92.2277C159.359 91.965 157.247 91.5971 156.328 91.492C155.272 91.3869 154.904 91.5971 155.18 92.6482C155.823 94.8553 157.706 99.5324 158.119 100.163C158.395 100.583 158.441 101.004 159.635 101.109C160.737 101.214 162.115 101.319 162.528 101.319C162.941 101.372 163.493 101.477 163.125 100.111C162.758 98.7442 161.885 96.537 161.518 95.5911C161.104 94.4349 160.829 93.8043 160.829 93.8043Z" fill="#263238"/>
<path d="M176.627 95.5389C176.627 95.5389 167.12 96.6951 165.88 96.2747C164.64 95.8542 162.987 94.4353 162.114 93.8573C161.242 93.2792 160.599 93.2266 160.599 93.4894C160.599 93.7522 161.38 95.066 161.517 95.5915C161.701 96.117 160.691 96.1696 159.405 95.8017C158.119 95.4338 157.568 94.593 157.246 95.1185C156.925 95.644 157.981 98.114 160.14 99.0073C162.298 99.9533 163.905 99.3227 165.697 99.4278C167.488 99.5329 177.729 100.426 180.209 99.5329C180.209 99.5329 180.485 98.2191 179.337 97.1155C178.189 95.9593 176.627 95.5389 176.627 95.5389Z" fill="#F28F8F"/>
<path d="M41.5589 182.11C52.5671 182.11 61.4909 177.24 61.4909 171.232C61.4909 165.224 52.5671 160.354 41.5589 160.354C30.5508 160.354 21.627 165.224 21.627 171.232C21.627 177.24 30.5508 182.11 41.5589 182.11Z" fill="#EBEBEB"/>
<path d="M49.4122 113.004C48.3559 105.751 49.4122 99.9182 49.2745 98.0264L52.5352 106.119C52.5352 106.119 52.9486 110.586 53.2241 113.739C53.4538 116.472 53.8212 119.94 54.4641 122.095C54.6019 122.463 54.8315 122.831 55.153 122.988C55.9797 123.514 56.3471 124.092 56.9901 124.828C57.4953 125.406 57.9086 125.511 57.8627 125.669C57.7708 125.931 57.4493 126.299 56.8523 126.142C56.5308 126.036 56.1634 125.826 55.6582 125.458C55.6582 125.458 56.0256 126.615 56.9441 127.718C58.1382 129.295 58.2301 130.241 55.9338 130.398C54.4641 130.503 53.2701 129.505 52.076 125.931C51.7086 124.88 51.1574 123.251 50.9278 121.885C50.193 118.311 49.7337 115.158 49.4122 113.004Z" fill="#FFA8A7"/>
<path d="M26.5878 162.087C26.0367 161.772 25.6693 162.56 25.1641 163.191C24.7967 163.664 24.2456 164.347 24.1996 164.873C24.0618 165.608 24.6589 166.817 25.3478 167.5C25.9908 168.183 26.7715 168.656 27.0011 170.075C27.2308 171.547 27.7359 172.388 29.0678 173.018C30.4915 173.701 32.4204 173.491 33.0634 173.018C33.8441 172.44 33.1093 171.809 32.053 170.023C30.6293 167.71 29.5271 166.029 29.5271 163.874L26.5878 162.087Z" fill="#263238"/>
<path d="M27.4613 160.038L26.5887 162.14C26.0835 162.981 26.2213 164.137 27.0021 164.715C27.0021 164.715 27.048 164.715 27.048 164.768C27.7369 165.293 28.7013 165.083 29.2524 164.347L30.8139 161.93L27.4613 160.038Z" fill="#FFA8A7"/>
<path d="M37.564 118.364C37.0129 123.146 36.967 124.881 36.967 128.612C36.967 132.921 36.4159 143.642 36.4159 143.642C36.4159 143.642 34.4411 144.693 32.9714 147.425C31.5018 150.106 26.9551 160.931 26.9551 160.931C26.9551 160.931 28.1951 162.876 30.2158 162.981C30.2158 162.981 39.6307 149.475 41.1463 147.163C42.6619 144.85 46.1523 128.086 46.1523 128.086L37.564 118.364Z" fill="#37474F"/>
<path d="M48.4487 166.922L51.3879 166.607L50.9287 161.352L47.7598 161.719L48.4487 166.922Z" fill="#FFA8A7"/>
<path d="M51.2052 164.82L51.1593 164.295C51.4807 164.4 52.583 167.238 53.823 168.552C55.2008 170.023 56.3948 170.969 57.0378 171.6C57.8645 172.493 56.3948 173.859 54.1445 173.649C53.0422 173.544 51.0674 172.913 50.5622 172.125C50.0111 171.389 49.8733 170.338 49.46 169.76C49.0466 169.235 48.174 168.709 47.8985 168.079C47.7607 167.711 47.8526 166.712 47.8066 165.977C47.8066 165.031 47.9444 164.61 48.1281 164.61C48.1281 164.663 48.174 165.083 48.174 165.083C48.4496 165.346 48.817 165.924 49.5518 165.977C50.103 166.029 51.3889 165.871 51.2052 164.82Z" fill="#263238"/>
<path d="M52.0312 118.364L51.1127 162.35C51.1127 162.35 50.1482 163.454 47.7601 162.771C47.7601 162.771 45.326 151.104 45.1882 148.319C45.0504 145.534 45.7393 142.538 45.7393 142.538L44.7749 132.658L37.5645 118.364H52.0312Z" fill="#37474F"/>
<path d="M44.8672 133.604C44.8672 133.499 46.5205 126.615 46.5205 126.615C46.5205 126.615 49.7354 125.984 50.8376 125.144C50.8376 125.144 49.0005 127.088 47.2554 127.456L45.4183 133.815L45.5102 139.753L44.8672 133.604Z" fill="#263238"/>
<path d="M47.2539 95.9248C49.4584 95.9248 51.4332 96.3452 52.0302 99.0779C52.6273 101.6 53.1325 109.798 53.1325 109.798C53.1325 109.798 52.5814 110.692 49.4584 110.429L47.2539 95.9248Z" fill="#263238"/>
<path d="M42.7089 96.0825C40.3207 96.2927 37.4733 96.608 36.1873 99.8136C34.7636 103.335 33.248 109.536 33.248 109.536C34.0747 110.639 35.774 111.69 37.1518 111.217L38.2999 108.274L37.5651 118.364C39.6318 120.939 47.5311 122.148 52.0319 118.364C52.0319 118.364 51.7104 104.543 51.6185 101.968C51.5267 98.9728 50.7459 96.1876 47.2096 95.9248L42.7089 96.0825Z" fill="#455A64"/>
<path d="M38.2999 108.222L40.2288 104.648L38.0703 111.48L38.2999 108.222Z" fill="#263238"/>
<path d="M40.2285 86.9381L41.193 91.3525C41.4226 92.2984 42.1574 92.9816 42.9841 92.9816H44.1322V86.833L40.2285 86.9381Z" fill="#263238"/>
<path d="M48.0806 90.0394C50.3634 90.0394 52.214 87.9219 52.214 85.3097C52.214 82.6976 50.3634 80.5801 48.0806 80.5801C45.7978 80.5801 43.9473 82.6976 43.9473 85.3097C43.9473 87.9219 45.7978 90.0394 48.0806 90.0394Z" fill="#263238"/>
<path d="M41.6969 82.629C41.6969 82.629 40.962 82.4713 40.4109 83.1545C39.8598 83.7851 39.9517 84.9938 40.4109 87.7791L42.1561 87.9893L41.6969 82.629Z" fill="#263238"/>
<path d="M42.5239 88.0424C42.2484 88.2 41.8809 87.6745 41.6054 87.2541C41.2839 86.8862 40.2735 86.3607 39.7224 87.6219C39.2172 88.8832 39.998 90.5648 40.8246 90.9327C41.9269 91.4582 42.4321 90.3546 42.4321 90.3546L42.7535 96.0828C42.7535 96.0828 43.6721 98.6578 46.1521 99.0257C48.6321 99.3935 48.1269 97.0813 47.3002 95.9251V94.1909C47.3002 94.1909 48.5862 94.4537 49.1832 94.296C50.1017 94.0858 50.5151 93.1399 50.9743 91.9312C51.6173 90.0919 51.9847 87.5168 51.4336 84.2061C50.6988 79.8443 46.4736 79.7392 44.0854 81.4734C41.6054 83.2076 42.5239 88.0424 42.5239 88.0424Z" fill="#FFA8A7"/>
<path d="M42.5238 88.5149C42.386 88.5149 41.9268 87.569 41.6053 87.2537C41.146 86.7807 41.7431 82.6291 41.7431 82.6291C41.9727 79.2133 46.3816 78.9505 47.5757 78.8454C50.3772 78.6352 52.2602 80.3694 51.4794 82.5766C50.9742 83.5751 49.9639 83.8378 48.9994 83.9955C47.3461 84.2057 44.5905 83.2072 44.2231 83.1547C43.7638 83.1021 43.626 83.6276 43.3964 85.0465C43.1208 86.3603 42.9371 88.5149 42.5238 88.5149Z" fill="#263238"/>
<path d="M41.6982 82.9443L40.1367 81.9984C40.3664 81.4728 40.8715 81.3152 41.3308 81.5779C41.7441 81.8407 41.9278 82.4188 41.6982 82.9443Z" fill="#263238"/>
<path d="M47.2535 94.1377C47.2535 94.1377 44.9572 93.6121 44.1764 93.1392C43.6253 92.8239 43.212 92.2458 43.0742 91.8779C43.0742 91.8779 43.212 92.6662 43.7172 93.3494C44.3142 94.1902 47.2994 94.8208 47.2994 94.8208V94.1377H47.2535Z" fill="#F28F8F"/>
<path d="M47.2994 87.9365C47.2994 88.2519 47.1157 88.4621 46.8401 88.4621C46.5646 88.4621 46.3809 88.1993 46.3809 87.9365C46.3809 87.6212 46.5646 87.411 46.8401 87.411C47.1157 87.3585 47.2994 87.6212 47.2994 87.9365Z" fill="#263238"/>
<path d="M46.8403 85.9395L45.8758 86.5701C45.738 86.2548 45.8299 85.8344 46.1054 85.6768C46.3351 85.4666 46.6565 85.6242 46.8403 85.9395Z" fill="#263238"/>
<path d="M47.0244 91.458L48.0807 91.931C47.9889 92.2988 47.6674 92.4565 47.3459 92.3514C47.0704 92.1412 46.9326 91.7733 47.0244 91.458Z" fill="#F28F8F"/>
<path d="M51.1568 86.3601L50.2383 85.5719C50.422 85.2566 50.7894 85.204 51.019 85.4142C51.2946 85.677 51.3405 86.0974 51.1568 86.3601Z" fill="#263238"/>
<path d="M50.8814 87.6211C50.8814 87.9364 50.6977 88.1466 50.4222 88.1466C50.1466 88.1466 49.9629 87.8839 49.9629 87.6211C49.9629 87.3058 50.1466 87.0956 50.4222 87.0956C50.6977 87.043 50.8814 87.3058 50.8814 87.6211Z" fill="#263238"/>
<path d="M48.9524 87.7266L48.5391 90.8271L50.0546 90.6169L48.9524 87.7266Z" fill="#F28F8F"/>
<path d="M54.3328 94.1573C54.3328 94.1573 54.3243 102.527 54.273 103.115C54.2217 103.703 49.857 103.679 49.7126 102.946C49.5681 102.214 49.726 94.7967 49.713 94.2095C49.7217 93.1448 54.2838 93.387 54.3328 94.1573Z" fill="#263238"/>
<path d="M50.6664 100.639C52.0386 100.341 53.0188 100.662 53.896 101.344C55.1729 102.268 54.9333 104.555 53.7107 104.986C53.3006 105.155 51.2757 105.438 50.3987 105.692C49.8235 105.876 49.2818 105.427 48.3687 105.713C45.0465 106.83 40.9095 110.417 37.4996 111.745C36.6509 112.041 35.8023 112.336 34.9511 112.032C34.4145 111.846 33.8289 111.504 33.5322 110.902C32.7479 109.335 35.3038 107.103 36.9623 105.946C39.0025 104.579 47.4526 102.594 47.8137 102.269C48.7241 101.383 49.0284 100.976 49.7583 100.253C50.1555 99.8955 50.594 99.7685 50.8468 99.5412L50.6664 100.639Z" fill="#FFA8A7"/>
<path d="M185.812 7.04219C185.812 6.14881 185.261 5.04523 184.572 4.62481L183.562 3.94164C182.873 3.46867 181.77 3.46867 181.081 3.94164L157.429 19.6021C156.741 20.075 156.189 21.1261 156.189 22.0195V48.1377C156.189 49.0311 156.741 50.1347 157.429 50.5551L158.44 51.2383C159.129 51.7112 160.231 51.7112 160.92 51.2383L184.71 35.5253C185.812 34.7895 185.812 34.1064 185.812 33.1604V7.04219Z" fill="#37474F"/>
<path d="M156.236 48.085C156.236 48.9784 156.787 50.082 157.476 50.5024L158.487 51.1855C159.084 51.606 160.048 51.606 160.737 51.2907C160.14 51.5534 159.727 51.1856 159.727 50.3447V24.2265C159.727 23.7535 159.864 23.2805 160.094 22.8601L156.65 20.5479C156.42 20.9683 156.282 21.4938 156.282 21.9142V48.085H156.236Z" fill="#263238"/>
<path d="M185.767 6.62125C185.629 6.04318 185.17 5.83297 184.573 6.20083L160.921 21.8613C160.599 22.0715 160.278 22.4393 160.048 22.9123L156.604 20.6C156.833 20.1796 157.109 19.7592 157.476 19.549L181.128 3.88855C181.817 3.46814 182.919 3.46814 183.608 3.88855L184.619 4.57173C185.17 4.99214 185.629 5.83297 185.767 6.62125Z" fill="#455A64"/>
<path d="M162.113 26.0132C162.113 25.7504 162.297 25.3825 162.481 25.2774L182.045 12.3497C182.275 12.192 182.596 12.192 182.826 12.3497L183.239 12.6124C183.469 12.7701 183.607 13.0854 183.607 13.3482V30.4801C183.607 30.7428 183.423 31.1107 183.239 31.2158L163.675 44.1435C163.445 44.3012 163.124 44.3012 162.894 44.1435L162.481 43.8808C162.251 43.7231 162.113 43.4078 162.113 43.145V26.0132Z" fill="#27DEBF"/>
<path opacity="0.4" d="M162.113 26.0132C162.113 25.7504 162.297 25.3825 162.481 25.2774L182.045 12.3497C182.275 12.192 182.596 12.192 182.826 12.3497L183.239 12.6124C183.469 12.7701 183.607 13.0854 183.607 13.3482V30.4801C183.607 30.7428 183.423 31.1107 183.239 31.2158L163.675 44.1435C163.445 44.3012 163.124 44.3012 162.894 44.1435L162.481 43.8808C162.251 43.7231 162.113 43.4078 162.113 43.145V26.0132Z" fill="white"/>
<path d="M163.904 26.6964L162.205 25.5928C162.113 25.7504 162.113 25.9081 162.113 26.0132V43.1451C162.113 43.4078 162.297 43.7757 162.481 43.8808L162.894 44.1436C163.124 44.3012 163.445 44.3012 163.675 44.1436L163.904 43.9859V26.6964Z" fill="#27DEBF"/>
<path opacity="0.3" d="M163.904 26.6964L162.205 25.5928C162.113 25.7504 162.113 25.9081 162.113 26.0132V43.1451C162.113 43.4078 162.297 43.7757 162.481 43.8808L162.894 44.1436C163.124 44.3012 163.445 44.3012 163.675 44.1436L163.904 43.9859V26.6964Z" fill="black"/>
<path d="M183.653 13.4011V30.533C183.653 30.6906 183.607 30.8483 183.515 30.9534C183.469 31.0585 183.377 31.1636 183.286 31.2161C183.286 31.2161 183.286 31.2161 183.24 31.2161L163.675 44.1439C163.583 44.1964 163.491 44.1964 163.4 44.1964C163.308 44.1439 163.262 44.0388 163.262 43.9337V26.8018C163.262 26.539 163.445 26.3288 163.675 26.4339L171.896 28.6937L172.952 29.009C173.182 29.0615 173.503 28.9564 173.641 28.6937L174.881 26.6967L183.286 13.3485C183.515 13.0858 183.653 13.1383 183.653 13.4011Z" fill="#27DEBF"/>
<path d="M183.24 31.3208C183.286 31.3208 183.286 31.3208 183.24 31.3208C183.378 31.2157 183.424 31.1106 183.516 31.0055C183.608 30.8479 183.654 30.6902 183.654 30.5851L175.02 26.6963L180.806 32.95L183.24 31.3208Z" fill="#27DEBF"/>
<path opacity="0.2" d="M183.24 31.3208C183.286 31.3208 183.286 31.3208 183.24 31.3208C183.378 31.2157 183.424 31.1106 183.516 31.0055C183.608 30.8479 183.654 30.6902 183.654 30.5851L175.02 26.6963L180.806 32.95L183.24 31.3208Z" fill="black"/>
<path d="M163.307 43.9857C163.307 44.1434 163.353 44.2485 163.444 44.2485C163.49 44.3011 163.582 44.3011 163.72 44.196L170.471 39.7291L171.987 28.6406L163.353 43.6704V43.9857H163.307Z" fill="#27DEBF"/>
<path opacity="0.2" d="M163.307 43.9857C163.307 44.1434 163.353 44.2485 163.444 44.2485C163.49 44.3011 163.582 44.3011 163.72 44.196L170.471 39.7291L171.987 28.6406L163.353 43.6704V43.9857H163.307Z" fill="black"/>
<path d="M183.515 31.0061C183.469 31.1112 183.377 31.2163 183.285 31.2688L163.721 44.1966C163.629 44.2491 163.537 44.2491 163.445 44.2491L172.814 27.1698C173.182 26.4866 174.008 26.1713 174.651 26.5392L183.515 31.0061Z" fill="#27DEBF"/>
<path opacity="0.3" d="M163.49 26.4335L172.4 30.9004C173.043 31.2157 173.824 30.9529 174.237 30.2698L183.56 13.1904L163.49 26.4335Z" fill="black"/>
<path d="M163.49 26.4335L172.446 30.2698C173.089 30.5325 173.824 30.2698 174.191 29.6391L183.56 13.1904L163.49 26.4335Z" fill="#27DEBF"/>
<path d="M186.134 -0.525391C183.976 0.893508 182.23 4.36193 182.23 7.25227C182.23 8.67117 182.69 9.66966 183.379 10.1426L185.308 11.4039L185.675 10.7207C186.042 10.6156 186.41 10.4579 186.777 10.1952C188.936 8.77628 190.681 5.30786 190.681 2.41751C190.681 1.9971 190.635 1.62923 190.543 1.26137" fill="#F28F8F"/>
<path d="M188.109 0.788189C185.95 2.20709 184.205 5.67551 184.205 8.56586C184.205 11.4037 185.95 12.6123 188.109 11.1409C190.267 9.722 192.013 6.25358 192.013 3.36323C192.058 0.52543 190.267 -0.63071 188.109 0.788189Z" fill="#FFA8A7"/>
<path d="M186.731 6.0962C186.686 6.04365 186.686 5.9911 186.686 5.93855C186.686 5.886 186.731 5.83344 186.731 5.72834L187.88 3.62627C187.926 3.57372 187.926 3.52117 187.971 3.46861C188.017 3.41606 188.063 3.36351 188.109 3.31096L188.752 2.89054C188.798 2.89054 188.844 2.83799 188.844 2.89054C188.89 2.89054 188.89 2.9431 188.89 2.99565V8.25083C188.89 8.30338 188.89 8.35593 188.844 8.40848C188.798 8.46103 188.798 8.51359 188.752 8.56614L188.063 9.0391C188.017 9.0391 187.971 9.09166 187.971 9.0391C187.926 9.0391 187.926 8.98655 187.926 8.934V5.41303L187.283 6.56917C187.237 6.62172 187.237 6.67427 187.191 6.67427C187.145 6.67427 187.099 6.67427 187.099 6.67427L186.731 6.0962Z" fill="white"/>
</g>
<defs>
<clipPath id="clip0_4194_37531">
<rect width="208" height="208" fill="white" transform="translate(0.5)"/>
</clipPath>
</defs>
</svg>
