<svg width="20" height="20" viewBox="0 0 20 20" fill="none" xmlns="http://www.w3.org/2000/svg">
<path d="M13.406 8.80775C13.77 8.80775 14.0786 8.68033 14.3318 8.4255C14.5849 8.17083 14.7115 7.86158 14.7115 7.49775C14.7115 7.13392 14.5842 6.82542 14.3295 6.57225C14.0748 6.31892 13.7655 6.19225 13.4015 6.19225C13.0377 6.19225 12.7292 6.31967 12.476 6.5745C12.2228 6.82917 12.0962 7.13842 12.0962 7.50225C12.0962 7.86608 12.2236 8.17458 12.4783 8.42775C12.7329 8.68108 13.0422 8.80775 13.406 8.80775ZM6.5985 8.80775C6.96233 8.80775 7.27083 8.68033 7.524 8.4255C7.77717 8.17083 7.90375 7.86158 7.90375 7.49775C7.90375 7.13392 7.77642 6.82542 7.52175 6.57225C7.26708 6.31892 6.95783 6.19225 6.594 6.19225C6.23 6.19225 5.92142 6.31967 5.66825 6.5745C5.41508 6.82917 5.2885 7.13842 5.2885 7.50225C5.2885 7.86608 5.41583 8.17458 5.6705 8.42775C5.92517 8.68108 6.2345 8.80775 6.5985 8.80775ZM10 15.1923C11.0435 15.1923 11.9973 14.9003 12.8615 14.3163C13.7257 13.7323 14.3628 12.9602 14.773 12H5.227C5.63717 12.9602 6.27433 13.7323 7.1385 14.3163C8.00267 14.9003 8.9565 15.1923 10 15.1923ZM10.0017 19.5C8.68775 19.5 7.45267 19.2507 6.2965 18.752C5.14033 18.2533 4.13467 17.5766 3.2795 16.7218C2.42433 15.8669 1.74725 14.8617 1.24825 13.706C0.749417 12.5503 0.5 11.3156 0.5 10.0017C0.5 8.68775 0.749333 7.45267 1.248 6.2965C1.74667 5.14033 2.42342 4.13467 3.27825 3.2795C4.13308 2.42433 5.13833 1.74725 6.294 1.24825C7.44967 0.749417 8.68442 0.5 9.99825 0.5C11.3123 0.5 12.5473 0.749333 13.7035 1.248C14.8597 1.74667 15.8653 2.42342 16.7205 3.27825C17.5757 4.13308 18.2528 5.13833 18.7518 6.294C19.2506 7.44967 19.5 8.68442 19.5 9.99825C19.5 11.3123 19.2507 12.5473 18.752 13.7035C18.2533 14.8597 17.5766 15.8653 16.7218 16.7205C15.8669 17.5757 14.8617 18.2528 13.706 18.7518C12.5503 19.2506 11.3156 19.5 10.0017 19.5ZM10 18C12.2333 18 14.125 17.225 15.675 15.675C17.225 14.125 18 12.2333 18 10C18 7.76667 17.225 5.875 15.675 4.325C14.125 2.775 12.2333 2 10 2C7.76667 2 5.875 2.775 4.325 4.325C2.775 5.875 2 7.76667 2 10C2 12.2333 2.775 14.125 4.325 15.675C5.875 17.225 7.76667 18 10 18Z" fill="#8E8E8E"/>
</svg>
