<svg width="209" height="208" viewBox="0 0 209 208" fill="none" xmlns="http://www.w3.org/2000/svg">
<g clip-path="url(#clip0_4919_77749)">
<path d="M30.9552 208.226C-9.65174 184.258 -9.65174 145.366 30.9552 121.398C71.5622 97.4299 137.438 97.4299 178.045 121.398C218.652 145.366 218.652 184.258 178.045 208.226" fill="#F5F5F5"/>
<path d="M193.556 149.44C186.231 144.668 174.334 144.668 166.96 149.44C163.863 151.437 161.945 152.769 161.454 155.376V158.095C161.454 160.092 162.24 162.145 163.715 163.921L130.777 182.673V185.392L134.464 187.778H144.788L148.819 185.114V182.562L152.064 180.51L156.538 180.066L158.307 178.901L158.504 174.351L161.847 172.187L166.714 173.408L173.056 169.302C179.889 171.133 188.001 170.245 193.556 166.639C197.243 164.253 199.062 161.091 199.062 157.929V155.265C198.718 152.602 196.85 151.604 193.556 149.44ZM188.984 157.152C186.919 158.483 183.527 158.483 181.462 157.152C179.398 155.82 179.398 153.601 181.462 152.269C183.527 150.938 186.919 150.938 188.984 152.269C191.049 153.601 191.049 155.82 188.984 157.152Z" fill="#27DEBF"/>
<path opacity="0.1" d="M193.556 149.44C186.231 144.668 174.334 144.668 166.96 149.44C163.863 151.437 161.945 152.769 161.454 155.376V158.095C161.454 160.092 162.24 162.145 163.715 163.921L130.777 182.673V185.392L134.464 187.778H144.788L148.819 185.114V182.562L152.064 180.51L156.538 180.066L158.307 178.901L158.504 174.351L161.847 172.187L166.714 173.408L173.056 169.302C179.889 171.133 188.001 170.245 193.556 166.639C197.243 164.253 199.062 161.091 199.062 157.929V155.265C198.718 152.602 196.85 151.604 193.556 149.44ZM188.984 157.152C186.919 158.483 183.527 158.483 181.462 157.152C179.398 155.82 179.398 153.601 181.462 152.269C183.527 150.938 186.919 150.938 188.984 152.269C191.049 153.601 191.049 155.82 188.984 157.152Z" fill="black"/>
<path d="M193.558 146.721C186.233 141.95 174.336 141.95 166.961 146.721C160.915 150.66 159.882 156.597 163.766 161.257L130.828 182.729L134.515 185.114H144.839L148.87 182.451L148.575 180.065L152.066 177.846L156.539 177.402L158.309 176.237L158.506 171.688L161.849 169.524L166.716 170.745L173.057 166.639C179.891 168.47 188.002 167.582 193.558 163.976C200.882 159.26 200.882 151.493 193.558 146.721ZM188.986 154.489C186.921 155.82 183.529 155.82 181.464 154.489C179.399 153.157 179.399 150.938 181.464 149.606C183.529 148.275 186.921 148.275 188.986 149.606C191.05 150.938 191.05 153.102 188.986 154.489Z" fill="#27DEBF"/>
<path opacity="0.3" d="M180.282 164.808C175.71 164.808 171.433 163.643 168.238 161.59C165.534 159.815 163.961 157.54 163.961 155.376C163.961 153.212 165.534 150.938 168.238 149.162C171.433 147.109 175.71 145.944 180.282 145.944C184.854 145.944 189.131 147.109 192.327 149.162C195.031 150.938 196.604 153.212 196.604 155.376C196.604 157.54 195.031 159.815 192.327 161.59C189.131 163.698 184.854 164.808 180.282 164.808Z" stroke="black" stroke-width="1.3741" stroke-miterlimit="10"/>
<path opacity="0.1" d="M187.016 166.805V169.524C182.543 170.634 177.479 170.634 173.055 169.413V166.694C177.528 167.915 182.543 167.97 187.016 166.805Z" fill="black"/>
<path opacity="0.1" d="M166.715 170.855V173.518L161.848 172.298V169.579L166.715 170.855Z" fill="black"/>
<path opacity="0.1" d="M158.553 171.743V174.462L158.355 178.956V176.293L158.553 171.743Z" fill="black"/>
<path opacity="0.1" d="M156.585 177.458V180.121L152.062 180.565V177.902L156.585 177.458Z" fill="black"/>
<path opacity="0.1" d="M144.836 185.114H134.512V187.833H144.836V185.114Z" fill="black"/>
<path opacity="0.15" d="M130.828 182.729V185.392L134.515 187.833V185.114L132.893 184.06V185.225L132.008 184.67V183.45L130.828 182.729Z" fill="black"/>
<path d="M132.008 183.45L132.893 184.06V185.226L132.008 184.671V183.45Z" fill="#27DEBF"/>
<path opacity="0.15" d="M132.008 183.45V184.671L165.781 162.644L164.896 162.034L132.008 183.45Z" fill="black"/>
<path opacity="0.15" d="M164.895 162.034V163.199L165.779 162.644L164.895 162.034Z" fill="black"/>
<path d="M121.465 73.3817L135.811 63.8743C135.948 63.7802 136.084 63.7802 136.166 63.8743C136.248 63.9684 136.767 64.2508 136.849 64.3136C136.931 64.3763 137.013 64.5332 137.013 64.7529V79.563C137.013 79.9709 136.795 80.473 136.521 80.6613L134.007 82.3243L121.137 73.7896C121.219 73.6327 121.328 73.4758 121.465 73.3817Z" fill="#27DEBF"/>
<path opacity="0.5" d="M121.465 73.3817L135.811 63.8743C135.948 63.7802 136.084 63.7802 136.166 63.8743C136.248 63.9684 136.767 64.2508 136.849 64.3136C136.931 64.3763 137.013 64.5332 137.013 64.7529V79.563C137.013 79.9709 136.795 80.473 136.521 80.6613L134.007 82.3243L121.137 73.7896C121.219 73.6327 121.328 73.4758 121.465 73.3817Z" fill="white"/>
<path d="M121.82 90.1993C121.71 90.1366 121.191 89.7914 121.109 89.7287C121 89.6659 120.945 89.509 120.945 89.2894V74.4792C120.945 74.2596 121 74.04 121.109 73.8203L133.98 82.355L122.148 90.1993C122.038 90.2621 121.902 90.2935 121.82 90.1993Z" fill="#27DEBF"/>
<path opacity="0.2" d="M121.82 90.1993C121.71 90.1366 121.191 89.7914 121.109 89.7287C121 89.6659 120.945 89.509 120.945 89.2894V74.4792C120.945 74.2596 121 74.04 121.109 73.8203L133.98 82.355L122.148 90.1993C122.038 90.2621 121.902 90.2935 121.82 90.1993Z" fill="black"/>
<path d="M122.174 90.2001L136.52 80.6928C136.793 80.5045 137.012 80.0338 137.012 79.5945V64.7844C137.012 64.3765 136.793 64.1882 136.52 64.3451L122.174 73.8525C121.9 74.0407 121.682 74.5114 121.682 74.9507V89.7608C121.654 90.1687 121.9 90.3884 122.174 90.2001Z" fill="#27DEBF"/>
<path opacity="0.2" d="M121.656 89.7616V89.4792L127.586 78.1833L121.738 74.4494C121.738 74.418 121.766 74.3552 121.793 74.3239L129.089 77.8068C129.253 77.8695 129.444 77.744 129.608 77.4616L136.904 64.3145C136.932 64.3458 136.932 64.3458 136.959 64.3772L131.111 75.8614L137.041 79.2815V79.5639C137.041 79.7835 136.986 80.0346 136.904 80.2228L130.811 76.4262L129.936 78.1205C129.581 78.7795 129.116 79.0932 128.788 78.8736L127.914 78.3402L121.848 90.1695C121.738 90.1381 121.656 89.9812 121.656 89.7616Z" fill="black"/>
<path d="M17.4613 186.917C25.4254 191.189 38.3547 191.189 46.3188 186.917C54.2829 182.645 54.2829 175.654 46.3188 171.382C38.3547 167.11 25.4254 167.11 17.4613 171.382C9.49726 175.654 9.49726 182.645 17.4613 186.917Z" fill="#E0E0E0"/>
<path d="M31.1797 49.3227L33.6869 47.6583C33.7361 47.6583 33.7852 47.6028 33.7852 47.5473L34.2277 46.6041L32.7037 45.6055L32.7528 45.7719L31.1797 49.3227Z" fill="#27DEBF"/>
<g opacity="0.1">
<path d="M31.1797 49.3227L33.6869 47.6583C33.7361 47.6583 33.7852 47.6028 33.7852 47.5473L34.2277 46.6041L32.7037 45.6055L32.7528 45.7719L31.1797 49.3227Z" fill="black"/>
</g>
<path d="M32.9967 45.8272L31.2269 49.267C31.1286 49.4889 30.8336 49.4335 30.7353 49.2115L28.8672 43.1641L32.9967 45.8272Z" fill="#27DEBF"/>
<path d="M23.4102 26.742C23.4102 25.8543 23.9509 24.8002 24.6392 24.3563C25.3274 23.9125 26.409 23.9125 27.0972 24.3563L46.9091 37.228C47.5973 37.6719 48.1381 38.726 48.1381 39.6137V50.9319C48.1381 51.8197 47.5973 52.8738 46.9091 53.3176C46.2208 53.7615 45.1393 53.7615 44.451 53.3176L24.5409 40.335C23.4593 39.6137 23.4102 38.8925 23.4102 38.0602V26.742Z" fill="#27DEBF"/>
<path d="M41.5029 43.3864L27.3937 34.121C27.0004 33.8436 26.6562 33.9545 26.6562 34.3984C26.6562 34.8422 27.0004 35.3416 27.3937 35.619L41.552 44.8844C41.9453 45.1618 42.2894 45.0508 42.2894 44.607C42.2403 44.1631 41.9453 43.6083 41.5029 43.3864Z" fill="#455A64"/>
<path d="M37.2259 43.7746L27.3937 37.3387C27.0004 37.0613 26.6562 37.1723 26.6562 37.6161C26.6562 38.06 27.0004 38.5593 27.3937 38.8367L37.2259 45.2726C37.6191 45.55 37.9633 45.439 37.9633 44.9952C37.9633 44.6068 37.6683 44.052 37.2259 43.7746Z" fill="#455A64"/>
<path d="M41.5029 40.1129L27.3937 30.8475C27.0004 30.5701 26.6562 30.6811 26.6562 31.1249C26.6562 31.5688 27.0004 32.0681 27.3937 32.3455L41.5029 41.6109C41.8961 41.8883 42.2403 41.7774 42.2403 41.3335C42.2403 40.9452 41.9453 40.3903 41.5029 40.1129Z" fill="#455A64"/>
<path opacity="0.1" d="M48.0897 50.9318C48.0897 51.8195 47.5489 52.8737 46.8607 53.3175C46.2707 53.7059 45.2875 53.7614 44.6484 53.4285C45.2384 53.6504 45.6808 53.3175 45.6808 52.5408V41.2226C45.6808 40.7787 45.5333 40.2794 45.3367 39.8355L47.7947 38.2266C47.9914 38.6704 48.1389 39.1697 48.1389 39.5581V50.9318H48.0897Z" fill="black"/>
<path opacity="0.3" d="M23.4609 26.3537C23.6084 25.7434 24.1 25.5769 24.6408 25.9653L44.4527 38.837C44.7968 39.0589 45.0918 39.4473 45.3376 39.8911L47.7956 38.2822C47.5498 37.8383 47.2548 37.45 46.9107 37.228L27.0988 24.3563C26.4106 23.9125 25.3291 23.9125 24.6408 24.3563C24.0509 24.7447 23.5593 25.5769 23.4609 26.3537Z" fill="white"/>
<path d="M22.7699 108.91C22.2291 110.131 20.7051 111.851 18.837 109.576C16.1823 106.303 11.7578 94.707 11.7578 94.707L14.6583 93.209L20.5576 102.308L23.7039 106.247" fill="#FFA8A7"/>
<path d="M23.5576 86.607C22.1811 91.8777 19.3789 103.584 19.3789 103.584L22.771 108.855C22.771 108.855 23.4593 107.413 24.3442 104.638C24.9341 102.808 26.9005 95.484 26.9005 95.484C26.9005 95.484 26.5072 84.9425 27.9329 83.5555C29.4077 82.1685 30.6368 81.7246 30.6368 81.7246C28.277 82.002 24.8358 81.7801 23.5576 86.607Z" fill="#FFA8A7"/>
<path d="M17.0186 87.3834C16.232 85.7744 16.0354 85.7189 15.5929 85.3305C15.1505 84.9977 12.2991 84.4983 11.1684 84.3874C9.79192 84.2764 9.30031 84.5538 9.6936 85.8854C10.5293 88.7149 12.9874 94.8179 13.5281 95.6501C13.8723 96.2049 13.9706 96.7042 15.4946 96.8707C16.9203 97.0371 18.7392 97.0926 19.28 97.1481C19.8208 97.2036 20.5582 97.3145 20.0666 95.5391C19.5749 93.7637 18.4442 90.8787 17.9526 89.6581C17.4119 88.2156 17.0186 87.3834 17.0186 87.3834Z" fill="#263238"/>
<path d="M11.7576 94.7071C11.1677 91.8221 9.49618 89.2145 10.4302 88.2158L10.9218 89.4919C10.9218 89.4919 14.0681 90.3241 15.5921 90.2132C17.1161 90.1022 18.3451 89.6583 18.7876 89.9912C19.6725 90.7125 19.9183 93.7085 17.4111 94.7626C15.2972 95.7613 11.7576 94.7071 11.7576 94.7071Z" fill="#FFA8A7"/>
<path d="M30.8312 80.8369C28.0291 80.8924 24.9811 82.002 23.8995 84.4987C22.818 86.9954 20.8516 95.9834 20.8516 95.9834C20.8516 95.9834 22.9655 98.5355 26.8984 98.2581L30.8312 80.8369Z" fill="#27DEBF"/>
<path opacity="0.1" d="M30.8312 80.8369C28.0291 80.8924 24.9811 82.002 23.8995 84.4987C22.818 86.9954 20.8516 95.9834 20.8516 95.9834C20.8516 95.9834 22.9655 98.5355 26.8984 98.2581L30.8312 80.8369Z" fill="black"/>
<path d="M42.9736 171.826H39.0898V178.151H42.9736V171.826Z" fill="#FFA8A7"/>
<path d="M29.4087 163.983L25.5273 164.134L25.72 170.455L29.6014 170.304L29.4087 163.983Z" fill="#FFA8A7"/>
<path d="M42.6802 109.854C42.6802 114.015 43.1718 140.923 43.1718 140.923C43.2701 142.144 44.2533 144.308 44.0567 148.912C43.7617 155.237 43.2701 172.603 43.2701 172.603C43.2701 172.603 41.4512 174.656 38.8948 172.603C38.8948 172.603 35.4044 149.023 34.7161 142.81C34.1262 137.428 33.0938 122.725 33.0938 122.725L31.1274 140.368C31.1274 140.368 31.7665 144.418 31.9139 147.304C32.0614 150.189 29.6525 166.389 29.6525 166.389C29.6525 166.389 27.6861 167.943 25.4739 166.556C25.4739 166.556 23.999 142.699 23.6057 140.091C23.2125 137.483 24.6873 109.854 24.6873 109.854H42.6802Z" fill="#37474F"/>
<path d="M36.8778 81.0588C37.3202 81.1698 41.0565 82.1685 42.6788 82.7788V96.982V109.854C39.9749 113.183 30.536 114.736 24.6367 109.854C24.6367 109.854 24.6367 91.9887 24.6367 88.6043C24.6367 85.2199 26.3082 81.1143 30.9293 80.8369L36.8778 81.0588Z" fill="#EBEBEB"/>
<path d="M38.2087 63.6933C38.2087 63.6933 39.1428 63.5268 39.9294 64.3591C40.6668 65.1913 40.5193 66.7448 39.9294 70.3511L37.668 70.6285L38.2087 63.6933Z" fill="#263238"/>
<path d="M25.0318 62.6391C25.0318 62.6391 24.0977 62.6391 23.6061 62.3063C22.9179 61.8624 22.7212 62.7501 23.1145 63.5268C23.5078 64.3036 24.196 65.3023 25.72 65.5242C25.72 65.4132 26.3591 63.5268 26.3591 63.5268L25.0318 62.6391Z" fill="#263238"/>
<path d="M37.1242 70.6283C37.4684 70.8503 37.96 70.129 38.3533 69.6297C38.7466 69.1303 40.1231 68.4646 40.8113 70.0735C41.4996 71.6825 40.2214 73.8463 39.1398 74.2346C37.3209 74.9004 37.0259 73.5688 37.0259 73.5688L36.8784 81.0588C36.8784 81.0588 35.6986 84.3877 32.4048 84.8871C29.1602 85.3864 29.8484 82.3349 30.8808 80.8924V78.6177C30.8808 78.6177 29.2093 78.8951 28.4228 78.7841C27.0954 78.5622 26.2105 77.3416 25.8172 75.6771C25.1781 73.014 24.9323 70.9057 25.4731 65.6905C26.063 59.9759 31.9623 59.9204 35.1086 62.1951C38.3533 64.4144 37.1242 70.6283 37.1242 70.6283Z" fill="#FFA8A7"/>
<path d="M37.126 71.2941C37.2735 71.2941 37.9126 70.0735 38.355 69.6851C38.9449 69.0748 38.2075 63.6931 38.2075 63.6931C38.2075 63.6931 38.7975 61.6403 37.6668 60.3087C36.5361 58.9772 34.3238 59.1991 32.7015 59.1436C31.03 59.0881 29.2111 58.9772 26.9005 57.8121C24.5899 56.7024 24.4425 56.536 24.1475 57.7011C23.8525 58.8662 23.7542 61.4738 25.1307 63.1938L26.2614 63.6931C26.2614 63.6931 26.9005 64.3034 29.0144 64.5808C31.1775 64.8582 34.5205 64.5253 34.9629 64.4698C35.602 64.3589 35.7003 65.0801 36.0444 66.911C36.3394 68.52 36.5852 71.2941 37.126 71.2941Z" fill="#263238"/>
<path d="M38.2058 64.0817L40.2214 62.8611C39.9265 62.1953 39.2382 61.9734 38.6974 62.3063C38.1075 62.6391 37.9109 63.4159 38.2058 64.0817Z" fill="#263238"/>
<path d="M30.9297 78.5626C30.9297 78.5626 33.9285 77.8968 35.01 77.231C35.6983 76.7872 36.2882 76.0659 36.4849 75.6221C36.4849 75.6221 36.2882 76.6207 35.6491 77.5639C34.8626 78.6736 30.9788 79.5058 30.9788 79.5058L30.9297 78.5626Z" fill="#F28F8F"/>
<path d="M31.668 69.7955C31.668 70.1838 31.9138 70.5167 32.2579 70.5167C32.602 70.5167 32.8478 70.1838 32.8478 69.7955C32.8478 69.4071 32.602 69.0742 32.2579 69.0742C31.9138 69.0742 31.668 69.4071 31.668 69.7955Z" fill="#263238"/>
<path d="M32.3086 67.2441L33.5868 68.0208C33.7834 67.5769 33.6359 67.0776 33.2918 66.8557C32.9477 66.6338 32.5052 66.8002 32.3086 67.2441Z" fill="#263238"/>
<path d="M31.2242 74.5117L29.8477 75.122C29.9951 75.5659 30.3884 75.7878 30.7817 75.6213C31.1258 75.4549 31.3225 74.9556 31.2242 74.5117Z" fill="#F28F8F"/>
<path d="M26.2604 67.7984L27.4403 66.7998C27.1945 66.4114 26.752 66.3559 26.4079 66.6333C26.1129 66.8553 26.0146 67.4101 26.2604 67.7984Z" fill="#263238"/>
<path d="M26.6523 69.6295C26.6523 70.0178 26.8981 70.3507 27.2423 70.3507C27.5864 70.3507 27.8322 70.0178 27.8322 69.6295C27.8322 69.2411 27.5864 68.9082 27.2423 68.9082C26.8981 68.9082 26.6523 69.1856 26.6523 69.6295Z" fill="#263238"/>
<path d="M29.7015 68.9639L29.5048 73.0695L27.6367 72.3482L29.7015 68.9639Z" fill="#F28F8F"/>
<path d="M39.0906 176.043V175.433C38.6973 175.599 37.8616 179.316 36.3376 180.87C35.1085 182.146 33.4371 183.588 33.0438 184.975C32.6013 186.418 35.3543 187.25 36.485 187.028C37.8124 186.751 40.123 185.697 40.6637 184.753C41.2537 183.755 41.4995 182.368 41.9911 181.647C42.4827 180.925 43.5151 180.149 43.81 179.316C43.9575 178.872 43.7609 177.874 43.6134 177.042C43.4167 176.265 43.2201 175.433 43.0235 175.488C43.0235 175.599 43.0235 175.987 43.0235 175.987C42.7285 176.32 41.9911 176.709 41.1062 176.709C40.4671 176.653 39.0906 176.542 39.0906 176.043Z" fill="#263238"/>
<path d="M25.6707 169.163C25.4741 169.163 25.3266 169.496 24.8841 170.051C24.3434 170.717 23.4585 171.383 22.6227 171.882C21.1971 172.714 18.3457 173.935 17.1167 174.601C16.3301 174.989 16.3793 176.099 17.1659 176.709C18.0016 177.319 19.968 177.763 22.3769 177.153C23.6551 176.82 25.3757 175.488 26.4573 175.544C27.5388 175.599 29.5053 175.599 30.341 174.989C31.1276 174.379 30.8326 173.047 30.5868 171.937C30.341 170.717 29.9969 168.83 29.6528 168.886V169.274C29.2103 170.051 26.8014 170.384 25.8182 169.829L25.6707 169.163Z" fill="#263238"/>
<path d="M49.8103 106.857C50.0561 105.526 47.4506 92.5431 46.4182 88.4375L41.8954 94.374L44.6484 107.19C44.5992 108.078 43.3702 114.736 42.387 117.787C42.1903 118.342 41.8462 118.786 41.4038 119.008C40.2239 119.729 39.6831 120.506 38.7491 121.504C38.0117 122.281 37.4217 122.392 37.5201 122.67C37.6184 123.002 38.0608 123.557 38.8966 123.335C39.339 123.224 39.8798 122.891 40.568 122.448C40.568 122.448 39.9781 124.001 38.6999 125.555C36.9301 127.663 36.7826 129.05 40.0764 129.327C42.1412 129.494 43.8127 128.218 45.6808 123.224C46.2215 121.782 46.8606 119.729 47.4014 117.843C48.6304 113.404 49.2695 109.853 49.8103 106.857Z" fill="#FFA8A7"/>
<path d="M40.369 90.6013C39.14 87.4389 39.7299 83.6662 41.1064 82.2236C44.5477 82.8894 45.4326 84.7203 46.4158 88.3821C47.8906 93.9857 48.628 97.6475 48.628 97.6475C47.7431 98.9236 44.3019 100.477 42.6796 99.9222L40.369 90.6013Z" fill="#27DEBF"/>
<path opacity="0.1" d="M40.369 90.6013C39.14 87.4389 39.7299 83.6662 41.1064 82.2236C44.5477 82.8894 45.4326 84.7203 46.4158 88.3821C47.8906 93.9857 48.628 97.6475 48.628 97.6475C47.7431 98.9236 44.3019 100.477 42.6796 99.9222L40.369 90.6013Z" fill="black"/>
<path opacity="0.1" d="M42.6825 99.9225L41.1094 93.5977L42.6825 105.471V99.9225Z" fill="black"/>
<path d="M33.0929 122.726C33.0929 122.726 29.9958 121.727 27.7344 119.23C27.7344 119.23 28.7668 121.45 31.8639 123.447L31.7164 135.431L33.0929 122.726Z" fill="#263238"/>
<path d="M183.181 90.0248L174.332 84.2548C173.644 83.8109 172.759 83.8109 172.021 84.2548L171.726 84.4767L152.455 97.0155C150.292 98.4025 148.965 101.01 148.965 103.84V120.373C148.965 121.594 149.309 122.426 149.899 122.87C150.538 123.314 158.06 128.141 158.65 128.584C159.289 129.028 160.174 129.028 161.206 128.363L180.477 115.824C182.394 114.548 183.967 111.496 183.967 108.999V92.466C184.017 91.3564 183.722 90.5242 183.181 90.0248Z" fill="#27DEBF"/>
<path opacity="0.1" d="M158.747 128.584C158.157 128.14 150.636 123.314 149.997 122.87C149.407 122.426 149.062 121.594 149.062 120.373V103.84C149.062 102.453 149.407 101.066 149.997 99.9004L158.846 105.67C158.206 106.891 157.813 108.278 157.813 109.554V126.088C157.764 127.308 158.108 128.196 158.747 128.584Z" fill="black"/>
<path d="M184.018 92.4106V108.944C184.018 111.441 182.444 114.548 180.527 115.768L161.256 128.307C159.339 129.583 157.766 128.529 157.766 126.032V109.499C157.766 107.002 159.339 103.895 161.256 102.675L180.527 90.1358C182.444 88.9152 184.018 89.9139 184.018 92.4106Z" fill="#27DEBF"/>
<path opacity="0.5" d="M174.382 84.2546L182.985 89.8582C182.346 89.4698 181.511 89.5253 180.527 90.1356L161.256 102.674C160.273 103.285 159.388 104.394 158.798 105.615L149.949 99.8449C150.539 98.6798 151.424 97.6811 152.506 96.9598L171.777 84.421L172.072 84.1991C172.416 83.9772 172.809 83.8662 173.202 83.8662C173.596 83.9217 173.989 84.0327 174.382 84.2546Z" fill="white"/>
<path d="M172.759 114.603L169.022 117.044L169.612 109.388C169.17 109.11 168.875 108.445 168.875 107.501C168.875 105.837 169.76 103.84 170.891 103.118C172.021 102.397 172.906 103.174 172.906 104.838C172.906 105.781 172.611 106.836 172.169 107.668L172.759 114.603Z" fill="#455A64"/>
<path d="M172.76 114.603L169.368 112.384L169.023 117.044L172.76 114.603Z" fill="#37474F"/>
<path d="M170.893 103.118C170.155 103.618 169.516 104.616 169.172 105.726L172.22 107.723C172.662 106.891 172.957 105.837 172.957 104.894C172.908 103.174 172.023 102.397 170.893 103.118Z" fill="#37474F"/>
<path d="M174.724 89.8024V73.047C174.724 69.6626 173.594 66.9995 171.627 65.7235C169.759 64.5029 167.448 64.6693 165.089 66.1673C160.812 68.9414 157.469 75.7656 157.469 81.7021V98.513C157.469 98.8459 157.665 99.1788 158.059 99.4007C158.845 99.9 160.074 99.9 160.861 99.4007C161.254 99.1233 161.451 98.8459 161.451 98.513V81.7021C161.451 77.3746 164.056 72.0484 167.104 70.051C168.137 69.3852 169.12 69.2188 169.71 69.6072C170.398 70.051 170.841 71.3826 170.841 73.047V89.8024C170.841 90.1353 171.037 90.4682 171.43 90.6901C172.217 91.1895 173.446 91.1895 174.233 90.6901C174.528 90.4682 174.724 90.1353 174.724 89.8024Z" fill="#37474F"/>
<path d="M94.9385 184.24C112.071 184.24 125.959 176.763 125.959 167.54C125.959 158.317 112.071 150.84 94.9385 150.84C77.8064 150.84 63.918 158.317 63.918 167.54C63.918 176.763 77.8064 184.24 94.9385 184.24Z" fill="#EBEBEB"/>
<path d="M130.873 26.3955C133.233 23.6769 136.527 21.7905 138.788 23.7323C141.05 25.7297 141.099 30.5566 139.624 32.9977C137.412 36.715 130.824 42.8735 130.824 42.8735L130.873 26.3955Z" fill="#FFA8A7"/>
<path d="M82.793 67.1182C82.793 67.1182 87.7091 60.3495 88.3482 56.7432V98.0769H82.793V67.1182Z" fill="#F28F8F"/>
<path d="M115.83 134.251C116.026 128.647 119.91 126.483 123.646 118.716C128.021 109.506 128.513 99.5194 129.005 90.8643H86.4805V134.251H115.83Z" fill="#FFA8A7"/>
<path d="M93.855 120.991L128.514 98.4097C128.759 95.8021 128.858 93.3054 129.005 90.8643H125.957L90.168 111.503L93.855 120.991Z" fill="#F28F8F"/>
<path d="M88.791 120.103L87.857 119.493C87.0704 118.994 86.4805 117.773 86.4805 116.775V23.954C86.4805 22.9554 87.1196 21.7348 87.857 21.2354L125.809 -3.50929C126.596 -4.00862 127.825 -4.00862 128.562 -3.50929L129.496 -2.89899C130.283 -2.39966 130.873 -1.17907 130.873 -0.180401V92.6401C130.873 93.6388 130.234 94.8593 129.496 95.3587L91.544 120.103C90.8066 120.603 89.5284 120.603 88.791 120.103Z" fill="#455A64"/>
<path d="M92.0357 25.7849L86.8738 22.4561C86.628 22.9554 86.4805 23.5102 86.4805 24.0095V116.775C86.4805 117.773 87.1196 118.994 87.857 119.493L88.791 120.103C89.5776 120.603 90.8066 120.603 91.544 120.103L92.0357 119.771V25.7849Z" fill="#263238"/>
<path d="M90.168 26.34V119.16C90.168 120.159 90.8071 120.547 91.5445 120.048L129.497 95.3034C130.283 94.8041 130.873 93.5835 130.873 92.5848V-0.180178C130.873 -1.17884 130.234 -1.56721 129.497 -1.06788L91.5445 23.6769C90.8071 24.1762 90.168 25.3413 90.168 26.34Z" fill="#37474F"/>
<path d="M93.215 32.2207L127.824 9.63979C128.463 9.19594 129.004 9.58431 129.004 10.4165V84.4843C129.004 85.3165 128.463 86.3707 127.824 86.8145L93.215 109.395C92.5759 109.839 92.0352 109.451 92.0352 108.619V34.551C92.0352 33.6633 92.5268 32.6646 93.215 32.2207Z" fill="white"/>
<path d="M110.52 13.6899C111.012 13.357 111.454 13.6344 111.454 14.3002C111.454 14.966 111.061 15.7982 110.52 16.1311C110.028 16.464 109.586 16.1865 109.586 15.5208C109.586 14.855 110.028 14.0228 110.52 13.6899Z" fill="#263238"/>
<path d="M107.863 18.9054C109.731 17.7402 113.074 15.4655 114.943 14.2449C115.238 14.023 115.532 14.1894 115.532 14.5778C115.532 14.9662 115.287 15.4655 114.943 15.6319L107.863 20.2369C107.568 20.4588 107.273 20.2924 107.273 19.904C107.273 19.5711 107.519 19.1273 107.863 18.9054Z" fill="#263238"/>
<path d="M106.045 20.07C106.34 19.9036 106.585 20.0145 106.585 20.4029C106.585 20.7913 106.34 21.2351 106.045 21.4016C105.75 21.568 105.504 21.4571 105.504 21.0687C105.553 20.7358 105.75 20.2919 106.045 20.07Z" fill="#263238"/>
<path d="M110.52 100.518C111.553 99.8527 112.389 100.407 112.389 101.739C112.389 103.071 111.553 104.68 110.52 105.345C109.488 106.011 108.652 105.456 108.652 104.125C108.652 102.793 109.488 101.184 110.52 100.518Z" fill="#263238"/>
<path d="M130.221 -0.84668L93.0763 23.4934C92.32 23.9888 91.7383 25.1778 91.7383 26.1355V121.217C91.7383 122.208 92.3491 122.604 93.0763 122.109L130.221 97.7688C130.977 97.2734 131.559 96.0845 131.559 95.1267V0.045021" fill="#27DEBF"/>
<path d="M130.085 86.6107C130.085 87.4352 129.543 87.9629 128.881 88.3917L93.9269 110.489C93.2646 110.918 92.7227 110.555 92.7227 109.73V35.3581C92.7227 34.5336 93.2646 33.5111 93.9269 33.0824L128.881 10.9851C129.543 10.5563 130.085 10.9191 130.085 11.7436V86.6107Z" fill="#27DEBF"/>
<path opacity="0.75" d="M130.221 -0.84668L93.0763 23.4934C92.32 23.9888 91.7383 25.1778 91.7383 26.1355V121.217C91.7383 122.208 92.3491 122.604 93.0763 122.109L130.221 97.7688C130.977 97.2734 131.559 96.0845 131.559 95.1267V0.045021" fill="white"/>
<path opacity="0.75" d="M130.085 86.6107C130.085 87.4352 129.543 87.9629 128.881 88.3917L93.9269 110.489C93.2646 110.918 92.7227 110.555 92.7227 109.73V35.3581C92.7227 34.5336 93.2646 33.5111 93.9269 33.0824L128.881 10.9851C129.543 10.5563 130.085 10.9191 130.085 11.7436V86.6107Z" fill="white"/>
<path d="M91.9625 122.602C91.1797 122.999 90.0656 122.966 89.343 122.502L87.7472 121.476C86.9643 120.979 86.332 119.786 86.332 118.826V23.4718C86.332 23.1075 86.4224 22.71 86.5729 22.3126C86.6331 22.1801 86.6632 22.0807 86.7536 21.9482L91.1496 24.7304C91.0592 24.9291 90.9689 25.0947 90.9087 25.2934C90.7883 25.6246 90.728 25.9558 90.728 26.2539V121.608C90.7581 122.502 91.27 122.933 91.9625 122.602Z" fill="#27DEBF"/>
<path opacity="0.6" d="M91.9625 122.602C91.1797 122.999 90.0656 122.966 89.343 122.502L87.7472 121.476C86.9643 120.979 86.332 119.786 86.332 118.826V23.4718C86.332 23.1075 86.4224 22.71 86.5729 22.3126C86.6331 22.1801 86.6632 22.0807 86.7536 21.9482L91.1496 24.7304C91.0592 24.9291 90.9689 25.0947 90.9087 25.2934C90.7883 25.6246 90.728 25.9558 90.728 26.2539V121.608C90.7581 122.502 91.27 122.933 91.9625 122.602Z" fill="white"/>
<path d="M110.722 107.995C110.481 107.995 110.27 107.929 110.09 107.797C109.638 107.499 109.367 106.903 109.367 106.108C109.367 104.518 110.391 102.564 111.656 101.769C112.288 101.371 112.89 101.305 113.342 101.603C113.793 101.901 114.064 102.497 114.064 103.292C114.064 104.882 113.041 106.836 111.776 107.631C111.415 107.896 111.053 107.995 110.722 107.995ZM112.679 101.736C112.408 101.736 112.077 101.835 111.776 102.034C110.602 102.796 109.638 104.617 109.638 106.108C109.638 106.803 109.849 107.3 110.21 107.532C110.572 107.764 111.083 107.697 111.625 107.366C112.8 106.604 113.763 104.783 113.763 103.292C113.763 102.597 113.552 102.1 113.191 101.868C113.041 101.769 112.86 101.736 112.679 101.736Z" fill="#455A64"/>
<path d="M111.355 13.4365C111.867 13.1053 112.289 13.3703 112.289 14.0327C112.289 14.6951 111.867 15.49 111.355 15.8212C110.843 16.1524 110.422 15.8875 110.422 15.225C110.422 14.5626 110.843 13.7677 111.355 13.4365Z" fill="#455A64"/>
<path d="M107.74 19.6961L114.966 15.0924C115.388 14.8274 115.749 15.0261 115.749 15.5229C115.749 16.0529 115.388 16.6821 114.966 16.9471L107.74 21.5509C107.318 21.8158 106.957 21.6171 106.957 21.1203C106.957 20.6235 107.318 19.9611 107.74 19.6961Z" fill="#455A64"/>
<path d="M130.085 86.6107C130.085 87.4352 129.543 87.9629 128.881 88.3917L93.9269 110.489C93.2646 110.918 92.7227 110.555 92.7227 109.73V35.3581C92.7227 34.5336 93.2646 33.5111 93.9269 33.0824L128.881 10.9851C129.543 10.5563 130.085 10.9191 130.085 11.7436V86.6107Z" fill="#455A64"/>
<path d="M130.086 -0.844428L92.1428 23.5175C91.7565 23.7489 91.4297 24.1786 91.1623 24.6745L86.8242 21.8978C87.0916 21.402 87.4185 21.0053 87.8047 20.7739L125.748 -3.62109" fill="#27DEBF"/>
<path opacity="0.9" d="M130.086 -0.844428L92.1428 23.5175C91.7565 23.7489 91.4297 24.1786 91.1623 24.6745L86.8242 21.8978C87.0916 21.402 87.4185 21.0053 87.8047 20.7739L125.748 -3.62109" fill="white"/>
<path d="M99.7903 34.6328C99.7903 34.6328 99.7903 34.5997 99.7903 34.5666V34.2354L99.3387 34.5335C99.3086 34.5335 99.3086 34.5335 99.3086 34.5003V34.401C99.3086 34.3679 99.3086 34.3679 99.3086 34.3347C99.3086 34.3347 99.3086 34.3016 99.3387 34.2685L99.8205 32.8112C99.8205 32.7781 99.8506 32.7781 99.8506 32.745L99.8807 32.7118L99.9409 32.6787C99.971 32.6787 99.971 32.6787 99.971 32.6787C99.971 32.6787 99.971 32.7118 99.971 32.745V33.8379L100.061 33.7717C100.091 33.7717 100.091 33.7717 100.091 33.7717C100.091 33.7717 100.091 33.8048 100.091 33.8379V33.9042C100.091 33.9373 100.091 33.9704 100.091 33.9704C100.091 34.0035 100.061 34.0035 100.061 34.0035L99.971 34.0698V34.401C99.971 34.4341 99.971 34.4672 99.971 34.4672C99.971 34.5003 99.9409 34.5003 99.9409 34.5003L99.8506 34.5335C99.8205 34.6328 99.7903 34.6328 99.7903 34.6328ZM99.8205 33.9704V33.1755L99.4893 34.1691L99.8205 33.9704Z" fill="#FAFAFA"/>
<path d="M100.331 34.1033C100.241 34.0039 100.211 33.7721 100.211 33.4409C100.211 33.1097 100.241 32.8447 100.331 32.6129C100.422 32.381 100.542 32.2154 100.693 32.116C100.753 32.0829 100.813 32.0498 100.873 32.0498C100.934 32.0498 100.964 32.0498 101.024 32.0829C101.024 32.0829 101.024 32.0829 101.024 32.116V32.1492L100.994 32.3148C100.994 32.3479 100.994 32.3479 100.964 32.3479C100.964 32.3479 100.964 32.3479 100.934 32.3479C100.873 32.3148 100.783 32.3479 100.693 32.381C100.572 32.4473 100.512 32.5797 100.452 32.7122C100.392 32.8778 100.361 33.0765 100.361 33.3084C100.361 33.5402 100.392 33.7058 100.452 33.8052C100.512 33.8714 100.602 33.9046 100.693 33.8383C100.723 33.8052 100.753 33.7721 100.813 33.739C100.843 33.7058 100.873 33.6727 100.903 33.6396V33.1428L100.723 33.2753C100.693 33.2753 100.693 33.2753 100.693 33.2753C100.693 33.2753 100.693 33.2421 100.693 33.209V33.1428C100.693 33.1097 100.693 33.0765 100.693 33.0765C100.693 33.0434 100.723 33.0434 100.723 33.0434L101.024 32.8447C101.054 32.8447 101.054 32.8447 101.054 32.8447C101.054 32.8447 101.054 32.8778 101.054 32.9109V33.6396C101.054 33.6727 101.054 33.6727 101.054 33.7058C101.054 33.7058 101.054 33.739 101.024 33.739C100.934 33.9046 100.813 34.037 100.663 34.1364C100.542 34.2358 100.422 34.2026 100.331 34.1033Z" fill="#FAFAFA"/>
<path d="M126.589 15.3244C126.528 15.2581 126.468 15.225 126.408 15.2581L124.601 16.3842C124.481 16.4505 124.391 16.7154 124.391 16.9804V18.1065C124.391 18.239 124.421 18.3714 124.481 18.4708C124.511 18.5039 124.541 18.537 124.541 18.537C124.571 18.5702 124.601 18.537 124.662 18.537L126.468 17.4109C126.589 17.3447 126.679 17.0797 126.679 16.8148V15.6887C126.649 15.5231 126.649 15.3906 126.589 15.3244ZM124.511 18.3052C124.481 18.2721 124.481 18.2058 124.481 18.1396V17.0135C124.481 16.8148 124.541 16.6161 124.632 16.5498L126.438 15.4237C126.468 15.4237 126.468 15.4237 126.498 15.4237C126.498 15.4237 126.528 15.4237 126.528 15.4568C126.559 15.49 126.559 15.5562 126.559 15.6224V16.7485C126.559 16.9473 126.498 17.146 126.408 17.2122L124.601 18.3383C124.571 18.3383 124.541 18.3383 124.511 18.3052Z" fill="#FAFAFA"/>
<path d="M126.375 15.7881V16.7485C126.375 16.9141 126.285 17.0798 126.164 17.1791L124.689 18.1065C124.659 18.1065 124.629 18.1065 124.629 18.0734V17.0798C124.629 16.9473 124.689 16.7817 124.749 16.7485L126.315 15.7549C126.345 15.7218 126.375 15.7549 126.375 15.7881Z" fill="#FAFAFA"/>
<path d="M126.739 15.6224C126.8 15.5893 126.83 15.7549 126.83 15.9867V16.1854C126.83 16.4173 126.8 16.616 126.739 16.6822L126.648 16.7485V15.6886C126.648 15.6886 126.679 15.6555 126.739 15.6224Z" fill="#FAFAFA"/>
<path d="M102.925 32.2163C102.925 32.4482 102.804 32.7462 102.654 32.8125C102.503 32.9118 102.383 32.7794 102.383 32.5475C102.383 32.3157 102.503 32.0176 102.654 31.9513C102.804 31.852 102.925 31.9845 102.925 32.2163Z" fill="#FAFAFA"/>
<path d="M102.654 31.2224C102.383 31.388 102.172 31.7854 102.052 32.216C102.021 32.3153 102.052 32.3816 102.082 32.4147C102.142 32.4478 102.202 32.3816 102.232 32.2491C102.323 31.951 102.473 31.6529 102.654 31.5536C102.834 31.4211 103.015 31.5204 103.075 31.7192C103.105 31.7854 103.166 31.7854 103.226 31.686C103.256 31.6198 103.286 31.5204 103.256 31.4542C103.135 31.1561 102.925 31.0568 102.654 31.2224Z" fill="#FAFAFA"/>
<path d="M102.652 30.527C102.261 30.792 101.9 31.3551 101.719 31.9843C101.689 32.0837 101.689 32.1831 101.749 32.2162C101.809 32.2493 101.87 32.1831 101.9 32.0837C102.05 31.5538 102.351 31.0901 102.652 30.8914C102.984 30.6926 103.255 30.792 103.405 31.1232C103.435 31.1895 103.495 31.1563 103.556 31.057C103.586 30.9576 103.616 30.8582 103.586 30.8251C103.405 30.3946 103.044 30.2621 102.652 30.527Z" fill="#FAFAFA"/>
<path d="M109.637 26.7513C109.637 26.7513 109.637 26.7181 109.637 26.685C109.637 26.6519 109.637 26.6519 109.667 26.6188L110.028 25.8901C110.028 25.857 110.058 25.857 110.058 25.8239C110.058 25.7908 110.088 25.7908 110.088 25.7908L110.209 25.6914H110.239V25.7245V27.6124C110.239 27.6455 110.239 27.6455 110.239 27.6786C110.239 27.7118 110.209 27.7118 110.209 27.7118L110.058 27.8111H110.028V27.778V26.3207L109.787 26.8175C109.787 26.8506 109.757 26.8506 109.757 26.8506H109.727L109.637 26.7513Z" fill="#FAFAFA"/>
<path d="M110.508 26.1888C110.508 26.1888 110.508 26.1556 110.508 26.1225C110.508 26.0894 110.508 26.0894 110.538 26.0563L110.899 25.3276C110.899 25.2945 110.929 25.2945 110.929 25.2614C110.929 25.2283 110.959 25.2283 110.959 25.2283L111.08 25.1289H111.11V25.162V27.0499C111.11 27.083 111.11 27.083 111.11 27.1161C111.11 27.1493 111.08 27.1493 111.08 27.1493L110.929 27.2486H110.899V27.2155V25.7582L110.658 26.255C110.658 26.2881 110.628 26.2881 110.628 26.2881H110.598L110.508 26.1888Z" fill="#FAFAFA"/>
<path d="M111.653 25.3936H111.683V25.4267V25.7248C111.683 25.7579 111.683 25.7579 111.683 25.791C111.683 25.8241 111.653 25.8241 111.653 25.8241L111.503 25.9235H111.473V25.8904V25.5923C111.473 25.5592 111.473 25.5592 111.473 25.526C111.473 25.4929 111.503 25.4929 111.503 25.4929L111.653 25.3936ZM111.653 26.4203H111.683V26.4534V26.7515C111.683 26.7846 111.683 26.7846 111.683 26.8177C111.683 26.8509 111.653 26.8509 111.653 26.8509L111.503 26.9502H111.473V26.9171V26.619C111.473 26.5859 111.473 26.5859 111.473 26.5528C111.473 26.5197 111.503 26.5197 111.503 26.5197L111.653 26.4203Z" fill="#FAFAFA"/>
<path d="M112.587 26.2875H112.556V26.2544V25.857L112.014 26.1882H111.984V26.155V25.9563C111.984 25.9232 111.984 25.8901 111.984 25.8901C111.984 25.857 112.014 25.8238 112.014 25.7907L112.556 24.3334C112.587 24.2672 112.617 24.234 112.617 24.2009L112.737 24.1016H112.767V24.1347V25.2939L112.918 25.1945H112.948V25.2277V25.5257C112.948 25.5589 112.948 25.5589 112.948 25.592C112.948 25.6251 112.918 25.6251 112.918 25.6251L112.767 25.7245V26.0888C112.767 26.1219 112.767 26.1219 112.767 26.155C112.767 26.1882 112.737 26.1882 112.737 26.1882L112.587 26.2875ZM112.526 25.4926V24.8633L112.225 25.6914L112.526 25.4926Z" fill="#FAFAFA"/>
<path d="M113.281 23.8699C113.281 23.8367 113.281 23.8367 113.281 23.8036C113.281 23.7705 113.311 23.7705 113.311 23.7705L113.973 23.373H114.003V23.4062V23.6049C114.003 23.638 114.003 23.638 114.003 23.6711C114.003 23.7043 113.973 23.7043 113.973 23.7043L113.491 24.0023L113.461 24.3998C113.491 24.3667 113.521 24.3335 113.552 24.3004C113.582 24.2673 113.612 24.2673 113.642 24.2342C113.702 24.2011 113.762 24.1679 113.823 24.1679C113.883 24.1679 113.913 24.1679 113.973 24.2011C114.003 24.2342 114.033 24.3004 114.063 24.3667C114.094 24.4329 114.094 24.5323 114.094 24.6316C114.094 24.7641 114.094 24.8635 114.063 24.9628C114.033 25.0622 114.003 25.1616 113.973 25.2609C113.943 25.3603 113.883 25.4265 113.823 25.4928C113.762 25.559 113.702 25.5921 113.642 25.6584C113.552 25.7246 113.491 25.7246 113.431 25.7577C113.371 25.7577 113.341 25.7577 113.281 25.7246C113.25 25.6915 113.22 25.6584 113.19 25.5921C113.16 25.5259 113.16 25.4596 113.16 25.3934C113.16 25.3603 113.16 25.3603 113.16 25.3272C113.16 25.294 113.19 25.294 113.19 25.294L113.341 25.1947H113.371L113.401 25.2278C113.401 25.2609 113.431 25.294 113.431 25.3272C113.431 25.3603 113.461 25.3603 113.491 25.3603C113.521 25.3603 113.521 25.3603 113.552 25.3603C113.582 25.3603 113.612 25.3272 113.642 25.3272C113.702 25.294 113.762 25.2278 113.792 25.1284C113.823 25.0291 113.853 24.9297 113.853 24.8304C113.853 24.731 113.823 24.6979 113.792 24.6647C113.762 24.6316 113.702 24.6316 113.642 24.6647C113.612 24.6979 113.582 24.6979 113.552 24.731C113.521 24.7641 113.521 24.7641 113.491 24.7972C113.491 24.8304 113.461 24.8304 113.461 24.8635L113.431 24.8966L113.281 24.996H113.25V24.9628L113.281 23.8699Z" fill="#FAFAFA"/>
<path d="M95.4844 37.4157V36.7864L95.9661 36.4883V37.0845L95.4844 37.4157Z" fill="#FAFAFA"/>
<path d="M96.207 36.9513V35.7258L96.6888 35.4277V36.6201L96.207 36.9513Z" fill="#FAFAFA"/>
<path d="M96.9297 36.4878V34.633L97.4114 34.335V36.1897L96.9297 36.4878Z" fill="#FAFAFA"/>
<path d="M97.6523 36.0244V33.5735L98.1341 33.2754V35.7263L97.6523 36.0244Z" fill="#FAFAFA"/>
<path opacity="0.7" d="M113.279 32.381L144.202 12.7405C144.563 12.5087 144.834 12.7074 144.834 13.1379V26.7505C144.834 27.2142 144.533 27.7441 144.202 27.976L113.279 47.6165C112.918 47.8483 112.647 47.6496 112.647 47.219V33.6065C112.617 33.1428 112.918 32.6128 113.279 32.381Z" fill="#27DEBF"/>
<path opacity="0.3" d="M112.829 32.9114L111.173 31.8516C111.052 32.0834 110.992 32.3152 110.992 32.5471V46.1596C110.992 46.3915 111.052 46.524 111.173 46.6233C111.293 46.6896 112.708 47.5838 112.799 47.6501C112.678 47.5838 112.618 47.4182 112.618 47.1864V33.5738C112.618 33.3751 112.708 33.1433 112.829 32.9114Z" fill="#27DEBF"/>
<path opacity="0.5" d="M144.655 12.6745C144.414 12.5089 143.149 11.714 143.029 11.6477C142.909 11.5815 142.758 11.5815 142.577 11.6808L111.655 31.3213C111.474 31.4207 111.324 31.6194 111.203 31.8513L112.859 32.9111C112.98 32.6793 113.13 32.4806 113.311 32.3812L144.233 12.7407C144.384 12.6413 144.535 12.6082 144.655 12.6745Z" fill="#27DEBF"/>
<path d="M117.648 36.1902C117.467 36.1902 117.286 36.157 117.136 36.0577C116.774 35.8258 116.594 35.3953 116.594 34.7991C116.594 33.7392 117.256 32.4807 118.069 31.9507C118.521 31.6526 118.972 31.6195 119.334 31.8514C119.695 32.0832 119.876 32.5138 119.876 33.1099C119.876 34.1698 119.213 35.4284 118.4 35.9583C118.129 36.1239 117.888 36.1902 117.648 36.1902Z" fill="white"/>
<path d="M120.536 36.6205C119.994 36.2562 119.272 36.3224 118.549 36.7861L117.736 37.316C116.321 38.2103 115.207 40.3631 115.207 42.1516V43.7083L121.44 39.7338V38.674C121.41 37.7135 121.109 36.9517 120.536 36.6205Z" fill="white"/>
<path opacity="0.7" d="M123.641 30.2948C123.641 31.3216 124.333 31.719 125.206 31.156C128.368 29.1687 136.618 23.9025 139.779 21.9153C140.622 21.3854 141.345 20.0937 141.345 19.0669C141.345 18.0402 140.653 17.6428 139.779 18.2058L125.206 27.4465C124.333 28.0095 123.641 29.3012 123.641 30.2948Z" fill="white"/>
<path d="M125.117 28.7379L139.811 19.3979C140.082 19.2323 140.323 19.3317 140.323 19.696C140.323 20.0604 140.082 20.4578 139.811 20.6565L125.117 29.9965C124.846 30.1621 124.605 30.0628 124.605 29.6984C124.605 29.3672 124.846 28.9367 125.117 28.7379Z" fill="#455A64"/>
<path opacity="0.7" d="M123.641 36.4882C123.641 37.5149 124.333 37.9124 125.206 37.3493C128.368 35.3621 136.618 30.0959 139.779 28.1087C140.622 27.5787 141.345 26.287 141.345 25.2603C141.345 24.2336 140.653 23.8361 139.779 24.3992L125.206 33.6398C124.333 34.2029 123.641 35.4614 123.641 36.4882Z" fill="white"/>
<path d="M126.048 34.3359C126.319 34.1703 126.53 34.3028 126.53 34.634C126.53 34.9652 126.319 35.3958 126.048 35.5614C125.777 35.727 125.566 35.5945 125.566 35.2633C125.566 34.9321 125.777 34.5015 126.048 34.3359Z" fill="#455A64"/>
<path d="M127.583 33.3418C127.854 33.1762 128.065 33.3087 128.065 33.6399C128.065 33.9711 127.854 34.4017 127.583 34.5673C127.312 34.7329 127.102 34.6004 127.102 34.2692C127.102 33.938 127.312 33.5074 127.583 33.3418Z" fill="#455A64"/>
<path d="M129.118 32.3818C129.389 32.2162 129.6 32.3487 129.6 32.6799C129.6 33.0111 129.389 33.4417 129.118 33.6073C128.847 33.7729 128.637 33.6404 128.637 33.3092C128.637 32.978 128.847 32.5474 129.118 32.3818Z" fill="#455A64"/>
<path d="M130.654 31.3877C130.925 31.2221 131.135 31.3546 131.135 31.6858C131.135 32.017 130.925 32.4476 130.654 32.6132C130.383 32.7788 130.172 32.6463 130.172 32.3151C130.172 31.9839 130.383 31.5864 130.654 31.3877Z" fill="#455A64"/>
<path d="M132.193 30.4277C132.464 30.2621 132.674 30.3946 132.674 30.7258C132.674 31.057 132.464 31.4876 132.193 31.6532C131.922 31.8188 131.711 31.6863 131.711 31.3551C131.711 31.0239 131.922 30.5933 132.193 30.4277Z" fill="#455A64"/>
<path d="M133.728 29.4668C133.999 29.3012 134.21 29.4337 134.21 29.7649C134.21 30.0961 133.999 30.5267 133.728 30.6923C133.457 30.8579 133.246 30.7254 133.246 30.3942C133.246 30.0299 133.457 29.6324 133.728 29.4668Z" fill="#455A64"/>
<path d="M135.263 28.4736C135.534 28.308 135.745 28.4405 135.745 28.7717C135.745 29.1029 135.534 29.5335 135.263 29.6991C134.992 29.8647 134.781 29.7322 134.781 29.401C134.781 29.0698 134.992 28.6392 135.263 28.4736Z" fill="#455A64"/>
<path d="M136.798 27.5127C137.069 27.3471 137.28 27.4796 137.28 27.8108C137.28 28.142 137.069 28.5726 136.798 28.7382C136.527 28.9038 136.316 28.7713 136.316 28.4401C136.316 28.1089 136.527 27.6783 136.798 27.5127Z" fill="#455A64"/>
<path d="M138.332 26.5195C138.603 26.3539 138.814 26.4864 138.814 26.8176C138.814 27.1488 138.603 27.5794 138.332 27.745C138.061 27.9106 137.85 27.7781 137.85 27.4469C137.82 27.1157 138.061 26.7183 138.332 26.5195Z" fill="#455A64"/>
<path d="M139.867 25.5586C140.138 25.393 140.349 25.5255 140.349 25.8567C140.349 26.1879 140.138 26.6185 139.867 26.7841C139.596 26.9497 139.385 26.8172 139.385 26.486C139.355 26.1548 139.596 25.7242 139.867 25.5586Z" fill="#455A64"/>
<path opacity="0.7" d="M118.007 48.2791C117.917 48.246 117.826 48.246 117.706 48.3123L97.4721 61.163C97.2011 61.3286 96.9904 61.7261 96.9904 62.0573V82.1615C96.9904 82.3271 97.0506 82.4264 97.1108 82.4927C97.0205 82.4264 96.328 81.9959 96.2376 81.9296C96.1473 81.8634 96.1172 81.764 96.1172 81.5984V61.4942C96.1172 61.163 96.328 60.7656 96.5989 60.6L116.833 47.7492C116.953 47.6498 117.073 47.6498 117.164 47.7161C117.224 47.7823 117.856 48.1798 118.007 48.2791Z" fill="#27DEBF"/>
<path opacity="0.7" d="M97.4739 61.1965L117.708 48.3457C117.979 48.1801 118.189 48.3126 118.189 48.6438V68.748C118.189 69.0792 117.979 69.4766 117.708 69.6422L97.4739 82.493C97.203 82.6586 96.9922 82.5261 96.9922 82.1949V62.0907C96.9922 61.7595 97.203 61.3621 97.4739 61.1965Z" fill="#27DEBF"/>
<path opacity="0.15" d="M97.1409 61.5933L96.2677 61.0303C96.1774 61.1959 96.1172 61.3615 96.1172 61.5271V81.6313C96.1172 81.7969 96.1774 81.8962 96.2376 81.9625C96.328 82.0287 97.0205 82.4593 97.1108 82.5255C97.0205 82.4593 96.9904 82.3599 96.9904 82.1943V62.0901C96.9904 61.9245 97.0506 61.7258 97.1409 61.5933Z" fill="black"/>
<path opacity="0.5" d="M118.008 48.2791C117.827 48.1798 117.225 47.7823 117.134 47.7161C117.044 47.6498 116.924 47.6498 116.803 47.7492L96.5695 60.6331C96.449 60.6994 96.3286 60.865 96.2383 61.0306L97.1115 61.5936C97.2018 61.428 97.3222 61.2955 97.4427 61.1962L117.676 48.3454C117.827 48.246 117.947 48.246 118.008 48.2791Z" fill="white"/>
<path opacity="0.95" d="M110.24 67.8531L111.836 70.3371L104.61 63.0837L96.9922 77.2924V82.1943C96.9922 82.5255 97.203 82.658 97.4739 82.4923L117.708 69.6416C117.979 69.476 118.189 69.0785 118.189 68.7473V66.0645L112.8 61.792L110.24 67.8531Z" fill="#FAFAFA"/>
<path opacity="0.95" d="M111.111 55.9626C112.044 55.3664 112.827 55.8632 112.827 57.0556C112.827 58.2479 112.074 59.7052 111.111 60.3014C110.177 60.8975 109.395 60.4007 109.395 59.2084C109.395 58.0161 110.177 56.5587 111.111 55.9626Z" fill="#FAFAFA"/>
<path d="M96.6585 106.009L96.237 105.744C96.1165 105.644 95.9961 105.446 95.9961 105.28V86.1363C95.9961 85.9706 96.1165 85.7719 96.237 85.6726L118.789 71.3314C118.91 71.232 119.15 71.232 119.271 71.3314L119.692 71.5963C119.813 71.6957 119.933 71.8944 119.933 72.06V91.2037C119.933 91.3693 119.813 91.568 119.692 91.6674L97.1704 106.009C97.0198 106.075 96.8091 106.075 96.6585 106.009Z" fill="#F5F5F5"/>
<path d="M97.1713 86.2363L119.723 71.8951C119.844 71.7958 119.964 71.8951 119.964 72.0607V91.2044C119.964 91.37 119.844 91.5687 119.723 91.6681L97.1713 106.009C97.0509 106.109 96.9304 106.009 96.9304 105.844V86.7C96.9003 86.5344 97.0208 86.3357 97.1713 86.2363Z" fill="#F0F0F0"/>
<path d="M119.723 71.8936C117.886 73.1521 116.019 74.3776 114.122 75.5699L108.492 79.1801L102.831 82.724L100.001 84.4794L97.1406 86.2016L99.9408 84.3469L102.741 82.5253L108.372 78.9151L114.032 75.3712C115.929 74.212 117.796 73.0528 119.723 71.8936Z" fill="#E0E0E0"/>
<path d="M96.9909 86.4341L96.0876 85.8379C96.0575 85.9373 96.0273 86.0035 96.0273 86.1029V105.247C96.0273 105.412 96.1478 105.611 96.2682 105.71L96.6898 105.975C96.8102 106.041 96.9909 106.075 97.1414 106.008C97.021 106.041 96.9607 105.975 96.9607 105.843V86.699C96.9005 86.6328 96.9306 86.5334 96.9909 86.4341Z" fill="#E0E0E0"/>
<path d="M96.8984 88.8854L119.962 74.2461V79.2473L96.8984 93.8866V88.8854Z" fill="#27DEBF"/>
<path d="M118.549 86.9968V90.2757C118.549 90.5076 118.399 90.8056 118.188 90.9381L115.057 92.9585C114.876 93.091 114.695 92.9916 114.695 92.7266V89.4477C114.695 89.2159 114.846 88.9178 115.057 88.7853C115.9 88.2554 117.315 87.328 118.188 86.7649C118.369 86.6656 118.549 86.7649 118.549 86.9968Z" fill="#27DEBF"/>
<mask id="mask0_4919_77749" style="mask-type:luminance" maskUnits="userSpaceOnUse" x="114" y="86" width="5" height="8">
<path d="M118.549 86.9968V90.2757C118.549 90.5076 118.399 90.8056 118.188 90.9381L115.057 92.9585C114.876 93.091 114.695 92.9916 114.695 92.7266V89.4477C114.695 89.2159 114.846 88.9178 115.057 88.7853C115.9 88.2554 117.315 87.328 118.188 86.7649C118.369 86.6656 118.549 86.7649 118.549 86.9968Z" fill="white"/>
</mask>
<g mask="url(#mask0_4919_77749)">
<path opacity="0.2" d="M118.549 86.9968V90.2757C118.549 90.5076 118.399 90.8056 118.188 90.9381L115.057 92.9585C114.876 93.091 114.695 92.9916 114.695 92.7266V89.4477C114.695 89.2159 114.846 88.9178 115.057 88.7853C115.9 88.2554 117.315 87.328 118.188 86.7649C118.369 86.6656 118.549 86.7649 118.549 86.9968Z" fill="black"/>
</g>
<mask id="mask1_4919_77749" style="mask-type:luminance" maskUnits="userSpaceOnUse" x="114" y="86" width="5" height="8">
<path d="M118.549 86.9968V90.2757C118.549 90.5076 118.399 90.8056 118.188 90.9381L115.057 92.9585C114.876 93.091 114.695 92.9916 114.695 92.7266V89.4477C114.695 89.2159 114.846 88.9178 115.057 88.7853C115.9 88.2554 117.315 87.328 118.188 86.7649C118.369 86.6656 118.549 86.7649 118.549 86.9968Z" fill="white"/>
</mask>
<g mask="url(#mask1_4919_77749)">
<path d="M119.154 87.5267L119.244 87.2617L114.095 90.5407L114.035 90.8056L119.154 87.5267Z" fill="white"/>
</g>
<mask id="mask2_4919_77749" style="mask-type:luminance" maskUnits="userSpaceOnUse" x="114" y="86" width="5" height="8">
<path d="M118.549 86.9968V90.2757C118.549 90.5076 118.399 90.8056 118.188 90.9381L115.057 92.9585C114.876 93.091 114.695 92.9916 114.695 92.7266V89.4477C114.695 89.2159 114.846 88.9178 115.057 88.7853C115.9 88.2554 117.315 87.328 118.188 86.7649C118.369 86.6656 118.549 86.7649 118.549 86.9968Z" fill="white"/>
</mask>
<g mask="url(#mask2_4919_77749)">
<path d="M117.164 90.4085L117.315 90.2097V88.5537L117.164 88.7524V90.4085Z" fill="white"/>
</g>
<mask id="mask3_4919_77749" style="mask-type:luminance" maskUnits="userSpaceOnUse" x="114" y="86" width="5" height="8">
<path d="M118.549 86.9968V90.2757C118.549 90.5076 118.399 90.8056 118.188 90.9381L115.057 92.9585C114.876 93.091 114.695 92.9916 114.695 92.7266V89.4477C114.695 89.2159 114.846 88.9178 115.057 88.7853C115.9 88.2554 117.315 87.328 118.188 86.7649C118.369 86.6656 118.549 86.7649 118.549 86.9968Z" fill="white"/>
</mask>
<g mask="url(#mask3_4919_77749)">
<path d="M115.961 91.2034L116.112 91.0047V89.3486L115.961 89.5473V91.2034Z" fill="white"/>
</g>
<mask id="mask4_4919_77749" style="mask-type:luminance" maskUnits="userSpaceOnUse" x="114" y="86" width="5" height="8">
<path d="M118.549 86.9968V90.2757C118.549 90.5076 118.399 90.8056 118.188 90.9381L115.057 92.9585C114.876 93.091 114.695 92.9916 114.695 92.7266V89.4477C114.695 89.2159 114.846 88.9178 115.057 88.7853C115.9 88.2554 117.315 87.328 118.188 86.7649C118.369 86.6656 118.549 86.7649 118.549 86.9968Z" fill="white"/>
</mask>
<g mask="url(#mask4_4919_77749)">
<path d="M119.154 89.183L119.244 88.9512L114.095 92.2301L114.035 92.462L119.154 89.183Z" fill="white"/>
</g>
<path d="M98.376 90.9713C98.2555 90.8719 98.1953 90.6401 98.1953 90.3089C98.1953 89.9777 98.2555 89.6796 98.376 89.4146C98.4964 89.1497 98.6771 88.9509 98.9179 88.8185C99.0083 88.7522 99.0986 88.7191 99.1889 88.686C99.2793 88.6529 99.3395 88.6529 99.3997 88.686L99.4298 88.7191C99.4298 88.7191 99.4298 88.7522 99.4298 88.7853L99.3696 89.0172C99.3696 89.0503 99.3395 89.0503 99.3395 89.0834H99.3094C99.219 89.0834 99.1287 89.0834 99.0083 89.1828C98.8577 89.2821 98.7674 89.3815 98.6771 89.5471C98.5867 89.7127 98.5566 89.9114 98.5566 90.1433C98.5566 90.3751 98.5867 90.5076 98.6771 90.5738C98.7674 90.6401 98.8577 90.6401 99.0083 90.5407C99.1287 90.4745 99.2491 90.3751 99.3395 90.2426C99.3395 90.2095 99.3696 90.2095 99.3696 90.2095H99.3997L99.49 90.342V90.3751C99.49 90.3751 99.49 90.4082 99.4599 90.4414C99.3696 90.607 99.1889 90.7726 98.9782 90.905C98.6771 91.0706 98.4964 91.0707 98.376 90.9713Z" fill="#455A64"/>
<path d="M99.6082 90.4079C99.6082 90.4079 99.5781 90.3748 99.5781 90.3417V88.5863C99.5781 88.5531 99.5781 88.52 99.6082 88.4869C99.6082 88.4538 99.6383 88.4207 99.6685 88.4207L100.18 88.0894C100.512 87.8576 100.692 87.9901 100.692 88.4207C100.692 88.5531 100.662 88.6856 100.632 88.8181C100.602 88.9506 100.542 89.0499 100.451 89.1493L100.662 89.6792V89.7124C100.662 89.7455 100.662 89.7786 100.632 89.7786L100.421 89.9111C100.391 89.9111 100.391 89.9442 100.391 89.9111C100.391 89.9111 100.361 89.9111 100.361 89.878L100.18 89.348L99.9394 89.5136V90.0767C99.9394 90.1098 99.9394 90.1429 99.9093 90.176C99.9093 90.2092 99.8792 90.2423 99.8491 90.2423L99.6986 90.3417C99.6383 90.4079 99.6082 90.4079 99.6082 90.4079ZM100.12 89.0499C100.21 89.0168 100.241 88.9506 100.301 88.8843C100.331 88.8181 100.361 88.7187 100.361 88.6194C100.361 88.52 100.331 88.4538 100.301 88.4207C100.271 88.3875 100.21 88.4207 100.15 88.4538L99.9093 88.6194V89.2155L100.12 89.0499Z" fill="#455A64"/>
<path d="M100.874 89.5801C100.874 89.5801 100.844 89.547 100.844 89.5139V87.7585C100.844 87.7253 100.844 87.6922 100.874 87.6591C100.874 87.626 100.904 87.5929 100.934 87.5929L101.777 87.0629C101.807 87.0298 101.837 87.0298 101.837 87.0629C101.837 87.0629 101.867 87.0961 101.867 87.1623V87.2617C101.867 87.2948 101.867 87.3279 101.837 87.361C101.837 87.3941 101.807 87.4273 101.777 87.4273L101.175 87.7916V88.2553L101.596 87.9903C101.627 87.9572 101.657 87.9572 101.657 87.9903C101.657 87.9903 101.687 88.0234 101.687 88.0897V88.189C101.687 88.2222 101.687 88.2553 101.657 88.2884C101.657 88.3215 101.627 88.3546 101.596 88.3546L101.175 88.6196V89.0833L101.777 88.719C101.807 88.6858 101.837 88.6858 101.837 88.719C101.837 88.719 101.867 88.7521 101.867 88.8183V88.9177C101.867 88.9508 101.867 88.9839 101.837 89.017C101.837 89.0502 101.807 89.0502 101.777 89.0833L100.934 89.6132C100.904 89.6132 100.874 89.6132 100.874 89.5801Z" fill="#455A64"/>
<path d="M102.018 88.8515C102.018 88.8515 101.988 88.8184 101.988 88.7852V87.0298C101.988 86.9967 101.988 86.9636 102.018 86.9305C102.018 86.8974 102.048 86.8642 102.079 86.8642L102.5 86.5993C102.741 86.4668 102.892 86.4337 103.012 86.4999C103.132 86.5993 103.193 86.798 103.193 87.1292C103.193 87.4604 103.132 87.7585 103.012 87.9903C102.892 88.2222 102.711 88.4209 102.5 88.5534L102.079 88.8184C102.048 88.8846 102.049 88.8846 102.018 88.8515ZM102.53 88.2222C102.651 88.1559 102.741 88.0566 102.801 87.9241C102.861 87.7916 102.892 87.5929 102.892 87.3611C102.892 87.1292 102.861 86.9636 102.801 86.9305C102.741 86.8642 102.651 86.8642 102.53 86.9636L102.319 87.0961V88.3878L102.53 88.2222Z" fill="#455A64"/>
<path d="M103.405 87.9903C103.405 87.9903 103.375 87.9572 103.375 87.9241V86.1687C103.375 86.1356 103.375 86.1025 103.405 86.0693C103.405 86.0362 103.435 86.0031 103.465 86.0031L103.616 85.9037C103.646 85.8706 103.676 85.8706 103.676 85.9037C103.676 85.9037 103.706 85.9369 103.706 86.0031V87.7585C103.706 87.7916 103.706 87.8247 103.676 87.8579C103.676 87.891 103.646 87.9241 103.616 87.9241L103.465 88.0235C103.435 87.9904 103.405 87.9903 103.405 87.9903Z" fill="#455A64"/>
<path d="M104.249 87.4271C104.249 87.4271 104.218 87.394 104.218 87.3609V85.8373L103.887 86.036C103.857 86.0692 103.827 86.0692 103.827 86.036C103.827 86.036 103.797 86.0029 103.797 85.9367V85.8373C103.797 85.8042 103.797 85.7711 103.827 85.7379C103.827 85.7048 103.857 85.6717 103.887 85.6717L104.881 85.0424C104.911 85.0093 104.941 85.0093 104.941 85.0424C104.941 85.0424 104.971 85.0755 104.971 85.1418V85.2411C104.971 85.2743 104.971 85.3074 104.941 85.3405C104.941 85.3736 104.911 85.4067 104.881 85.4067L104.55 85.6055V87.129C104.55 87.1621 104.55 87.1952 104.52 87.2284C104.52 87.2615 104.489 87.2946 104.459 87.2946L104.309 87.394C104.309 87.4602 104.279 87.4602 104.249 87.4271Z" fill="#455A64"/>
<path d="M105.993 86.1354C105.873 86.036 105.812 85.8041 105.812 85.4729C105.812 85.1417 105.873 84.8436 105.993 84.5787C106.114 84.3137 106.294 84.115 106.535 83.9825C106.625 83.9163 106.716 83.8832 106.806 83.85C106.896 83.8169 106.957 83.8169 107.017 83.85L107.047 83.8832C107.047 83.8832 107.047 83.9163 107.047 83.9494L106.987 84.1812C106.987 84.2144 106.957 84.2144 106.957 84.2475H106.927C106.836 84.2475 106.746 84.2475 106.625 84.3468C106.475 84.4462 106.385 84.5456 106.294 84.7112C106.204 84.8768 106.174 85.0755 106.174 85.3073C106.174 85.5392 106.204 85.6717 106.294 85.7379C106.385 85.8041 106.475 85.8042 106.625 85.7048C106.746 85.6385 106.866 85.5392 106.957 85.4067C106.957 85.3736 106.987 85.3736 106.987 85.3736H107.017L107.107 85.5061V85.5392C107.107 85.5392 107.107 85.5723 107.077 85.6054C106.987 85.771 106.806 85.9366 106.595 86.0691C106.294 86.2347 106.114 86.2347 105.993 86.1354Z" fill="#455A64"/>
<path d="M107.105 85.6062C107.105 85.6062 107.105 85.5731 107.105 85.54L107.617 83.3871C107.617 83.354 107.647 83.3209 107.647 83.2877C107.647 83.2546 107.678 83.2546 107.708 83.2215L107.858 83.1221C107.888 83.1221 107.888 83.089 107.918 83.1221C107.918 83.1221 107.949 83.1553 107.949 83.1884L108.46 84.6788V84.7119C108.46 84.7451 108.46 84.7782 108.43 84.7782L108.189 84.9438C108.159 84.9438 108.159 84.9438 108.159 84.9438C108.159 84.9438 108.129 84.9438 108.129 84.9107L108.039 84.6126L107.557 84.9107L107.467 85.3081C107.467 85.3412 107.467 85.3412 107.437 85.3743L107.407 85.4075L107.166 85.5731C107.105 85.6724 107.105 85.6393 107.105 85.6062ZM107.949 84.3807L107.768 83.8508L107.587 84.5794L107.949 84.3807Z" fill="#455A64"/>
<path d="M108.643 84.6451C108.643 84.6451 108.613 84.612 108.613 84.5789V82.8235C108.613 82.7904 108.613 82.7573 108.643 82.7241C108.643 82.691 108.674 82.6579 108.704 82.6579L109.215 82.3267C109.547 82.128 109.727 82.2273 109.727 82.6579C109.727 82.7904 109.697 82.9229 109.667 83.0553C109.637 83.1878 109.577 83.2872 109.486 83.3865L109.697 83.9165V83.9496C109.697 83.9827 109.697 84.0158 109.667 84.0158L109.456 84.1483C109.426 84.1483 109.426 84.1814 109.426 84.1483C109.426 84.1483 109.396 84.1483 109.396 84.1152L109.215 83.5853L108.975 83.7509V84.3139C108.975 84.347 108.975 84.3802 108.944 84.4133C108.944 84.4464 108.914 84.4795 108.884 84.4795L108.734 84.5789C108.674 84.6782 108.643 84.6782 108.643 84.6451ZM109.185 83.2872C109.276 83.2541 109.306 83.1878 109.366 83.1216C109.396 83.0553 109.426 82.956 109.426 82.8566C109.426 82.7573 109.396 82.691 109.366 82.6579C109.336 82.6248 109.276 82.6579 109.215 82.691L108.975 82.8566V83.4528L109.185 83.2872Z" fill="#455A64"/>
<path d="M109.909 83.8505C109.909 83.8505 109.879 83.8174 109.879 83.7843V82.0289C109.879 81.9958 109.879 81.9626 109.909 81.9295C109.909 81.8964 109.939 81.8633 109.969 81.8633L110.391 81.5983C110.632 81.4658 110.782 81.4327 110.903 81.4989C111.023 81.5983 111.083 81.797 111.083 82.1282C111.083 82.4594 111.023 82.7575 110.903 82.9894C110.782 83.2212 110.602 83.4199 110.391 83.5524L109.969 83.8174C109.939 83.8505 109.939 83.8505 109.909 83.8505ZM110.421 83.1881C110.541 83.1219 110.632 83.0225 110.692 82.89C110.752 82.7575 110.782 82.5588 110.782 82.327C110.782 82.0951 110.752 81.9295 110.692 81.8964C110.632 81.8302 110.541 81.8301 110.421 81.9295L110.21 82.062V83.3537L110.421 83.1881Z" fill="#455A64"/>
<g opacity="0.15">
<path d="M98.376 90.9713C98.2555 90.8719 98.1953 90.6401 98.1953 90.3089C98.1953 89.9777 98.2555 89.6796 98.376 89.4146C98.4964 89.1497 98.6771 88.9509 98.9179 88.8185C99.0083 88.7522 99.0986 88.7191 99.1889 88.686C99.2793 88.6529 99.3395 88.6529 99.3997 88.686L99.4298 88.7191C99.4298 88.7191 99.4298 88.7522 99.4298 88.7853L99.3696 89.0172C99.3696 89.0503 99.3395 89.0503 99.3395 89.0834H99.3094C99.219 89.0834 99.1287 89.0834 99.0083 89.1828C98.8577 89.2821 98.7674 89.3815 98.6771 89.5471C98.5867 89.7127 98.5566 89.9114 98.5566 90.1433C98.5566 90.3751 98.5867 90.5076 98.6771 90.5738C98.7674 90.6401 98.8577 90.6401 99.0083 90.5407C99.1287 90.4745 99.2491 90.3751 99.3395 90.2426C99.3395 90.2095 99.3696 90.2095 99.3696 90.2095H99.3997L99.49 90.342V90.3751C99.49 90.3751 99.49 90.4082 99.4599 90.4414C99.3696 90.607 99.1889 90.7726 98.9782 90.905C98.6771 91.0706 98.4964 91.0707 98.376 90.9713Z" fill="#455A64"/>
<path d="M99.6082 90.4079C99.6082 90.4079 99.5781 90.3748 99.5781 90.3417V88.5863C99.5781 88.5531 99.5781 88.52 99.6082 88.4869C99.6082 88.4538 99.6383 88.4207 99.6685 88.4207L100.18 88.0894C100.512 87.8576 100.692 87.9901 100.692 88.4207C100.692 88.5531 100.662 88.6856 100.632 88.8181C100.602 88.9506 100.542 89.0499 100.451 89.1493L100.662 89.6792V89.7124C100.662 89.7455 100.662 89.7786 100.632 89.7786L100.421 89.9111C100.391 89.9111 100.391 89.9442 100.391 89.9111C100.391 89.9111 100.361 89.9111 100.361 89.878L100.18 89.348L99.9394 89.5136V90.0767C99.9394 90.1098 99.9394 90.1429 99.9093 90.176C99.9093 90.2092 99.8792 90.2423 99.8491 90.2423L99.6986 90.3417C99.6383 90.4079 99.6082 90.4079 99.6082 90.4079ZM100.12 89.0499C100.21 89.0168 100.241 88.9506 100.301 88.8843C100.331 88.8181 100.361 88.7187 100.361 88.6194C100.361 88.52 100.331 88.4538 100.301 88.4207C100.271 88.3875 100.21 88.4207 100.15 88.4538L99.9093 88.6194V89.2155L100.12 89.0499Z" fill="#455A64"/>
<path d="M100.874 89.5801C100.874 89.5801 100.844 89.547 100.844 89.5139V87.7585C100.844 87.7253 100.844 87.6922 100.874 87.6591C100.874 87.626 100.904 87.5929 100.934 87.5929L101.777 87.0629C101.807 87.0298 101.837 87.0298 101.837 87.0629C101.837 87.0629 101.867 87.0961 101.867 87.1623V87.2617C101.867 87.2948 101.867 87.3279 101.837 87.361C101.837 87.3941 101.807 87.4273 101.777 87.4273L101.175 87.7916V88.2553L101.596 87.9903C101.627 87.9572 101.657 87.9572 101.657 87.9903C101.657 87.9903 101.687 88.0234 101.687 88.0897V88.189C101.687 88.2222 101.687 88.2553 101.657 88.2884C101.657 88.3215 101.627 88.3546 101.596 88.3546L101.175 88.6196V89.0833L101.777 88.719C101.807 88.6858 101.837 88.6858 101.837 88.719C101.837 88.719 101.867 88.7521 101.867 88.8183V88.9177C101.867 88.9508 101.867 88.9839 101.837 89.017C101.837 89.0502 101.807 89.0502 101.777 89.0833L100.934 89.6132C100.904 89.6132 100.874 89.6132 100.874 89.5801Z" fill="#455A64"/>
<path d="M102.018 88.8515C102.018 88.8515 101.988 88.8184 101.988 88.7852V87.0298C101.988 86.9967 101.988 86.9636 102.018 86.9305C102.018 86.8974 102.048 86.8642 102.079 86.8642L102.5 86.5993C102.741 86.4668 102.892 86.4337 103.012 86.4999C103.132 86.5993 103.193 86.798 103.193 87.1292C103.193 87.4604 103.132 87.7585 103.012 87.9903C102.892 88.2222 102.711 88.4209 102.5 88.5534L102.079 88.8184C102.048 88.8846 102.049 88.8846 102.018 88.8515ZM102.53 88.2222C102.651 88.1559 102.741 88.0566 102.801 87.9241C102.861 87.7916 102.892 87.5929 102.892 87.3611C102.892 87.1292 102.861 86.9636 102.801 86.9305C102.741 86.8642 102.651 86.8642 102.53 86.9636L102.319 87.0961V88.3878L102.53 88.2222Z" fill="#455A64"/>
<path d="M103.405 87.9903C103.405 87.9903 103.375 87.9572 103.375 87.9241V86.1687C103.375 86.1356 103.375 86.1025 103.405 86.0693C103.405 86.0362 103.435 86.0031 103.465 86.0031L103.616 85.9037C103.646 85.8706 103.676 85.8706 103.676 85.9037C103.676 85.9037 103.706 85.9369 103.706 86.0031V87.7585C103.706 87.7916 103.706 87.8247 103.676 87.8579C103.676 87.891 103.646 87.9241 103.616 87.9241L103.465 88.0235C103.435 87.9904 103.405 87.9903 103.405 87.9903Z" fill="#455A64"/>
<path d="M104.249 87.4271C104.249 87.4271 104.218 87.394 104.218 87.3609V85.8373L103.887 86.036C103.857 86.0692 103.827 86.0692 103.827 86.036C103.827 86.036 103.797 86.0029 103.797 85.9367V85.8373C103.797 85.8042 103.797 85.7711 103.827 85.7379C103.827 85.7048 103.857 85.6717 103.887 85.6717L104.881 85.0424C104.911 85.0093 104.941 85.0093 104.941 85.0424C104.941 85.0424 104.971 85.0755 104.971 85.1418V85.2411C104.971 85.2743 104.971 85.3074 104.941 85.3405C104.941 85.3736 104.911 85.4067 104.881 85.4067L104.55 85.6055V87.129C104.55 87.1621 104.55 87.1952 104.52 87.2284C104.52 87.2615 104.489 87.2946 104.459 87.2946L104.309 87.394C104.309 87.4602 104.279 87.4602 104.249 87.4271Z" fill="#455A64"/>
<path d="M105.993 86.1354C105.873 86.036 105.812 85.8041 105.812 85.4729C105.812 85.1417 105.873 84.8436 105.993 84.5787C106.114 84.3137 106.294 84.115 106.535 83.9825C106.625 83.9163 106.716 83.8832 106.806 83.85C106.896 83.8169 106.957 83.8169 107.017 83.85L107.047 83.8832C107.047 83.8832 107.047 83.9163 107.047 83.9494L106.987 84.1812C106.987 84.2144 106.957 84.2144 106.957 84.2475H106.927C106.836 84.2475 106.746 84.2475 106.625 84.3468C106.475 84.4462 106.385 84.5456 106.294 84.7112C106.204 84.8768 106.174 85.0755 106.174 85.3073C106.174 85.5392 106.204 85.6717 106.294 85.7379C106.385 85.8041 106.475 85.8042 106.625 85.7048C106.746 85.6385 106.866 85.5392 106.957 85.4067C106.957 85.3736 106.987 85.3736 106.987 85.3736H107.017L107.107 85.5061V85.5392C107.107 85.5392 107.107 85.5723 107.077 85.6054C106.987 85.771 106.806 85.9366 106.595 86.0691C106.294 86.2347 106.114 86.2347 105.993 86.1354Z" fill="#455A64"/>
<path d="M107.105 85.6062C107.105 85.6062 107.105 85.5731 107.105 85.54L107.617 83.3871C107.617 83.354 107.647 83.3209 107.647 83.2877C107.647 83.2546 107.678 83.2546 107.708 83.2215L107.858 83.1221C107.888 83.1221 107.888 83.089 107.918 83.1221C107.918 83.1221 107.949 83.1553 107.949 83.1884L108.46 84.6788V84.7119C108.46 84.7451 108.46 84.7782 108.43 84.7782L108.189 84.9438C108.159 84.9438 108.159 84.9438 108.159 84.9438C108.159 84.9438 108.129 84.9438 108.129 84.9107L108.039 84.6126L107.557 84.9107L107.467 85.3081C107.467 85.3412 107.467 85.3412 107.437 85.3743L107.407 85.4075L107.166 85.5731C107.105 85.6724 107.105 85.6393 107.105 85.6062ZM107.949 84.3807L107.768 83.8508L107.587 84.5794L107.949 84.3807Z" fill="#455A64"/>
<path d="M108.643 84.6451C108.643 84.6451 108.613 84.612 108.613 84.5789V82.8235C108.613 82.7904 108.613 82.7573 108.643 82.7241C108.643 82.691 108.674 82.6579 108.704 82.6579L109.215 82.3267C109.547 82.128 109.727 82.2273 109.727 82.6579C109.727 82.7904 109.697 82.9229 109.667 83.0553C109.637 83.1878 109.577 83.2872 109.486 83.3865L109.697 83.9165V83.9496C109.697 83.9827 109.697 84.0158 109.667 84.0158L109.456 84.1483C109.426 84.1483 109.426 84.1814 109.426 84.1483C109.426 84.1483 109.396 84.1483 109.396 84.1152L109.215 83.5853L108.975 83.7509V84.3139C108.975 84.347 108.975 84.3802 108.944 84.4133C108.944 84.4464 108.914 84.4795 108.884 84.4795L108.734 84.5789C108.674 84.6782 108.643 84.6782 108.643 84.6451ZM109.185 83.2872C109.276 83.2541 109.306 83.1878 109.366 83.1216C109.396 83.0553 109.426 82.956 109.426 82.8566C109.426 82.7573 109.396 82.691 109.366 82.6579C109.336 82.6248 109.276 82.6579 109.215 82.691L108.975 82.8566V83.4528L109.185 83.2872Z" fill="#455A64"/>
<path d="M109.909 83.8505C109.909 83.8505 109.879 83.8174 109.879 83.7843V82.0289C109.879 81.9958 109.879 81.9626 109.909 81.9295C109.909 81.8964 109.939 81.8633 109.969 81.8633L110.391 81.5983C110.632 81.4658 110.782 81.4327 110.903 81.4989C111.023 81.5983 111.083 81.797 111.083 82.1282C111.083 82.4594 111.023 82.7575 110.903 82.9894C110.782 83.2212 110.602 83.4199 110.391 83.5524L109.969 83.8174C109.939 83.8505 109.939 83.8505 109.909 83.8505ZM110.421 83.1881C110.541 83.1219 110.632 83.0225 110.692 82.89C110.752 82.7575 110.782 82.5588 110.782 82.327C110.782 82.0951 110.752 81.9295 110.692 81.8964C110.632 81.8302 110.541 81.8301 110.421 81.9295L110.21 82.062V83.3537L110.421 83.1881Z" fill="#455A64"/>
</g>
<path d="M100.273 97.6945L101.177 97.1315C101.297 97.0652 101.387 97.1315 101.387 97.2639V97.562C101.387 97.6945 101.297 97.8932 101.177 97.9595L100.273 98.5225C100.153 98.5888 100.062 98.5225 100.062 98.39V98.092C100.062 97.9595 100.153 97.7939 100.273 97.6945Z" fill="#27DEBF"/>
<path d="M98.3162 98.9523L99.2195 98.3893C99.34 98.323 99.4303 98.3893 99.4303 98.5217V98.8198C99.4303 98.9523 99.34 99.151 99.2195 99.2173L98.3162 99.7803C98.1958 99.8466 98.1055 99.7803 98.1055 99.6478V99.3498C98.1055 99.2173 98.1958 99.0186 98.3162 98.9523Z" fill="#27DEBF"/>
<path d="M109.547 93.885L98.4668 100.94C98.2861 101.072 98.1055 101.37 98.1055 101.602V101.966C98.1055 102.198 98.256 102.298 98.4668 102.198L109.547 95.1436C109.728 95.0112 109.908 94.7131 109.908 94.4812V94.1169C109.908 93.885 109.758 93.7857 109.547 93.885Z" fill="#27DEBF"/>
<path d="M100.273 97.6945L101.177 97.1315C101.297 97.0652 101.387 97.1315 101.387 97.2639V97.562C101.387 97.6945 101.297 97.8932 101.177 97.9595L100.273 98.5225C100.153 98.5888 100.062 98.5225 100.062 98.39V98.092C100.062 97.9595 100.153 97.7939 100.273 97.6945Z" fill="#455A64"/>
<path d="M98.3162 98.9523L99.2195 98.3893C99.34 98.323 99.4303 98.3893 99.4303 98.5217V98.8198C99.4303 98.9523 99.34 99.151 99.2195 99.2173L98.3162 99.7803C98.1958 99.8466 98.1055 99.7803 98.1055 99.6478V99.3498C98.1055 99.2173 98.1958 99.0186 98.3162 98.9523Z" fill="#455A64"/>
<path d="M109.547 93.885L98.4668 100.94C98.2861 101.072 98.1055 101.37 98.1055 101.602V101.966C98.1055 102.198 98.256 102.298 98.4668 102.198L109.547 95.1436C109.728 95.0112 109.908 94.7131 109.908 94.4812V94.1169C109.908 93.885 109.758 93.7857 109.547 93.885Z" fill="#455A64"/>
<path d="M98.3151 95.5433L98.3452 95.5102C98.4656 95.444 98.5861 95.5102 98.5861 95.7089V96.6694C98.5861 96.8681 98.4958 97.0669 98.3452 97.1662L98.3151 97.1993C98.1947 97.2987 98.0742 97.1993 98.0742 97.0337V96.0401C98.1043 95.8414 98.1947 95.6096 98.3151 95.5433Z" fill="#27DEBF"/>
<path d="M99.4909 94.8138L99.521 94.7807C99.6414 94.7145 99.7619 94.7807 99.7619 94.9794V95.9399C99.7619 96.1386 99.6715 96.3374 99.521 96.4367L99.4909 96.4699C99.3704 96.5692 99.25 96.4699 99.25 96.3042V95.3106C99.2801 95.0788 99.3704 94.8801 99.4909 94.8138Z" fill="#27DEBF"/>
<path d="M100.663 94.0521L100.693 94.019C100.813 93.9527 100.934 94.019 100.934 94.2177V95.1782C100.934 95.3769 100.843 95.5756 100.693 95.675L100.663 95.7081C100.542 95.8075 100.422 95.7081 100.422 95.5425V94.5489C100.452 94.3502 100.542 94.1515 100.663 94.0521Z" fill="#27DEBF"/>
<path d="M101.839 93.3236L101.869 93.2905C101.989 93.2242 102.11 93.2905 102.11 93.4892V94.4497C102.11 94.6484 102.019 94.8471 101.869 94.9465L101.839 94.9796C101.718 95.079 101.598 94.9796 101.598 94.814V93.8204C101.598 93.6217 101.718 93.3898 101.839 93.3236Z" fill="#27DEBF"/>
<path d="M103.796 92.0648L103.826 92.0317C103.946 91.9654 104.067 92.0317 104.067 92.2304V93.1909C104.067 93.3896 103.976 93.5883 103.826 93.6877L103.796 93.7208C103.675 93.8202 103.555 93.7208 103.555 93.5552V92.5616C103.585 92.3629 103.675 92.131 103.796 92.0648Z" fill="#27DEBF"/>
<path d="M104.971 91.3353L105.001 91.3022C105.122 91.2359 105.242 91.3022 105.242 91.5009V92.4614C105.242 92.6601 105.152 92.8589 105.001 92.9582L104.971 92.9913C104.851 93.0907 104.73 92.9913 104.73 92.8257V91.8321C104.761 91.6003 104.851 91.4015 104.971 91.3353Z" fill="#27DEBF"/>
<path d="M106.143 90.5736L106.173 90.5405C106.294 90.4742 106.414 90.5405 106.414 90.7392V91.6997C106.414 91.8984 106.324 92.0971 106.173 92.1965L106.143 92.2296C106.023 92.329 105.902 92.2296 105.902 92.064V91.0704C105.902 90.8717 106.023 90.6729 106.143 90.5736Z" fill="#27DEBF"/>
<path d="M107.319 89.8451L107.349 89.8119C107.47 89.7457 107.59 89.812 107.59 90.0107V90.9712C107.59 91.1699 107.5 91.3686 107.349 91.468L107.319 91.5011C107.199 91.6005 107.078 91.5011 107.078 91.3355V90.3419C107.078 90.1432 107.199 89.9113 107.319 89.8451Z" fill="#27DEBF"/>
<path d="M109.276 88.5873L109.306 88.5541C109.427 88.4879 109.547 88.5541 109.547 88.7529V89.7134C109.547 89.9121 109.457 90.1108 109.306 90.2102L109.276 90.2433C109.156 90.3426 109.035 90.2433 109.035 90.0777V89.0841C109.065 88.8853 109.156 88.6535 109.276 88.5873Z" fill="#27DEBF"/>
<path d="M110.452 87.8246L110.482 87.7914C110.602 87.7252 110.723 87.7914 110.723 87.9902V88.9507C110.723 89.1494 110.632 89.3481 110.482 89.4475L110.452 89.4806C110.331 89.58 110.211 89.4806 110.211 89.315V88.3214C110.211 88.1226 110.331 87.9239 110.452 87.8246Z" fill="#27DEBF"/>
<path d="M111.624 87.096L111.654 87.0629C111.774 86.9967 111.895 87.0629 111.895 87.2617V88.2221C111.895 88.4209 111.804 88.6196 111.654 88.719L111.624 88.7521C111.503 88.8514 111.383 88.7521 111.383 88.5865V87.5929C111.383 87.3941 111.503 87.1954 111.624 87.096Z" fill="#27DEBF"/>
<path d="M112.799 86.3675L112.83 86.3344C112.95 86.2682 113.07 86.3344 113.07 86.5331V87.4936C113.07 87.6924 112.98 87.8911 112.83 87.9904L112.799 88.0236C112.679 88.1229 112.559 88.0236 112.559 87.858V86.8643C112.559 86.6656 112.679 86.4338 112.799 86.3675Z" fill="#27DEBF"/>
<path d="M114.757 85.1097L114.787 85.0766C114.907 85.0104 115.027 85.0766 115.027 85.2753V86.2358C115.027 86.4345 114.937 86.6333 114.787 86.7326L114.757 86.7657C114.636 86.8651 114.516 86.7657 114.516 86.6001V85.6065C114.546 85.4078 114.636 85.176 114.757 85.1097Z" fill="#27DEBF"/>
<path d="M115.932 84.347L115.962 84.3139C116.083 84.2477 116.203 84.3139 116.203 84.5126V85.4731C116.203 85.6718 116.113 85.8706 115.962 85.9699L115.932 86.0031C115.812 86.1024 115.691 86.0031 115.691 85.8375V84.8438C115.691 84.6451 115.812 84.4464 115.932 84.347Z" fill="#27DEBF"/>
<path d="M117.104 83.6185L117.134 83.5854C117.255 83.5191 117.375 83.5854 117.375 83.7841V84.7446C117.375 84.9433 117.285 85.1421 117.134 85.2414L117.104 85.2745C116.984 85.3739 116.863 85.2745 116.863 85.1089V84.1153C116.863 83.9166 116.984 83.6848 117.104 83.6185Z" fill="#27DEBF"/>
<path d="M118.28 82.89L118.31 82.8569C118.43 82.7906 118.551 82.8569 118.551 83.0556V84.0161C118.551 84.2148 118.461 84.4135 118.31 84.5129L118.28 84.546C118.16 84.6454 118.039 84.546 118.039 84.3804V83.3868C118.039 83.1881 118.16 82.9562 118.28 82.89Z" fill="#27DEBF"/>
<path d="M96.8994 88.8843L95.9961 88.3213V93.3225L96.8994 93.8855V88.8843Z" fill="#27DEBF"/>
<path opacity="0.2" d="M96.8994 88.8843L95.9961 88.3213V93.3225L96.8994 93.8855V88.8843Z" fill="black"/>
<path d="M96.0859 40.7932V56.6911C96.0859 56.8898 96.2365 57.1547 96.387 57.2872L96.929 57.6184C97.1097 57.7178 97.3807 57.7178 97.5312 57.6184L107.768 51.1268C107.949 51.0274 108.07 50.7625 108.07 50.5306V34.6328C108.07 34.434 107.919 34.1691 107.768 34.0366L107.227 33.7054C107.046 33.606 106.775 33.606 106.624 33.7054L96.387 40.197C96.2064 40.3295 96.0859 40.5945 96.0859 40.7932Z" fill="#EBEBEB"/>
<path d="M108.069 34.5997C108.039 34.4341 107.919 34.3679 107.768 34.4672L97.5307 40.9589C97.4404 41.0251 97.3802 41.0913 97.3199 41.2238L96.1758 40.4952C96.236 40.3958 96.2962 40.2965 96.3866 40.2302L106.624 33.7386C106.804 33.6392 107.075 33.6392 107.226 33.7386L107.768 34.0698C107.919 34.2023 108.039 34.401 108.069 34.5997Z" fill="#F5F5F5"/>
<path d="M97.471 57.6516C97.4409 57.6516 97.4409 57.6847 97.4108 57.6847C97.3807 57.6847 97.3807 57.6847 97.3505 57.7178C97.2301 57.7509 97.0796 57.7178 96.9892 57.6847C96.9591 57.6847 96.929 57.6516 96.929 57.6516L96.387 57.3204C96.2064 57.221 96.0859 56.956 96.0859 56.7242V40.8263C96.0859 40.727 96.116 40.5945 96.1763 40.4951L97.3204 41.2238C97.2602 41.3231 97.2301 41.4556 97.2301 41.555V57.4528C97.2301 57.5191 97.2602 57.5853 97.2903 57.6185C97.3204 57.6847 97.3807 57.6847 97.4409 57.6847L97.471 57.6516Z" fill="#E0E0E0"/>
<path d="M105.089 47.2852C104.728 47.2852 104.397 47.1859 104.156 47.0203C104.126 46.9872 104.096 46.9209 104.126 46.8547C104.156 46.7884 104.216 46.7884 104.276 46.8216C104.608 47.0534 105.059 47.1196 105.631 47.0203C105.691 47.0203 105.722 47.0534 105.752 47.1196C105.752 47.1859 105.722 47.219 105.661 47.2521C105.451 47.2853 105.24 47.2852 105.089 47.2852Z" fill="#455A64"/>
<path d="M104.035 46.7557C104.005 46.7557 103.975 46.7557 103.975 46.7226C103.644 46.292 103.584 45.6627 103.554 44.9672C103.554 44.8679 103.554 44.7354 103.524 44.6029C103.493 44.2717 103.433 44.073 103.313 43.9736C103.222 43.9074 103.102 43.9074 102.921 43.9405C102.861 43.9405 102.801 43.9405 102.801 43.8742C102.771 43.808 102.801 43.7418 102.861 43.7418C103.072 43.6755 103.253 43.6755 103.403 43.808C103.584 43.9405 103.674 44.2054 103.704 44.6029C103.704 44.7354 103.704 44.8347 103.734 44.9672C103.764 45.6296 103.794 46.2258 104.096 46.5901C104.126 46.6232 104.126 46.6895 104.096 46.7557C104.065 46.7226 104.065 46.7557 104.035 46.7557Z" fill="#455A64"/>
<path d="M102.199 48.2794C102.169 48.2794 102.139 48.2463 102.109 48.2132C101.778 47.3189 101.597 44.6361 102.561 43.9075C102.591 43.8744 102.651 43.8744 102.711 43.9406C102.741 43.9737 102.741 44.0731 102.681 44.1062C101.838 44.7355 101.958 47.3189 102.29 48.1469C102.32 48.2132 102.29 48.2794 102.229 48.2794H102.199Z" fill="#455A64"/>
<path d="M104.487 49.9358C103.493 49.9358 102.71 49.4721 102.259 48.5778C102.228 48.5116 102.259 48.4454 102.289 48.4454C102.349 48.4122 102.409 48.4454 102.409 48.4785C102.891 49.4059 103.764 49.8364 104.878 49.7039C104.938 49.7039 104.968 49.7371 104.999 49.8033C104.999 49.8695 104.968 49.9027 104.908 49.9358C104.788 49.9358 104.637 49.9358 104.487 49.9358Z" fill="#455A64"/>
<path d="M104.728 49.3062C104.066 49.3062 103.524 49.1075 103.132 48.6769C102.53 48.0476 102.259 46.8884 102.38 45.2986C102.41 45.0005 102.56 44.6031 102.801 44.4706C102.922 44.4043 103.072 44.4043 103.162 44.4706C103.283 44.5368 103.343 44.7024 103.343 44.9011C103.313 46.1929 103.554 47.0209 104.006 47.4514C104.367 47.7826 104.849 47.882 105.541 47.7495C105.601 47.7495 105.631 47.7826 105.662 47.8489C105.662 47.9151 105.631 47.9482 105.571 47.9814C104.818 48.1138 104.276 48.0145 103.885 47.6502C103.373 47.1865 103.132 46.2922 103.162 44.9343C103.162 44.8349 103.132 44.7355 103.072 44.7024C103.012 44.6693 102.952 44.6693 102.891 44.7024C102.711 44.8018 102.59 45.0999 102.56 45.3648C102.47 46.8884 102.711 47.9814 103.253 48.5775C103.674 49.0412 104.307 49.2068 105.089 49.1075C105.15 49.1075 105.18 49.1406 105.21 49.2068C105.21 49.2731 105.18 49.3062 105.12 49.3393C104.999 49.3062 104.849 49.3062 104.728 49.3062Z" fill="#455A64"/>
<path d="M104.247 50.6643C103.434 50.6643 102.802 50.3993 102.32 49.8694C101.597 49.1076 101.296 47.7828 101.387 45.9612C101.447 44.9344 101.778 43.6758 102.591 43.179L102.621 43.1459C102.982 42.9472 103.314 42.9141 103.585 43.0797C103.916 43.2784 104.127 43.7421 104.157 44.3382V44.4376C104.187 45.0669 104.247 45.7293 104.608 46.0605C104.849 46.2592 105.211 46.3255 105.692 46.2261C105.753 46.2261 105.783 46.2592 105.813 46.3255C105.813 46.3917 105.783 46.4248 105.722 46.458C105.18 46.5573 104.759 46.4911 104.488 46.2592C104.036 45.8618 104.006 45.1331 103.946 44.5039V44.4045C103.916 43.8414 103.735 43.4771 103.464 43.3115C103.253 43.179 102.982 43.2121 102.712 43.3777L102.681 43.4109C101.959 43.8746 101.628 45.1 101.597 46.0274C101.507 47.7828 101.808 49.0414 102.471 49.77C102.952 50.2999 103.645 50.5318 104.518 50.4656C104.578 50.4656 104.608 50.4987 104.608 50.5649C104.608 50.6312 104.578 50.6643 104.518 50.6643C104.458 50.6643 104.368 50.6643 104.247 50.6643Z" fill="#455A64"/>
<path d="M104.096 51.4593C103.765 51.4593 103.433 51.393 103.072 51.2605C103.012 51.2274 102.982 51.1943 103.012 51.1281C103.042 51.0618 103.072 51.0287 103.132 51.0618C103.463 51.1943 103.795 51.2605 104.096 51.2605C104.156 51.2605 104.186 51.2937 104.186 51.3599C104.186 51.393 104.156 51.4593 104.096 51.4593Z" fill="#455A64"/>
<path d="M102.769 51.1274H102.739C102.137 50.8294 101.685 50.3657 101.414 49.7695C101.384 49.7033 101.414 49.637 101.474 49.637C101.535 49.6039 101.595 49.637 101.595 49.7033C101.836 50.2332 102.227 50.6638 102.799 50.9287C102.859 50.9618 102.859 51.0281 102.859 51.0612C102.829 51.0943 102.799 51.1274 102.769 51.1274Z" fill="#455A64"/>
<path d="M101.324 49.372C101.294 49.372 101.234 49.3389 101.234 49.3057C100.843 48.1134 100.632 45.6294 101.535 43.7746C101.565 43.7084 101.625 43.7084 101.656 43.7415C101.716 43.7746 101.716 43.8408 101.686 43.874C100.782 45.6625 101.023 48.0803 101.385 49.2395C101.415 49.3057 101.385 49.372 101.324 49.372Z" fill="#455A64"/>
<path d="M104.516 44.3379C104.456 44.3379 104.425 44.3048 104.425 44.2386C104.335 43.1456 104.064 42.6488 103.522 42.5163C103.01 42.3838 102.378 42.7813 101.896 43.5099C101.866 43.543 101.806 43.5762 101.746 43.543C101.716 43.5099 101.685 43.4437 101.716 43.3774C102.258 42.5825 102.95 42.152 103.522 42.2845C104.305 42.4832 104.486 43.3774 104.576 44.2054C104.636 44.3048 104.576 44.3379 104.516 44.3379Z" fill="#455A64"/>
<path d="M105.361 45.8614C105.181 45.8614 105.03 45.8283 104.91 45.729C104.669 45.5634 104.518 45.2653 104.488 44.8678C104.488 44.8016 104.518 44.7685 104.579 44.7354C104.639 44.7354 104.669 44.7685 104.699 44.8347C104.729 45.1659 104.85 45.4309 105.03 45.5302C105.211 45.6627 105.482 45.6627 105.783 45.5634C105.843 45.5302 105.903 45.5634 105.903 45.6296C105.934 45.6958 105.903 45.7621 105.843 45.7621C105.663 45.8283 105.512 45.8614 105.361 45.8614Z" fill="#455A64"/>
<path d="M103.703 52.0215C103.522 51.9884 103.251 51.9553 102.679 51.7234C100.963 50.9617 100.301 49.405 100.391 46.5235C100.451 44.8675 101.234 42.7478 102.589 41.8535C103.161 41.4892 103.643 41.4229 104.064 41.6548C104.546 41.9197 104.877 42.5821 104.998 43.5758C105.148 44.6687 105.389 44.8675 105.871 44.8343C105.931 44.8343 105.961 44.8675 105.961 44.9337C105.961 45 105.931 45.0331 105.871 45.0331C105.239 45.0331 104.937 44.6687 104.817 43.5758C104.697 42.6484 104.426 42.0522 104.004 41.8204C103.673 41.6217 103.221 41.6879 102.709 42.0191C101.415 42.8471 100.662 44.9006 100.602 46.4904C100.481 49.968 101.625 50.9617 102.77 51.4916C103.312 51.6903 103.582 51.7565 103.733 51.7565C103.793 51.7565 103.823 51.8228 103.823 51.889C103.793 51.9884 103.733 52.0215 103.703 52.0215Z" fill="#455A64"/>
<path d="M105.841 44.3382C105.299 44.3382 105.179 43.5433 105.089 42.914C105.089 42.8147 105.059 42.7484 105.059 42.6491C105.059 42.5828 105.089 42.5497 105.149 42.5166C105.209 42.5166 105.239 42.5497 105.269 42.616C105.269 42.7153 105.299 42.7816 105.299 42.8809C105.39 43.4771 105.48 44.1395 105.872 44.1064C105.932 44.1064 105.962 44.1395 105.962 44.2057C105.932 44.3051 105.902 44.3382 105.841 44.3382Z" fill="#455A64"/>
<path d="M105.027 42.3839C104.997 42.3839 104.937 42.3508 104.937 42.3177C104.726 41.6221 104.365 41.1916 103.883 41.0922C103.823 41.0922 103.793 41.026 103.793 40.9597C103.793 40.8935 103.853 40.8604 103.913 40.8604C104.455 40.9597 104.907 41.4896 105.118 42.2514C105.148 42.2845 105.118 42.3508 105.027 42.3839C105.058 42.3839 105.058 42.3839 105.027 42.3839Z" fill="#455A64"/>
<path d="M101.837 42.0525C101.807 42.0525 101.776 42.0525 101.776 42.0194C101.746 41.9863 101.746 41.92 101.776 41.8538C102.349 41.2245 103.011 40.8271 103.613 40.7939C103.673 40.7939 103.704 40.8271 103.704 40.8933C103.704 40.9595 103.673 40.9927 103.613 40.9927C103.071 41.0258 102.409 41.3901 101.897 41.9863C101.897 42.0525 101.867 42.0525 101.837 42.0525Z" fill="#455A64"/>
<path d="M100.211 45.0993C100.121 45.0662 100.091 45.0331 100.121 44.9669C100.331 44.0064 100.813 42.9796 101.415 42.1847C101.445 42.1516 101.506 42.1185 101.566 42.1847C101.596 42.2178 101.626 42.2841 101.566 42.3503C100.964 43.1121 100.512 44.1057 100.301 45.0331C100.301 45.0662 100.271 45.0993 100.211 45.0993Z" fill="#455A64"/>
<path d="M100.001 48.2788C99.9403 48.2788 99.9102 48.2457 99.9102 48.1794C99.8199 47.2852 99.85 46.3247 100.001 45.4304C100.001 45.3642 100.061 45.3311 100.121 45.3311C100.181 45.3311 100.211 45.3973 100.211 45.4635C100.061 46.3578 100.031 47.2852 100.121 48.1463C100.121 48.2457 100.061 48.2788 100.001 48.2788Z" fill="#455A64"/>
<path d="M100.721 50.8956C100.691 50.8956 100.661 50.8625 100.631 50.8293C100.33 50.2663 100.089 49.5376 99.9688 48.7096C99.9688 48.6434 99.9989 48.6103 100.059 48.5771C100.119 48.5771 100.149 48.6103 100.18 48.6765C100.3 49.4714 100.541 50.1669 100.812 50.6969C100.842 50.7631 100.812 50.8293 100.782 50.8293C100.752 50.8956 100.721 50.8956 100.721 50.8956Z" fill="#455A64"/>
<path d="M102.861 52.7169H102.831C101.927 52.3195 101.325 51.8227 100.934 51.2596C100.904 51.2265 100.904 51.1603 100.964 51.094C100.994 51.0609 101.054 51.0609 101.114 51.1271C101.476 51.6902 102.078 52.1208 102.951 52.5182C103.011 52.5513 103.011 52.6176 103.011 52.6507C102.951 52.6838 102.891 52.7169 102.861 52.7169Z" fill="#455A64"/>
<path d="M102.107 53.1809H102.077C100.301 52.386 99.3672 50.3325 99.3672 47.2192C99.3672 44.8345 100.361 41.7874 102.589 40.4626C103.281 40.032 104.094 40.032 104.757 40.4626C105.51 40.9594 105.961 41.9861 105.961 43.2447C105.961 43.3109 105.931 43.3441 105.871 43.3441C105.811 43.3441 105.781 43.3109 105.781 43.2447C105.781 42.0524 105.389 41.125 104.666 40.6613C104.064 40.2638 103.342 40.2638 102.679 40.6613C100.541 41.953 99.578 44.9007 99.578 47.2192C99.578 49.3058 100.03 52.0216 102.167 52.9821C102.228 53.0153 102.228 53.0815 102.228 53.1146C102.197 53.1478 102.167 53.1809 102.107 53.1809Z" fill="#455A64"/>
<path d="M104.848 48.6762C104.788 48.6762 104.697 48.6762 104.637 48.6762C104.577 48.6762 104.547 48.6099 104.547 48.5768C104.547 48.5106 104.607 48.4775 104.637 48.4775C104.848 48.4775 105.089 48.4775 105.36 48.4443C105.42 48.4443 105.45 48.4775 105.48 48.5437C105.48 48.6099 105.45 48.6431 105.39 48.6762C105.209 48.6431 105.029 48.6762 104.848 48.6762Z" fill="#455A64"/>
<path d="M104.307 48.6099C104.277 48.6099 104.277 48.6099 104.307 48.6099C103.826 48.5105 103.404 48.1793 103.223 47.7487C103.193 47.6825 103.223 47.6163 103.254 47.6163C103.314 47.5831 103.374 47.6163 103.374 47.6494C103.525 48.0137 103.886 48.3118 104.307 48.378C104.368 48.378 104.398 48.4443 104.398 48.5105C104.398 48.5768 104.337 48.6099 104.307 48.6099Z" fill="#455A64"/>
<path d="M103.133 47.4849C103.103 47.4849 103.073 47.4518 103.043 47.4187C102.802 46.7894 102.712 45.9614 102.772 45.0671C102.772 45.0009 102.832 44.9678 102.892 44.9678C102.953 44.9678 102.983 45.034 102.983 45.1003C102.923 45.9614 103.013 46.7894 103.254 47.3525C103.284 47.4187 103.254 47.4849 103.194 47.4849C103.163 47.4849 103.163 47.4849 103.133 47.4849Z" fill="#455A64"/>
<path d="M105.117 39.8667C105.087 39.8667 105.087 39.8666 105.057 39.8335C104.696 39.5354 103.973 39.3698 103.492 39.5023C103.431 39.5023 103.371 39.4692 103.371 39.4361C103.371 39.3698 103.401 39.3036 103.431 39.3036C103.943 39.138 104.726 39.3036 105.148 39.6679C105.178 39.701 105.208 39.7673 105.178 39.8335C105.178 39.8335 105.148 39.8667 105.117 39.8667Z" fill="#455A64"/>
<path d="M100.993 41.1912C100.963 41.1912 100.933 41.1912 100.933 41.1581C100.903 41.125 100.903 41.0588 100.933 40.9925C101.445 40.3632 102.197 39.7671 103.01 39.4358C103.071 39.4027 103.131 39.4358 103.131 39.5021C103.161 39.5683 103.131 39.6346 103.071 39.6346C102.318 39.9658 101.565 40.4957 101.083 41.125C101.053 41.1581 101.023 41.1912 100.993 41.1912Z" fill="#455A64"/>
<path d="M101.054 53.4123H101.024C100.723 53.2467 100.452 53.0149 100.241 52.7168C100.211 52.6837 100.211 52.6174 100.241 52.5512C100.271 52.5181 100.332 52.5181 100.392 52.5512C100.603 52.8162 100.844 53.048 101.115 53.1805C101.175 53.2136 101.175 53.2799 101.145 53.313C101.145 53.4123 101.084 53.4123 101.054 53.4123Z" fill="#455A64"/>
<path d="M100.06 52.3529C100.03 52.3529 100 52.3529 99.97 52.3198C99.6689 51.9224 99.428 51.4256 99.2774 50.9619C99.2473 50.8956 99.2774 50.8294 99.3377 50.8294C99.3979 50.7963 99.4581 50.8294 99.4581 50.8956C99.5785 51.3262 99.8194 51.7899 100.121 52.1873C100.151 52.2205 100.151 52.2867 100.09 52.3529H100.06Z" fill="#455A64"/>
<path d="M89.6276 53.4705C90.8074 54.0808 92.0856 58.1309 91.6923 62.0701C91.3973 64.8442 89.6276 69.5046 88.2019 71.391C86.7762 73.3328 84.6623 76.7727 84.6131 79.2139C84.564 81.655 84.4657 88.5347 87.317 93.9164C90.1683 99.2981 96.5101 111.338 94.7895 123.377H73.5028C73.5028 121.657 73.3553 116.386 71.9296 111.504C70.5039 106.622 69.0783 100.963 68.9308 96.2467C68.7833 91.5307 71.9296 73.5547 72.8637 70.8362C74.0435 67.3963 77.3373 65.177 80.9261 61.2379C84.9573 56.7993 86.6287 51.917 89.6276 53.4705Z" fill="#FFA8A7"/>
<path d="M78.4678 172.644C87.5134 178.525 102.114 178.525 111.16 172.644C120.205 166.763 120.205 157.221 111.16 151.339C102.114 145.458 87.5134 145.458 78.4678 151.339C69.4222 157.221 69.4222 166.763 78.4678 172.644Z" fill="#FFA8A7"/>
<path d="M71.6836 161.992C71.6836 158.719 73.0109 141.187 73.2567 136.859C73.5517 131.533 73.5517 126.262 73.5517 123.433H116.076C116.076 123.433 115.535 132.032 116.076 140.299C116.617 148.566 117.944 155.945 117.944 161.992H71.6836Z" fill="#FFA8A7"/>
<path opacity="0.2" d="M85.5453 63.734C85.6928 63.4566 88.5441 59.351 89.2324 57.6866C89.9206 56.0776 89.8223 54.1912 87.8559 53.248C85.7911 53.9138 84.0705 57.6866 80.875 61.2374C80.9242 61.2929 82.4482 63.956 85.5453 63.734Z" fill="white"/>
<path d="M116.813 130.146C115.289 133.086 111.11 139.799 100 141.186C100 141.186 109.586 142.629 115.83 134.972C115.83 134.75 115.83 134.529 115.83 134.307C115.928 132.698 116.272 131.366 116.813 130.146Z" fill="#F28F8F"/>
<path d="M137.115 83.6525C135.935 85.8717 130.871 90.0328 130.871 90.0328V77.1611L137.115 83.6525Z" fill="#F28F8F"/>
<path d="M134.756 72.4449C131.954 72.1675 129.84 73.6655 129.84 76.3841V81.2664C129.84 83.8741 131.905 85.9269 134.166 85.5385C134.215 85.5385 134.215 85.5385 134.264 85.5385C137.951 84.8727 137.902 81.0445 137.951 79.0472C138.001 77.1053 137.263 72.7223 134.756 72.4449Z" fill="#FFA8A7"/>
<path d="M137.459 51.8613C136.23 54.247 130.871 58.5746 130.871 58.5746V45.0371L137.459 51.8613Z" fill="#F28F8F"/>
<path d="M134.953 40.0994C132.004 39.7665 130.431 41.2645 129.742 44.2605C129.496 45.3701 129.447 47.201 129.742 49.4202C130.037 51.6395 131.905 54.3581 134.314 53.9142C134.363 53.9142 134.413 53.9142 134.413 53.9142C138.296 53.193 138.739 50.8073 138.739 47.0345C138.788 43.2063 137.608 40.3768 134.953 40.0994Z" fill="#FFA8A7"/>
<path d="M137.707 64.1226C136.035 67.4514 130.824 71.3351 130.824 71.3351V58.6299L137.707 64.1226Z" fill="#F28F8F"/>
<path d="M134.904 53.5252C132.2 53.2478 130.774 54.5794 130.184 57.3535C129.939 58.4076 129.939 60.0166 130.184 62.0694C130.43 64.1222 132.151 66.5634 134.363 66.175C134.412 66.175 134.412 66.175 134.461 66.175C138.05 65.5092 138.443 63.3455 138.443 59.8501C138.394 56.3548 137.313 53.7472 134.904 53.5252Z" fill="#FFA8A7"/>
<path d="M81.6632 60.4053C81.4174 60.6827 81.1716 60.9601 80.9258 61.293C80.9258 61.293 82.4498 63.9561 85.5469 63.7342C85.5469 63.7342 84.2687 61.0711 81.6632 60.4053Z" fill="#F28F8F"/>
<path d="M122.303 70.2927L138.11 60.2571C138.261 60.1578 138.411 60.1578 138.502 60.2571C138.592 60.3565 139.164 60.6546 139.254 60.7208C139.345 60.7871 139.435 60.9527 139.435 61.1845V76.8174C139.435 77.248 139.194 77.7779 138.893 77.9766L136.123 79.732L121.941 70.7232C122.032 70.5576 122.152 70.392 122.303 70.2927Z" fill="#27DEBF"/>
<path opacity="0.5" d="M122.303 70.2927L138.11 60.2571C138.261 60.1578 138.411 60.1578 138.502 60.2571C138.592 60.3565 139.164 60.6546 139.254 60.7208C139.345 60.7871 139.435 60.9527 139.435 61.1845V76.8174C139.435 77.248 139.194 77.7779 138.893 77.9766L136.123 79.732L121.941 70.7232C122.032 70.5576 122.152 70.392 122.303 70.2927Z" fill="white"/>
<path d="M122.694 88.0448C122.574 87.9786 122.001 87.6142 121.911 87.548C121.791 87.4817 121.73 87.3161 121.73 87.0843V71.4514C121.73 71.2195 121.791 70.9877 121.911 70.7559L136.093 79.7647L123.055 88.0448C122.935 88.111 122.784 88.1442 122.694 88.0448Z" fill="#27DEBF"/>
<path opacity="0.2" d="M122.694 88.0448C122.574 87.9786 122.001 87.6142 121.911 87.548C121.791 87.4817 121.73 87.3161 121.73 87.0843V71.4514C121.73 71.2195 121.791 70.9877 121.911 70.7559L136.093 79.7647L123.055 88.0448C122.935 88.111 122.784 88.1442 122.694 88.0448Z" fill="black"/>
<path d="M123.087 88.0448L138.895 78.0092C139.196 77.8105 139.437 77.3137 139.437 76.85V61.2171C139.437 60.7865 139.196 60.5878 138.895 60.7534L123.087 70.789C122.786 70.9877 122.545 71.4845 122.545 71.9482V87.5811C122.515 88.0117 122.786 88.2435 123.087 88.0448Z" fill="#27DEBF"/>
<path opacity="0.2" d="M122.516 87.5815V87.2834L129.049 75.36L122.606 71.4186C122.606 71.3855 122.636 71.3193 122.666 71.2862L130.705 74.9625C130.886 75.0288 131.097 74.8963 131.278 74.5982L139.317 60.7207C139.347 60.7538 139.347 60.7538 139.377 60.7869L132.934 72.9091L139.467 76.5192V76.8173C139.467 77.0491 139.407 77.3141 139.317 77.5128L132.602 73.5052L131.639 75.2938C131.247 75.9893 130.736 76.3205 130.374 76.0887L129.411 75.5256L122.726 88.0121C122.606 87.9789 122.516 87.8133 122.516 87.5815Z" fill="black"/>
<path d="M141.493 37.0873C141.493 36.9548 141.463 36.8555 141.372 36.7892C141.372 36.7892 141.372 36.7892 141.342 36.7561L140.71 36.3587C140.62 36.3255 140.529 36.3255 140.409 36.3918L128.034 44.2414L127.672 42.6516C127.642 42.5191 127.582 42.4529 127.492 42.3866L126.859 41.9892C126.739 41.9229 126.619 41.9229 126.468 41.9892L121.199 45.3343C120.958 45.4999 120.777 45.8643 120.777 46.1624V65.5048C120.777 65.6373 120.807 65.7366 120.898 65.8029L121.56 66.2334C121.651 66.2666 121.741 66.2665 121.861 66.2003L141.101 53.9788C141.342 53.8132 141.523 53.4489 141.523 53.1508L141.493 37.0873Z" fill="#27DEBF"/>
<path opacity="0.2" d="M127.462 42.386C127.342 42.3198 127.221 42.3198 127.071 42.4191L121.832 45.7643C121.711 45.8306 121.621 45.963 121.531 46.1286L120.898 45.7312C120.989 45.5987 121.079 45.4662 121.2 45.3669L126.469 42.0217C126.619 41.9223 126.74 41.9555 126.86 42.0217L127.462 42.386Z" fill="black"/>
<path opacity="0.2" d="M141.34 36.7558C141.279 36.7226 141.159 36.7226 141.069 36.7889L128.664 44.6716C128.423 44.8372 128.182 44.7047 128.091 44.4066L128.031 44.241L140.406 36.3914C140.467 36.3583 140.527 36.3252 140.587 36.3252C140.617 36.3252 140.677 36.3252 140.707 36.3583L141.34 36.7558Z" fill="black"/>
<path d="M141.492 37.0874V53.1509C141.492 53.449 141.311 53.8133 141.071 53.9789L121.77 66.2335C121.59 66.3329 121.379 66.2004 121.379 66.0017V46.6261C121.379 46.4605 121.439 46.2949 121.499 46.1625C121.59 46.03 121.68 45.8975 121.8 45.7981L127.07 42.453C127.19 42.3536 127.341 42.3536 127.461 42.4198C127.551 42.4861 127.612 42.5523 127.642 42.6848L128.003 44.2746L128.063 44.4402C128.154 44.7383 128.394 44.8376 128.635 44.7052L141.041 36.8225C141.161 36.7562 141.251 36.7562 141.311 36.7893H141.342C141.432 36.8556 141.492 36.9549 141.492 37.0874Z" fill="#27DEBF"/>
<path opacity="0.3" d="M141.492 37.0874V53.1509C141.492 53.449 141.311 53.8133 141.071 53.9789L121.77 66.2335C121.59 66.3329 121.379 66.2004 121.379 66.0017V46.6261C121.379 46.4605 121.439 46.2949 121.499 46.1625C121.59 46.03 121.68 45.8975 121.8 45.7981L127.07 42.453C127.19 42.3536 127.341 42.3536 127.461 42.4198C127.551 42.4861 127.612 42.5523 127.642 42.6848L128.003 44.2746L128.063 44.4402C128.154 44.7383 128.394 44.8376 128.635 44.7052L141.041 36.8225C141.161 36.7562 141.251 36.7562 141.311 36.7893H141.342C141.432 36.8556 141.492 36.9549 141.492 37.0874Z" fill="black"/>
<path opacity="0.5" d="M121.559 66.233C121.529 66.233 121.529 66.233 121.559 66.233L120.867 65.8024C120.806 65.7362 120.746 65.6368 120.746 65.5043V46.1619C120.746 45.9963 120.806 45.8307 120.867 45.6982L121.499 46.0957C121.409 46.2282 121.378 46.3938 121.378 46.5594V65.968C121.409 66.1005 121.469 66.1668 121.559 66.233Z" fill="black"/>
</g>
<defs>
<clipPath id="clip0_4919_77749">
<rect width="208" height="208" fill="white" transform="translate(0.5)"/>
</clipPath>
</defs>
</svg>
