<svg width="14" height="14" viewBox="0 0 14 14" fill="none" xmlns="http://www.w3.org/2000/svg">
<path d="M13.0894 3.6235L10.2813 0.816029C10.1879 0.722648 10.0771 0.648573 9.95507 0.598035C9.83308 0.547496 9.70233 0.521484 9.57029 0.521484C9.43824 0.521484 9.30749 0.547496 9.1855 0.598035C9.06351 0.648573 8.95267 0.722648 8.85931 0.816029L1.11111 8.56423C1.01735 8.65725 0.943007 8.76798 0.892416 8.88998C0.841825 9.01198 0.815989 9.14282 0.816411 9.27489V12.083C0.816411 12.3496 0.922333 12.6054 1.11087 12.7939C1.29942 12.9824 1.55513 13.0884 1.82177 13.0884H12.3781C12.5114 13.0884 12.6393 13.0354 12.7335 12.9411C12.8278 12.8469 12.8808 12.719 12.8808 12.5857C12.8808 12.4524 12.8278 12.3245 12.7335 12.2302C12.6393 12.136 12.5114 12.083 12.3781 12.083H6.05183L13.0894 5.04546C13.1827 4.9521 13.2568 4.84126 13.3074 4.71927C13.3579 4.59728 13.3839 4.46653 13.3839 4.33448C13.3839 4.20244 13.3579 4.07168 13.3074 3.94969C13.2568 3.8277 13.1827 3.71686 13.0894 3.6235ZM4.62987 12.083H1.82177V9.27489L7.35126 3.7454L10.1594 6.5535L4.62987 12.083ZM10.87 5.84284L8.06256 3.03474L9.5706 1.52669L12.3781 4.3348L10.87 5.84284Z" fill="white"/>
</svg>
