<svg width="24" height="21" viewBox="0 0 24 21" fill="none" xmlns="http://www.w3.org/2000/svg">
<g filter="url(#filter0_d_3596_6441)">
<path d="M21 9C21 9.19891 20.921 9.38968 20.7803 9.53033C20.6397 9.67098 20.4489 9.75 20.25 9.75H12.75V17.25C12.75 17.4489 12.671 17.6397 12.5303 17.7803C12.3897 17.921 12.1989 18 12 18C11.8011 18 11.6103 17.921 11.4697 17.7803C11.329 17.6397 11.25 17.4489 11.25 17.25V9.75H3.75C3.55109 9.75 3.36032 9.67098 3.21967 9.53033C3.07902 9.38968 3 9.19891 3 9C3 8.80109 3.07902 8.61032 3.21967 8.46967C3.36032 8.32902 3.55109 8.25 3.75 8.25H11.25V0.75C11.25 0.551088 11.329 0.360322 11.4697 0.21967C11.6103 0.0790178 11.8011 0 12 0C12.1989 0 12.3897 0.0790178 12.5303 0.21967C12.671 0.360322 12.75 0.551088 12.75 0.75V8.25H20.25C20.4489 8.25 20.6397 8.32902 20.7803 8.46967C20.921 8.61032 21 8.80109 21 9Z" fill="#676767"/>
</g>
<defs>
<filter id="filter0_d_3596_6441" x="-1" y="0" width="26" height="26" filterUnits="userSpaceOnUse" color-interpolation-filters="sRGB">
<feFlood flood-opacity="0" result="BackgroundImageFix"/>
<feColorMatrix in="SourceAlpha" type="matrix" values="0 0 0 0 0 0 0 0 0 0 0 0 0 0 0 0 0 0 127 0" result="hardAlpha"/>
<feOffset dy="4"/>
<feGaussianBlur stdDeviation="2"/>
<feComposite in2="hardAlpha" operator="out"/>
<feColorMatrix type="matrix" values="0 0 0 0 0 0 0 0 0 0 0 0 0 0 0 0 0 0 0.25 0"/>
<feBlend mode="normal" in2="BackgroundImageFix" result="effect1_dropShadow_3596_6441"/>
<feBlend mode="normal" in="SourceGraphic" in2="effect1_dropShadow_3596_6441" result="shape"/>
</filter>
</defs>
</svg>
