<svg width="19" height="15" viewBox="0 0 19 15" fill="none" xmlns="http://www.w3.org/2000/svg">
<path d="M9.5 1.52344C4.11433 1.52344 1.50134 6.37626 1.03766 7.33692C1.01288 7.38802 1 7.44408 1 7.50087C1 7.55767 1.01288 7.61372 1.03766 7.66483C1.50048 8.62549 4.11348 13.4783 9.5 13.4783C14.8865 13.4783 17.4987 8.62549 17.9623 7.66483C17.9871 7.61372 18 7.55767 18 7.50087C18 7.44408 17.9871 7.38802 17.9623 7.33692C17.4995 6.37626 14.8865 1.52344 9.5 1.52344Z" stroke="#B8B8B8" stroke-width="2" stroke-linecap="round" stroke-linejoin="round"/>
<path d="M9.49926 10.063C10.9141 10.063 12.061 8.91603 12.061 7.50121C12.061 6.08639 10.9141 4.93945 9.49926 4.93945C8.08444 4.93945 6.9375 6.08639 6.9375 7.50121C6.9375 8.91603 8.08444 10.063 9.49926 10.063Z" stroke="#B8B8B8" stroke-width="2" stroke-linecap="round" stroke-linejoin="round"/>
</svg>
