<svg width="22" height="23" viewBox="0 0 22 23" fill="none" xmlns="http://www.w3.org/2000/svg">
<path d="M17.6667 17.334H18.9167C19.4687 17.3323 19.9976 17.1123 20.388 16.722C20.7783 16.3316 20.9984 15.8027 21 15.2507V6.91732C20.9984 6.36529 20.7783 5.83634 20.388 5.446C19.9976 5.05566 19.4687 4.83563 18.9167 4.83398H3.08333C2.53131 4.83563 2.00236 5.05566 1.61202 5.446C1.22167 5.83634 1.00165 6.36529 1 6.91732V15.2507C1.00165 15.8027 1.22167 16.3316 1.61202 16.722C2.00236 17.1123 2.53131 17.3323 3.08333 17.334H4.33333" stroke="#6B6B6B" stroke-width="1.66667" stroke-linejoin="round"/>
<path d="M16.3987 10.666H5.5987C4.89914 10.666 4.33203 11.2331 4.33203 11.9327V20.2327C4.33203 20.9322 4.89914 21.4993 5.5987 21.4993H16.3987C17.0983 21.4993 17.6654 20.9322 17.6654 20.2327V11.9327C17.6654 11.2331 17.0983 10.666 16.3987 10.666Z" stroke="#6B6B6B" stroke-width="1.66667" stroke-linejoin="round"/>
<path d="M17.6654 4.83333V3.58333C17.6637 3.03131 17.4437 2.50236 17.0533 2.11202C16.663 1.72167 16.1341 1.50165 15.582 1.5H6.41536C5.86334 1.50165 5.33439 1.72167 4.94405 2.11202C4.5537 2.50236 4.33368 3.03131 4.33203 3.58333V4.83333" stroke="#6B6B6B" stroke-width="1.66667" stroke-linejoin="round"/>
<path d="M18.082 9C18.7724 9 19.332 8.44036 19.332 7.75C19.332 7.05964 18.7724 6.5 18.082 6.5C17.3917 6.5 16.832 7.05964 16.832 7.75C16.832 8.44036 17.3917 9 18.082 9Z" fill="#6B6B6B"/>
</svg>
