<svg width="61" height="61" viewBox="0 0 61 61" fill="none" xmlns="http://www.w3.org/2000/svg">
<path fill-rule="evenodd" clip-rule="evenodd" d="M33.4141 48.6133C35.0054 48.6133 36.5315 49.2454 37.6567 50.3706C38.7819 51.4959 39.4141 53.022 39.4141 54.6133C39.4141 56.2046 38.7819 57.7307 37.6567 58.8559C36.5315 59.9811 35.0054 60.6133 33.4141 60.6133C31.8228 60.6133 30.2966 59.9811 29.1714 58.8559C28.0462 57.7307 27.4141 56.2046 27.4141 54.6133C27.4141 53.022 28.0462 51.4959 29.1714 50.3706C30.2966 49.2454 31.8228 48.6133 33.4141 48.6133ZM14.6371 39.6133C16.6262 39.6133 18.5338 40.4035 19.9404 41.81C21.3469 43.2165 22.1371 45.1242 22.1371 47.1133C22.1371 49.1024 21.3469 51.0101 19.9404 52.4166C18.5338 53.8231 16.6262 54.6133 14.6371 54.6133C12.6479 54.6133 10.7403 53.8231 9.33376 52.4166C7.92724 51.0101 7.13706 49.1024 7.13706 47.1133C7.13706 45.1242 7.92724 43.2165 9.33376 41.81C10.7403 40.4035 12.6479 39.6133 14.6371 39.6133ZM49.3711 41.1133C50.9624 41.1133 52.4885 41.7454 53.6137 42.8706C54.7389 43.9959 55.3711 45.522 55.3711 47.1133C55.3711 48.7046 54.7389 50.2307 53.6137 51.3559C52.4885 52.4811 50.9624 53.1133 49.3711 53.1133C47.7798 53.1133 46.2536 52.4811 45.1284 51.3559C44.0032 50.2307 43.3711 48.7046 43.3711 47.1133C43.3711 45.522 44.0032 43.9959 45.1284 42.8706C46.2536 41.7454 47.7798 41.1133 49.3711 41.1133ZM55.9141 28.5703C57.1075 28.5703 58.2521 29.0444 59.096 29.8883C59.94 30.7322 60.4141 31.8768 60.4141 33.0703C60.4141 34.2638 59.94 35.4083 59.096 36.2523C58.2521 37.0962 57.1075 37.5703 55.9141 37.5703C54.7206 37.5703 53.576 37.0962 52.7321 36.2523C51.8882 35.4083 51.4141 34.2638 51.4141 33.0703C51.4141 31.8768 51.8882 30.7322 52.7321 29.8883C53.576 29.0444 54.7206 28.5703 55.9141 28.5703ZM7.91406 18.6133C9.90319 18.6133 11.8108 19.4035 13.2174 20.81C14.6239 22.2165 15.4141 24.1242 15.4141 26.1133C15.4141 28.1024 14.6239 30.0101 13.2174 31.4166C11.8108 32.8231 9.90319 33.6133 7.91406 33.6133C5.92494 33.6133 4.01728 32.8231 2.61076 31.4166C1.20424 30.0101 0.414063 28.1024 0.414062 26.1133C0.414063 24.1242 1.20424 22.2165 2.61076 20.81C4.01728 19.4035 5.92494 18.6133 7.91406 18.6133ZM53.7721 16.2343C54.5677 16.2343 55.3308 16.5504 55.8934 17.113C56.456 17.6756 56.7721 18.4386 56.7721 19.2343C56.7721 20.0299 56.456 20.793 55.8934 21.3556C55.3308 21.9182 54.5677 22.2343 53.7721 22.2343C52.9764 22.2343 52.2134 21.9182 51.6507 21.3556C51.0881 20.793 50.7721 20.0299 50.7721 19.2343C50.7721 18.4386 51.0881 17.6756 51.6507 17.113C52.2134 16.5504 52.9764 16.2343 53.7721 16.2343ZM24.4141 0.613281C26.801 0.613281 29.0902 1.56149 30.778 3.24932C32.4659 4.93715 33.4141 7.22633 33.4141 9.61328C33.4141 12.0002 32.4659 14.2894 30.778 15.9772C29.0902 17.6651 26.801 18.6133 24.4141 18.6133C22.0271 18.6133 19.7379 17.6651 18.0501 15.9772C16.3623 14.2894 15.4141 12.0002 15.4141 9.61328C15.4141 7.22633 16.3623 4.93715 18.0501 3.24932C19.7379 1.56149 22.0271 0.613281 24.4141 0.613281ZM46.9141 9.61328C47.3119 9.61328 47.6934 9.77132 47.9747 10.0526C48.256 10.3339 48.4141 10.7155 48.4141 11.1133C48.4141 11.5111 48.256 11.8926 47.9747 12.1739C47.6934 12.4552 47.3119 12.6133 46.9141 12.6133C46.5162 12.6133 46.1347 12.4552 45.8534 12.1739C45.5721 11.8926 45.4141 11.5111 45.4141 11.1133C45.4141 10.7155 45.5721 10.3339 45.8534 10.0526C46.1347 9.77132 46.5162 9.61328 46.9141 9.61328Z" fill="#6C9295"/>
</svg>
