<svg width="45" height="45" viewBox="0 0 45 45" fill="none" xmlns="http://www.w3.org/2000/svg">
<path d="M22 12.75C20.0716 12.75 18.1866 13.3218 16.5832 14.3932C14.9798 15.4645 13.7301 16.9873 12.9922 18.7688C12.2542 20.5504 12.0611 22.5108 12.4373 24.4021C12.8136 26.2934 13.7422 28.0307 15.1057 29.3943C16.4693 30.7579 18.2066 31.6865 20.0979 32.0627C21.9892 32.4389 23.9496 32.2458 25.7312 31.5078C27.5127 30.7699 29.0355 29.5202 30.1068 27.9168C31.1782 26.3134 31.75 24.4284 31.75 22.5C31.7473 19.915 30.7192 17.4366 28.8913 15.6087C27.0634 13.7808 24.585 12.7527 22 12.75ZM16.945 29.0156C17.4876 28.1671 18.235 27.4688 19.1184 26.9851C20.0019 26.5013 20.9928 26.2478 22 26.2478C23.0072 26.2478 23.9982 26.5013 24.8816 26.9851C25.765 27.4688 26.5124 28.1671 27.055 29.0156C25.6097 30.1397 23.831 30.7499 22 30.7499C20.169 30.7499 18.3903 30.1397 16.945 29.0156ZM19 21.75C19 21.1567 19.176 20.5766 19.5056 20.0833C19.8352 19.5899 20.3038 19.2054 20.852 18.9784C21.4001 18.7513 22.0033 18.6919 22.5853 18.8076C23.1672 18.9234 23.7018 19.2091 24.1213 19.6287C24.5409 20.0482 24.8266 20.5828 24.9424 21.1647C25.0581 21.7467 24.9987 22.3499 24.7716 22.8981C24.5446 23.4462 24.1601 23.9148 23.6667 24.2444C23.1734 24.5741 22.5933 24.75 22 24.75C21.2044 24.75 20.4413 24.4339 19.8787 23.8713C19.3161 23.3087 19 22.5456 19 21.75ZM28.165 27.9759C27.3285 26.7638 26.1524 25.8261 24.7844 25.2806C25.5192 24.7019 26.0554 23.9085 26.3184 23.0108C26.5815 22.1132 26.5582 21.1559 26.252 20.2721C25.9457 19.3882 25.3716 18.6218 24.6096 18.0794C23.8475 17.537 22.9354 17.2455 22 17.2455C21.0646 17.2455 20.1525 17.537 19.3904 18.0794C18.6284 18.6218 18.0543 19.3882 17.7481 20.2721C17.4418 21.1559 17.4185 22.1132 17.6816 23.0108C17.9446 23.9085 18.4808 24.7019 19.2156 25.2806C17.8476 25.8261 16.6715 26.7638 15.835 27.9759C14.778 26.7873 14.0872 25.3185 13.8457 23.7464C13.6041 22.1743 13.8222 20.5658 14.4737 19.1148C15.1251 17.6637 16.1821 16.4319 17.5174 15.5677C18.8528 14.7035 20.4094 14.2437 22 14.2437C23.5906 14.2437 25.1473 14.7035 26.4826 15.5677C27.8179 16.4319 28.8749 17.6637 29.5263 19.1148C30.1778 20.5658 30.3959 22.1743 30.1543 23.7464C29.9128 25.3185 29.222 26.7873 28.165 27.9759Z" fill="#B1B1B1"/>
</svg>
