<svg width="24" height="21" viewBox="0 0 24 21" fill="none" xmlns="http://www.w3.org/2000/svg">
<path d="M23.1778 11.0421C23.1812 11.2723 23.1524 11.5021 23.0914 11.7243C23.0303 11.9466 22.9379 12.1596 22.8167 12.3562C22.6959 12.5528 22.5476 12.7318 22.3763 12.8876C22.2051 13.0435 22.0126 13.1746 21.8045 13.2771C21.8092 13.3384 21.813 13.4002 21.8151 13.4619C21.8202 13.5851 21.8202 13.7085 21.8151 13.8316C21.813 13.8934 21.8092 13.9552 21.8045 14.0165C21.8045 17.7807 17.3795 20.8392 11.9202 20.8392C6.46086 20.8392 2.03578 17.7807 2.03578 14.0165C2.03112 13.9552 2.02731 13.8934 2.02519 13.8316C2.02009 13.7085 2.02009 13.5851 2.02519 13.4619C2.02731 13.4002 2.03112 13.3384 2.03578 13.2771C1.70973 13.1285 1.42014 12.9115 1.18705 12.6411C0.953952 12.3707 0.782923 12.0533 0.685795 11.7109C0.588829 11.3684 0.568174 11.009 0.625261 10.6577C0.682349 10.3065 0.815813 9.97175 1.0164 9.67671C1.21682 9.38172 1.47959 9.13347 1.78648 8.94921C2.09338 8.76494 2.43705 8.64907 2.79364 8.60962C3.15028 8.57 3.51135 8.60771 3.85183 8.72015C4.1923 8.83259 4.50404 9.01707 4.76543 9.2608C5.25068 8.9348 5.75908 8.64402 6.28666 8.39074C6.81436 8.13783 7.35987 7.92273 7.91893 7.74796C8.478 7.57319 9.04937 7.43918 9.62793 7.34633C10.2065 7.25349 10.7914 7.20265 11.3776 7.19383L12.6322 1.36264C12.6462 1.295 12.6738 1.23114 12.7132 1.17401C12.7522 1.11729 12.8026 1.06856 12.8607 1.03117C12.9192 0.993777 12.9845 0.96815 13.0531 0.955547C13.1214 0.943363 13.1917 0.944623 13.2595 0.959327L17.4134 1.78275C17.8326 1.06898 18.7125 0.763134 19.4894 1.06058C20.2663 1.35802 20.7106 2.17094 20.5368 2.9784C20.3634 3.78586 19.6234 4.34881 18.7917 4.30638C17.9597 4.26395 17.282 3.62874 17.193 2.80783L13.5647 2.05163L12.4627 7.29466C13.0417 7.30684 13.6194 7.36062 14.1908 7.45514C15.3349 7.64418 16.4456 7.99594 17.4884 8.49955C18.0092 8.75077 18.5111 9.03888 18.9901 9.36162C19.3345 9.03385 19.7673 8.81192 20.2363 8.72263C20.7052 8.63302 21.1902 8.67986 21.6329 8.85749C22.0756 9.03503 22.457 9.33574 22.7311 9.72334C23.0053 10.111 23.1604 10.569 23.1778 11.0421ZM6.35236 13.3657C6.43797 13.5695 6.56259 13.7548 6.72026 13.9106C6.87752 14.0669 7.06444 14.1904 7.27001 14.2753C7.47577 14.3596 7.69627 14.403 7.91893 14.403C8.60474 14.403 9.22272 13.9934 9.48552 13.3657C9.74788 12.7377 9.6025 12.0151 9.11761 11.5345C8.63271 11.0538 7.90368 10.9097 7.27001 11.1698C6.63676 11.4303 6.2235 12.0428 6.2235 12.7225C6.2235 12.9431 6.26716 13.1616 6.35236 13.3657ZM16.0629 17.3997C16.1498 17.3157 16.1994 17.201 16.2011 17.0808C16.2028 16.9602 16.1558 16.8443 16.071 16.7582C15.9862 16.672 15.8705 16.6229 15.7493 16.6212C15.6276 16.6195 15.5107 16.6662 15.4127 16.7388C15.1578 16.9201 14.8878 17.0796 14.6057 17.2157C14.3236 17.3518 14.0304 17.4641 13.7292 17.5513C13.4282 17.6383 13.1201 17.7001 12.8086 17.7358C12.4966 17.7715 12.1825 17.7807 11.8693 17.7639C11.5565 17.7778 11.2428 17.7652 10.9321 17.7265C10.6214 17.6883 10.3145 17.6236 10.0149 17.5333C9.71482 17.4434 9.42363 17.3283 9.14346 17.1896C8.86329 17.051 8.59541 16.8888 8.34279 16.7052C8.25505 16.6338 8.14358 16.5973 8.02999 16.6027C7.91639 16.6082 7.80916 16.6557 7.72862 16.7351C7.64851 16.8149 7.60062 16.9212 7.59511 17.0338C7.5896 17.1463 7.62647 17.2568 7.69853 17.3438C7.9965 17.5665 8.31312 17.7631 8.645 17.932C8.97688 18.1009 9.32318 18.2407 9.67922 18.3508C10.0353 18.4609 10.4002 18.5403 10.7702 18.5886C11.1403 18.6365 11.5137 18.6529 11.8862 18.6378C12.2588 18.6529 12.6322 18.6365 13.0023 18.5886C13.7434 18.492 14.4623 18.2699 15.1275 17.932C15.4594 17.7631 15.776 17.5665 16.074 17.3438L16.0629 17.3997ZM15.7518 14.5374C15.9816 14.54 16.2096 14.4958 16.422 14.4085C16.6343 14.3207 16.8263 14.1913 16.9865 14.0278C17.1468 13.8644 17.2714 13.6703 17.3536 13.4573C17.4359 13.2446 17.4735 13.0174 17.4642 12.7898C17.4642 12.11 17.051 11.4975 16.4177 11.237C15.784 10.977 15.055 11.1211 14.5701 11.6017C14.0852 12.0823 13.9398 12.8049 14.2022 13.433C14.465 14.0606 15.083 14.4702 15.7688 14.4702L15.7518 14.5374Z" fill="white"/>
</svg>
