<svg width="32" height="32" viewBox="0 0 32 32" fill="none" xmlns="http://www.w3.org/2000/svg">
<path d="M26.5005 9.25013V13.7501C26.5005 13.949 26.4215 14.1398 26.2808 14.2805C26.1402 14.4211 25.9494 14.5001 25.7505 14.5001H21.2505C21.0516 14.5001 20.8608 14.4211 20.7202 14.2805C20.5795 14.1398 20.5005 13.949 20.5005 13.7501C20.5005 13.5512 20.5795 13.3605 20.7202 13.2198C20.8608 13.0792 21.0516 13.0001 21.2505 13.0001H23.8192L21.3264 10.7164L21.303 10.6939C20.2606 9.65184 18.9342 8.94006 17.4896 8.64746C16.045 8.35485 14.5462 8.4944 13.1804 9.04866C11.8146 9.60293 10.6425 10.5473 9.81031 11.7639C8.97817 12.9805 8.52294 14.4153 8.50149 15.8891C8.48005 17.3629 8.89334 18.8103 9.68974 20.0506C10.4861 21.2908 11.6303 22.269 12.9794 22.8627C14.3285 23.4565 15.8226 23.6396 17.2751 23.3891C18.7276 23.1387 20.0741 22.4658 21.1464 21.4545C21.291 21.3178 21.484 21.244 21.6829 21.2496C21.8819 21.2551 22.0705 21.3395 22.2072 21.484C22.344 21.6286 22.4177 21.8216 22.4121 22.0205C22.4066 22.2195 22.3223 22.4081 22.1777 22.5448C20.5103 24.1261 18.2985 25.0053 16.0005 25.0001H15.8767C14.4028 24.9799 12.9563 24.598 11.6645 23.8879C10.3726 23.1777 9.27504 22.1612 8.46811 20.9275C7.66118 19.6938 7.16964 18.2808 7.03668 16.8127C6.90373 15.3446 7.13343 13.8663 7.7056 12.5077C8.27777 11.1492 9.17489 9.95194 10.3181 9.02128C11.4613 8.09063 12.8157 7.45504 14.262 7.17038C15.7084 6.88571 17.2026 6.96069 18.6132 7.38871C20.0239 7.81674 21.3077 8.58471 22.3521 9.62513L25.0005 12.0439V9.25013C25.0005 9.05122 25.0795 8.86046 25.2202 8.7198C25.3608 8.57915 25.5516 8.50013 25.7505 8.50013C25.9494 8.50013 26.1402 8.57915 26.2808 8.7198C26.4215 8.86046 26.5005 9.05122 26.5005 9.25013Z" fill="#87A5A6"/>
</svg>
