<svg width="17" height="18" viewBox="0 0 17 18" fill="none" xmlns="http://www.w3.org/2000/svg">
<path d="M6 0.75H1.5C1.10218 0.75 0.720644 0.908035 0.43934 1.18934C0.158035 1.47064 0 1.85218 0 2.25V6.75C0 7.14782 0.158035 7.52936 0.43934 7.81066C0.720644 8.09196 1.10218 8.25 1.5 8.25H6C6.39782 8.25 6.77936 8.09196 7.06066 7.81066C7.34196 7.52936 7.5 7.14782 7.5 6.75V2.25C7.5 1.85218 7.34196 1.47064 7.06066 1.18934C6.77936 0.908035 6.39782 0.75 6 0.75ZM6 6.75H1.5V2.25H6V6.75ZM6 9.75H1.5C1.10218 9.75 0.720644 9.90804 0.43934 10.1893C0.158035 10.4706 0 10.8522 0 11.25V15.75C0 16.1478 0.158035 16.5294 0.43934 16.8107C0.720644 17.092 1.10218 17.25 1.5 17.25H6C6.39782 17.25 6.77936 17.092 7.06066 16.8107C7.34196 16.5294 7.5 16.1478 7.5 15.75V11.25C7.5 10.8522 7.34196 10.4706 7.06066 10.1893C6.77936 9.90804 6.39782 9.75 6 9.75ZM6 15.75H1.5V11.25H6V15.75ZM15 0.75H10.5C10.1022 0.75 9.72064 0.908035 9.43934 1.18934C9.15804 1.47064 9 1.85218 9 2.25V6.75C9 7.14782 9.15804 7.52936 9.43934 7.81066C9.72064 8.09196 10.1022 8.25 10.5 8.25H15C15.3978 8.25 15.7794 8.09196 16.0607 7.81066C16.342 7.52936 16.5 7.14782 16.5 6.75V2.25C16.5 1.85218 16.342 1.47064 16.0607 1.18934C15.7794 0.908035 15.3978 0.75 15 0.75ZM15 6.75H10.5V2.25H15V6.75ZM9 13.5V10.5C9 10.3011 9.07902 10.1103 9.21967 9.96967C9.36032 9.82902 9.55109 9.75 9.75 9.75C9.94891 9.75 10.1397 9.82902 10.2803 9.96967C10.421 10.1103 10.5 10.3011 10.5 10.5V13.5C10.5 13.6989 10.421 13.8897 10.2803 14.0303C10.1397 14.171 9.94891 14.25 9.75 14.25C9.55109 14.25 9.36032 14.171 9.21967 14.0303C9.07902 13.8897 9 13.6989 9 13.5ZM16.5 12C16.5 12.1989 16.421 12.3897 16.2803 12.5303C16.1397 12.671 15.9489 12.75 15.75 12.75H13.5V16.5C13.5 16.6989 13.421 16.8897 13.2803 17.0303C13.1397 17.171 12.9489 17.25 12.75 17.25H9.75C9.55109 17.25 9.36032 17.171 9.21967 17.0303C9.07902 16.8897 9 16.6989 9 16.5C9 16.3011 9.07902 16.1103 9.21967 15.9697C9.36032 15.829 9.55109 15.75 9.75 15.75H12V10.5C12 10.3011 12.079 10.1103 12.2197 9.96967C12.3603 9.82902 12.5511 9.75 12.75 9.75C12.9489 9.75 13.1397 9.82902 13.2803 9.96967C13.421 10.1103 13.5 10.3011 13.5 10.5V11.25H15.75C15.9489 11.25 16.1397 11.329 16.2803 11.4697C16.421 11.6103 16.5 11.8011 16.5 12ZM16.5 15V16.5C16.5 16.6989 16.421 16.8897 16.2803 17.0303C16.1397 17.171 15.9489 17.25 15.75 17.25C15.5511 17.25 15.3603 17.171 15.2197 17.0303C15.079 16.8897 15 16.6989 15 16.5V15C15 14.8011 15.079 14.6103 15.2197 14.4697C15.3603 14.329 15.5511 14.25 15.75 14.25C15.9489 14.25 16.1397 14.329 16.2803 14.4697C16.421 14.6103 16.5 14.8011 16.5 15Z" fill="#618889"/>
</svg>
