<svg width="24" height="21" viewBox="0 0 24 21" fill="none" xmlns="http://www.w3.org/2000/svg">
<path fill-rule="evenodd" clip-rule="evenodd" d="M0.46875 15.7941V5.20588C0.46875 3.9578 0.964547 2.76085 1.84707 1.87832C2.72959 0.995797 3.92655 0.5 5.17463 0.5H9.08875C9.96768 0.499684 10.8151 0.827327 11.4652 1.41882L9.88051 3.16C9.66403 2.96264 9.3817 2.85315 9.08875 2.85294H5.17463C4.55059 2.85294 3.95211 3.10084 3.51085 3.5421C3.06959 3.98336 2.82169 4.58184 2.82169 5.20588V15.7941C2.82169 16.4182 3.06959 17.0166 3.51085 17.4579C3.95211 17.8992 4.55059 18.1471 5.17463 18.1471H19.2923C19.9163 18.1471 20.5148 17.8992 20.9561 17.4579C21.3973 17.0166 21.6452 16.4182 21.6452 15.7941V8.26471C21.6452 7.64067 21.3973 7.04219 20.9561 6.60093C20.5148 6.15966 19.9163 5.91177 19.2923 5.91177H13.8158C13.2306 5.9117 12.6665 5.69359 12.2335 5.3L9.88051 3.16L11.4652 1.41882L13.8158 3.55882H19.2923C20.5404 3.55882 21.7373 4.05462 22.6198 4.93715C23.5024 5.81967 23.9982 7.01663 23.9982 8.26471V15.7941C23.9982 17.0422 23.5024 18.2392 22.6198 19.1217C21.7373 20.0042 20.5404 20.5 19.2923 20.5H5.17463C3.92655 20.5 2.72959 20.0042 1.84707 19.1217C0.964547 18.2392 0.46875 17.0422 0.46875 15.7941Z" fill="#6B6B6B"/>
</svg>
