<svg width="25" height="23" viewBox="0 0 25 23" fill="none" xmlns="http://www.w3.org/2000/svg">
<path d="M7.75 5.25H4C3.33696 5.25 2.70107 5.51339 2.23223 5.98223C1.76339 6.45107 1.5 7.08696 1.5 7.75V19C1.5 19.663 1.76339 20.2989 2.23223 20.7678C2.70107 21.2366 3.33696 21.5 4 21.5H21.5C22.163 21.5 22.7989 21.2366 23.2678 20.7678C23.7366 20.2989 24 19.663 24 19V7.75C24 7.08696 23.7366 6.45107 23.2678 5.98223C22.7989 5.51339 22.163 5.25 21.5 5.25H17.75M16.5 10.25L12.75 14M12.75 14L9 10.25M12.75 14V1.5" stroke="#6B6B6B" stroke-width="2" stroke-linecap="round" stroke-linejoin="round"/>
</svg>
