<svg width="26" height="21" viewBox="0 0 26 21" fill="none" xmlns="http://www.w3.org/2000/svg">
<path d="M24.9484 3.34544C24.165 3.68286 23.3415 3.91782 22.4981 4.04452C22.8924 3.97686 23.4726 3.26652 23.7035 2.97899C24.0544 2.54529 24.3218 2.05019 24.4921 1.51884C24.4921 1.47937 24.5315 1.42299 24.4921 1.39481C24.4722 1.38395 24.45 1.37826 24.4273 1.37826C24.4047 1.37826 24.3824 1.38395 24.3626 1.39481C23.4468 1.89116 22.4722 2.26999 21.4617 2.52234C21.4265 2.53311 21.389 2.53408 21.3533 2.52514C21.3176 2.5162 21.285 2.49769 21.259 2.4716C21.1803 2.37787 21.0956 2.28935 21.0055 2.20663C20.5934 1.83705 20.1258 1.53457 19.6198 1.31024C18.9369 1.02981 18.1992 0.908361 17.4625 0.955067C16.7477 1.00025 16.0498 1.19215 15.4122 1.51884C14.7844 1.86325 14.2326 2.33116 13.79 2.89443C13.3245 3.47418 12.9884 4.147 12.8043 4.86762C12.6525 5.55308 12.6353 6.26153 12.7536 6.95356C12.7536 7.07195 12.7536 7.08887 12.6522 7.07195C8.63613 6.48 5.34101 5.05366 2.64859 1.9924C2.53031 1.8571 2.46835 1.8571 2.37259 1.9924C1.201 3.77391 1.7699 6.59275 3.23439 7.98526C3.43154 8.1713 3.63431 8.35171 3.84835 8.52084C3.17689 8.47312 2.52183 8.291 1.92198 7.98526C1.80933 7.91197 1.74737 7.95143 1.74173 8.08673C1.72577 8.27432 1.72577 8.46292 1.74173 8.6505C1.85926 9.54949 2.21323 10.4011 2.76744 11.1183C3.32166 11.8354 4.05622 12.3924 4.89603 12.7322C5.10076 12.82 5.31408 12.8861 5.53252 12.9295C4.91091 13.052 4.27338 13.071 3.64558 12.9859C3.51039 12.9577 3.4597 13.031 3.51039 13.1606C4.3384 15.4157 6.13522 16.1035 7.45327 16.4869C7.63351 16.5151 7.81376 16.5151 8.01653 16.5602C8.01653 16.5602 8.01653 16.5602 7.98274 16.594C7.59408 17.3043 6.02257 17.7836 5.30158 18.0316C3.98561 18.5047 2.58253 18.6856 1.18973 18.5616C0.970057 18.5277 0.919362 18.5334 0.863036 18.5616C0.806709 18.5897 0.863036 18.6518 0.924995 18.7081C1.20663 18.8942 1.48826 19.0577 1.78116 19.2155C2.65313 19.6915 3.57497 20.0697 4.52991 20.3431C9.4754 21.7074 15.0405 20.7039 18.7524 17.0112C21.6701 14.1134 22.6953 10.1163 22.6953 6.11355C22.6953 5.96133 22.8812 5.87113 22.9882 5.7922C23.7264 5.21653 24.3771 4.53668 24.9202 3.77391C25.0142 3.66021 25.0625 3.51544 25.0554 3.368C25.0554 3.28343 25.0554 3.30034 24.9484 3.34544Z" fill="white"/>
</svg>
