<svg width="33" height="32" viewBox="0 0 33 32" fill="none" xmlns="http://www.w3.org/2000/svg">
<g clip-path="url(#clip0_4447_15795)">
<path d="M21.8333 21.3325L16.4999 15.9992M16.4999 15.9992L11.1666 21.3325M16.4999 15.9992V27.9992M27.6866 24.5192C28.9871 23.8102 30.0144 22.6883 30.6064 21.3307C31.1985 19.973 31.3216 18.4568 30.9562 17.0214C30.5909 15.586 29.7579 14.3132 28.5888 13.4038C27.4198 12.4943 25.9811 12.0001 24.4999 11.9992H22.8199C22.4164 10.4382 21.6642 8.98894 20.6199 7.76049C19.5756 6.53203 18.2664 5.5563 16.7907 4.90664C15.3151 4.25698 13.7113 3.95031 12.1001 4.00967C10.4889 4.06904 8.91204 4.4929 7.48818 5.24939C6.06433 6.00587 4.8305 7.0753 3.87944 8.37727C2.92839 9.67925 2.28487 11.1799 1.99725 12.7664C1.70964 14.3528 1.78542 15.9839 2.2189 17.5368C2.65238 19.0898 3.43227 20.5243 4.49995 21.7325" stroke="#87A5A6" stroke-width="2.5" stroke-linecap="round" stroke-linejoin="round"/>
</g>
<defs>
<clipPath id="clip0_4447_15795">
<rect width="32" height="32" fill="white" transform="translate(0.5)"/>
</clipPath>
</defs>
</svg>
