<svg width="39" height="39" viewBox="0 0 39 39" fill="none" xmlns="http://www.w3.org/2000/svg">
<path fill-rule="evenodd" clip-rule="evenodd" d="M12.6977 14.0581C12.6977 10.3013 15.7432 7.25581 19.5 7.25581C23.2568 7.25581 26.3023 10.3013 26.3023 14.0581C26.3023 17.815 23.2568 20.8605 19.5 20.8605C15.7432 20.8605 12.6977 17.815 12.6977 14.0581ZM19.5 9.97674C17.2459 9.97674 15.4186 11.804 15.4186 14.0581C15.4186 16.3122 17.2459 18.1395 19.5 18.1395C21.7541 18.1395 23.5814 16.3122 23.5814 14.0581C23.5814 11.804 21.7541 9.97674 19.5 9.97674Z" fill="#618889"/>
<path fill-rule="evenodd" clip-rule="evenodd" d="M0 19.5C0 8.73045 8.73045 0 19.5 0C30.2696 0 39 8.73045 39 19.5C39 30.2696 30.2696 39 19.5 39C8.73045 39 0 30.2696 0 19.5ZM19.5 2.72093C10.2332 2.72093 2.72093 10.2332 2.72093 19.5C2.72093 24.1176 4.58616 28.2995 7.60428 31.3334C7.93151 29.5682 8.57445 27.9038 9.86495 26.5655C11.7953 24.5637 14.882 23.5814 19.4999 23.5814C24.1178 23.5814 27.2045 24.5637 29.1349 26.5655C30.4254 27.9039 31.0683 29.5683 31.3956 31.3335C34.4138 28.2996 36.2791 24.1176 36.2791 19.5C36.2791 10.2332 28.7668 2.72093 19.5 2.72093ZM28.9211 33.3865C28.7363 31.1881 28.2589 29.5771 27.1762 28.4542C25.9981 27.2324 23.8152 26.3023 19.4999 26.3023C15.1846 26.3023 13.0017 27.2324 11.8236 28.4542C10.7409 29.577 10.2635 31.1881 10.0787 33.3864C12.7645 35.2121 16.0077 36.2791 19.5 36.2791C22.9923 36.2791 26.2354 35.2122 28.9211 33.3865Z" fill="#618889"/>
</svg>
