<svg width="90" height="86" viewBox="0 0 90 86" fill="none" xmlns="http://www.w3.org/2000/svg">
<path d="M40.6568 46.2455L34.6555 40.3338C33.8967 39.5732 32.9489 39.1929 31.8121 39.1929C30.6753 39.1929 29.6916 39.6078 28.8611 40.4375C28.1023 41.1981 27.7229 42.1661 27.7229 43.3415C27.7229 44.5169 28.1023 45.4849 28.8611 46.2455L37.7596 55.165C38.5874 55.9947 39.5531 56.4095 40.6568 56.4095C41.7605 56.4095 42.7262 55.9947 43.554 55.165L61.1442 37.5335C61.9719 36.7037 62.3679 35.7357 62.332 34.6294C62.2962 33.5232 61.9002 32.5552 61.1442 31.7254C60.3164 30.8957 59.3341 30.4643 58.1973 30.4311C57.0605 30.3979 56.0768 30.7948 55.2463 31.6217L40.6568 46.2455ZM29.068 83.7902L23.0667 73.6262L11.6848 71.137C10.6501 70.9296 9.82233 70.3944 9.2015 69.5315C8.58067 68.6686 8.33924 67.7172 8.4772 66.6773L9.61539 54.9575L1.85503 46.0381C1.16522 45.2775 0.820312 44.3786 0.820312 43.3415C0.820312 42.3043 1.16522 41.4055 1.85503 40.6449L9.61539 31.7254L8.4772 20.0057C8.33924 18.9685 8.58067 18.0171 9.2015 17.1514C9.82233 16.2858 10.6501 15.7506 11.6848 15.5459L23.0667 13.0568L29.068 2.89274C29.6199 1.99388 30.3787 1.38818 31.3444 1.07566C32.3101 0.76313 33.2759 0.815678 34.2416 1.2333L45.0026 5.79675L55.7637 1.2333C56.7294 0.818444 57.6951 0.765895 58.6609 1.07566C59.6266 1.38542 60.3854 1.99111 60.9372 2.89274L66.9386 13.0568L78.3204 15.5459C79.3551 15.7534 80.1829 16.2899 80.8037 17.1556C81.4246 18.0213 81.666 18.9713 81.528 20.0057L80.3898 31.7254L88.1502 40.6449C88.84 41.4055 89.1849 42.3043 89.1849 43.3415C89.1849 44.3786 88.84 45.2775 88.1502 46.0381L80.3898 54.9575L81.528 66.6773C81.666 67.7144 81.4246 68.6659 80.8037 69.5315C80.1829 70.3972 79.3551 70.9324 78.3204 71.137L66.9386 73.6262L60.9372 83.7902C60.3854 84.6891 59.6266 85.2948 58.6609 85.6073C57.6951 85.9198 56.7294 85.8673 55.7637 85.4497L45.0026 80.8862L34.2416 85.4497C33.2759 85.8645 32.3101 85.9171 31.3444 85.6073C30.3787 85.2976 29.6199 84.6919 29.068 83.7902ZM34.4485 76.3228L45.0026 71.7593L55.7637 76.3228L61.5581 66.3662L72.9399 63.6696L71.9052 52.0535L79.5621 43.3415L71.9052 34.422L72.9399 22.806L61.5581 20.3168L55.5567 10.3602L45.0026 14.9236L34.2416 10.3602L28.4472 20.3168L17.0653 22.806L18.1 34.422L10.4432 43.3415L18.1 52.0535L17.0653 63.877L28.4472 66.3662L34.4485 76.3228Z" fill="#618889"/>
</svg>
