<svg width="23" height="15" viewBox="0 0 23 15" fill="none" xmlns="http://www.w3.org/2000/svg">
<path d="M22.6034 2.34375C22.4838 2.27964 22.3491 2.24919 22.2135 2.25563C22.078 2.26207 21.9467 2.30516 21.8337 2.38031L18.5 4.59844V2.25C18.5 1.85218 18.342 1.47064 18.0607 1.18934C17.7794 0.908035 17.3978 0.75 17 0.75H2C1.60218 0.75 1.22064 0.908035 0.93934 1.18934C0.658035 1.47064 0.5 1.85218 0.5 2.25V12.75C0.5 13.1478 0.658035 13.5294 0.93934 13.8107C1.22064 14.092 1.60218 14.25 2 14.25H17C17.3978 14.25 17.7794 14.092 18.0607 13.8107C18.342 13.5294 18.5 13.1478 18.5 12.75V10.4062L21.8337 12.6291C21.9576 12.7095 22.1024 12.7515 22.25 12.75C22.4489 12.75 22.6397 12.671 22.7803 12.5303C22.921 12.3897 23 12.1989 23 12V3C22.9991 2.86506 22.9617 2.73287 22.8919 2.61737C22.8221 2.50187 22.7225 2.40734 22.6034 2.34375ZM17 12.75H2V2.25H17V12.75ZM21.5 10.5984L18.5 8.59875V6.40125L21.5 4.40625V10.5984Z" fill="white"/>
</svg>
