<svg width="25" height="25" viewBox="0 0 25 25" fill="none" xmlns="http://www.w3.org/2000/svg">
<path d="M0.0820312 24.5678L1.82089 18.1132C0.418544 15.5989 -0.0269955 12.6648 0.56603 9.84945C1.15906 7.0341 2.75087 4.52632 5.04937 2.78628C7.34787 1.04625 10.1989 0.190671 13.0792 0.376559C15.9596 0.562448 18.6761 1.77733 20.7302 3.79827C22.7843 5.81921 24.0384 8.51066 24.2621 11.3787C24.4859 14.2468 23.6644 17.0991 21.9484 19.4122C20.2324 21.7253 17.737 23.3441 14.9201 23.9715C12.1032 24.599 9.15379 24.1929 6.61303 22.8279L0.0820312 24.5678ZM6.92794 20.4126L7.33185 20.6514C9.17217 21.7385 11.3216 22.1884 13.4453 21.9309C15.5689 21.6734 17.5475 20.723 19.0726 19.2278C20.5977 17.7326 21.5837 15.7766 21.8769 13.6645C22.1701 11.5525 21.7541 9.40315 20.6937 7.55137C19.6333 5.69959 17.9881 4.24942 16.0144 3.42686C14.0407 2.6043 11.8494 2.45554 9.78203 3.00378C7.71465 3.55201 5.88731 4.76644 4.58475 6.45781C3.2822 8.14919 2.57761 10.2225 2.58079 12.3546C2.57906 14.1225 3.06963 15.8562 3.99789 17.3627L4.25119 17.7789L3.27907 21.3814L6.92794 20.4126Z" fill="white"/>
<path fill-rule="evenodd" clip-rule="evenodd" d="M16.8143 14.1426C16.5673 13.9585 16.2781 13.8289 15.9687 13.7637C15.6594 13.6986 15.338 13.6995 15.029 13.7664C14.5649 13.9446 14.265 14.6176 13.9651 14.9542C13.9018 15.0348 13.8089 15.0914 13.7037 15.1133C13.5985 15.1352 13.4883 15.1208 13.3938 15.0729C11.6945 14.4579 10.2701 13.3301 9.35203 11.8727C9.27372 11.7817 9.23666 11.6662 9.24865 11.5505C9.26064 11.4348 9.32074 11.328 9.4163 11.2524C9.7508 10.9464 9.99641 10.5674 10.1304 10.1504C10.1601 9.69053 10.0461 9.23242 9.8019 8.83074C9.61311 8.26759 9.25382 7.76615 8.76647 7.38566C8.51511 7.2812 8.23641 7.24617 7.96399 7.28481C7.69157 7.32345 7.43706 7.4341 7.23118 7.60341C6.87375 7.88836 6.59005 8.24377 6.40097 8.64346C6.21189 9.04315 6.12224 9.47695 6.13862 9.9129C6.13972 10.1577 6.1733 10.4015 6.23859 10.6387C6.40441 11.2088 6.65941 11.7534 6.99553 12.2554C7.23803 12.6399 7.50262 13.0121 7.78817 13.3705C8.71616 14.5477 9.88267 15.5472 11.2229 16.3135C11.8955 16.7029 12.6143 17.0195 13.3652 17.2571C14.1452 17.5838 15.0064 17.7092 15.8574 17.62C16.3422 17.5522 16.8016 17.3753 17.1951 17.1049C17.5886 16.8345 17.9041 16.4789 18.1139 16.0693C18.2372 15.8219 18.2746 15.5453 18.221 15.2775C18.0925 14.7298 17.2999 14.4065 16.8143 14.1426Z" fill="white"/>
</svg>
