<svg width="10" height="10" viewBox="0 0 10 10" fill="none" xmlns="http://www.w3.org/2000/svg">
<path d="M9.65563 2.44106L7.56078 0.346684C7.49114 0.277022 7.40845 0.221762 7.31745 0.18406C7.22644 0.146358 7.1289 0.126953 7.03039 0.126953C6.93189 0.126953 6.83435 0.146358 6.74334 0.18406C6.65234 0.221762 6.56965 0.277022 6.5 0.346684L0.719847 6.12684C0.6499 6.19623 0.594444 6.27884 0.556703 6.36985C0.518962 6.46086 0.499689 6.55847 0.500004 6.657V8.75184C0.500004 8.95075 0.579021 9.14152 0.719674 9.28217C0.860326 9.42282 1.05109 9.50184 1.25 9.50184H9.125C9.22446 9.50184 9.31984 9.46233 9.39017 9.39201C9.46049 9.32168 9.5 9.2263 9.5 9.12684C9.5 9.02738 9.46049 8.932 9.39017 8.86168C9.31984 8.79135 9.22446 8.75184 9.125 8.75184H4.40563L9.65563 3.50184C9.72529 3.43219 9.78055 3.34951 9.81825 3.2585C9.85595 3.1675 9.87536 3.06996 9.87536 2.97145C9.87536 2.87294 9.85595 2.7754 9.81825 2.6844C9.78055 2.59339 9.72529 2.5107 9.65563 2.44106ZM3.34485 8.75184H1.25V6.657L5.375 2.532L7.46985 4.62684L3.34485 8.75184ZM8 4.09668L5.90563 2.00184L7.03063 0.87684L9.125 2.97168L8 4.09668Z" fill="white"/>
</svg>
