<svg width="12" height="12" viewBox="0 0 12 12" fill="none" xmlns="http://www.w3.org/2000/svg">
<rect x="0.2" y="0.2" width="11.6" height="11.6" rx="5.8" stroke="white" stroke-width="0.4"/>
<path d="M10.0164 9.28036C9.4215 8.25184 8.5047 7.51434 7.43478 7.16473C7.96401 6.84968 8.37519 6.36961 8.60518 5.79825C8.83516 5.22689 8.87123 4.59583 8.70785 4.00198C8.54447 3.40814 8.19067 2.88434 7.70079 2.51103C7.2109 2.13773 6.61202 1.93555 5.99611 1.93555C5.3802 1.93555 4.78132 2.13773 4.29143 2.51103C3.80155 2.88434 3.44775 3.40814 3.28437 4.00198C3.12099 4.59583 3.15706 5.22689 3.38704 5.79825C3.61702 6.36961 4.0282 6.84968 4.55744 7.16473C3.48751 7.51395 2.57072 8.25145 1.9758 9.28036C1.95398 9.31593 1.93951 9.35552 1.93324 9.39677C1.92697 9.43803 1.92902 9.48012 1.93928 9.52057C1.94954 9.56102 1.9678 9.59901 1.99298 9.63229C2.01816 9.66557 2.04975 9.69346 2.08588 9.71434C2.12202 9.73521 2.16197 9.74863 2.20338 9.75382C2.24478 9.759 2.28681 9.75584 2.32698 9.74451C2.36714 9.73319 2.40463 9.71394 2.43724 9.68789C2.46984 9.66185 2.4969 9.62953 2.51681 9.59286C3.25275 8.32098 4.55353 7.56161 5.99611 7.56161C7.43869 7.56161 8.73947 8.32098 9.47541 9.59286C9.49532 9.62953 9.52238 9.66185 9.55498 9.68789C9.58758 9.71394 9.62507 9.73319 9.66524 9.74451C9.70541 9.75584 9.74743 9.759 9.78884 9.75382C9.83025 9.74863 9.8702 9.73521 9.90633 9.71434C9.94247 9.69346 9.97406 9.66557 9.99924 9.63229C10.0244 9.59901 10.0427 9.56102 10.0529 9.52057C10.0632 9.48012 10.0653 9.43803 10.059 9.39677C10.0527 9.35552 10.0382 9.31593 10.0164 9.28036ZM3.80861 4.74911C3.80861 4.31646 3.9369 3.89353 4.17727 3.5338C4.41763 3.17407 4.75927 2.89369 5.15899 2.72812C5.5587 2.56256 5.99854 2.51924 6.42287 2.60364C6.8472 2.68805 7.23698 2.89639 7.5429 3.20231C7.84883 3.50824 8.05717 3.89802 8.14158 4.32235C8.22598 4.74668 8.18266 5.18652 8.01709 5.58623C7.85153 5.98594 7.57115 6.32758 7.21142 6.56795C6.85169 6.80832 6.42875 6.93661 5.99611 6.93661C5.41614 6.93599 4.8601 6.70532 4.45 6.29522C4.0399 5.88512 3.80923 5.32908 3.80861 4.74911Z" fill="white"/>
</svg>
