<svg width="332" height="296" viewBox="0 0 332 296" fill="none" xmlns="http://www.w3.org/2000/svg">
<path d="M15.8508 165.918C15.5957 163.009 15.3989 160.096 15.2422 157.189" stroke="black" stroke-width="3" stroke-miterlimit="10"/>
<path d="M200.312 270.576H107.734" stroke="#CCDDE2" stroke-width="3" stroke-miterlimit="10"/>
<path d="M227.344 62.5393C227.344 62.5393 254.627 50.9826 277.773 73.5305C285.335 80.8993 290.496 90.6776 290.86 100.766C291.026 105.689 290.141 110.595 288.254 115.22C286.334 119.94 282.886 123.066 280.237 127.27C276.173 133.753 284.668 134.9 289.228 138.042C292.258 140.148 295.132 142.428 297.832 144.868C303.918 150.32 309.273 156.391 313.788 162.957C322.729 176.036 328.113 190.819 329.503 206.111C330.877 221.189 329.824 237.561 321.205 250.955C317.057 257.405 310.81 263.731 303.128 266.739C292.923 270.73 281.461 270.58 270.557 270.58H247.352" stroke="#CCDDE2" stroke-width="3" stroke-miterlimit="10"/>
<path d="M113.615 213.202C112.7 219.041 111.337 225.74 109.832 232.445L108.057 232.899C102.377 234.331 96.3448 234.172 90.7676 232.445L93.0928 225.357L78.9375 188.415C78.9375 188.415 89.7581 185.276 98.6434 182.945L99.6638 182.906C104.518 183.825 114.523 187.274 114.836 200.191C114.858 200.812 114.836 201.466 114.836 202.178C116.246 206.347 115.685 210.021 113.615 213.202Z" fill="#6C9295"/>
<path d="M80.2991 72.579C80.1595 72.2602 79.8865 72.0036 79.5385 71.8637C79.1901 71.7234 78.7946 71.7117 78.4367 71.8303C78.2363 71.8846 78.0508 71.9771 77.8937 72.1017C77.3325 72.5103 77.2049 73.2263 77.1867 73.9063C77.1357 75.4592 77.0373 77.0153 76.9097 78.5617C76.9097 78.6663 76.8915 78.784 76.8915 78.8886C76.8113 80.1342 76.8696 81.6446 76.2792 82.7299C76.2413 82.8127 76.1768 82.8833 76.0933 82.9326C75.8965 83.0144 75.6888 82.8378 75.5612 82.6776C75.1968 82.2003 74.8323 81.7328 74.4679 81.2457C74.18 80.8567 73.8556 80.435 73.3527 80.3107C72.6055 80.1244 71.8948 80.7161 71.483 81.3176C70.1528 83.2792 70.0252 86.4928 72.0844 88.1373C74.1435 89.7817 69.5332 93.0149 66.2313 94.3749C65.6784 94.6538 65.0993 94.8879 64.5001 95.0746C64.471 95.0746 65.6919 95.3198 65.6627 95.3296C63.0933 96.1318 60.4168 96.6255 57.7031 96.7974C54.4814 96.9903 51.3398 96.6275 49.0547 95.3721C49.1531 95.0451 49.933 92.7567 49.9804 92.4298C50.148 91.2888 50.2683 90.1576 50.3448 89.0101C50.4833 86.8557 50.4724 84.698 50.3813 82.5501C50.0496 74.8217 51.584 68.329 55.141 67.3384C55.422 67.2629 55.6913 67.1563 55.9428 67.0213C57.5464 66.2269 58.4029 64.5498 57.6667 62.9675C57.6156 62.8596 57.5573 62.755 57.5063 62.6405C57.4487 62.5277 57.3831 62.4186 57.3095 62.3136C64.2559 60.3782 68.9719 61.7219 73.739 64.0626C74.6461 64.7129 75.4989 65.422 76.2901 66.1844C78.1561 68.0014 79.5283 70.181 80.2991 72.5528V72.579Z" fill="#6C9295"/>
<path d="M247.277 146.885H223.588V96.0946C223.588 96.0946 219.214 140.226 207.231 165.229H133.863C142.512 160.299 149.447 152.852 154.065 144.836C155.887 141.664 158.803 136.957 163.65 138.192C164.802 138.483 166.496 138.67 167.353 137.725C167.648 137.362 167.816 136.929 167.834 136.479C168.249 131.85 162.899 127.953 158.489 126.724C154.079 125.495 148.926 126.07 145.416 128.944C142.887 131.02 141.302 133.776 139.45 136.329C138.339 137.842 137.022 139.225 135.529 140.445C137.431 130.082 139.126 120.176 139.37 116.531C144.01 113.245 147.417 107.887 148.627 103.146C149.957 97.9679 151.131 92.9038 153.197 88.0556L170.112 88.1079C170.749 88.1079 171.359 87.881 171.81 87.4769C172.26 87.0728 172.513 86.5249 172.513 85.9534V60.7542C172.514 60.188 172.265 59.6446 171.821 59.2425C171.376 58.8407 170.772 58.6132 170.141 58.6096L158.624 58.5213C162.809 57.7367 167.054 57.2287 171.322 57.0011C171.409 57.0011 171.489 57.0011 171.566 57.0011C174.376 56.8344 179.299 56.7625 182.135 56.7363C178.756 58.3709 176.668 61.8429 177.033 64.9094C177.097 65.5626 177.283 66.2014 177.583 66.799C180.469 72.4875 188.072 74.1679 194.348 72.5136C201.331 70.6861 206.462 64.9257 206.156 58.299C210.529 58.8744 214.859 59.6044 219.145 60.4894C225.658 61.8331 232.01 63.6442 237.16 67.5934C241.65 71.0229 245.455 75.4396 247.215 80.4317C254.774 101.777 252.448 125.596 247.277 146.885Z" fill="#2E2E2E"/>
<path d="M139.561 116.529C139.029 124.33 137.659 132.124 136.172 139.898" stroke="black" stroke-width="3" stroke-miterlimit="10"/>
<path d="M153.383 88.054C151.313 92.9023 150.143 97.9663 148.813 103.145C147.592 107.869 144.191 113.243 139.556 116.529C135.663 119.285 130.896 120.583 125.794 118.844C118.949 116.503 116.548 109.736 115.709 103.769C114.62 96.3399 114.554 88.8187 115.513 81.375C116.478 83.3006 120.425 89.159 132.667 87.6192C132.996 87.8396 133.391 87.9661 133.801 87.9821L153.383 88.054Z" fill="#2E2E2E"/>
<path d="M146.513 71.2933C149.363 70.6395 151.098 73.0979 150.675 74.9679C149.986 78.0181 145.095 79.2179 142.183 79.2735C139.851 79.316 134.166 78.7635 131.848 78.5216" stroke="black" stroke-width="3" stroke-miterlimit="10"/>
<path d="M130.888 72.8036C134.414 73.7177 138.148 73.7729 141.705 72.9638C144.697 72.274 148.233 71.0023 149.8 68.449C150.715 66.9648 149.986 64.5978 148.076 64.0748C145.871 63.4765 143.83 65.4446 141.833 65.9415C140.545 66.2563 139.229 66.475 137.9 66.5953C137.536 66.6313 137.193 66.6574 136.84 66.6836C134.98 66.8173 133.11 66.8052 131.253 66.6476C131.055 66.6476 130.863 66.5917 130.703 66.4881C130.542 66.3841 130.422 66.2377 130.36 66.0693C130.298 65.9013 130.297 65.7195 130.356 65.5505C130.416 65.3815 130.533 65.2334 130.692 65.1275L131.027 64.9084" stroke="black" stroke-width="3" stroke-miterlimit="10"/>
<path d="M153.385 88.0552C151.315 92.9034 150.146 97.9675 148.815 103.146C146.57 111.839 136.996 122.67 125.797 118.838C118.952 116.497 116.55 109.73 115.712 103.764C114.4 94.525 114.509 85.0344 116.441 75.874C118.045 68.3286 120.891 60.404 129.077 56.6934L132.918 54.9706C133.834 54.5554 134.895 54.4782 135.874 54.7554C136.853 55.033 137.671 55.643 138.155 56.4548C138.45 56.9596 138.606 57.5199 138.611 58.0894C138.614 58.1728 138.607 58.2561 138.589 58.3379" stroke="black" stroke-width="3" stroke-miterlimit="10"/>
<path d="M231.414 158.972C233.393 158.917 235.374 158.962 237.347 159.106C238.958 159.224 240.627 159.292 242.162 159.832C243.426 160.283 244.746 161.358 244.68 162.673C244.56 165.249 240.799 165.229 238.736 165.229" stroke="black" stroke-width="3" stroke-miterlimit="10"/>
<path opacity="0.54" d="M196.011 156.517L213.162 117.099C213.375 116.335 213.39 115.538 213.207 114.768C213.024 113.998 212.647 113.276 212.106 112.656C211.565 112.036 210.873 111.535 210.084 111.191C209.294 110.848 208.427 110.67 207.55 110.672H139.441C137.914 110.675 136.434 111.139 135.236 111.988C134.038 112.837 133.194 114.022 132.837 115.354L114.039 154.761C113.835 155.522 113.826 156.314 114.012 157.078C114.199 157.843 114.577 158.559 115.117 159.173C115.656 159.788 116.345 160.285 117.13 160.627C117.914 160.968 118.775 161.145 119.648 161.146H189.404C190.923 161.145 192.398 160.689 193.595 159.85C194.792 159.012 195.642 157.838 196.011 156.517Z" fill="white"/>
<path d="M196.011 156.517L213.162 117.099C213.375 116.335 213.39 115.538 213.207 114.768C213.024 113.998 212.647 113.276 212.106 112.656C211.565 112.036 210.873 111.535 210.084 111.191C209.294 110.848 208.427 110.67 207.55 110.672H139.441C137.914 110.675 136.434 111.139 135.236 111.988C134.038 112.837 133.194 114.022 132.837 115.354L114.039 154.761C113.835 155.522 113.826 156.314 114.012 157.078C114.199 157.843 114.577 158.559 115.117 159.173C115.656 159.788 116.345 160.285 117.13 160.627C117.914 160.968 118.775 161.145 119.648 161.146H189.404C190.923 161.145 192.398 160.689 193.595 159.85C194.792 159.012 195.642 157.838 196.011 156.517Z" fill="#6C9295"/>
<path d="M196.011 156.517L213.162 117.099C213.375 116.335 213.39 115.538 213.207 114.768C213.024 113.998 212.647 113.276 212.106 112.656C211.565 112.036 210.873 111.535 210.084 111.191C209.294 110.848 208.427 110.67 207.55 110.672H139.441C137.914 110.675 136.434 111.139 135.236 111.988C134.038 112.837 133.194 114.022 132.837 115.354L114.039 154.761C113.835 155.522 113.826 156.314 114.012 157.078C114.199 157.843 114.577 158.559 115.117 159.173C115.656 159.788 116.345 160.285 117.13 160.627C117.914 160.968 118.775 161.145 119.648 161.146H189.404C190.923 161.145 192.398 160.689 193.595 159.85C194.792 159.012 195.642 157.838 196.011 156.517Z" stroke="black" stroke-width="3" stroke-linecap="square" stroke-linejoin="round"/>
<path d="M193.501 154.919L209.325 118.555C209.521 117.852 209.536 117.117 209.368 116.407C209.2 115.697 208.854 115.031 208.356 114.46C207.858 113.888 207.222 113.426 206.495 113.108C205.768 112.79 204.97 112.625 204.161 112.625H141.311C139.9 112.625 138.53 113.05 137.422 113.834C136.314 114.618 135.532 115.713 135.203 116.944L117.895 153.301C117.709 154.002 117.702 154.733 117.875 155.437C118.048 156.141 118.396 156.801 118.894 157.367C119.392 157.934 120.027 158.391 120.75 158.706C121.473 159.021 122.267 159.185 123.071 159.185H187.407C188.808 159.186 190.169 158.767 191.273 157.994C192.377 157.221 193.161 156.138 193.501 154.919Z" fill="#6C9295"/>
<path d="M145.845 119.33C146.679 118.209 148.031 117.695 148.891 118.215C149.752 118.735 149.752 120.043 148.921 121.158C148.789 121.329 148.643 121.491 148.483 121.641L154.657 133.335C155.641 132.747 156.724 132.6 157.503 133.064C157.753 133.228 157.96 133.438 158.11 133.681C158.26 133.924 158.349 134.193 158.371 134.47L162.591 133.195L166.279 132.08L167.482 131.727C167.634 131.321 167.845 130.934 168.109 130.576C169.279 128.997 171.192 128.288 172.384 129.007C173.576 129.726 173.59 131.541 172.453 133.107L179.487 141.721C181.022 140.593 182.826 140.243 184.076 140.989C185.778 142.005 185.803 144.657 184.134 146.906C184.065 146.998 183.988 147.069 183.919 147.154L188.598 152.895L188.642 152.951C188.881 153.275 188.967 153.671 188.881 154.051C188.795 154.432 188.544 154.767 188.183 154.981C187.822 155.196 187.381 155.273 186.956 155.195C186.532 155.118 186.159 154.893 185.92 154.569L181.765 148.943C180.449 149.626 179.05 149.757 178.026 149.145C176.4 148.165 176.32 145.719 177.771 143.539L171.039 134.424C170.044 135.029 168.947 135.183 168.16 134.715C167.723 134.437 167.424 134.015 167.329 133.541L166.826 133.666L163.076 134.584L158.272 135.748C158.123 136.264 157.876 136.754 157.544 137.196C156.374 138.772 154.46 139.485 153.269 138.766C152.077 138.046 152.059 136.199 153.228 134.62C153.4 134.388 153.593 134.17 153.804 133.966L147.926 122.053C147.219 122.488 146.435 122.599 145.874 122.263C145.028 121.759 145.014 120.438 145.845 119.33Z" fill="#D7E8F0"/>
<path d="M190.57 119.956H199.682C200.098 119.956 200.505 119.847 200.854 119.642C201.203 119.438 201.478 119.148 201.646 118.806C201.696 118.702 201.723 118.591 201.726 118.479C201.725 118.256 201.626 118.042 201.45 117.884C201.273 117.727 201.034 117.638 200.786 117.638H191.102C191.558 118.322 191.328 119.28 190.57 119.956Z" fill="#D7E8F0"/>
<path d="M184.68 119.118C184.681 119.34 184.78 119.553 184.955 119.71C185.131 119.867 185.369 119.955 185.616 119.955H190.569C191.327 119.279 191.557 118.321 191.101 117.631H186.728C186.312 117.631 185.905 117.739 185.556 117.943C185.207 118.146 184.932 118.437 184.764 118.778C184.71 118.885 184.681 119.001 184.68 119.118Z" fill="#6C9295"/>
<path d="M186.955 119.957C186.981 120.002 187.011 120.044 187.046 120.085C187.694 120.882 189.105 120.957 190.198 120.242C190.328 120.156 190.45 120.06 190.563 119.957C191.321 119.28 191.55 118.322 191.095 117.633C191.071 117.588 191.042 117.545 191.007 117.505C190.362 116.704 188.952 116.636 187.858 117.345C187.729 117.433 187.607 117.529 187.494 117.633C186.736 118.313 186.506 119.264 186.955 119.957Z" fill="white"/>
<path d="M182.403 124.249C182.404 124.472 182.504 124.685 182.681 124.841C182.857 124.998 183.095 125.086 183.343 125.086H192.902C192.44 124.393 192.669 123.452 193.427 122.762H184.436C184.019 122.762 183.611 122.871 183.262 123.075C182.912 123.28 182.637 123.57 182.468 123.912C182.422 124.02 182.4 124.134 182.403 124.249Z" fill="#6C9295"/>
<path d="M192.891 125.087H197.388C197.804 125.087 198.211 124.979 198.559 124.776C198.908 124.572 199.184 124.283 199.353 123.943C199.404 123.84 199.432 123.728 199.436 123.616C199.437 123.505 199.413 123.396 199.366 123.294C199.319 123.192 199.25 123.099 199.163 123.021C199.076 122.942 198.972 122.881 198.859 122.838C198.745 122.796 198.623 122.775 198.5 122.775H193.416C192.658 123.442 192.428 124.394 192.891 125.087Z" fill="#D7E8F0"/>
<path d="M192.891 125.086C192.912 125.131 192.939 125.174 192.971 125.213C193.616 126.014 195.027 126.086 196.12 125.374C196.25 125.286 196.371 125.189 196.485 125.086C197.235 124.406 197.465 123.451 197.017 122.761C196.99 122.717 196.961 122.675 196.929 122.634C196.277 121.836 194.867 121.764 193.773 122.48C193.644 122.565 193.522 122.659 193.409 122.761C192.658 123.441 192.428 124.393 192.891 125.086Z" fill="white"/>
<path d="M189.691 130.181H195.413C195.83 130.18 196.237 130.071 196.586 129.868C196.936 129.664 197.212 129.374 197.381 129.033C197.431 128.93 197.459 128.819 197.462 128.706C197.462 128.482 197.362 128.267 197.186 128.108C197.01 127.95 196.771 127.86 196.521 127.859H190.234C190.686 128.549 190.453 129.501 189.691 130.181Z" fill="#6C9295"/>
<path d="M180.43 129.346C180.43 129.456 180.455 129.564 180.502 129.666C180.55 129.767 180.618 129.859 180.706 129.937C180.793 130.014 180.896 130.075 181.009 130.117C181.122 130.159 181.244 130.18 181.366 130.179H189.694C190.445 129.499 190.678 128.545 190.226 127.852H182.478C182.061 127.851 181.652 127.96 181.303 128.165C180.954 128.37 180.68 128.662 180.514 129.006C180.46 129.113 180.431 129.229 180.43 129.346Z" fill="#D7E8F0"/>
<path d="M186.088 130.179C186.115 130.224 186.145 130.266 186.179 130.307C186.824 131.108 188.231 131.176 189.328 130.464C189.457 130.377 189.58 130.282 189.692 130.179C190.443 129.499 190.676 128.545 190.225 127.851C190.201 127.806 190.171 127.763 190.137 127.724C189.485 126.93 188.078 126.861 186.981 127.57C186.852 127.656 186.731 127.75 186.617 127.851C185.866 128.531 185.632 129.489 186.088 130.179Z" fill="white"/>
<path d="M152.707 154.201H158.433C158.848 154.2 159.255 154.091 159.604 153.888C159.953 153.684 160.228 153.394 160.397 153.053C160.447 152.95 160.474 152.839 160.477 152.726C160.477 152.503 160.378 152.288 160.202 152.13C160.025 151.972 159.786 151.883 159.537 151.883H153.25C153.691 152.569 153.458 153.521 152.707 154.201Z" fill="#6C9295"/>
<path d="M129.984 153.368C129.985 153.478 130.01 153.586 130.057 153.688C130.104 153.789 130.173 153.881 130.26 153.958C130.347 154.036 130.45 154.097 130.563 154.139C130.677 154.18 130.799 154.202 130.921 154.201H152.704C153.455 153.521 153.688 152.567 153.236 151.877H132.033C131.616 151.877 131.208 151.985 130.859 152.189C130.51 152.394 130.235 152.685 130.068 153.028C130.016 153.135 129.988 153.25 129.984 153.368Z" fill="#D7E8F0"/>
<path d="M149.095 154.202C149.122 154.247 149.152 154.29 149.186 154.33C149.831 155.131 151.238 155.199 152.335 154.49C152.464 154.402 152.585 154.306 152.699 154.202C153.45 153.522 153.683 152.568 153.232 151.878C153.208 151.832 153.178 151.79 153.144 151.75C152.492 150.953 151.085 150.884 149.988 151.593C149.858 151.679 149.736 151.775 149.623 151.878C148.876 152.555 148.639 153.512 149.095 154.202Z" fill="white"/>
<path d="M8.62524 166.791C8.62524 166.791 -3.40165 215.525 27.5366 225.706C58.4748 235.886 142.047 226.323 107.315 191.16C72.5828 155.996 8.62524 166.791 8.62524 166.791Z" fill="#2E2E2E"/>
<path d="M158.742 58.5201C162.947 57.7331 167.21 57.2231 171.498 56.9933C171.589 56.9933 171.666 56.9933 171.746 56.9933C174.563 56.8266 179.498 56.7547 182.315 56.7285" stroke="black" stroke-width="3" stroke-miterlimit="10"/>
<path d="M137.905 66.5879C137.876 66.6042 137.857 66.6239 137.828 66.6402" stroke="black" stroke-width="3" stroke-miterlimit="10"/>
<path d="M185.85 46.0963C183.7 47.1098 181.229 46.4232 180.281 44.6971" stroke="black" stroke-width="3" stroke-miterlimit="10"/>
<path d="M173.365 21.4634C173.268 22.9633 173.697 24.4528 174.592 25.7225C175.487 26.9926 176.803 27.9793 178.354 28.5445C178.683 28.0041 179.153 27.5441 179.725 27.2041C182.141 25.8016 181.711 29.5482 188.271 28.5609C197.364 27.1845 199.682 30.0255 199.682 30.0255C199.882 30.274 199.318 31.8955 199.237 32.193C198.873 33.9355 198.509 35.6682 198.177 37.4238C197.963 38.4872 197.747 39.5442 197.528 40.5949C197.694 40.4511 197.869 40.3167 198.053 40.1928C199.547 38.1005 201.738 35.7532 204.125 37.669C204.604 38.0678 204.971 38.5631 205.196 39.114C206.29 41.7784 204.198 43.4915 201.752 44.518C201.107 44.8681 200.421 45.1542 199.708 45.3713C199.828 46.0447 200.327 48.7288 200.327 48.7353C200.378 49.0099 206.45 45.6524 206.956 45.2438C207.872 44.1581 208.578 42.9426 209.045 41.6476C210.933 36.3057 210.612 29.4011 206.811 25.0072C205.867 23.9186 206.497 23.2909 206.771 22.2316C206.784 22.1744 206.778 22.1153 206.753 22.0616C206.728 22.0077 206.686 21.9619 206.631 21.9299C206.577 21.8979 206.514 21.8812 206.449 21.8818C206.384 21.8828 206.321 21.9008 206.268 21.9341C204.219 23.0882 200.513 21.908 200.513 21.908C188.486 15.4283 182.323 19.4365 179.375 19.6391C178.179 19.7127 176.992 19.4096 176.018 18.7826C175.847 19.086 175.587 19.3416 175.266 19.5224C174.945 19.7032 174.575 19.8023 174.196 19.8091L174.079 20.3715C173.99 20.7987 173.737 21.1848 173.365 21.4634Z" fill="#6C9295"/>
<path d="M178.362 28.5578C176.81 27.9929 175.495 27.0063 174.6 25.7362C173.705 24.4661 173.276 22.9766 173.373 21.4767C173.409 20.9006 173.501 20.3285 173.65 19.7669L173.756 19.7865C173.899 19.8156 174.046 19.8254 174.193 19.8159C174.572 19.8094 174.942 19.7103 175.263 19.5295C175.584 19.3487 175.844 19.0928 176.015 18.7894C176.116 18.6207 176.186 18.4386 176.223 18.25L176.784 15.5137C176.784 15.5137 178.606 17.7269 181.522 17.5209C184.438 17.315 190.6 13.3069 202.66 19.7898C202.66 19.7898 205.554 20.7476 207.602 19.5936C207.655 19.5606 207.718 19.5423 207.783 19.5416C207.848 19.541 207.912 19.5576 207.966 19.5897C208.02 19.6217 208.062 19.6675 208.087 19.7211C208.112 19.775 208.118 19.8342 208.105 19.8911C207.832 20.9471 208.014 21.8003 208.958 22.889C212.759 27.2828 213.08 34.1875 211.192 39.5294C210.365 41.7433 208.898 43.7199 206.939 45.2571C206.432 45.6657 200.36 49.0232 200.309 48.7486C200.309 48.7486 199.81 46.058 199.69 45.3846L199.661 45.2309L199.832 45.1851C200.481 45.005 201.117 44.7866 201.734 44.5313C204.18 43.5048 206.283 41.7917 205.178 39.1273C204.954 38.5767 204.586 38.0814 204.107 37.6823C201.72 35.7665 199.53 38.1138 198.035 40.2061C197.746 40.6033 197.509 41.029 197.328 41.4746C197.387 41.1869 197.445 40.9057 197.507 40.618C197.725 39.5653 197.942 38.5084 198.156 37.4469C198.52 35.7011 198.859 33.9684 199.216 32.2161C199.282 31.9186 199.861 30.2971 199.661 30.0486C199.661 30.0486 197.343 27.2076 188.25 28.584C181.69 29.5648 182.12 25.8248 179.703 27.2273C179.132 27.5673 178.661 28.0276 178.333 28.5676C178.231 28.7439 178.141 28.925 178.063 29.1103C178.05 29.1335 178.039 29.1577 178.031 29.1823C177.867 29.5876 177.717 29.9963 177.571 30.3951C176.208 34.2823 175.308 38.4799 175.789 42.5632C176.376 47.5128 180.396 53.3321 186.792 52.8384C188.804 52.6269 190.767 52.1326 192.609 51.3738" stroke="black" stroke-width="3" stroke-miterlimit="10"/>
<path d="M179.063 39.1082C179.689 39.0922 180.179 38.5292 180.157 37.8505C180.136 37.1719 179.612 36.6347 178.986 36.6507C178.36 36.6664 177.87 37.2294 177.891 37.9081C177.913 38.5868 178.437 39.1239 179.063 39.1082Z" fill="black"/>
<path d="M187.625 41.1727C188.251 41.1567 188.741 40.5937 188.72 39.9153C188.698 39.2366 188.174 38.6992 187.548 38.7152C186.922 38.7312 186.433 39.2942 186.454 39.9725C186.475 40.6512 187 41.1887 187.625 41.1727Z" fill="black"/>
<path d="M183.928 41.6241C183.928 41.6241 180.616 42.2779 180.951 40.7545C181.053 40.2771 181.884 35.5891 181.884 35.5891C181.884 35.5891 180.339 32.7971 176.297 33.4477" stroke="black" stroke-width="3" stroke-miterlimit="10"/>
<path d="M185.414 35.173C185.414 35.173 190.666 34.372 192.678 38.1349" stroke="black" stroke-width="3" stroke-miterlimit="10"/>
<path d="M182.372 56.6895C178.235 58.651 176.027 63.3718 177.758 66.7881C180.644 72.4798 188.243 74.1537 194.523 72.5093C201.506 70.6785 206.637 64.905 206.331 58.2848" stroke="black" stroke-width="3" stroke-miterlimit="10"/>
<path d="M207.416 165.226C219.41 140.223 223.765 96.0918 223.765 96.0918V157.664C223.765 158.658 223.983 159.641 224.406 160.559C224.83 161.476 225.451 162.31 226.234 163.012C227.016 163.715 227.946 164.272 228.969 164.651C229.992 165.031 231.088 165.227 232.195 165.226H258.8C259.798 165.24 260.766 164.923 261.518 164.336C262.271 163.749 262.756 162.933 262.878 162.045C262.932 161.556 262.87 161.062 262.698 160.596C262.526 160.129 262.246 159.7 261.878 159.336C261.51 158.973 261.06 158.682 260.559 158.484C260.058 158.285 259.516 158.183 258.968 158.184H248.071C247.636 158.183 247.208 158.093 246.818 157.92C246.428 157.748 246.087 157.498 245.821 157.19C245.556 156.882 245.372 156.523 245.284 156.141C245.197 155.759 245.207 155.365 245.315 154.987C251.876 131.775 255.932 104.53 247.393 80.4191C245.629 75.4433 241.828 71.0103 237.338 67.5841C232.184 63.6349 225.832 61.8237 219.323 60.4834C215.03 59.6007 210.699 58.8703 206.33 58.293C206.317 58.2969 206.303 58.2969 206.29 58.293C206.261 58.293 206.232 58.293 206.214 58.293H206.184H206.144H206.086" stroke="black" stroke-width="3" stroke-miterlimit="10"/>
<path d="M203.58 47.1836L203.099 54.9938C203.053 55.7572 203.32 56.5091 203.85 57.1077C204.38 57.7063 205.135 58.1103 205.974 58.2434H206.084C206.103 58.2388 206.123 58.2388 206.142 58.2434H206.16H206.211" stroke="black" stroke-width="3" stroke-miterlimit="10"/>
<path d="M206.288 58.2786H206.211H206.182H206.16H206.142H206.084H205.974C205.135 58.1455 204.38 57.7414 203.85 57.1428C203.32 56.5439 203.053 55.792 203.099 55.0289L203.58 47.2188" stroke="black" stroke-width="3" stroke-miterlimit="10"/>
<path d="M183.068 52.3522C182.831 52.2672 183.068 61.0745 177.211 64.8995" stroke="black" stroke-width="3" stroke-miterlimit="10"/>
<path d="M104.653 165.229H85.8906" stroke="black" stroke-width="3" stroke-miterlimit="10"/>
<path d="M287.946 165.229H133.863" stroke="black" stroke-width="3" stroke-miterlimit="10"/>
<path d="M50.3821 82.5382C50.5628 85.8356 50.4313 89.1408 49.9884 92.4178C49.4199 96.269 45.451 101.163 44.5909 104.972C43.3627 110.451 45.2214 116.113 47.7726 121.2C50.8558 127.35 55.714 133.535 55.2402 140.577C54.9975 143.644 53.9803 146.621 52.2652 149.283C50.5504 151.945 48.1826 154.222 45.3417 155.942C41.4504 158.278 37.0052 159.767 32.3599 160.29C31.7112 160.359 31.0516 160.415 30.3919 160.431C30.0274 160.431 29.663 160.395 29.2985 160.369C16.9436 159.431 4.27168 150.976 4.30083 139.207C4.30083 131.688 10.6714 125.803 11.7465 118.506C12.4062 114.044 10.9484 109.408 12.2969 105.076C14.4836 98.1586 22.9352 94.3859 26.6381 88.0175C29.3641 83.3163 29.8088 77.8305 31.9663 72.9005C34.9694 66.0352 39.7656 58.189 46.3257 57.5352C48.2292 57.7287 50.0694 58.2671 51.7342 59.1175C55.8014 61.079 56.8365 61.2032 57.6638 62.9523C58.5093 64.7798 57.2483 66.7315 55.1418 67.3167C51.5847 68.3269 50.0504 74.8098 50.3821 82.5382Z" fill="#6C9295"/>
<path d="M53.9531 60.1821C64.6315 57.4066 71.4176 61.4898 76.2721 66.1975C81.1266 70.9052 80.9007 76.2504 80.9007 76.2504" stroke="black" stroke-width="3" stroke-miterlimit="10"/>
<path d="M87.0783 152.256C86.9172 159.739 85.8603 167.186 83.9258 174.467" stroke="black" stroke-width="3" stroke-miterlimit="10"/>
<path d="M113.618 213.2C109.707 219.235 100.432 223.521 89.083 226.189C68.9434 230.923 42.2801 230.554 27.549 225.702C-3.40751 215.525 8.62667 166.79 8.62667 166.79C8.62667 166.79 62.1683 157.751 97.8699 183.137C101.28 185.555 104.446 188.239 107.331 191.156C111.278 195.161 113.702 198.826 114.846 202.173C116.249 206.345 115.688 210.02 113.618 213.2Z" stroke="black" stroke-width="3" stroke-miterlimit="10"/>
<path d="M93.0934 225.367C93.0934 225.367 74.3351 272.075 105.849 284.004C137.363 295.934 -9.87873 297.522 22.6231 284.004C55.1248 270.486 36.4431 228.221 36.4431 228.221" stroke="black" stroke-width="3" stroke-miterlimit="10"/>
<path d="M131.246 66.6378C130.856 65.5687 131.016 61.8516 131.144 59.7528C131.168 59.3565 131.364 58.9842 131.689 58.7151C132.014 58.4461 132.443 58.3009 132.886 58.311L170.326 58.6053C170.957 58.6105 171.561 58.839 172.005 59.2411C172.449 59.6436 172.698 60.1869 172.698 60.7532V85.9557C172.698 86.2384 172.636 86.5186 172.515 86.7798C172.394 87.041 172.217 87.2784 171.993 87.4778C171.77 87.6776 171.504 87.8355 171.213 87.9427C170.921 88.0502 170.608 88.1048 170.293 88.1035L133.808 87.9826C133.279 87.963 132.78 87.7609 132.413 87.4186C132.047 87.076 131.843 86.6196 131.843 86.1453V84.223C134.438 85.3083 139.344 85.6418 139.344 85.6418C141.09 85.5993 143.848 85.4097 145.361 84.6316C146.746 83.9189 148.495 82.8957 148.732 81.346C148.824 80.7468 148.647 80.1394 148.24 79.6565C147.834 79.1736 147.231 78.8549 146.564 78.7699C146.162 78.698 145.747 78.7241 145.361 78.8451" stroke="black" stroke-width="3" stroke-miterlimit="10"/>
<path d="M167.793 136.48C167.775 136.93 167.606 137.364 167.308 137.726C166.452 138.671 164.757 138.484 163.605 138.193C158.762 136.958 155.853 141.665 154.024 144.837C149.402 152.853 142.471 160.3 133.822 165.23C133.261 165.557 132.689 165.864 132.109 166.165C123.658 170.539 112.706 169.725 104.531 165.184L114.984 142.153L116.019 142.895C122.331 147.364 130.101 144.856 135.48 140.446C136.974 139.226 138.291 137.843 139.402 136.33C141.253 133.777 142.839 131.021 145.372 128.945C148.878 126.071 154.009 125.509 158.441 126.725C162.873 127.941 168.194 131.851 167.793 136.48Z" fill="white"/>
<path d="M167.747 134.847C167.747 134.847 166.559 129.205 155.848 133.608" stroke="black" stroke-width="3" stroke-miterlimit="10"/>
<path d="M161.785 128.076C161.785 128.076 155.108 126.16 151.391 130.737" stroke="black" stroke-width="3" stroke-miterlimit="10"/>
<path d="M27.0087 160.38C28.7913 160.522 30.5858 160.496 32.3625 160.301C37.0067 159.77 41.4494 158.279 45.3406 155.943C48.1815 154.223 50.549 151.946 52.2641 149.284C53.9789 146.622 54.9964 143.645 55.2391 140.578C55.7129 133.533 50.8657 127.347 47.7715 121.198C45.2204 116.108 43.3617 110.446 44.5935 104.973C45.45 101.161 49.4116 96.2698 49.9837 92.4154C50.4287 89.1383 50.5629 85.8334 50.3846 82.5358C50.053 74.804 51.5837 68.3149 55.1407 67.3276C57.2473 66.7424 58.5119 64.7874 57.6627 62.9632C56.85 61.2109 55.804 61.1063 51.7331 59.1219C41.1203 53.9434 33.7401 63.5974 29.6656 72.9049C27.5044 77.8382 27.067 83.3174 24.3373 88.0186C20.6345 94.3903 12.1646 98.1532 9.99975 105.084C8.64764 109.412 10.1054 114.051 9.44943 118.507C8.37795 125.801 2.01827 131.682 2.00005 139.208C1.97089 150.974 14.6574 159.435 27.0087 160.38Z" stroke="black" stroke-width="3" stroke-miterlimit="10"/>
<path d="M113.616 213.201C112.701 219.04 111.338 225.739 109.837 232.444C105.58 251.448 100.164 270.566 100.164 270.566" stroke="black" stroke-width="3" stroke-miterlimit="10"/>
<path d="M114.833 202.175C114.851 201.462 114.862 200.808 114.833 200.187C114.508 186.783 103.764 183.579 99.143 182.811C98.4535 182.69 97.7559 182.61 97.0547 182.572" stroke="black" stroke-width="3" stroke-miterlimit="10"/>
<path d="M101.763 264.77C102.357 264.443 103.039 264.264 103.736 264.253C104.433 264.241 105.121 264.396 105.73 264.702C106.338 265.008 106.844 265.454 107.196 265.994C107.548 266.534 107.733 267.149 107.732 267.774C107.732 267.82 107.732 267.876 107.732 267.941C107.674 269.555 107.2 271.136 106.347 272.558C105.494 273.981 104.285 275.207 102.816 276.14L97.75 279.373" stroke="black" stroke-width="3" stroke-miterlimit="10"/>
<path d="M44.2188 109.295C44.9258 109.036 45.6474 108.807 46.3763 108.595C47.9106 106.051 47.6737 100.484 47.528 98.4603L49.0623 95.3578C53.2972 97.692 58.9025 96.8159 64.1032 95.1911C64.8336 94.9622 65.5439 94.6847 66.228 94.3607C69.5299 93.0007 74.1584 89.7838 72.081 88.123C70.0037 86.4622 70.1495 83.2649 71.4797 81.3034C71.8842 80.7018 72.6022 80.1101 73.3493 80.2964C73.8523 80.4207 74.1766 80.8424 74.4646 81.2314C74.829 81.7186 75.1935 82.1861 75.5579 82.6634C75.6855 82.8236 75.8932 82.9903 76.09 82.9184C76.1735 82.8693 76.238 82.7987 76.2759 82.7157C76.9173 81.5322 76.797 79.8355 76.9064 78.5376C77.0339 76.9913 77.1323 75.4351 77.1834 73.8822C77.2125 73.0257 77.4093 72.107 78.4334 71.8063C78.6401 71.735 78.8624 71.7065 79.0832 71.7235C79.3037 71.7405 79.5173 71.8023 79.7076 71.9043C79.8974 72.0067 80.0593 72.1462 80.1799 72.3127C80.3009 72.4794 80.3778 72.6683 80.4051 72.8655C81.1504 76.6228 81.2598 80.4593 80.7295 84.2457C80.2265 88.2112 79.3191 92.4187 76.4836 95.6161C74.8684 97.4606 72.7039 98.8568 70.2406 99.6437C67.8571 100.386 67.9336 102.965 67.9336 105.228V108.984C75.2627 110.318 82.1472 111.926 87.8399 116.503C91.6047 119.591 95.1472 122.889 98.4455 126.38C108.829 137.309 111.074 139.358 116.074 142.892C122.386 147.361 130.16 144.854 135.536 140.444C137.026 139.223 138.341 137.84 139.45 136.328C141.301 133.775 142.887 131.019 145.416 128.943C148.926 126.069 154.057 125.507 158.489 126.723C162.921 127.939 168.249 131.849 167.826 136.478C167.808 136.927 167.641 137.361 167.345 137.724C166.489 138.669 164.794 138.482 163.642 138.191C158.795 136.955 155.89 141.663 154.057 144.834C149.439 152.85 142.504 160.298 133.856 165.228C133.294 165.555 132.726 165.862 132.143 166.163C122.481 171.165 109.528 169.38 101.219 163.008L81.1741 147.744" stroke="black" stroke-width="3" stroke-miterlimit="10"/>
<path d="M46.3789 108.595C46.3789 108.595 55.953 105.941 67.9362 108.994" stroke="black" stroke-width="3" stroke-miterlimit="10"/>
<path d="M131.848 84.2227C131.848 84.2227 131.921 95.338 134.876 99.6175" stroke="black" stroke-width="3" stroke-miterlimit="10"/>
<path d="M141.557 33.346C139.282 36.8277 139.388 39.2993 139.978 43.3106C140.027 43.6522 139.968 43.9991 139.806 44.3116C139.644 44.6242 139.388 44.8893 139.065 45.0766C138.743 45.264 138.368 45.3656 137.984 45.3702C137.6 45.3745 137.223 45.2816 136.895 45.1021C123.775 38.3283 111.497 43.6866 95.8325 40.3683C90.0814 39.1554 82.9127 36.6479 77.9962 32.6104C76.3653 30.4374 75.4946 27.8772 75.4961 25.2579C75.4961 14.2765 92.2208 5.37109 112.841 5.37109C126.06 5.37109 137.671 9.02936 144.312 14.5413C144.312 14.5413 144.312 14.5413 144.33 14.5609C145.996 16.7095 146.905 19.2572 146.939 21.8743C146.939 25.8268 143.674 30.0768 141.557 33.346Z" fill="#D7E8F0"/>
<path d="M146.882 21.8827V22.1606C146.806 26.0085 144.659 29.585 142.111 32.681C140.406 34.7537 138.383 37.0519 138.864 39.5921C139.075 40.7102 139.772 41.7269 139.957 42.8614C140.143 43.9958 139.465 45.3852 138.201 45.4441C137.399 45.48 136.714 44.9667 136.08 44.5254C132.315 41.91 127.424 40.9292 122.668 40.7592C117.912 40.5892 113.163 41.1483 108.403 41.2692C101.544 41.4458 94.576 40.6775 88.2382 38.3269C82.5418 36.1954 77.3484 32.73 73.9298 28.1171C70.5732 23.5696 72.5595 16.9723 76.1384 13.0198C79.4986 9.31245 84.3604 6.93899 89.3498 5.26842C102.765 0.773225 118.079 0.881108 131.313 5.8013C135.241 7.2463 139.032 9.15553 141.984 11.9082C144.863 14.5923 146.857 18.1689 146.882 21.8827Z" stroke="black" stroke-width="3" stroke-miterlimit="10"/>
<path d="M91.8291 26.2571C94.6751 26.2571 96.9825 24.1877 96.9825 21.6344C96.9825 19.0815 94.6751 17.0117 91.8291 17.0117C88.9831 17.0117 86.6758 19.0815 86.6758 21.6344C86.6758 24.1877 88.9831 26.2571 91.8291 26.2571Z" fill="white"/>
<path d="M108.489 26.2571C111.335 26.2571 113.643 24.1877 113.643 21.6344C113.643 19.0815 111.335 17.0117 108.489 17.0117C105.643 17.0117 103.336 19.0815 103.336 21.6344C103.336 24.1877 105.643 26.2571 108.489 26.2571Z" fill="white"/>
<path d="M125.478 26.2571C128.324 26.2571 130.631 24.1877 130.631 21.6344C130.631 19.0815 128.324 17.0117 125.478 17.0117C122.632 17.0117 120.324 19.0815 120.324 21.6344C120.324 24.1877 122.632 26.2571 125.478 26.2571Z" fill="white"/>
<g opacity="0.54">
<path opacity="0.54" d="M224.497 215.445L222.401 242.579C221.443 244.217 220.245 245.734 218.84 247.088C218.687 247.039 218.534 246.986 218.385 246.924C218.104 246.839 217.827 246.738 217.565 246.64C213.319 244.969 210.094 241.857 209.153 238.329C208.304 235.24 209.069 231.902 207.429 228.999C205.429 225.423 199.987 223.18 199.32 219.146C198.694 215.37 202.484 211.908 201.872 208.207C201.143 204.022 195.439 201.541 194.371 197.454C193.704 194.914 194.302 191.998 194.05 189.383C193.773 186.457 193.226 183.557 192.414 180.713C200.858 180.163 209.452 184.338 212.189 190.318C214.423 195.221 213.078 200.933 216.563 205.392C218.465 207.808 221.632 209.616 223.272 212.143C223.778 212.931 224.147 213.785 224.366 214.673C224.366 214.735 224.366 214.798 224.391 214.847C224.391 214.948 224.42 215.02 224.435 215.095C224.471 215.321 224.497 215.445 224.497 215.445Z" fill="#6C9295"/>
<path opacity="0.54" d="M224.516 215.423C224.516 215.423 224.49 215.311 224.461 215.096C224.486 215.182 224.504 215.269 224.516 215.357C224.521 215.367 224.524 215.378 224.524 215.39C224.524 215.401 224.521 215.412 224.516 215.423Z" fill="#6C9295"/>
</g>
<path d="M252.42 204.834C251.327 208.358 245.339 210.499 244.617 214.112C243.979 217.315 247.923 220.304 247.27 223.556C246.574 227.045 240.907 228.974 238.826 232.056C237.131 234.561 237.922 237.441 237.047 240.105C236.034 243.133 232.674 245.836 228.242 247.268C227.965 247.356 227.703 247.441 227.422 247.517C227.269 247.556 227.101 247.605 226.948 247.641C225.491 246.559 223.796 244.653 222.422 242.596L224.507 215.445C226.132 214.21 227.991 213.079 229.284 211.705C230.688 210.225 231.34 208.606 231.755 206.91H231.799V206.723C232.408 204.046 232.463 201.241 233.866 198.7C236.712 193.532 245.645 189.929 254.435 190.403C253.606 192.845 253.038 195.351 252.741 197.89C252.489 200.136 253.109 202.653 252.42 204.834Z" fill="#6C9295"/>
<path d="M231.817 206.699V206.886H231.773L231.817 206.699Z" fill="#6C9295"/>
<path d="M231.809 206.7L231.766 206.886C231.35 208.583 230.698 210.201 229.295 211.682C228.001 213.055 226.142 214.186 224.517 215.422C224.523 215.405 224.523 215.387 224.517 215.37C224.505 215.282 224.487 215.194 224.462 215.108C224.462 215.033 224.433 214.961 224.418 214.86C224.418 214.811 224.418 214.749 224.393 214.687C224.174 213.798 223.805 212.945 223.299 212.156C221.659 209.629 218.492 207.821 216.59 205.405C216.59 205.405 217.45 192.672 224.713 188.798C231.602 185.136 231.809 204.581 231.809 206.7Z" fill="#6C9295"/>
<path d="M231.817 206.699V206.886H231.773L231.817 206.699Z" fill="#6C9295"/>
<path d="M224.508 215.369V215.444C224.508 215.444 224.482 215.333 224.453 215.117C224.478 215.2 224.496 215.284 224.508 215.369Z" fill="#6C9295"/>
<path d="M223.857 215.443C225.475 214.207 227.356 213.06 228.653 211.69C232.297 207.836 230.891 202.909 233.227 198.682C236.07 193.52 245.01 189.92 253.796 190.391C252.962 192.831 252.393 195.339 252.098 197.877C251.836 200.14 252.463 202.654 251.774 204.844C250.655 208.368 244.689 210.507 243.964 214.119C243.318 217.32 247.273 220.308 246.62 223.557C245.924 227.049 240.261 228.978 238.176 232.057C236.474 234.565 237.272 237.438 236.39 240.109C235.322 243.33 231.605 246.174 226.761 247.517C226.608 247.563 226.441 247.612 226.284 247.648C224.826 246.566 223.132 244.66 221.754 242.601" stroke="black" stroke-width="3" stroke-miterlimit="10"/>
<path d="M248.43 194.436C235.328 207.084 229.165 233.751 226.767 247.521C226.57 248.682 226.403 249.744 226.242 250.702" stroke="black" stroke-width="3" stroke-miterlimit="10"/>
<path d="M249.643 258.458L243.633 290.363C243.49 291.236 243.007 292.037 242.269 292.621C241.531 293.206 240.586 293.538 239.602 293.557H208.084C207.09 293.537 206.137 293.198 205.396 292.603C204.656 292.008 204.177 291.194 204.046 290.31L198.488 258.455L249.643 258.458Z" stroke="black" stroke-width="3" stroke-miterlimit="10"/>
<path d="M255.362 254.894C255.308 255.84 254.858 256.734 254.101 257.394C253.344 258.055 252.337 258.435 251.281 258.458H196.937C195.893 258.435 194.896 258.063 194.142 257.415C193.388 256.766 192.932 255.888 192.863 254.953C192.633 252.665 194.521 250.703 196.937 250.703H251.281C253.675 250.706 255.556 252.639 255.362 254.894Z" stroke="black" stroke-width="3" stroke-miterlimit="10"/>
<path d="M218.2 247.08C220.532 245.004 223.39 240.375 224.654 236.596C225.697 233.48 223.863 230.273 223.441 227.076C222.785 222.071 225.554 216.689 222.635 212.152C221.006 209.621 217.839 207.823 215.937 205.401C212.434 200.938 213.779 195.23 211.541 190.336C208.804 184.35 200.214 180.175 191.773 180.731C192.58 183.576 193.127 186.476 193.41 189.401C193.661 192.017 193.045 194.933 193.723 197.47C194.791 201.556 200.52 204.031 201.224 208.219C201.843 211.92 198.049 215.385 198.673 219.154C199.343 223.195 204.777 225.428 206.785 229.011C208.418 231.918 207.653 235.252 208.498 238.338C209.559 242.196 213.316 245.586 218.2 247.08Z" stroke="black" stroke-width="3" stroke-miterlimit="10"/>
<path d="M196.93 185.42C209.507 200.079 215.426 230.97 217.754 246.917C217.951 248.3 218.119 249.569 218.268 250.703" stroke="black" stroke-width="3" stroke-miterlimit="10"/>
<path d="M215.93 205.401C215.93 205.401 216.793 192.667 224.053 188.797C231.313 184.926 231.16 206.617 231.16 206.617" stroke="black" stroke-width="3" stroke-miterlimit="10"/>
<path d="M223.851 215.443C223.851 215.443 222.367 208.159 224.97 200.996" stroke="black" stroke-width="3" stroke-miterlimit="10"/>
</svg>
