<svg width="26" height="32" viewBox="0 0 26 32" fill="none" xmlns="http://www.w3.org/2000/svg">
<path d="M0.332031 6.89453C0.332031 5.9497 0.707365 5.04356 1.37546 4.37546C2.04356 3.70737 2.9497 3.33203 3.89453 3.33203H22.1029C22.5707 3.33203 23.034 3.42418 23.4662 3.60321C23.8984 3.78224 24.2911 4.04465 24.6219 4.37546C24.9527 4.70627 25.2152 5.099 25.3942 5.53122C25.5732 5.96344 25.6654 6.4267 25.6654 6.89453V28.2695C25.6654 28.7374 25.5732 29.2006 25.3942 29.6328C25.2152 30.0651 24.9527 30.4578 24.6219 30.7886C24.2911 31.1194 23.8984 31.3818 23.4662 31.5609C23.034 31.7399 22.5707 31.832 22.1029 31.832H3.89453C2.9497 31.832 2.04356 31.4567 1.37546 30.7886C0.707365 30.1205 0.332031 29.2144 0.332031 28.2695V6.89453Z" fill="url(#paint0_linear_4919_75472)"/>
<path d="M0.332031 6.89453C0.332031 5.9497 0.707365 5.04356 1.37546 4.37546C2.04356 3.70737 2.9497 3.33203 3.89453 3.33203H22.1029C22.5707 3.33203 23.034 3.42418 23.4662 3.60321C23.8984 3.78224 24.2911 4.04465 24.6219 4.37546C24.9527 4.70627 25.2152 5.099 25.3942 5.53122C25.5732 5.96344 25.6654 6.4267 25.6654 6.89453V28.2695C25.6654 28.7374 25.5732 29.2006 25.3942 29.6328C25.2152 30.0651 24.9527 30.4578 24.6219 30.7886C24.2911 31.1194 23.8984 31.3818 23.4662 31.5609C23.034 31.7399 22.5707 31.832 22.1029 31.832H3.89453C2.9497 31.832 2.04356 31.4567 1.37546 30.7886C0.707365 30.1205 0.332031 29.2144 0.332031 28.2695V6.89453Z" fill="url(#paint1_radial_4919_75472)" fill-opacity="0.7"/>
<path d="M0.332031 6.89453C0.332031 5.9497 0.707365 5.04356 1.37546 4.37546C2.04356 3.70737 2.9497 3.33203 3.89453 3.33203H22.1029C22.5707 3.33203 23.034 3.42418 23.4662 3.60321C23.8984 3.78224 24.2911 4.04465 24.6219 4.37546C24.9527 4.70627 25.2152 5.099 25.3942 5.53122C25.5732 5.96344 25.6654 6.4267 25.6654 6.89453V28.2695C25.6654 28.7374 25.5732 29.2006 25.3942 29.6328C25.2152 30.0651 24.9527 30.4578 24.6219 30.7886C24.2911 31.1194 23.8984 31.3818 23.4662 31.5609C23.034 31.7399 22.5707 31.832 22.1029 31.832H3.89453C2.9497 31.832 2.04356 31.4567 1.37546 30.7886C0.707365 30.1205 0.332031 29.2144 0.332031 28.2695V6.89453Z" fill="url(#paint2_radial_4919_75472)" fill-opacity="0.4"/>
<path d="M6.66406 3.72852C6.66406 4.67335 7.0394 5.57948 7.70749 6.24758C8.37559 6.91568 9.28173 7.29102 10.2266 7.29102H15.7682C16.7131 7.29102 17.6192 6.91568 18.2873 6.24758C18.9554 5.57948 19.3307 4.67335 19.3307 3.72852C19.3307 2.78368 18.9554 1.87755 18.2873 1.20945C17.6192 0.541349 16.7131 0.166016 15.7682 0.166016H10.2266C9.28173 0.166016 8.37559 0.541349 7.70749 1.20945C7.0394 1.87755 6.66406 2.78368 6.66406 3.72852Z" fill="url(#paint3_linear_4919_75472)"/>
<path d="M20.9645 14.4645C21.0812 14.3558 21.1747 14.2247 21.2396 14.079C21.3046 13.9333 21.3394 13.7761 21.3423 13.6167C21.3451 13.4572 21.3157 13.2988 21.256 13.151C21.1963 13.0031 21.1074 12.8688 20.9946 12.756C20.8819 12.6433 20.7476 12.5544 20.5997 12.4946C20.4518 12.4349 20.2934 12.4056 20.134 12.4084C19.9746 12.4112 19.8173 12.4461 19.6716 12.511C19.526 12.5759 19.3949 12.6695 19.2862 12.7862L11.417 20.6553L8.29783 17.5362C8.07272 17.3264 7.77498 17.2122 7.46733 17.2176C7.15969 17.2231 6.86616 17.3477 6.64859 17.5653C6.43102 17.7828 6.30639 18.0764 6.30097 18.384C6.29554 18.6916 6.40973 18.9894 6.61949 19.2145L10.5778 23.1728C10.8005 23.3952 11.1023 23.5201 11.417 23.5201C11.7317 23.5201 12.0335 23.3952 12.2562 23.1728L20.9645 14.4645Z" fill="url(#paint4_linear_4919_75472)" fill-opacity="0.9"/>
<defs>
<linearGradient id="paint0_linear_4919_75472" x1="0.332031" y1="6.18203" x2="22.7299" y2="34.1801" gradientUnits="userSpaceOnUse">
<stop stop-color="#36DFF1"/>
<stop offset="1" stop-color="#0094F0"/>
</linearGradient>
<radialGradient id="paint1_radial_4919_75472" cx="0" cy="0" r="1" gradientUnits="userSpaceOnUse" gradientTransform="translate(12.9987 1.7487) rotate(90) scale(9.76746 10.6875)">
<stop stop-color="#0A1852"/>
<stop offset="0.9" stop-color="#0A1852" stop-opacity="0"/>
</radialGradient>
<radialGradient id="paint2_radial_4919_75472" cx="0" cy="0" r="1" gradientUnits="userSpaceOnUse" gradientTransform="translate(12.9987 4.31053) rotate(90) scale(4.42265 7.84222)">
<stop stop-color="#0A1852"/>
<stop offset="1" stop-color="#0A1852" stop-opacity="0"/>
</radialGradient>
<linearGradient id="paint3_linear_4919_75472" x1="12.9974" y1="0.166016" x2="12.9974" y2="7.29102" gradientUnits="userSpaceOnUse">
<stop stop-color="#FFE06B"/>
<stop offset="1" stop-color="#FAB500"/>
</linearGradient>
<linearGradient id="paint4_linear_4919_75472" x1="22.5003" y1="26.292" x2="10.2532" y2="9.24266" gradientUnits="userSpaceOnUse">
<stop stop-color="#9DEAFF"/>
<stop offset="1" stop-color="white"/>
</linearGradient>
</defs>
</svg>
